<svg xmlns="http://www.w3.org/2000/svg" xmlns:xlink="http://www.w3.org/1999/xlink" width="195" height="195" viewBox="0 0 195 195">
  <defs>
    <clipPath id="clip-path">
      <rect id="Rectángulo_54331" data-name="Rectángulo 54331" width="150.654" height="92.203" fill="none"/>
    </clipPath>
  </defs>
  <g id="Grupo_98379" data-name="Grupo 98379" transform="translate(-418.5 -2363)">
    <circle id="Elipse_4799" data-name="Elipse 4799" cx="97.5" cy="97.5" r="97.5" transform="translate(418.5 2363)" fill="#34af00"/>
    <g id="Grupo_98279" data-name="Grupo 98279" transform="translate(440.173 2414.398)">
      <rect id="Rectángulo_54321" data-name="Rectángulo 54321" width="150.654" height="92.203" fill="#8c9fa4"/>
      <rect id="Rectángulo_54322" data-name="Rectángulo 54322" width="140.779" height="85.073" transform="translate(4.938 4.108)" fill="#767574"/>
      <rect id="Rectángulo_54323" data-name="Rectángulo 54323" width="120.721" height="70.294" transform="translate(13.465 10.202)" fill="#fff"/>
      <rect id="Rectángulo_54324" data-name="Rectángulo 54324" width="107.797" height="2.366" transform="translate(20.404 28.075)" fill="#9c9b9d"/>
      <rect id="Rectángulo_54325" data-name="Rectángulo 54325" width="107.797" height="2.366" transform="translate(20.404 33.147)" fill="#9c9b9d"/>
      <rect id="Rectángulo_54326" data-name="Rectángulo 54326" width="107.797" height="2.366" transform="translate(20.404 38.216)" fill="#9c9b9d"/>
      <rect id="Rectángulo_54327" data-name="Rectángulo 54327" width="107.797" height="2.366" transform="translate(20.404 43.289)" fill="#9c9b9d"/>
      <rect id="Rectángulo_54328" data-name="Rectángulo 54328" width="107.797" height="2.362" transform="translate(20.404 48.362)" fill="#9c9b9d"/>
      <path id="Trazado_132861" data-name="Trazado 132861" d="M31.108,17.518l-5.043,10.3,3.991-2.1.631,4.416,5.467-11.561Z" transform="translate(71.804 48.259)" fill="#d43433"/>
      <path id="Trazado_132862" data-name="Trazado 132862" d="M34.131,17.518l5.046,10.3-4-2.1-.631,4.416L29.088,18.573Z" transform="translate(80.132 48.259)" fill="#d43433"/>
      <g id="Grupo_98278" data-name="Grupo 98278">
        <g id="Grupo_98277" data-name="Grupo 98277" clip-path="url(#clip-path)">
          <path id="Trazado_132863" data-name="Trazado 132863" d="M43.133,22.245a8.2,8.2,0,1,1-8.2-8.2,8.2,8.2,0,0,1,8.2,8.2" transform="translate(73.653 38.7)" fill="#e53a3c"/>
          <path id="Trazado_132864" data-name="Trazado 132864" d="M39.123,20.548a5.886,5.886,0,1,1-5.884-5.884,5.889,5.889,0,0,1,5.884,5.884" transform="translate(75.349 40.396)" fill="#d43433"/>
          <path id="Trazado_132865" data-name="Trazado 132865" d="M15.019,3.872A4.159,4.159,0,0,1,17.948,5.16L16.72,6.542a2.385,2.385,0,0,0-1.671-.747c-1.382,0-2.459,1.2-2.459,3.188,0,2.035.939,3.222,2.4,3.222a2.461,2.461,0,0,0,1.881-.882L18.1,12.673a4.041,4.041,0,0,1-3.143,1.453c-2.561,0-4.656-1.746-4.656-5.065,0-3.278,2.17-5.189,4.72-5.189" transform="translate(28.372 10.667)" fill="#767574"/>
          <path id="Trazado_132866" data-name="Trazado 132866" d="M12.777,3.92h6.192V5.8H15.007V7.787h3.368v1.87H15.007v2.272h4.112v1.885H12.777Z" transform="translate(35.198 10.799)" fill="#767574"/>
          <path id="Trazado_132867" data-name="Trazado 132867" d="M17.222,8.475h1.153c1.172,0,1.806-.5,1.806-1.476s-.635-1.307-1.806-1.307H17.222Zm3.128,5.339-1.9-3.567H17.222v3.567h-2.23V3.92h3.567c2.1,0,3.807.728,3.807,3.079a2.891,2.891,0,0,1-1.757,2.854l2.245,3.961Z" transform="translate(41.3 10.799)" fill="#767574"/>
          <path id="Trazado_132868" data-name="Trazado 132868" d="M19.909,5.8H17.191V3.92h7.682V5.8H22.155v8.013H19.909Z" transform="translate(47.358 10.799)" fill="#767574"/>
          <rect id="Rectángulo_54329" data-name="Rectángulo 54329" width="2.23" height="9.894" transform="translate(73.778 14.719)" fill="#767574"/>
          <path id="Trazado_132869" data-name="Trazado 132869" d="M20.865,3.92h6.24V5.8H23.1v2.29h3.428V9.977H23.1v3.837H20.865Z" transform="translate(57.479 10.799)" fill="#767574"/>
          <rect id="Rectángulo_54330" data-name="Rectángulo 54330" width="2.23" height="9.894" transform="translate(86.3 14.719)" fill="#767574"/>
          <path id="Trazado_132870" data-name="Trazado 132870" d="M28.795,3.872A4.175,4.175,0,0,1,31.727,5.16L30.5,6.542a2.37,2.37,0,0,0-1.667-.747c-1.386,0-2.459,1.2-2.459,3.188,0,2.035.939,3.222,2.4,3.222a2.455,2.455,0,0,0,1.881-.882l1.232,1.352a4.052,4.052,0,0,1-3.143,1.453c-2.565,0-4.66-1.746-4.66-5.065,0-3.278,2.174-5.189,4.72-5.189" transform="translate(66.322 10.667)" fill="#767574"/>
          <path id="Trazado_132871" data-name="Trazado 132871" d="M31.666,9.717l-.225-.912c-.278-.984-.548-2.155-.807-3.184h-.06c-.244,1.044-.5,2.2-.773,3.184l-.244.912Zm.454,1.742H29.1l-.608,2.354H26.218l3.1-9.894H32l3.094,9.894H32.729Z" transform="translate(72.226 10.799)" fill="#767574"/>
          <path id="Trazado_132872" data-name="Trazado 132872" d="M31.213,5.8H28.5V3.92h7.679V5.8H33.462v8.013H31.213Z" transform="translate(78.506 10.799)" fill="#767574"/>
          <path id="Trazado_132873" data-name="Trazado 132873" d="M30.956,3.92h6.192V5.8H33.186V7.787h3.368v1.87H33.186v2.272H37.3v1.885H30.956Z" transform="translate(85.278 10.799)" fill="#767574"/>
          <path id="Trazado_132874" data-name="Trazado 132874" d="M29.869,24.963a1.059,1.059,0,0,0-.608.207,4.071,4.071,0,0,0-1.28,2.7,21.125,21.125,0,0,0,.1,5.463,8.943,8.943,0,0,0,.327,1.427,24.273,24.273,0,0,0,2.384-6.041,4.563,4.563,0,0,0,0-3.214,1.079,1.079,0,0,0-.916-.537M20.61,15.392a3.516,3.516,0,0,0-.834.1c-2.692.638-3.875,4.025-4.078,6.98A28.064,28.064,0,0,0,16.772,32.4a10.673,10.673,0,0,0,2.459,4.626,8.144,8.144,0,0,0,4.9-3.751,17.574,17.574,0,0,0,1.979-8.092,13.2,13.2,0,0,0-1.036-6.8,5.484,5.484,0,0,0-4.464-2.989m-.184,22.525a4.157,4.157,0,0,0,.691.3c2.407.83,5.028-.616,6.462-2.328A8.136,8.136,0,0,1,26.9,33.5a21.482,21.482,0,0,1-.244-3.364,13.782,13.782,0,0,1-1.5,3.744,9.319,9.319,0,0,1-4.731,4.033m2.133,1.738a5.582,5.582,0,0,1-1.832-.3A5.891,5.891,0,0,1,18.864,38.3a6.794,6.794,0,0,1-1.408.034,6.163,6.163,0,0,1-4.423-2.6,4.942,4.942,0,0,1-.871-4.127.6.6,0,1,1,1.156.3,3.777,3.777,0,0,0,.691,3.139,5,5,0,0,0,3.545,2.1c.068.008.135.011.2.015a13.067,13.067,0,0,1-2.125-4.419A29.207,29.207,0,0,1,14.5,22.391c.116-1.641.815-7.067,4.994-8.062,2.775-.665,5.444,1.254,6.631,3.492A14.3,14.3,0,0,1,27.3,25.237c-.011.233-.026.469-.041.713a4.03,4.03,0,0,1,1.31-1.761,2.242,2.242,0,0,1,3.248.71c.819,1.416.293,3.537.113,4.153a22.823,22.823,0,0,1-2.9,6.916,2.343,2.343,0,0,0,.522.484c1.307.875,3.225.049,4.123-1.247a7.447,7.447,0,0,0,1.115-3.09,3.254,3.254,0,0,1,.315-2.309.6.6,0,0,1,1.115.349c-.056.6-.113,1.243-.21,1.9a3.259,3.259,0,0,0,.124.33,2.02,2.02,0,0,0,3.391.672,2.324,2.324,0,0,0,.751-1.374,1.977,1.977,0,0,1,.008-.631.634.634,0,0,1,.6-.5.6.6,0,0,1,.582.526,2.844,2.844,0,0,1,.015.537,1.159,1.159,0,0,0,.289.466,1.972,1.972,0,0,0,1.615.541,6.07,6.07,0,0,0,2.658-1.483l.391-.3c.969-.751,2.452-1.7,4.036-1.34a.6.6,0,0,1,.451.717.591.591,0,0,1-.713.451c-.845-.2-1.81.165-3.045,1.119l-.379.3a7.073,7.073,0,0,1-3.218,1.723,3.156,3.156,0,0,1-2.516-.758,3.874,3.874,0,0,1-.71.89,3.39,3.39,0,0,1-2.933.912,3.212,3.212,0,0,1-1.772-1.055,7.274,7.274,0,0,1-.976,2.091c-1.247,1.791-3.864,2.842-5.771,1.558a3.5,3.5,0,0,1-.62-.526,8.134,8.134,0,0,1-5.711,2.737" transform="translate(33.11 39.106)" fill="#767574"/>
        </g>
      </g>
    </g>
  </g>
</svg>
