<svg xmlns="http://www.w3.org/2000/svg" xmlns:xlink="http://www.w3.org/1999/xlink" width="195" height="195" viewBox="0 0 195 195">
  <defs>
    <clipPath id="clip-path">
      <rect id="Rectángulo_54340" data-name="Rectángulo 54340" width="129.64" height="77.249" fill="none"/>
    </clipPath>
  </defs>
  <g id="Grupo_98380" data-name="Grupo 98380" transform="translate(-987.5 -2363)">
    <circle id="Elipse_4800" data-name="Elipse 4800" cx="97.5" cy="97.5" r="97.5" transform="translate(987.5 2363)" fill="#ffa726"/>
    <g id="Grupo_98282" data-name="Grupo 98282" transform="translate(1020.18 2421.876)">
      <rect id="Rectángulo_54332" data-name="Rectángulo 54332" width="129.64" height="77.249" fill="#fff"/>
      <rect id="Rectángulo_54333" data-name="Rectángulo 54333" width="107.007" height="2.674" transform="translate(11.857 18.095)" fill="#c7c6c8"/>
      <rect id="Rectángulo_54334" data-name="Rectángulo 54334" width="107.007" height="2.673" transform="translate(11.857 23.824)" fill="#c7c6c8"/>
      <rect id="Rectángulo_54335" data-name="Rectángulo 54335" width="107.007" height="2.673" transform="translate(11.857 29.552)" fill="#c7c6c8"/>
      <rect id="Rectángulo_54336" data-name="Rectángulo 54336" width="107.007" height="2.673" transform="translate(11.857 35.28)" fill="#c7c6c8"/>
      <rect id="Rectángulo_54337" data-name="Rectángulo 54337" width="107.007" height="2.673" transform="translate(11.857 41.008)" fill="#c7c6c8"/>
      <path id="Trazado_132875" data-name="Trazado 132875" d="M26.605,51.553l-4.981,10.17,3.943-2.076L26.191,64l5.4-11.415Z" transform="translate(3.647 8.694)" fill="#d43433"/>
      <path id="Trazado_132876" data-name="Trazado 132876" d="M36.2,51.553l4.981,10.17-3.943-2.076L36.61,64l-5.4-11.415Z" transform="translate(5.264 8.694)" fill="#d43433"/>
      <g id="Grupo_98281" data-name="Grupo 98281">
        <g id="Grupo_98280" data-name="Grupo 98280" clip-path="url(#clip-path)">
          <path id="Trazado_132877" data-name="Trazado 132877" d="M39.943,48.636a8.094,8.094,0,1,1-8.094-8.094,8.094,8.094,0,0,1,8.094,8.094" transform="translate(4.006 6.837)" fill="#e53a3c"/>
          <path id="Trazado_132878" data-name="Trazado 132878" d="M37.331,48.307a5.811,5.811,0,1,1-5.812-5.812,5.811,5.811,0,0,1,5.812,5.812" transform="translate(4.336 7.167)" fill="#d43433"/>
          <path id="Trazado_132879" data-name="Trazado 132879" d="M34.967,6.9a2.7,2.7,0,0,1,1.9.839l-.8.9a1.533,1.533,0,0,0-1.085-.484c-.9,0-1.6.779-1.6,2.071,0,1.322.611,2.091,1.558,2.091a1.59,1.59,0,0,0,1.224-.573l.8.878a2.625,2.625,0,0,1-2.042.948A2.976,2.976,0,0,1,31.9,10.274,3.094,3.094,0,0,1,34.967,6.9" transform="translate(5.38 1.164)" fill="#767574"/>
          <path id="Trazado_132880" data-name="Trazado 132880" d="M37.074,7H41.1V8.225H38.523V9.517h2.189V10.73H38.523v1.48H41.2v1.222H37.074Z" transform="translate(6.252 1.181)" fill="#767574"/>
          <path id="Trazado_132881" data-name="Trazado 132881" d="M43.148,9.961h.75c.76,0,1.173-.326,1.173-.957s-.414-.847-1.173-.847h-.75Zm2.032,3.471-1.233-2.316h-.8v2.316H41.7V7h2.317c1.361,0,2.475.473,2.475,2a1.879,1.879,0,0,1-1.143,1.855l1.46,2.573Z" transform="translate(7.032 1.181)" fill="#767574"/>
          <path id="Trazado_132882" data-name="Trazado 132882" d="M48.056,8.225H46.29V7h4.99V8.225H49.515v5.206h-1.46Z" transform="translate(7.807 1.181)" fill="#767574"/>
          <rect id="Rectángulo_54338" data-name="Rectángulo 54338" width="1.449" height="6.429" transform="translate(60.094 8.184)" fill="#767574"/>
          <path id="Trazado_132883" data-name="Trazado 132883" d="M53.962,7h4.053V8.225h-2.6V9.714H57.64v1.224H55.411v2.494H53.962Z" transform="translate(9.1 1.181)" fill="#767574"/>
          <rect id="Rectángulo_54339" data-name="Rectángulo 54339" width="1.45" height="6.429" transform="translate(68.23 8.184)" fill="#767574"/>
          <path id="Trazado_132884" data-name="Trazado 132884" d="M63.73,6.9a2.7,2.7,0,0,1,1.9.839l-.8.9a1.533,1.533,0,0,0-1.084-.484c-.9,0-1.6.779-1.6,2.071,0,1.322.611,2.091,1.558,2.091a1.593,1.593,0,0,0,1.224-.573l.8.878a2.626,2.626,0,0,1-2.042.948,2.976,2.976,0,0,1-3.027-3.294A3.094,3.094,0,0,1,63.73,6.9" transform="translate(10.231 1.164)" fill="#767574"/>
          <path id="Trazado_132885" data-name="Trazado 132885" d="M68.676,10.77l-.147-.591c-.178-.642-.356-1.4-.524-2.071h-.04c-.158.68-.325,1.429-.5,2.071l-.158.591Zm.3,1.135H67.009l-.4,1.527H65.136L67.147,7h1.746L70.9,13.432H69.366Z" transform="translate(10.985 1.181)" fill="#767574"/>
          <path id="Trazado_132886" data-name="Trazado 132886" d="M71.661,8.225H69.9V7h4.989V8.225H73.121v5.206h-1.46Z" transform="translate(11.788 1.181)" fill="#767574"/>
          <path id="Trazado_132887" data-name="Trazado 132887" d="M75.027,7h4.024V8.225H76.477V9.517h2.188V10.73H76.477v1.48h2.672v1.222H75.027Z" transform="translate(12.653 1.181)" fill="#767574"/>
          <path id="Trazado_132888" data-name="Trazado 132888" d="M79.892,47.2a.7.7,0,0,0-.407.138,2.72,2.72,0,0,0-.858,1.807,14.1,14.1,0,0,0,.065,3.665,5.757,5.757,0,0,0,.217.956,16.212,16.212,0,0,0,1.6-4.049,3.082,3.082,0,0,0,0-2.157.673.673,0,0,0-.449-.338.7.7,0,0,0-.168-.021m-6.209-6.418a2.431,2.431,0,0,0-.56.065c-1.8.43-2.6,2.7-2.735,4.683a18.847,18.847,0,0,0,.722,6.655,7.153,7.153,0,0,0,1.649,3.1,5.439,5.439,0,0,0,3.285-2.516,11.775,11.775,0,0,0,1.328-5.426,8.859,8.859,0,0,0-.7-4.559,3.673,3.673,0,0,0-2.994-2M73.56,55.893a3.152,3.152,0,0,0,.465.2,4.223,4.223,0,0,0,4.333-1.56,5.449,5.449,0,0,1-.457-1.6,14.726,14.726,0,0,1-.164-2.254,9.2,9.2,0,0,1-1,2.509,6.259,6.259,0,0,1-3.174,2.707m1.432,1.165a3.721,3.721,0,0,1-1.228-.2,4,4,0,0,1-1.252-.706,4.456,4.456,0,0,1-.942.023A4.134,4.134,0,0,1,68.6,54.429a3.312,3.312,0,0,1-.584-2.769.4.4,0,1,1,.776.2,2.526,2.526,0,0,0,.462,2.1,3.363,3.363,0,0,0,2.379,1.408c.044,0,.089.007.133.008a8.774,8.774,0,0,1-1.426-2.965,19.633,19.633,0,0,1-.754-6.937c.078-1.1.547-4.74,3.351-5.406a4.211,4.211,0,0,1,4.446,2.343,9.543,9.543,0,0,1,.788,4.973c-.007.155-.015.314-.027.478a2.706,2.706,0,0,1,.88-1.179,1.5,1.5,0,0,1,2.177.474,3.98,3.98,0,0,1,.077,2.785,15.317,15.317,0,0,1-1.948,4.64,1.611,1.611,0,0,0,.351.325,2.165,2.165,0,0,0,2.766-.837A4.992,4.992,0,0,0,83.2,52a2.183,2.183,0,0,1,.209-1.55.4.4,0,0,1,.748.235c-.036.4-.075.831-.14,1.273a1.921,1.921,0,0,0,.083.22,1.357,1.357,0,0,0,2.274.455,1.562,1.562,0,0,0,.5-.923,1.36,1.36,0,0,1,0-.424.428.428,0,0,1,.4-.334.4.4,0,0,1,.389.352,1.952,1.952,0,0,1,.011.36.754.754,0,0,0,.194.313,1.327,1.327,0,0,0,1.082.363,4.087,4.087,0,0,0,1.785-1l.261-.2a3.4,3.4,0,0,1,2.708-.9.4.4,0,0,1-.176.782,2.537,2.537,0,0,0-2.042.749l-.255.2a4.72,4.72,0,0,1-2.16,1.156,2.106,2.106,0,0,1-1.686-.51,2.6,2.6,0,0,1-.476.6,2.276,2.276,0,0,1-1.968.61,2.148,2.148,0,0,1-1.187-.706,4.894,4.894,0,0,1-.656,1.4,2.939,2.939,0,0,1-3.871,1.045,2.424,2.424,0,0,1-.414-.353,5.454,5.454,0,0,1-3.831,1.836" transform="translate(11.455 6.743)" fill="#767574"/>
        </g>
      </g>
    </g>
  </g>
</svg>
