<svg xmlns="http://www.w3.org/2000/svg" width="910" height="556" viewBox="0 0 910 556">
  <g id="Grupo_92776" data-name="Grupo 92776" transform="translate(-216 -4788)">
    <circle id="Elipse_4783" data-name="Elipse 4783" cx="132" cy="132" r="132" transform="translate(485 4905)" fill="#79e949"/>
    <circle id="Elipse_4784" data-name="Elipse 4784" cx="97" cy="97" r="97" transform="translate(661 4788)" fill="#ffa726"/>
    <circle id="Elipse_4788" data-name="Elipse 4788" cx="97" cy="97" r="97" transform="translate(307 4916)" fill="#34af00"/>
    <circle id="Elipse_4787" data-name="Elipse 4787" cx="97" cy="97" r="97" transform="translate(513 5139)" fill="#324700"/>
    <circle id="Elipse_4785" data-name="Elipse 4785" cx="97" cy="97" r="97" transform="translate(866 4872)" fill="#d9a256"/>
    <circle id="Elipse_4786" data-name="Elipse 4786" cx="108" cy="108" r="108" transform="translate(842 5128)" fill="#ffd54f"/>
    <text id="PLAN_DE_CONTINGENCIA" data-name="PLAN DE CONTINGENCIA" transform="translate(520 5028)" font-size="18" font-family="Roboto-Black, Roboto" font-weight="800"><tspan x="11.847" y="17">Plan de contingencia</tspan></text>
    <text id="Se_emplea_cuando_la_situación_lo_requiere" data-name="Se emplea cuando la situación lo requiere" transform="translate(690 4838)" font-size="18" font-family="Roboto-Regular, Roboto"><tspan x="26.611" y="17">Se emplea </tspan><tspan x="29.45" y="42">cuando la </tspan><tspan x="22.34" y="67">situación lo </tspan><tspan x="36.011" y="92">requiere</tspan></text>
    <text id="Es_específico_para_una_situación_o_evento" data-name="Es específico para una situación o evento" transform="translate(336 4962)" font-size="18" font-family="Roboto-Regular, Roboto"><tspan x="15.528" y="17">Es específico </tspan><tspan x="33.739" y="42">para una </tspan><tspan x="24.524" y="67">situación o </tspan><tspan x="41.768" y="92">evento</tspan></text>
    <text id="Establece_acciones_y_responsables" data-name="Establece acciones y responsables" transform="translate(542 5201)" fill="#fff" font-size="18" font-family="Roboto-Regular, Roboto"><tspan x="29.428" y="17">Establece </tspan><tspan x="26.005" y="42">acciones y </tspan><tspan x="14.803" y="67">responsables</tspan></text>
    <text id="Su_alcance_se_define_por_la_zona_de_influencia_del_peligro" data-name="Su alcance se define por la zona de influencia del peligro" transform="translate(895 4912)" font-size="18" font-family="Roboto-Regular, Roboto"><tspan x="13.204" y="17">Su alcance se </tspan><tspan x="19.176" y="42">define por la </tspan><tspan x="37.044" y="67">zona de </tspan><tspan x="15.498" y="92">influencia del </tspan><tspan x="41.175" y="117">peligro</tspan></text>
    <text id="Determina_los_procedimientos_específicos_para_la_respuesta_al_evento" data-name="Determina los procedimientos específicos para la respuesta al evento" transform="translate(882 5171)" font-size="18" font-family="Roboto-Regular, Roboto"><tspan x="12.958" y="17">Determina los </tspan><tspan x="6.19" y="42">procedimientos </tspan><tspan x="2.934" y="67">específicos para </tspan><tspan x="10.259" y="92">la respuesta al </tspan><tspan x="41.768" y="117">evento</tspan></text>
    <circle id="Elipse_4789" data-name="Elipse 4789" cx="17.5" cy="17.5" r="17.5" transform="translate(792 5101)" fill="#34af00"/>
    <circle id="Elipse_4790" data-name="Elipse 4790" cx="27.5" cy="27.5" r="27.5" transform="translate(772 5004)" fill="#ffa726"/>
    <circle id="Elipse_4791" data-name="Elipse 4791" cx="16" cy="16" r="16" transform="translate(456 5139)" fill="#ffd54f"/>
    <circle id="Elipse_4792" data-name="Elipse 4792" cx="21" cy="21" r="21" transform="translate(1084 5169)" fill="#ffd54f"/>
    <circle id="Elipse_4793" data-name="Elipse 4793" cx="6" cy="6" r="6" transform="translate(1058 4826)" fill="#ffa726"/>
    <circle id="Elipse_4794" data-name="Elipse 4794" cx="20" cy="20" r="20" transform="translate(216 4942)" fill="#34af00"/>
    <circle id="Elipse_4795" data-name="Elipse 4795" cx="19.5" cy="19.5" r="19.5" transform="translate(319 5305)" fill="#ffa726"/>
  </g>
</svg>
