<svg xmlns="http://www.w3.org/2000/svg" xmlns:xlink="http://www.w3.org/1999/xlink" width="168.235" height="168.234" viewBox="0 0 168.235 168.234">
  <defs>
    <clipPath id="clip-path">
      <rect id="Rectángulo_54183" data-name="Rectángulo 54183" width="107.27" height="106.428"/>
    </clipPath>
  </defs>
  <g id="Grupo_98375" data-name="Grupo 98375" transform="translate(-1939.706 10796.26)">
    <path id="Trazado_130994" data-name="Trazado 130994" d="M578.2,177.011A84.118,84.118,0,1,1,494.08,92.894,84.117,84.117,0,0,1,578.2,177.011" transform="translate(1529.744 -10889.153)" fill="#ffd54f"/>
    <g id="Grupo_98046" data-name="Grupo 98046" transform="translate(1970.189 -10765.357)">
      <g id="Grupo_98045" data-name="Grupo 98045" clip-path="url(#clip-path)">
        <path id="Trazado_131014" data-name="Trazado 131014" d="M94.341,38.227H93.012a39.4,39.4,0,0,0-78.756,0H12.93A12.945,12.945,0,0,0,0,51.157V93.5a12.944,12.944,0,0,0,12.93,12.929H94.341A12.943,12.943,0,0,0,107.27,93.5V51.157a12.944,12.944,0,0,0-12.929-12.93M53.634,6.485A32.951,32.951,0,0,1,86.523,38.227H78.446a24.838,24.838,0,0,0-49.622,0H20.746A32.95,32.95,0,0,1,53.634,6.485M71.95,38.227H35.322a18.351,18.351,0,0,1,36.628,0M100.786,93.5a6.453,6.453,0,0,1-6.445,6.444H12.93A6.453,6.453,0,0,1,6.484,93.5V51.157a6.454,6.454,0,0,1,6.446-6.445H94.341a6.453,6.453,0,0,1,6.445,6.445Z"/>
        <path id="Trazado_131015" data-name="Trazado 131015" d="M46.764,44.311a13.525,13.525,0,0,0-8.995,23.624V78.169a3.242,3.242,0,0,0,3.242,3.242h11.5a3.242,3.242,0,0,0,3.242-3.242V67.935a13.525,13.525,0,0,0-8.994-23.624M50.7,63.672a3.244,3.244,0,0,0-1.426,2.686v8.569H44.254V66.358a3.244,3.244,0,0,0-1.426-2.686,7.038,7.038,0,1,1,7.871,0" transform="translate(6.872 9.16)"/>
      </g>
    </g>
  </g>
</svg>
