<svg xmlns="http://www.w3.org/2000/svg" xmlns:xlink="http://www.w3.org/1999/xlink" width="168.235" height="168.232" viewBox="0 0 168.235 168.232">
  <defs>
    <clipPath id="clip-path">
      <rect id="Rectángulo_54182" data-name="Rectángulo 54182" width="126.713" height="97.879" fill="none"/>
    </clipPath>
  </defs>
  <g id="Grupo_98374" data-name="Grupo 98374" transform="translate(-1070.464 -909.091)">
    <path id="Trazado_130996" data-name="Trazado 130996" d="M448.785,104.991a84.118,84.118,0,1,1-84.117-84.115,84.117,84.117,0,0,1,84.117,84.115" transform="translate(789.914 888.215)" fill="#bf8d48"/>
    <g id="Grupo_98044" data-name="Grupo 98044" transform="translate(1094.195 942.492)">
      <path id="Trazado_131012" data-name="Trazado 131012" d="M108.379,22.247,59.771,5.528,10.961,22.259,59.569,38.977Z" transform="translate(3.686 1.859)" fill="#6e4409"/>
      <g id="Grupo_98043" data-name="Grupo 98043" transform="translate(0 0)">
        <g id="Grupo_98042" data-name="Grupo 98042" clip-path="url(#clip-path)">
          <path id="Trazado_131013" data-name="Trazado 131013" d="M126.714,40.071a3.354,3.354,0,0,0-2.423-3.145l-18.015-5.738,18.011-5.715a3.252,3.252,0,0,0,0-6.29L64.628.182a3.846,3.846,0,0,0-2.332,0l-59.869,19a3.252,3.252,0,0,0,0,6.29l18.015,5.736L2.427,36.924a3.252,3.252,0,0,0,0,6.29L20.438,48.95,2.427,54.667a3.252,3.252,0,0,0,0,6.29l18.015,5.736L2.427,72.409a3.252,3.252,0,0,0,0,6.29l59.662,19a3.87,3.87,0,0,0,2.333,0l59.869-19a3.251,3.251,0,0,0,0-6.288l-18.015-5.738,18.011-5.717a3.251,3.251,0,0,0,0-6.288L106.277,48.93l18.011-5.717a3.356,3.356,0,0,0,2.427-3.143M14.647,22.332,63.459,6.84l48.607,15.481L63.256,37.813Zm97.418,53.217L63.256,91.04,14.649,75.56l16.844-5.345,30.592,9.743a3.87,3.87,0,0,0,2.333,0l30.8-9.775Zm0-17.743L63.256,73.3,14.647,57.817l16.846-5.345,30.592,9.743a3.87,3.87,0,0,0,2.333,0l30.8-9.775Zm-48.81-2.251L14.649,40.075l16.844-5.345,30.592,9.743a3.87,3.87,0,0,0,2.333,0l30.8-9.775,16.848,5.365Z" transform="translate(0 0)"/>
        </g>
      </g>
    </g>
  </g>
</svg>
