<svg xmlns="http://www.w3.org/2000/svg" xmlns:xlink="http://www.w3.org/1999/xlink" width="385.753" height="389.392" viewBox="0 0 385.753 389.392">
  <defs>
    <clipPath id="clip-path">
      <rect id="Rectángulo_54251" data-name="Rectángulo 54251" width="348.518" height="341.582" fill="none"/>
    </clipPath>
    <clipPath id="clip-path-2">
      <path id="Trazado_131091" data-name="Trazado 131091" d="M1993.482,588.6l-.058.085c-2.613,2.72-6.267,6.581-10.472,11.1-.3.331-.549.661-.865.992-17.1,18.4-42.035,46.875-42.035,55.653v173.8h.846c4.594,5.251,23.312,8.931,45.714,8.931,25.841,0,46.8-5.008,46.8-11.259,0-.267-.049-.736-.122-.736h.122l-.025-4.661-.243-31.058-.486-61.38c.146-13.076.086-25.427-.06-35.581-.134-9.556-.206-17.172-.206-21.6v-.2h-.464a23.606,23.606,0,0,0-.632-3.414c-3.2-11.945-24.905-20.415-18.22-36.413,1.361-3.242,3.562-6.357,4.437-9.258V623.6a136.91,136.91,0,0,1,15.485-19.475l-.791-.6-2.066-1.131-2.054-1.141-2.066-1.141-2.067-1.13-2.066-1.141-2.054-1.141-2.067-1.131-2.066-1.141-2.054-1.141-2.067-1.131-2.066-1.141-2.066-1.141-2.054-1.131-.268-.149-1.8-.992-2.066-1.141-2.064-1.141-1.637-.907s-1.512,1.547-4.076,4.191" transform="translate(-1940.052 -584.412)" fill="#ffd54f"/>
    </clipPath>
    <clipPath id="clip-path-3">
      <rect id="Rectángulo_54200" data-name="Rectángulo 54200" width="348.518" height="341.583" fill="none"/>
    </clipPath>
    <clipPath id="clip-path-4">
      <rect id="Rectángulo_54196" data-name="Rectángulo 54196" width="93.064" height="100.657" fill="none"/>
    </clipPath>
    <clipPath id="clip-path-5">
      <path id="Trazado_131092" data-name="Trazado 131092" d="M2033.115,1556.5a305.363,305.363,0,0,1-72.688,2.432c-6.855-.6-14.248-1.418-20.375-2.474v-97.057c2.626.448,5.693.853,8.61,1.226a305.7,305.7,0,0,0,83.893-1.088c.146,10.154.226,22.5.08,35.581Z" transform="translate(-1940.051 -1459.405)" fill="none"/>
    </clipPath>
    <linearGradient id="linear-gradient" x1="-1.62" y1="1.295" x2="-1.619" y2="1.295" gradientUnits="objectBoundingBox">
      <stop offset="0" stop-color="#aa80f9"/>
      <stop offset="0.996" stop-color="#6165d7"/>
      <stop offset="1" stop-color="#6165d7"/>
    </linearGradient>
    <clipPath id="clip-path-6">
      <rect id="Rectángulo_54197" data-name="Rectángulo 54197" width="63.5" height="60.161" fill="none"/>
    </clipPath>
    <clipPath id="clip-path-7">
      <rect id="Rectángulo_54199" data-name="Rectángulo 54199" width="93.355" height="239.373" fill="none"/>
    </clipPath>
    <clipPath id="clip-path-8">
      <path id="Trazado_131095" data-name="Trazado 131095" d="M2033.285,934.2c.073,0,.122.469.122.736,0,6.25-20.955,11.258-46.8,11.258-22.4,0-41.119-3.68-45.713-8.931h-.846v-173.8c0-8.778,24.933-37.255,42.035-55.653.316-.331.561-.661.865-.992a77.938,77.938,0,0,1,11.031,6.634s4.555,21.363-14.163,30.354c-15.46,7.423-35.158,32.946-31.269,58.8a44.185,44.185,0,0,0,5.855,16.212c9.238,15.444,25.11,30.216,24.66,48.7-.182,7.487-3.8,13.855-8.229,20.094-2.479,3.488-7.512,8.3-10.527,13.3-2.491,4.128-3.61,8.383-.741,12.116,4.242,5.514,15.558,5.813,22.182,7.189,16.968,3.541,35.237,3.68,51.62,9.322l.037,4.661Z" transform="translate(-1940.051 -706.816)" fill="none"/>
    </clipPath>
    <linearGradient id="linear-gradient-2" x1="-0.669" y1="1.115" x2="-0.668" y2="1.115" xlink:href="#linear-gradient"/>
    <clipPath id="clip-path-9">
      <path id="Trazado_131096" data-name="Trazado 131096" d="M2277.5,461.915l-20.481,24.968a2.367,2.367,0,0,0,.656,3.584l8.557,5.407,29.111,18.4a3.206,3.206,0,0,0,4.084-.586l20.492-24.958a6.663,6.663,0,0,0-1.872-10.058l-17.818-11.263-11.267-7.125a8.977,8.977,0,0,0-4.792-1.358,8.624,8.624,0,0,0-6.67,2.99" transform="translate(-2256.458 -458.925)" fill="none"/>
    </clipPath>
    <linearGradient id="linear-gradient-3" x1="-4.258" y1="5.055" x2="-4.257" y2="5.055" gradientUnits="objectBoundingBox">
      <stop offset="0" stop-color="#444b8c"/>
      <stop offset="0.996" stop-color="#26264f"/>
      <stop offset="1" stop-color="#26264f"/>
    </linearGradient>
    <clipPath id="clip-path-11">
      <rect id="Rectángulo_54211" data-name="Rectángulo 54211" width="53.312" height="45.61" fill="none"/>
    </clipPath>
    <clipPath id="clip-path-12">
      <path id="Trazado_131097" data-name="Trazado 131097" d="M2308.613,521.679a1.163,1.163,0,0,1-1.486.205l-.246-.157a.861.861,0,0,1-.234-1.3l19.5-23.495a1.163,1.163,0,0,1,1.486-.205l.246.157a.861.861,0,0,1,.234,1.3Z" transform="translate(-2306.444 -496.545)" fill="none"/>
    </clipPath>
    <linearGradient id="linear-gradient-4" x1="-8.379" y1="8.555" x2="-8.375" y2="8.555" xlink:href="#linear-gradient"/>
    <clipPath id="clip-path-13">
      <path id="Trazado_131098" data-name="Trazado 131098" d="M2339.893,541.666a1.163,1.163,0,0,1-1.486.205l-.246-.157a.862.862,0,0,1-.234-1.3l19.5-23.495a1.163,1.163,0,0,1,1.486-.205l.246.157a.861.861,0,0,1,.234,1.3Z" transform="translate(-2337.724 -516.532)" fill="none"/>
    </clipPath>
    <linearGradient id="linear-gradient-5" x1="-8.495" y1="8.479" x2="-8.491" y2="8.479" xlink:href="#linear-gradient"/>
    <clipPath id="clip-path-14">
      <path id="Trazado_131099" data-name="Trazado 131099" d="M2371.173,561.653a1.163,1.163,0,0,1-1.486.205l-.246-.157a.862.862,0,0,1-.234-1.3l19.5-23.495a1.162,1.162,0,0,1,1.486-.205l.246.157a.862.862,0,0,1,.234,1.3Z" transform="translate(-2369.004 -536.519)" fill="none"/>
    </clipPath>
    <linearGradient id="linear-gradient-6" x1="-8.611" y1="8.403" x2="-8.607" y2="8.403" xlink:href="#linear-gradient"/>
    <clipPath id="clip-path-15">
      <path id="Trazado_131100" data-name="Trazado 131100" d="M2402.453,581.64a1.163,1.163,0,0,1-1.486.205l-.246-.157a.862.862,0,0,1-.233-1.3l19.5-23.495a1.162,1.162,0,0,1,1.486-.205l.246.157a.862.862,0,0,1,.234,1.3Z" transform="translate(-2400.284 -556.506)" fill="none"/>
    </clipPath>
    <linearGradient id="linear-gradient-7" x1="-8.727" y1="8.327" x2="-8.723" y2="8.327" xlink:href="#linear-gradient"/>
    <clipPath id="clip-path-16">
      <path id="Trazado_131101" data-name="Trazado 131101" d="M2433.733,601.628a1.163,1.163,0,0,1-1.486.205l-.246-.157a.862.862,0,0,1-.234-1.3l19.5-23.495a1.163,1.163,0,0,1,1.486-.205l.246.157a.862.862,0,0,1,.234,1.3Z" transform="translate(-2431.564 -576.494)" fill="none"/>
    </clipPath>
    <linearGradient id="linear-gradient-8" x1="-8.843" y1="8.251" x2="-8.839" y2="8.251" xlink:href="#linear-gradient"/>
    <clipPath id="clip-path-17">
      <path id="Trazado_131102" data-name="Trazado 131102" d="M2465.012,621.615a1.163,1.163,0,0,1-1.486.205l-.246-.157a.862.862,0,0,1-.234-1.3l19.5-23.495a1.163,1.163,0,0,1,1.486-.205l.246.157a.862.862,0,0,1,.234,1.3Z" transform="translate(-2462.844 -596.481)" fill="none"/>
    </clipPath>
    <linearGradient id="linear-gradient-9" x1="-8.959" y1="8.175" x2="-8.955" y2="8.175" xlink:href="#linear-gradient"/>
    <clipPath id="clip-path-18">
      <path id="Trazado_131103" data-name="Trazado 131103" d="M2496.292,641.6a1.162,1.162,0,0,1-1.485.205l-.246-.157a.862.862,0,0,1-.233-1.3l19.5-23.495a1.163,1.163,0,0,1,1.486-.205l.246.157a.862.862,0,0,1,.234,1.3Z" transform="translate(-2494.123 -616.468)" fill="none"/>
    </clipPath>
    <linearGradient id="linear-gradient-10" x1="-9.075" y1="8.099" x2="-9.071" y2="8.099" xlink:href="#linear-gradient"/>
    <clipPath id="clip-path-19">
      <path id="Trazado_131104" data-name="Trazado 131104" d="M2527.572,661.589a1.163,1.163,0,0,1-1.486.205l-.246-.157a.861.861,0,0,1-.234-1.3l19.5-23.495a1.163,1.163,0,0,1,1.486-.205l.246.157a.862.862,0,0,1,.234,1.3Z" transform="translate(-2525.403 -636.455)" fill="none"/>
    </clipPath>
    <linearGradient id="linear-gradient-11" x1="-9.191" y1="8.023" x2="-9.187" y2="8.023" xlink:href="#linear-gradient"/>
    <clipPath id="clip-path-20">
      <path id="Trazado_131105" data-name="Trazado 131105" d="M2558.852,681.577a1.163,1.163,0,0,1-1.486.205l-.246-.157a.862.862,0,0,1-.234-1.3l19.5-23.495a1.163,1.163,0,0,1,1.486-.205l.246.157a.862.862,0,0,1,.234,1.3Z" transform="translate(-2556.683 -656.443)" fill="none"/>
    </clipPath>
    <linearGradient id="linear-gradient-12" x1="-9.307" y1="7.948" x2="-9.303" y2="7.948" xlink:href="#linear-gradient"/>
    <clipPath id="clip-path-21">
      <rect id="Rectángulo_54213" data-name="Rectángulo 54213" width="43.767" height="36.948" fill="none"/>
    </clipPath>
    <clipPath id="clip-path-22">
      <path id="Trazado_131106" data-name="Trazado 131106" d="M2300.224,467.408a8.77,8.77,0,0,1-4.133,5.546,10.933,10.933,0,0,1-3.621,1.237,4.686,4.686,0,0,0-.5.107,19.943,19.943,0,0,0-4.048,1.259,35.378,35.378,0,0,0-5.312,2.773,51.191,51.191,0,0,0-9.128,7.381,40.373,40.373,0,0,0-4.8,5.738s-.012,0-.012.011a23.365,23.365,0,0,0-2.443,4.416l-8.557-5.407a2.367,2.367,0,0,1-.657-3.584l20.481-24.968a8.983,8.983,0,0,1,11.462-1.632Z" transform="translate(-2256.458 -458.925)" fill="none"/>
    </clipPath>
    <linearGradient id="linear-gradient-13" x1="-4.888" y1="5.084" x2="-4.886" y2="5.084" xlink:href="#linear-gradient-3"/>
    <clipPath id="clip-path-23">
      <path id="Trazado_131114" data-name="Trazado 131114" d="M542.939,738.649c-15.188,5.677-25.967,15.776-23.092,32.816,2.113,12.524,11.535,23.271,11.886,36.161.339,12.47-9.845,21.288-14.24,32.135-5.377,13.271,1.09,25.623,10.653,34.964,10.086,9.851,22.379,17.478,34.019,25.325,6.327,4.265,13.635,8.737,17.806,15.363,5.268,8.369,2.139,22.031,4.772,31.313,2.21,7.79,8.372,9.86,15.613,11.889,15.262,4.277,30.662,2.122,46.247,1.534l15.657-18.166s15.293-43.006-8.011-62.3S614.535,882.242,614,838.9c-.477-38.711-16.913-103.168-56.049-103.17a42.775,42.775,0,0,0-15.013,2.915" transform="translate(-515.544 -735.734)" fill="none"/>
    </clipPath>
    <clipPath id="clip-path-24">
      <rect id="Rectángulo_54215" data-name="Rectángulo 54215" width="138.706" height="250.963" fill="none"/>
    </clipPath>
    <clipPath id="clip-path-25">
      <path id="Trazado_131115" data-name="Trazado 131115" d="M64.675,1327.411c-31.156,29.066,2.113,44.1,10.875,62.525s-2.708,38.086,21.873,43.549c11.566,2.57,30.859,1.043,39.9,9.921,7.348,7.215,5.912,18.939,12.878,26.285,6.105,6.437,16.006,7.538,24.4,7.785a90.463,90.463,0,0,0,14.927-.9c3.393-.464,12.455-4.227,15.479-3.221.006,0,24.421,8.123,24.577-14.2,0,0,5.235-75.039-24.417-74.931s-38.931,23.329-47.945,5.711c-7.562-14.779-45.641-69.213-76.107-69.214a23.419,23.419,0,0,0-16.443,6.691" transform="translate(-51.623 -1320.72)" fill="#324700"/>
    </clipPath>
    <clipPath id="clip-path-26">
      <path id="Trazado_131121" data-name="Trazado 131121" d="M64.675,1327.411c-31.156,29.066,2.113,44.1,10.875,62.525s-2.708,38.086,21.873,43.549c11.566,2.57,30.859,1.043,39.9,9.921,7.348,7.215,5.912,18.939,12.878,26.285,6.105,6.437,16.006,7.538,24.4,7.785a90.463,90.463,0,0,0,14.927-.9c3.393-.464,12.455-4.227,15.479-3.221.006,0,24.421,8.123,24.577-14.2,0,0,5.235-75.039-24.417-74.931s-38.931,23.329-47.945,5.711c-7.562-14.779-45.641-69.213-76.107-69.214a23.419,23.419,0,0,0-16.443,6.691" transform="translate(-51.623 -1320.72)" fill="none"/>
    </clipPath>
    <clipPath id="clip-path-27">
      <rect id="Rectángulo_54217" data-name="Rectángulo 54217" width="178.02" height="178.929" fill="none"/>
    </clipPath>
    <clipPath id="clip-path-28">
      <path id="Trazado_131122" data-name="Trazado 131122" d="M1191.136,692.835c-1.009,10.161-6.454,9.228-15.566,8.3-6.958-.712-16.054-1.424-26.945,2.8-25.153,9.764,4.224,71.587,4.224,71.587,7.552,18.857,25.534,3.863,25.538,3.859,2.227-1.857,11.155-1.682,14.182-2.417a82.27,82.27,0,0,0,12.943-4.2c7.032-3,15.053-7.225,18.085-14.707,3.458-8.538-1.655-17.991,2.171-26.546,4.708-10.526,21.558-15.645,30.5-21.667,19.005-12.8,2.755-25.64,4.052-44.159s24.481-42.313-11.572-56.578a22.8,22.8,0,0,0-8.445-1.693c-30.692.009-47.533,68.95-49.168,85.416" transform="translate(-1138.445 -607.419)" fill="#ffa726"/>
    </clipPath>
    <clipPath id="clip-path-29">
      <path id="Trazado_131128" data-name="Trazado 131128" d="M1191.136,692.835c-1.009,10.161-6.454,9.228-15.566,8.3-6.958-.712-16.054-1.424-26.945,2.8-25.153,9.764,4.224,71.587,4.224,71.587,7.552,18.857,25.534,3.863,25.538,3.859,2.227-1.857,11.155-1.682,14.182-2.417a82.27,82.27,0,0,0,12.943-4.2c7.032-3,15.053-7.225,18.085-14.707,3.458-8.538-1.655-17.991,2.171-26.546,4.708-10.526,21.558-15.645,30.5-21.667,19.005-12.8,2.755-25.64,4.052-44.159s24.481-42.313-11.572-56.578a22.8,22.8,0,0,0-8.445-1.693c-30.692.009-47.533,68.95-49.168,85.416" transform="translate(-1138.445 -607.419)" fill="none"/>
    </clipPath>
    <clipPath id="clip-path-30">
      <rect id="Rectángulo_54219" data-name="Rectángulo 54219" width="122.19" height="195.566" fill="none"/>
    </clipPath>
    <clipPath id="clip-path-31">
      <path id="Trazado_131129" data-name="Trazado 131129" d="M915.8.032c-13.557.183-16.685,3.016-19.389,7.56-3.232,5.43-3.882,13.793-4.476,21.423-.69,8.871-1.628,20.928,1.73,28.827,3.1,7.294,5.388,6.092,10.41,7.478,9.872,2.725,68.911,12.328,81.418,2.078,12.313-10.091,16.608-29.968,8.554-45.39C989.228,12.778,977.984,0,921.2,0q-2.637,0-5.4.037" transform="translate(-891.267 0.005)" fill="#ffa726"/>
    </clipPath>
    <clipPath id="clip-path-33">
      <path id="Trazado_131131" data-name="Trazado 131131" d="M971.663,564.041C931.15,618,940.79,694.4,940.838,740.161a21.869,21.869,0,0,0,18.069,21.906c10.3,1.9,29.412,3.6,51.972,3.6h.068c22.208,0,47.756-1.65,71.554-6.379,10.768-2.14,19.26-11.741,20.292-22.96,3.979-43.257-12.753-136.757-49.4-174.406-12.164-12.5-16.554-21.21-14.587-68.218l-37.921-8.676s-7.737,50.394-29.223,79.009" transform="translate(-939.802 -485.032)" fill="#34af00"/>
    </clipPath>
    <clipPath id="clip-path-35">
      <rect id="Rectángulo_54224" data-name="Rectángulo 54224" width="155.55" height="280.639" fill="none"/>
    </clipPath>
    <clipPath id="clip-path-36">
      <path id="Trazado_131132" data-name="Trazado 131132" d="M1073.655,724.869c-17.941-49.714-82.458-40.438-94.646-75.689-12.112-35.032,44.756-62.957,45.893-124.3a107.87,107.87,0,0,0-5.5-35.607l-18.514-4.236s-7.737,50.394-29.223,79.009C931.151,618,940.79,694.4,940.838,740.161a21.869,21.869,0,0,0,18.069,21.906c20.45,3.77,75.588,6.765,123.594-2.775a24.9,24.9,0,0,0,12.852-7.065,26.339,26.339,0,0,1-12.6-6.528c-5.986-5.745-5.749-11.549-9.1-20.831" transform="translate(-939.803 -485.032)" fill="none"/>
    </clipPath>
    <linearGradient id="linear-gradient-14" x1="-0.666" y1="0.989" x2="-0.666" y2="0.989" gradientUnits="objectBoundingBox">
      <stop offset="0" stop-color="#ff9085"/>
      <stop offset="1" stop-color="#fb6fbb"/>
    </linearGradient>
    <clipPath id="clip-path-37">
      <path id="Trazado_131133" data-name="Trazado 131133" d="M848.277,470.394c-1.274,1.52,4.789,7,6.6,6.275,14.113-5.67,40.974-27.977,47.96-86.92l-32.14-10.869s5.3,58.444-22.416,91.515" transform="translate(-848.103 -378.879)" fill="#ffa726"/>
    </clipPath>
    <clipPath id="clip-path-38">
      <path id="Trazado_131135" data-name="Trazado 131135" d="M887.583,501.242a1.908,1.908,0,0,0,2.075,3.056c14.113-5.671,45.5-24.758,52.481-83.7L917.77,410.321s-2.471,57.851-30.187,90.921" transform="translate(-887.115 -410.321)" fill="#ffa726"/>
    </clipPath>
    <clipPath id="clip-path-39">
      <path id="Trazado_131137" data-name="Trazado 131137" d="M1026.185,1.167c-16.2.293-20.1,1.2-23.187,6.208-3.666,5.95-4.369,14.982-5.011,23.223-.746,9.581-1.76,22.6,2.1,31.28,3.6,8.091,7.321,4.157,51.856,14.6,27.353,6.416,49.151,12.663,66.936,1.038a40.346,40.346,0,0,0,11.763-55.738c-7.037-10.847-20.869-20.753-89.707-20.753q-6.992,0-14.751.139" transform="translate(-997.284 -1.028)" fill="#ffa726"/>
    </clipPath>
    <clipPath id="clip-path-41">
      <rect id="Rectángulo_54228" data-name="Rectángulo 54228" width="132.916" height="71.183" fill="none"/>
    </clipPath>
    <clipPath id="clip-path-42">
      <path id="Trazado_131138" data-name="Trazado 131138" d="M1094.1,139.761c-30.88-9.7-34.414-20.091-53.247-23.61-19.888-3.716-26.955,8.989-33.651,3.947-3.225-2.428-6.033-8.8-6.612-25.053-1.633,5.266-2.137,11.723-2.607,17.757-.746,9.581-1.76,22.6,2.1,31.28,3.6,8.091,7.321,4.157,51.856,14.6,27.353,6.416,49.151,12.663,66.936,1.038a39.129,39.129,0,0,0,11.321-11.4,289.29,289.29,0,0,1-36.1-8.565" transform="translate(-997.284 -95.045)" fill="none"/>
    </clipPath>
    <linearGradient id="linear-gradient-15" x1="-1.717" y1="2.591" x2="-1.715" y2="2.591" gradientUnits="objectBoundingBox">
      <stop offset="0" stop-color="#311944"/>
      <stop offset="1" stop-color="#893976"/>
    </linearGradient>
    <clipPath id="clip-path-43">
      <path id="Trazado_131139" data-name="Trazado 131139" d="M795.486,156.788c-2.77.014-4.99,4.926-4.959,10.97s2.3,10.932,5.072,10.918,4.99-4.926,4.959-10.97-2.3-10.918-5.06-10.918h-.012" transform="translate(-790.526 -156.788)" fill="none"/>
    </clipPath>
    <linearGradient id="linear-gradient-16" x1="-3.844" y1="16.331" x2="-3.838" y2="16.331" xlink:href="#linear-gradient-3"/>
    <clipPath id="clip-path-45">
      <path id="Trazado_131143" data-name="Trazado 131143" d="M626.324,2654.584c.221.877,7.828,1.51,10.41,1.206s-1.538-2.942-3.183-3.437-7.118-1.261-7.118-1.261a15.917,15.917,0,0,0-.108,3.492" transform="translate(-626.248 -2651.092)" fill="none"/>
    </clipPath>
    <linearGradient id="linear-gradient-17" x1="-14.366" y1="0.944" x2="-14.344" y2="0.944" xlink:href="#linear-gradient-3"/>
    <clipPath id="clip-path-46">
      <path id="Trazado_131144" data-name="Trazado 131144" d="M626.962,2619.983c.983.908,3.027-.011,3.027-.011l.8-5.249-3.937-.234Z" transform="translate(-626.854 -2614.489)" fill="none"/>
    </clipPath>
    <linearGradient id="linear-gradient-18" x1="-20.004" y1="2.041" x2="-19.972" y2="2.041" gradientUnits="objectBoundingBox">
      <stop offset="0" stop-color="#ffc444"/>
      <stop offset="0.996" stop-color="#f36f56"/>
      <stop offset="1" stop-color="#f36f56"/>
    </linearGradient>
    <clipPath id="clip-path-47">
      <path id="Trazado_131145" data-name="Trazado 131145" d="M261.318,2612.073c-.779.782-2.775,5.444-3.556,7.561s-1.622,5.515,1.062,3.884,6.45-7.379,6.88-8.813-1.184-2.632-1.184-2.632a7.789,7.789,0,0,0-2.026-.347,1.664,1.664,0,0,0-1.176.347" transform="translate(-256.992 -2611.726)" fill="none"/>
    </clipPath>
    <linearGradient id="linear-gradient-19" x1="-2.11" y1="1.126" x2="-2.101" y2="1.126" xlink:href="#linear-gradient-3"/>
    <clipPath id="clip-path-48">
      <path id="Trazado_131146" data-name="Trazado 131146" d="M282.3,2568.594s-1.073,2.9-1.413,3.816c-2.34,6.281-3.554,8.426-3.1,8.724s2.106-1.47,2.807-2.3a18.863,18.863,0,0,0,2.812-4.962c.587-1.319,1.338-3.107,2.118-5.281Z" transform="translate(-277.694 -2568.594)" fill="none"/>
    </clipPath>
    <linearGradient id="linear-gradient-20" x1="-4.217" y1="1.468" x2="-4.201" y2="1.468" xlink:href="#linear-gradient-18"/>
    <clipPath id="clip-path-49">
      <path id="Trazado_131147" data-name="Trazado 131147" d="M584.55,1850.421c-.97,1.666-1.223,3.383.236,14.489,2.046,15.583,3.48,19.344,2.32,26.071-.877,5.085-2.517,7.694-3.871,11-3.174,7.76-5.117,20.216,1.461,40.315a6.825,6.825,0,0,0,2.7,1.026,7.076,7.076,0,0,0,4.5-.882c2.507-16.091,5.277-28.958,7.333-37.7,3.364-14.3,6.047-22.794,7.088-36.209a135.891,135.891,0,0,0-.292-24.248c-1.2-.082-2.659-.153-4.261-.153-6.074,0-14.142,1.018-17.211,6.288" transform="translate(-580.307 -1844.133)" fill="none"/>
    </clipPath>
    <linearGradient id="linear-gradient-21" x1="-0.329" y1="1.866" x2="-0.328" y2="1.866" xlink:href="#linear-gradient-3"/>
    <clipPath id="clip-path-50">
      <path id="Trazado_131148" data-name="Trazado 131148" d="M316.124,1867.022c-3.525,10.979-5.812,20.141-7.3,26.876-1.2,5.408-2.2,10.674-2.88,14.267-1.744,9.183-2.856,16.133-3.109,17.722-1.2,7.575-2.59,17.389-3.8,29.068a3.091,3.091,0,0,0,1.293,1.342,3.51,3.51,0,0,0,3.2-.165c9.239-12.216,12.672-21.529,14.061-27.908a109.98,109.98,0,0,1,3.36-12.854,103.89,103.89,0,0,1,5.529-13.495c2.993-6.182,6.948-17.111,10.977-37.921l-21.326,3.067" transform="translate(-299.034 -1863.955)" fill="none"/>
    </clipPath>
    <linearGradient id="linear-gradient-22" x1="-0.12" y1="1.144" x2="-0.119" y2="1.144" xlink:href="#linear-gradient-3"/>
    <clipPath id="clip-path-51">
      <path id="Trazado_131149" data-name="Trazado 131149" d="M1095.566,1335.346c-.489.412-2.62,1.415-4.129,2.354s-2.415,4.493-2.415,4.493l1.544,2.482c.391-1.174,1.051-2.592,2.126-2.774.677-.115,1.032.343,1.96.769,2.54,1.167,5.932.518,6.909-.974.163-.249.545-.958.333-1.182-.133-.14-.447-.038-.529-.014-.551.161-1.962.124-5.573-.632a2.12,2.12,0,0,1-1.924-1.211,1.393,1.393,0,0,1-.057-.6l1.407-.943c1.216-.815.956-1.845.548-1.845a.31.31,0,0,0-.2.082" transform="translate(-1089.022 -1335.264)" fill="none"/>
    </clipPath>
    <linearGradient id="linear-gradient-23" x1="-10.205" y1="11.376" x2="-10.196" y2="11.376" xlink:href="#linear-gradient-18"/>
    <clipPath id="clip-path-53">
      <path id="Trazado_131151" data-name="Trazado 131151" d="M106.165,996.935c-2.812.553-3.252,2.511-8.03,6.454a33.8,33.8,0,0,1-8.178,5.371c-3.7,1.526-6.444,1.129-9.479.731a29.642,29.642,0,0,0-5.37-.341c-7.031.31-15.2,4.234-19.135,9.94-6.985,10.128,3.133,20.4-4.517,32.266-2.507,3.887-3.742,3.016-9.68,10.54s-8.918,11.3-8.389,15.918c.734,6.407,7.635,12.527,14.134,12.943a15.4,15.4,0,0,0,7.017-1.467c2.648-1.091,4.754-2.182,6.6-.936,2.3,1.554.985,4.578,3.428,8.212,3.149,4.686,9.339,5.619,10.339,5.77,9.279,1.4,21.79-9.481,27.1-22.371,9.582-23.245-7.25-45.729,4.947-57,2.243-2.074,6.536-4.465,8.689-10.022.648-1.673,2.944-7.6-.443-12.134a10.062,10.062,0,0,0-7.664-4,7.1,7.1,0,0,0-1.37.131" transform="translate(-33.327 -996.804)" fill="none"/>
    </clipPath>
    <linearGradient id="linear-gradient-24" x1="0.159" y1="1.737" x2="0.16" y2="1.737" xlink:href="#linear-gradient-3"/>
    <clipPath id="clip-path-55">
      <rect id="Rectángulo_54242" data-name="Rectángulo 54242" width="48.945" height="36.537" fill="none"/>
    </clipPath>
    <clipPath id="clip-path-56">
      <path id="Trazado_131152" data-name="Trazado 131152" d="M729.789,1260.477c9.662,7.632,8.587,22.269,14.527,23.011,1.814.227,1.715-1.164,6.042-2.571,6.329-2.058,9.3.021,13.755-1.543a13.8,13.8,0,0,0,6.6-5.294l.894.795c-4.648,12.307-15.841,19.744-26.4,18.512-13.073-1.526-18.837-15.611-19.884-18.169a38.812,38.812,0,0,1-2.456-18.234,20.153,20.153,0,0,1,6.913,3.493" transform="translate(-722.667 -1256.984)" fill="none"/>
    </clipPath>
    <linearGradient id="linear-gradient-25" x1="-1.833" y1="4.88" x2="-1.831" y2="4.88" xlink:href="#linear-gradient"/>
    <clipPath id="clip-path-57">
      <rect id="Rectángulo_54244" data-name="Rectángulo 54244" width="70.046" height="95.2" fill="none"/>
    </clipPath>
    <clipPath id="clip-path-58">
      <path id="Trazado_131154" data-name="Trazado 131154" d="M80.229,1336.432c4.031-3.816,2.454-6.658,6.883-10.11,4.324-3.371,7.312-1.822,9.863-5.155,2.375-3.1.448-5.315,2.361-9.849,1.756-4.164,4.469-4.878,9.708-9.525,3.493-3.1,8.091-7.178,10.691-12.612,4.512-9.43,1.357-19.5.289-22.443a32.787,32.787,0,0,0-12.873-16.091c.242-.26.527-.557.832-.87,16.546,2.274,26.193,11.834,27.386,14.665,2.758,6.544-1.608,8.948-1.721,27.821-.054,9.021.919,12.583-2.008,16.348-3.348,4.306-7.205,2.974-12.046,8.6-3.72,4.326-3.124,7.068-6.6,8.891-3.735,1.959-6.113-.324-10.325.574-7.037,1.5-8.541,9.614-13.193,14.053-3.518,3.357-10.022,5.7-22.849,3.185a1.787,1.787,0,0,1-.383-1.249c.362-2.495,8.126-.694,13.982-6.238" transform="translate(-66.234 -1249.776)" fill="none"/>
    </clipPath>
    <linearGradient id="linear-gradient-26" x1="0.087" y1="2.073" x2="0.088" y2="2.073" xlink:href="#linear-gradient"/>
    <clipPath id="clip-path-59">
      <path id="Trazado_131155" data-name="Trazado 131155" d="M553.821,1072.692c-2.462,1.527-6.443,3.524-6.881,4.066s15.252,2.229,23.028-1.7c-2.563-.534-3.259-.731-3.259-.731a14.408,14.408,0,0,1-3.294-1.3,11.2,11.2,0,0,1-3.621-3.348l.029-3.694-2.706-1.493s-.834,6.671-3.3,8.2" transform="translate(-546.931 -1064.493)" fill="none"/>
    </clipPath>
    <linearGradient id="linear-gradient-27" x1="-2.405" y1="8.445" x2="-2.4" y2="8.445" xlink:href="#linear-gradient-18"/>
    <clipPath id="clip-path-60">
      <path id="Trazado_131156" data-name="Trazado 131156" d="M615.335,1034.9a3.507,3.507,0,0,0-1.1,3.943c-.569-.165-1.071-.016-1.2.267-.159.358.323.845.432.955a1.911,1.911,0,0,0,1.046.525,3.692,3.692,0,0,0,4.123,1.285c2.254-.822.909-6.644-.879-7.308a2.2,2.2,0,0,0-.746-.114,3.308,3.308,0,0,0-1.677.447" transform="translate(-613.005 -1034.456)" fill="none"/>
    </clipPath>
    <linearGradient id="linear-gradient-28" x1="-6.673" y1="19.074" x2="-6.662" y2="19.074" xlink:href="#linear-gradient-18"/>
    <clipPath id="clip-path-61">
      <path id="Trazado_131157" data-name="Trazado 131157" d="M541.033,1162.412a3.445,3.445,0,0,1-2.966,4.042l-12.869,1.585a5.31,5.31,0,0,1-4.822-1.987l-10.136-12.886-3.167,1.338s13.924,16.79,13.627,24.461c-.159,4.115-.272,8.423-.343,11.534a4.414,4.414,0,0,1-4.582,4.311l-8.4-.321-.437,3.648,5.637.731a6.781,6.781,0,0,1,5.9,7.083c.293,8.857-7.361,32.068-2.139,40.431,5.1,8.166,26.349,8.374,32.116,0,4.409-6.4-3.211-13.487-4.23-37.976-.29-6.961-.007-14.4.069-16.414.468-12.345,1.621-17.8.515-26.953a71.59,71.59,0,0,0-2.47-11.873l-3.674-1.149s1.476,5.52,2.37,10.395" transform="translate(-506.94 -1152.017)" fill="#ffd54f"/>
    </clipPath>
    <clipPath id="clip-path-62">
      <path id="Trazado_131158" data-name="Trazado 131158" d="M495.22,1496.554c2.454,4.348,7.924.631,9.116.421s4.488-.14,4.207-.421-4.067-2.595-5.119-2.595-8.2,2.595-8.2,2.595" transform="translate(-495.22 -1493.959)" fill="none"/>
    </clipPath>
    <linearGradient id="linear-gradient-29" x1="-4.873" y1="10.362" x2="-4.863" y2="10.362" xlink:href="#linear-gradient-18"/>
  </defs>
  <g id="Grupo_98371" data-name="Grupo 98371" transform="translate(-1998.893 10050.315)">
    <path id="Trazado_131090" data-name="Trazado 131090" d="M372.831,109.059C383.1,16.036,292.45-16.282,228.189,7.536c-64.782,24.011-79.8-15.792-170.895-4.419C-34.943,14.632,11.888,158.686,11.888,158.686s14.676,125.264,32.064,183c17.294,57.427,182.83,36.65,223.1,34.937,40.037-1.7,74.828,1.585,109.662-61.47C411.483,252.216,362.6,201.774,372.831,109.059Z" transform="translate(2002.968 -9660.924) rotate(-90)" fill="#34af00" opacity="0.58"/>
    <g id="Grupo_98191" data-name="Grupo 98191" transform="translate(1998.893 -10013.821)">
      <g id="Grupo_98190" data-name="Grupo 98190" clip-path="url(#clip-path)">
        <g id="Grupo_98055" data-name="Grupo 98055" transform="translate(243.763 73.43)">
          <g id="Grupo_98054" data-name="Grupo 98054" clip-path="url(#clip-path-2)">
            <rect id="Rectángulo_54194" data-name="Rectángulo 54194" width="93.355" height="254.754" transform="translate(0 0)" fill="#ffd54f"/>
          </g>
        </g>
        <g id="Grupo_98070" data-name="Grupo 98070" transform="translate(0 -0.001)">
          <g id="Grupo_98069" data-name="Grupo 98069" clip-path="url(#clip-path-3)">
            <g id="Grupo_98060" data-name="Grupo 98060" transform="translate(243.763 183.371)" style="mix-blend-mode: multiply;isolation: isolate">
              <g id="Grupo_98059" data-name="Grupo 98059">
                <g id="Grupo_98058" data-name="Grupo 98058" clip-path="url(#clip-path-4)">
                  <g id="Grupo_98057" data-name="Grupo 98057" transform="translate(0 0.001)">
                    <g id="Grupo_98056" data-name="Grupo 98056" clip-path="url(#clip-path-5)">
                      <rect id="Rectángulo_54195" data-name="Rectángulo 54195" width="136.923" height="135.045" transform="matrix(0.589, -0.808, 0.808, 0.589, -48.353, 66.401)" fill="url(#linear-gradient)"/>
                    </g>
                  </g>
                </g>
              </g>
            </g>
            <g id="Grupo_98063" data-name="Grupo 98063" transform="translate(255.975 203.978)" opacity="0.9">
              <g id="Grupo_98062" data-name="Grupo 98062">
                <g id="Grupo_98061" data-name="Grupo 98061" clip-path="url(#clip-path-6)">
                  <path id="Trazado_131093" data-name="Trazado 131093" d="M2210.109,1712.373c-13.582,1.719-24.661,7.944-31.509,18.52a18.04,18.04,0,0,0-.482,19.985,21.756,21.756,0,0,0,6.123,7.441q.226.164.459.315c.072.046.15.079.222.124.057-6.612,1.334-17.9,9.063-21.2-3.085,4.974-5.531,15.111-5.312,22.706,6.663,1.517,15.1-1.561,20.035-4.919a23.967,23.967,0,0,0,7.873-9.806c4.535-9.592-2.2-20.1,2.35-29.638.67-1.4,1.082-3.37,2.552-4.322-3.8.153-7.605.318-11.374.8" transform="translate(-2157.983 -1700.5)" fill="#fff"/>
                  <path id="Trazado_131094" data-name="Trazado 131094" d="M2058.452,1639.156c.584.942,1.373,2.437,2.272,4.306a43.011,43.011,0,0,0-6.975,8.294,23.462,23.462,0,0,0-3.881,11.631,19.92,19.92,0,0,0,.252,3.863.71.71,0,0,1-.11-.069,24.035,24.035,0,0,1-7.874-9.8c-4.529-9.6,2.209-20.105-2.352-29.645-.663-1.4-1.072-3.364-2.54-4.32,3.787.153,7.605.318,11.361.79,9.925,1.259,18.526,4.929,25.09,10.938a44.523,44.523,0,0,0-11.472,6.992,11.041,11.041,0,0,0-3.771-2.977" transform="translate(-2037.244 -1623.412)" fill="#fff"/>
                </g>
              </g>
            </g>
            <g id="Grupo_98068" data-name="Grupo 98068" transform="translate(243.763 88.811)" opacity="0.3" style="mix-blend-mode: multiply;isolation: isolate">
              <g id="Grupo_98067" data-name="Grupo 98067">
                <g id="Grupo_98066" data-name="Grupo 98066" clip-path="url(#clip-path-7)">
                  <g id="Grupo_98065" data-name="Grupo 98065" transform="translate(0 -0.001)">
                    <g id="Grupo_98064" data-name="Grupo 98064" clip-path="url(#clip-path-8)">
                      <rect id="Rectángulo_54198" data-name="Rectángulo 54198" width="248.46" height="216.376" transform="matrix(0.589, -0.808, 0.808, 0.589, -113.909, 156.427)" fill="url(#linear-gradient-2)"/>
                    </g>
                  </g>
                </g>
              </g>
            </g>
          </g>
        </g>
        <g id="Grupo_98072" data-name="Grupo 98072" transform="translate(283.519 57.663)">
          <g id="Grupo_98071" data-name="Grupo 98071" clip-path="url(#clip-path-9)">
            <rect id="Rectángulo_54201" data-name="Rectángulo 54201" width="66.486" height="56.169" transform="translate(-0.391 0)" fill="url(#linear-gradient-3)"/>
          </g>
        </g>
        <g id="Grupo_98100" data-name="Grupo 98100" transform="translate(0 -0.001)">
          <g id="Grupo_98099" data-name="Grupo 98099" clip-path="url(#clip-path-3)">
            <g id="Grupo_98093" data-name="Grupo 98093" transform="translate(289.799 62.39)" style="mix-blend-mode: soft-light;isolation: isolate">
              <g id="Grupo_98092" data-name="Grupo 98092">
                <g id="Grupo_98091" data-name="Grupo 98091" clip-path="url(#clip-path-11)">
                  <g id="Grupo_98074" data-name="Grupo 98074" transform="translate(0.001 0.001)">
                    <g id="Grupo_98073" data-name="Grupo 98073" clip-path="url(#clip-path-12)">
                      <rect id="Rectángulo_54202" data-name="Rectángulo 54202" width="33.871" height="33.077" transform="translate(-12.404 16.713) rotate(-53.937)" fill="url(#linear-gradient-4)"/>
                    </g>
                  </g>
                  <g id="Grupo_98076" data-name="Grupo 98076" transform="translate(3.931 2.512)">
                    <g id="Grupo_98075" data-name="Grupo 98075" clip-path="url(#clip-path-13)">
                      <rect id="Rectángulo_54203" data-name="Rectángulo 54203" width="33.871" height="33.077" transform="translate(-12.404 16.713) rotate(-53.937)" fill="url(#linear-gradient-5)"/>
                    </g>
                  </g>
                  <g id="Grupo_98078" data-name="Grupo 98078" transform="translate(7.861 5.023)">
                    <g id="Grupo_98077" data-name="Grupo 98077" clip-path="url(#clip-path-14)">
                      <rect id="Rectángulo_54204" data-name="Rectángulo 54204" width="33.871" height="33.077" transform="translate(-12.404 16.713) rotate(-53.937)" fill="url(#linear-gradient-6)"/>
                    </g>
                  </g>
                  <g id="Grupo_98080" data-name="Grupo 98080" transform="translate(11.791 7.535)">
                    <g id="Grupo_98079" data-name="Grupo 98079" clip-path="url(#clip-path-15)">
                      <rect id="Rectángulo_54205" data-name="Rectángulo 54205" width="33.871" height="33.077" transform="translate(-12.404 16.713) rotate(-53.937)" fill="url(#linear-gradient-7)"/>
                    </g>
                  </g>
                  <g id="Grupo_98082" data-name="Grupo 98082" transform="translate(15.721 10.046)">
                    <g id="Grupo_98081" data-name="Grupo 98081" clip-path="url(#clip-path-16)">
                      <rect id="Rectángulo_54206" data-name="Rectángulo 54206" width="33.871" height="33.077" transform="matrix(0.589, -0.808, 0.808, 0.589, -12.404, 16.713)" fill="url(#linear-gradient-8)"/>
                    </g>
                  </g>
                  <g id="Grupo_98084" data-name="Grupo 98084" transform="translate(19.652 12.557)">
                    <g id="Grupo_98083" data-name="Grupo 98083" clip-path="url(#clip-path-17)">
                      <rect id="Rectángulo_54207" data-name="Rectángulo 54207" width="33.871" height="33.077" transform="translate(-12.404 16.713) rotate(-53.937)" fill="url(#linear-gradient-9)"/>
                    </g>
                  </g>
                  <g id="Grupo_98086" data-name="Grupo 98086" transform="translate(23.582 15.069)">
                    <g id="Grupo_98085" data-name="Grupo 98085" clip-path="url(#clip-path-18)">
                      <rect id="Rectángulo_54208" data-name="Rectángulo 54208" width="33.871" height="33.077" transform="matrix(0.589, -0.808, 0.808, 0.589, -12.404, 16.713)" fill="url(#linear-gradient-10)"/>
                    </g>
                  </g>
                  <g id="Grupo_98088" data-name="Grupo 98088" transform="translate(27.512 17.58)">
                    <g id="Grupo_98087" data-name="Grupo 98087" clip-path="url(#clip-path-19)">
                      <rect id="Rectángulo_54209" data-name="Rectángulo 54209" width="33.871" height="33.077" transform="matrix(0.589, -0.808, 0.808, 0.589, -12.404, 16.713)" fill="url(#linear-gradient-11)"/>
                    </g>
                  </g>
                  <g id="Grupo_98090" data-name="Grupo 98090" transform="translate(31.442 20.091)">
                    <g id="Grupo_98089" data-name="Grupo 98089" clip-path="url(#clip-path-20)">
                      <rect id="Rectángulo_54210" data-name="Rectángulo 54210" width="33.871" height="33.077" transform="matrix(0.589, -0.808, 0.808, 0.589, -12.404, 16.713)" fill="url(#linear-gradient-12)"/>
                    </g>
                  </g>
                </g>
              </g>
            </g>
            <g id="Grupo_98098" data-name="Grupo 98098" transform="translate(283.519 57.664)" opacity="0.3" style="mix-blend-mode: multiply;isolation: isolate">
              <g id="Grupo_98097" data-name="Grupo 98097">
                <g id="Grupo_98096" data-name="Grupo 98096" clip-path="url(#clip-path-21)">
                  <g id="Grupo_98095" data-name="Grupo 98095" transform="translate(0 -0.001)">
                    <g id="Grupo_98094" data-name="Grupo 98094" clip-path="url(#clip-path-22)">
                      <rect id="Rectángulo_54212" data-name="Rectángulo 54212" width="56.645" height="58.016" transform="matrix(0.589, -0.808, 0.808, 0.589, -18.434, 23.81)" fill="url(#linear-gradient-13)"/>
                    </g>
                  </g>
                </g>
              </g>
            </g>
            <path id="Trazado_131107" data-name="Trazado 131107" d="M662.259,941.983s15.293-43.006-8.011-62.3S614.535,882.242,614,838.9s-21.066-118.942-71.062-100.256c-15.189,5.677-25.967,15.776-23.092,32.816,2.113,12.524,11.535,23.271,11.886,36.161.339,12.47-9.845,21.288-14.24,32.135-5.377,13.271,1.09,25.623,10.653,34.964,10.086,9.851,22.379,17.478,34.019,25.325,6.327,4.265,13.635,8.737,17.806,15.363,5.268,8.369,2.139,22.031,4.772,31.313,2.21,7.79,8.372,9.86,15.613,11.889,15.262,4.277,30.662,2.122,46.247,1.534Z" transform="translate(-450.767 -643.29)" fill="#34af00"/>
          </g>
        </g>
        <g id="Grupo_98105" data-name="Grupo 98105" transform="translate(64.777 92.443)">
          <g id="Grupo_98104" data-name="Grupo 98104" clip-path="url(#clip-path-23)">
            <g id="Grupo_98103" data-name="Grupo 98103" transform="translate(-0.546 -24.938)" opacity="0.8" style="mix-blend-mode: soft-light;isolation: isolate">
              <g id="Grupo_98102" data-name="Grupo 98102">
                <g id="Grupo_98101" data-name="Grupo 98101" clip-path="url(#clip-path-24)">
                  <path id="Trazado_131108" data-name="Trazado 131108" d="M649.356,788.221a.546.546,0,0,1-.457-.246,273.22,273.22,0,0,0-29.293-37.5c-3.442-3.635-7.177-7.208-10.788-10.663-11.028-10.55-22.432-21.46-27.959-36.286-6.457-17.324-9.2-35.879-11.853-53.823-3.108-21.025-6.322-42.765-15.544-62.506-22.178-47.472-41.549-48.84-41.742-48.848a.546.546,0,1,1,.047-1.091c.208.009,5.179.29,12.961,6.582,7.1,5.739,18.018,17.84,29.724,42.9,9.29,19.885,12.516,41.706,15.635,62.808,2.644,17.888,5.378,36.385,11.8,53.6,5.439,14.592,16.751,25.413,27.69,35.878,3.621,3.465,7.366,7.047,10.827,10.7a274.32,274.32,0,0,1,29.412,37.65.546.546,0,0,1-.456.847" transform="translate(-511.197 -537.257)" fill="#fff"/>
                  <path id="Trazado_131109" data-name="Trazado 131109" d="M954.913,857.52h0a.546.546,0,0,1-.546-.546,157.77,157.77,0,0,1,3.2-28.789c2.933-13.872,9.237-31.7,22.611-37.833a.546.546,0,0,1,.456.993c-12.957,5.946-19.112,23.429-21.994,37.049a156.573,156.573,0,0,0-3.178,28.581.546.546,0,0,1-.546.546" transform="translate(-898.684 -758.507)" fill="#fff"/>
                  <path id="Trazado_131110" data-name="Trazado 131110" d="M1139.694,1526.944a.546.546,0,0,1-.544-.5,88.556,88.556,0,0,1,2.009-22.975c2.562-12.042,8.745-29.38,23.649-43.591a.546.546,0,0,1,.754.791c-14.691,14.008-20.794,31.111-23.327,42.991a87.484,87.484,0,0,0-2,22.695.546.546,0,0,1-.5.589l-.045,0" transform="translate(-1060.161 -1343.82)" fill="#fff"/>
                  <path id="Trazado_131111" data-name="Trazado 131111" d="M567.934,1170.529a.544.544,0,0,1-.337-.117c-.4-.311-39.7-31.02-55.62-23.5a.546.546,0,1,1-.467-.987c6.976-3.3,18.669-.306,34.754,8.892a204.8,204.8,0,0,1,22.009,14.735.546.546,0,0,1-.338.975" transform="translate(-511.196 -1068.314)" fill="#fff"/>
                  <path id="Trazado_131112" data-name="Trazado 131112" d="M611.755,1728.468a.545.545,0,0,1-.36-.135,62.239,62.239,0,0,0-19.689-10.715c-10.728-3.475-26.918-4.977-43.117,7.6a.546.546,0,1,1-.67-.863c16.59-12.88,33.171-11.331,44.16-7.764a63.4,63.4,0,0,1,20.035,10.921.546.546,0,0,1-.36.957" transform="translate(-543.121 -1566.208)" fill="#fff"/>
                  <path id="Trazado_131113" data-name="Trazado 131113" d="M985.589,2197.933a.543.543,0,0,1-.359-.135,62.239,62.239,0,0,0-19.689-10.715c-10.729-3.475-26.918-4.977-43.117,7.6a.546.546,0,1,1-.67-.863c16.59-12.88,33.171-11.331,44.16-7.764a63.4,63.4,0,0,1,20.035,10.921.546.546,0,0,1-.36.957" transform="translate(-869.984 -1976.686)" fill="#fff"/>
                </g>
              </g>
            </g>
          </g>
        </g>
        <g id="Grupo_98107" data-name="Grupo 98107" transform="translate(6.486 165.946)">
          <g id="Grupo_98106" data-name="Grupo 98106" clip-path="url(#clip-path-25)">
            <rect id="Rectángulo_54216" data-name="Rectángulo 54216" width="223.729" height="189.935" transform="translate(-42.65 3.841) rotate(-8.89)" fill="#324700"/>
          </g>
        </g>
        <g id="Grupo_98112" data-name="Grupo 98112" transform="translate(6.486 165.946)">
          <g id="Grupo_98111" data-name="Grupo 98111" clip-path="url(#clip-path-26)">
            <g id="Grupo_98110" data-name="Grupo 98110" transform="translate(-6.486 -12.273)" opacity="0.8" style="mix-blend-mode: soft-light;isolation: isolate">
              <g id="Grupo_98109" data-name="Grupo 98109">
                <g id="Grupo_98108" data-name="Grupo 98108" clip-path="url(#clip-path-27)">
                  <path id="Trazado_131116" data-name="Trazado 131116" d="M186.209,1519.771l-.053,0a.546.546,0,0,1-.492-.6c1.547-16.24-2.782-38.762-15.94-49.835-8.535-7.182-19.318-8.892-29.746-10.546-6.009-.953-12.223-1.938-18-3.951-17.768-6.189-29.756-24.472-39.388-39.163l-.605-.923a143.521,143.521,0,0,0-46.857-45.067c-13.9-8.177-24.261-10.815-24.364-10.841a.546.546,0,1,1,.264-1.06c.1.026,10.616,2.7,24.653,10.959a144.621,144.621,0,0,1,47.217,45.41l.605.923c9.542,14.552,21.417,32.663,38.834,38.73,5.687,1.981,11.852,2.959,17.814,3.9,10.576,1.677,21.511,3.412,30.279,10.789,6.2,5.215,10.976,13.3,13.822,23.369a76.579,76.579,0,0,1,2.5,27.4.546.546,0,0,1-.543.494" transform="translate(-9.047 -1340.842)" fill="#fff"/>
                  <path id="Trazado_131117" data-name="Trazado 131117" d="M363.71,1270.15a.546.546,0,0,1-.53-.418c-.025-.1-2.479-10.32-3.98-21.06-2.041-14.6-1.4-23.191,1.9-25.533a.546.546,0,0,1,.632.891c-5.925,4.2-.2,34.231,2.512,45.446a.546.546,0,0,1-.4.659.555.555,0,0,1-.129.015" transform="translate(-313.047 -1223.038)" fill="#fff"/>
                  <path id="Trazado_131118" data-name="Trazado 131118" d="M.545,1695.279a.546.546,0,0,1-.423-.892c7.587-9.3,59.369-13.125,61.57-13.284a.546.546,0,1,1,.078,1.089c-.534.038-53.511,3.947-60.8,12.885a.544.544,0,0,1-.423.2" transform="translate(0 -1623.548)" fill="#fff"/>
                  <path id="Trazado_131119" data-name="Trazado 131119" d="M726.272,1634.459a.547.547,0,0,1-.524-.392c-.685-2.328-16.715-57.108-11.528-64.57a.546.546,0,1,1,.9.623c-3.914,5.631,5.928,44.089,11.679,63.638a.547.547,0,0,1-.524.7" transform="translate(-623.579 -1525.76)" fill="#fff"/>
                  <path id="Trazado_131120" data-name="Trazado 131120" d="M601.384,2180.593a.547.547,0,0,1-.506-.753c3.19-7.82,13.954-14.129,31.994-18.752a188.6,188.6,0,0,1,26.066-4.608.546.546,0,1,1,.1,1.088c-.5.045-49.834,4.754-57.148,22.685a.546.546,0,0,1-.506.34" transform="translate(-525.344 -2039.193)" fill="#fff"/>
                </g>
              </g>
            </g>
          </g>
        </g>
        <g id="Grupo_98114" data-name="Grupo 98114" transform="translate(143.043 76.321)">
          <g id="Grupo_98113" data-name="Grupo 98113" clip-path="url(#clip-path-28)">
            <rect id="Rectángulo_54218" data-name="Rectángulo 54218" width="188.286" height="209.647" transform="translate(-43.52 4.466) rotate(-8.89)" fill="#ffa726"/>
          </g>
        </g>
        <g id="Grupo_98119" data-name="Grupo 98119" transform="translate(143.043 76.321)">
          <g id="Grupo_98118" data-name="Grupo 98118" clip-path="url(#clip-path-29)">
            <g id="Grupo_98117" data-name="Grupo 98117" transform="translate(22.057 -5.947)" opacity="0.8" style="mix-blend-mode: soft-light;isolation: isolate">
              <g id="Grupo_98116" data-name="Grupo 98116">
                <g id="Grupo_98115" data-name="Grupo 98115" clip-path="url(#clip-path-30)">
                  <path id="Trazado_131123" data-name="Trazado 131123" d="M1321.891,755.621a.433.433,0,0,0,.044-.02.5.5,0,0,0,.219-.668c-6.708-13.242-10.528-33.759-3.063-47.511,4.842-8.921,13.408-13.954,21.692-18.821a95.172,95.172,0,0,0,13.935-9.331c12.994-11.148,17.071-30.62,20.347-46.266l.206-.983a130.6,130.6,0,0,1,24.711-53.75c9.059-11.548,16.956-17.225,17.034-17.281a.5.5,0,1,0-.576-.81c-.08.057-8.094,5.818-17.24,17.478a131.6,131.6,0,0,0-24.9,54.16l-.206.983c-3.245,15.5-7.284,34.787-20.021,45.715a94.44,94.44,0,0,1-13.792,9.228c-8.4,4.936-17.087,10.04-22.061,19.2-3.516,6.477-4.878,14.911-3.94,24.39a69.685,69.685,0,0,0,6.99,24.045.5.5,0,0,0,.624.238" transform="translate(-1313.989 -560.089)" fill="#fff"/>
                  <path id="Trazado_131124" data-name="Trazado 131124" d="M1783.329,609.733a.5.5,0,0,0,.31-.531c-.013-.094-1.33-9.566-3.628-19.162-3.124-13.046-6.521-20.11-10.1-21a.5.5,0,0,0-.239.965c6.417,1.592,11.544,28.931,12.978,39.33a.5.5,0,0,0,.674.395" transform="translate(-1712.09 -567.906)" fill="#fff"/>
                  <path id="Trazado_131125" data-name="Trazado 131125" d="M1888.312,911.651a.5.5,0,0,0,.062-.9c-9.518-5.356-54.652,8.616-56.569,9.213a.5.5,0,0,0,.3.949c.465-.145,46.639-14.443,55.786-9.3a.5.5,0,0,0,.426.029" transform="translate(-1766.437 -865.628)" fill="#fff"/>
                  <path id="Trazado_131126" data-name="Trazado 131126" d="M1608.518,1034.442a.5.5,0,0,0,.313-.506c-.194-2.2-4.824-53.93-11.7-58.527a.5.5,0,1,0-.553.826c5.187,3.469,9.634,39.317,11.26,57.788a.5.5,0,0,0,.539.451.491.491,0,0,0,.138-.032" transform="translate(-1560.881 -923.152)" fill="#fff"/>
                  <path id="Trazado_131127" data-name="Trazado 131127" d="M1561.8,1547.749a.5.5,0,0,0,.178-.806c-5.3-5.564-16.516-7.33-33.334-5.25a171.6,171.6,0,0,0-23.611,4.761.5.5,0,0,0,.278.954c.436-.127,43.792-12.538,55.948.22a.5.5,0,0,0,.542.12" transform="translate(-1480.713 -1417.619)" fill="#fff"/>
                </g>
              </g>
            </g>
          </g>
        </g>
        <g id="Grupo_98121" data-name="Grupo 98121" transform="translate(111.986 -0.001)">
          <g id="Grupo_98120" data-name="Grupo 98120" clip-path="url(#clip-path-31)">
            <rect id="Rectángulo_54220" data-name="Rectángulo 54220" width="132.448" height="113.156" transform="translate(-27.39 10.384) rotate(-21.45)" fill="#ffa726"/>
          </g>
        </g>
        <g id="Grupo_98123" data-name="Grupo 98123" transform="translate(0 -0.001)">
          <g id="Grupo_98122" data-name="Grupo 98122" clip-path="url(#clip-path-3)">
            <path id="Trazado_131130" data-name="Trazado 131130" d="M846.635,161.721a8.124,8.124,0,0,1-9.962,7.261c-3.458-.822-6.563-1.552-6.563-1.552L830,145.543l7.755-1.473a8.11,8.11,0,0,1,9.6,8.605Z" transform="translate(-725.709 -125.842)" fill="#26264f"/>
          </g>
        </g>
        <g id="Grupo_98125" data-name="Grupo 98125" transform="translate(118.084 60.943)">
          <g id="Grupo_98124" data-name="Grupo 98124" clip-path="url(#clip-path-33)">
            <rect id="Rectángulo_54222" data-name="Rectángulo 54222" width="330.71" height="290.778" transform="translate(-128.684 212.996) rotate(-60.597)" fill="#34af00"/>
          </g>
        </g>
        <g id="Grupo_98132" data-name="Grupo 98132" transform="translate(0 -0.001)">
          <g id="Grupo_98131" data-name="Grupo 98131" clip-path="url(#clip-path-3)">
            <g id="Grupo_98130" data-name="Grupo 98130" transform="translate(118.084 60.944)" opacity="0.3" style="mix-blend-mode: multiply;isolation: isolate">
              <g id="Grupo_98129" data-name="Grupo 98129">
                <g id="Grupo_98128" data-name="Grupo 98128" clip-path="url(#clip-path-35)">
                  <g id="Grupo_98127" data-name="Grupo 98127" transform="translate(0 0)">
                    <g id="Grupo_98126" data-name="Grupo 98126" clip-path="url(#clip-path-36)">
                      <rect id="Rectángulo_54223" data-name="Rectángulo 54223" width="164.202" height="283.8" transform="translate(-8.652 0)" fill="url(#linear-gradient-14)"/>
                    </g>
                  </g>
                </g>
              </g>
            </g>
          </g>
        </g>
        <g id="Grupo_98134" data-name="Grupo 98134" transform="translate(106.562 47.605)" style="mix-blend-mode: hard-light;isolation: isolate">
          <g id="Grupo_98133" data-name="Grupo 98133" clip-path="url(#clip-path-37)">
            <rect id="Rectángulo_54226" data-name="Rectángulo 54226" width="111.91" height="104.882" transform="translate(-49.022 60.649) rotate(-51.686)" fill="#ffa726"/>
          </g>
        </g>
        <g id="Grupo_98136" data-name="Grupo 98136" transform="translate(111.464 51.556)">
          <g id="Grupo_98135" data-name="Grupo 98135" clip-path="url(#clip-path-38)">
            <path id="Trazado_131134" data-name="Trazado 131134" d="M547.363,291.547l80.89,55.113,58.705-92.744L606.068,198.8Z" transform="translate(-590.052 -225.38)" fill="#ffa726"/>
          </g>
        </g>
        <g id="Grupo_98138" data-name="Grupo 98138" transform="translate(125.307 0.129)">
          <g id="Grupo_98137" data-name="Grupo 98137" clip-path="url(#clip-path-39)">
            <path id="Trazado_131136" data-name="Trazado 131136" d="M906.121-408.322,762.075-315.595,682.206-446.83l144.045-92.727Z" transform="translate(-721.795 471.634)" fill="#ffa726"/>
          </g>
        </g>
        <g id="Grupo_98145" data-name="Grupo 98145" transform="translate(0 -0.001)">
          <g id="Grupo_98144" data-name="Grupo 98144" clip-path="url(#clip-path-3)">
            <g id="Grupo_98143" data-name="Grupo 98143" transform="translate(125.307 11.943)" opacity="0.6" style="mix-blend-mode: multiply;isolation: isolate">
              <g id="Grupo_98142" data-name="Grupo 98142">
                <g id="Grupo_98141" data-name="Grupo 98141" clip-path="url(#clip-path-41)">
                  <g id="Grupo_98140" data-name="Grupo 98140" transform="translate(0 -0.001)">
                    <g id="Grupo_98139" data-name="Grupo 98139" clip-path="url(#clip-path-42)">
                      <rect id="Rectángulo_54227" data-name="Rectángulo 54227" width="86.275" height="139.391" transform="matrix(0.076, -0.997, 0.997, 0.076, -6.847, 75.862)" fill="url(#linear-gradient-15)"/>
                    </g>
                  </g>
                </g>
              </g>
            </g>
          </g>
        </g>
        <g id="Grupo_98147" data-name="Grupo 98147" transform="translate(99.328 19.7)">
          <g id="Grupo_98146" data-name="Grupo 98146" clip-path="url(#clip-path-43)">
            <rect id="Rectángulo_54230" data-name="Rectángulo 54230" width="24.022" height="19.64" transform="translate(-9.474 16.497) rotate(-60.214)" fill="url(#linear-gradient-16)"/>
          </g>
        </g>
        <g id="Grupo_98149" data-name="Grupo 98149" transform="translate(0 -0.001)">
          <g id="Grupo_98148" data-name="Grupo 98148" clip-path="url(#clip-path-3)">
            <path id="Trazado_131140" data-name="Trazado 131140" d="M1259.676,1440.859c-16.6-4.089-32.943,12.475-37.427,27.622a35.42,35.42,0,0,0-1.409,11.152,75.116,75.116,0,0,0-2.308,12.615,1.406,1.406,0,0,0,1.29,1.513c.038,0,.076,0,.113,0a1.407,1.407,0,0,0,1.4-1.295c.02-.249,2.134-24.945,14.541-31.81,12.435-6.88,30.505,1.4,30.686,1.486,0,0-31.191-12.534-38.049,14.3a17.187,17.187,0,0,1,4.32-2.47c9.219-3.577,16.3,3.219,28.048,1.85,5.08-.592,12.126-2.839,20.1-10.45-3.067-12.056-10.978-21.973-21.3-24.517" transform="translate(-1065.421 -1259.267)" fill="#fff"/>
            <path id="Trazado_131141" data-name="Trazado 131141" d="M1761.39,1688.162c11.431-12.707,4.531-34.933-6.713-46.03a35.416,35.416,0,0,0-9.17-6.5,75.137,75.137,0,0,0-10.037-7.984,1.406,1.406,0,0,0-1.943.424c-.021.032-.04.065-.057.1a1.407,1.407,0,0,0,.481,1.846c.21.135,20.992,13.644,21.2,27.822.2,14.21-15.619,26.241-15.779,26.36,0,0,25.759-21.6,5.331-40.3a17.193,17.193,0,0,1,.141,4.974c-1.192,9.816-10.525,12.858-14.856,23.863-1.873,4.759-3.214,12.032-.26,22.649,12.078,2.98,24.554.679,31.665-7.226" transform="translate(-1510.878 -1422.942)" fill="#fff"/>
            <path id="Trazado_131142" data-name="Trazado 131142" d="M1194.482,1966.8c7.737,15.241,30.956,16.811,45.358,10.318a35.416,35.416,0,0,0,9.368-6.213,75.093,75.093,0,0,0,11.063-6.487,1.406,1.406,0,0,0,.3-1.965c-.022-.031-.046-.061-.071-.089a1.407,1.407,0,0,0-1.895-.216c-.2.147-20.289,14.668-33.589,9.752-13.329-4.928-18.853-24.023-18.907-24.215,0,0,10.868,31.809,35.671,19.488a17.19,17.19,0,0,1-4.691-1.66c-8.728-4.648-8.2-14.45-16.91-22.454-3.765-3.462-10.067-7.332-21.035-8.4-7.13,10.193-9.478,22.661-4.665,32.141" transform="translate(-1042.191 -1691.575)" fill="#fff"/>
          </g>
        </g>
        <g id="Grupo_98151" data-name="Grupo 98151" transform="translate(78.687 333.104)">
          <g id="Grupo_98150" data-name="Grupo 98150" clip-path="url(#clip-path-45)">
            <rect id="Rectángulo_54232" data-name="Rectángulo 54232" width="5.728" height="13.469" transform="translate(-0.421 4.987) rotate(-86.82)" fill="url(#linear-gradient-17)"/>
          </g>
        </g>
        <g id="Grupo_98153" data-name="Grupo 98153" transform="translate(78.763 328.505)">
          <g id="Grupo_98152" data-name="Grupo 98152" clip-path="url(#clip-path-46)">
            <rect id="Rectángulo_54233" data-name="Rectángulo 54233" width="3.937" height="6.403" transform="translate(0)" fill="url(#linear-gradient-18)"/>
          </g>
        </g>
        <g id="Grupo_98155" data-name="Grupo 98155" transform="translate(32.29 328.158)">
          <g id="Grupo_98154" data-name="Grupo 98154" clip-path="url(#clip-path-47)">
            <rect id="Rectángulo_54234" data-name="Rectángulo 54234" width="13.957" height="10.724" transform="translate(-1.596 13.382) rotate(-86.82)" fill="url(#linear-gradient-19)"/>
          </g>
        </g>
        <g id="Grupo_98157" data-name="Grupo 98157" transform="translate(34.892 322.738)">
          <g id="Grupo_98156" data-name="Grupo 98156" clip-path="url(#clip-path-48)">
            <rect id="Rectángulo_54235" data-name="Rectángulo 54235" width="8.19" height="12.834" transform="translate(-0.359)" fill="url(#linear-gradient-20)"/>
          </g>
        </g>
        <g id="Grupo_98159" data-name="Grupo 98159" transform="translate(72.914 231.711)">
          <g id="Grupo_98158" data-name="Grupo 98158" clip-path="url(#clip-path-49)">
            <rect id="Rectángulo_54236" data-name="Rectángulo 54236" width="102.802" height="44.011" transform="translate(-17.367 97.147) rotate(-81.119)" fill="url(#linear-gradient-21)"/>
          </g>
        </g>
        <g id="Grupo_98161" data-name="Grupo 98161" transform="translate(37.573 234.202)">
          <g id="Grupo_98160" data-name="Grupo 98160" clip-path="url(#clip-path-50)">
            <rect id="Rectángulo_54237" data-name="Rectángulo 54237" width="91.544" height="94.376" transform="matrix(0.733, -0.681, 0.681, 0.733, -46.444, 43.163)" fill="url(#linear-gradient-22)"/>
          </g>
        </g>
        <g id="Grupo_98163" data-name="Grupo 98163" transform="translate(136.833 167.773)">
          <g id="Grupo_98162" data-name="Grupo 98162" clip-path="url(#clip-path-51)">
            <rect id="Rectángulo_54238" data-name="Rectángulo 54238" width="13.393" height="15.549" transform="translate(-3.084 8.26) rotate(-69.527)" fill="url(#linear-gradient-23)"/>
          </g>
        </g>
        <g id="Grupo_98165" data-name="Grupo 98165" transform="translate(0 -0.001)">
          <g id="Grupo_98164" data-name="Grupo 98164" clip-path="url(#clip-path-3)">
            <path id="Trazado_131150" data-name="Trazado 131150" d="M771.611,1191.093l-3.085-2.742c-.376.38-5.866,5.738-13.541,4.114-5.284-1.118-8.332-5.458-10.285-8.228-5.864-8.32-2.357-14.424-8.671-20.078-1.753-1.57-5.193-3.471-7.441-2.891-5.358,1.381-8.442,17.494-3.257,30.168,1.047,2.558,6.81,16.643,19.884,18.169,10.556,1.232,21.749-6.205,26.4-18.512" transform="translate(-631.864 -1015.264)" fill="#fff"/>
          </g>
        </g>
        <g id="Grupo_98167" data-name="Grupo 98167" transform="translate(4.187 125.246)">
          <g id="Grupo_98166" data-name="Grupo 98166" clip-path="url(#clip-path-53)">
            <rect id="Rectángulo_54240" data-name="Rectángulo 54240" width="136.8" height="131.704" transform="translate(-50.849 71.372) rotate(-54.782)" fill="url(#linear-gradient-24)"/>
          </g>
        </g>
        <g id="Grupo_98179" data-name="Grupo 98179" transform="translate(0 -0.001)">
          <g id="Grupo_98178" data-name="Grupo 98178" clip-path="url(#clip-path-3)">
            <g id="Grupo_98172" data-name="Grupo 98172" transform="translate(90.801 157.937)" opacity="0.15" style="mix-blend-mode: multiply;isolation: isolate">
              <g id="Grupo_98171" data-name="Grupo 98171">
                <g id="Grupo_98170" data-name="Grupo 98170" clip-path="url(#clip-path-55)">
                  <g id="Grupo_98169" data-name="Grupo 98169" transform="translate(0 0)">
                    <g id="Grupo_98168" data-name="Grupo 98168" clip-path="url(#clip-path-56)">
                      <rect id="Rectángulo_54241" data-name="Rectángulo 54241" width="49.325" height="37.636" transform="translate(-0.381 0)" fill="url(#linear-gradient-25)"/>
                    </g>
                  </g>
                </g>
              </g>
            </g>
            <path id="Trazado_131153" data-name="Trazado 131153" d="M162.845,1145.028c-.592-.92-2.474-3.468-10.463-5.346a45.979,45.979,0,0,0-20.932-.535,46.753,46.753,0,0,0-24.3,13.922,32.788,32.788,0,0,1,12.874,16.091c1.068,2.945,4.223,13.013-.289,22.443-2.6,5.434-7.2,9.514-10.691,12.613-5.239,4.647-7.952,5.362-9.708,9.525-1.912,4.534.015,6.745-2.36,9.849-2.551,3.333-5.54,1.784-9.863,5.155-4.429,3.453-2.853,6.295-6.883,10.11-5.857,5.544-13.621,3.743-13.982,6.238-.311,2.146,5.207,5.058,9.895,6.238,9.284,2.339,17.382-1.586,19.79-2.8,6.667-3.349,5.515-5.517,10.6-8.071,8.511-4.276,14.328.482,33.714.972,10.5.266,15.806.325,18.714-3.227,2.656-3.244,1.26-6.8-.334-22.14v0c-.512-5.122-1.585-15.846-1.591-21.957,0-3.612,1.249-9.513,3.754-21.315.148-.7,1.5-7.072,2.6-15.59.986-7.67.843-10.025-.542-12.178" transform="translate(-57.913 -995.167)" fill="#fff"/>
            <g id="Grupo_98177" data-name="Grupo 98177" transform="translate(8.322 157.033)" opacity="0.15" style="mix-blend-mode: multiply;isolation: isolate">
              <g id="Grupo_98176" data-name="Grupo 98176">
                <g id="Grupo_98175" data-name="Grupo 98175" clip-path="url(#clip-path-57)">
                  <g id="Grupo_98174" data-name="Grupo 98174" transform="translate(0 -0.001)">
                    <g id="Grupo_98173" data-name="Grupo 98173" clip-path="url(#clip-path-58)">
                      <rect id="Rectángulo_54243" data-name="Rectángulo 54243" width="107.003" height="86.593" transform="matrix(0.161, -0.987, 0.987, 0.161, -15.439, 94.144)" fill="url(#linear-gradient-26)"/>
                    </g>
                  </g>
                </g>
              </g>
            </g>
          </g>
        </g>
        <g id="Grupo_98181" data-name="Grupo 98181" transform="translate(68.721 133.751)">
          <g id="Grupo_98180" data-name="Grupo 98180" clip-path="url(#clip-path-59)">
            <rect id="Rectángulo_54246" data-name="Rectángulo 54246" width="27.547" height="25.248" transform="translate(-7.201 4.665) rotate(-34.563)" fill="url(#linear-gradient-27)"/>
          </g>
        </g>
        <g id="Grupo_98183" data-name="Grupo 98183" transform="translate(77.023 129.977)">
          <g id="Grupo_98182" data-name="Grupo 98182" clip-path="url(#clip-path-60)">
            <rect id="Rectángulo_54247" data-name="Rectángulo 54247" width="11.279" height="11.168" transform="translate(-3.813 6.122) rotate(-58.95)" fill="url(#linear-gradient-28)"/>
          </g>
        </g>
        <g id="Grupo_98185" data-name="Grupo 98185" transform="translate(63.696 144.748)">
          <g id="Grupo_98184" data-name="Grupo 98184" clip-path="url(#clip-path-61)">
            <rect id="Rectángulo_54248" data-name="Rectángulo 54248" width="45.921" height="102.739" transform="translate(0 0)" fill="#ffd54f"/>
          </g>
        </g>
        <g id="Grupo_98187" data-name="Grupo 98187" transform="translate(62.223 187.713)">
          <g id="Grupo_98186" data-name="Grupo 98186" clip-path="url(#clip-path-62)">
            <rect id="Rectángulo_54249" data-name="Rectángulo 54249" width="12.846" height="15.249" transform="translate(-3.019 5.183) rotate(-59.778)" fill="url(#linear-gradient-29)"/>
          </g>
        </g>
        <g id="Grupo_98189" data-name="Grupo 98189" transform="translate(0 -0.001)">
          <g id="Grupo_98188" data-name="Grupo 98188" clip-path="url(#clip-path-3)">
            <path id="Trazado_131159" data-name="Trazado 131159" d="M304.413,1197.749s-20.535,13.566-22.5,26.69,26.717,15.223,26.717,15.223l1.8-3.908s-11.691-7.308-11.972-8.711,19.37-15.708,19.37-15.708Z" transform="translate(-246.409 -1047.254)" fill="#fff"/>
          </g>
        </g>
      </g>
    </g>
  </g>
</svg>
