<svg xmlns="http://www.w3.org/2000/svg" xmlns:xlink="http://www.w3.org/1999/xlink" width="1106.629" height="168.261" viewBox="0 0 1106.629 168.261">
  <defs>
    <clipPath id="clip-path">
      <rect id="Rectángulo_52386" data-name="Rectángulo 52386" width="53.872" height="111.747" fill="none"/>
    </clipPath>
  </defs>
  <g id="Grupo_98368" data-name="Grupo 98368" transform="translate(-246.686 -1668.739)">
    <g id="Grupo_92666" data-name="Grupo 92666" transform="translate(246.686 1668.739)">
      <g id="Grupo_92665" data-name="Grupo 92665" clip-path="url(#clip-path)">
        <path id="Trazado_123616" data-name="Trazado 123616" d="M96.182,26.116V0A55.712,55.712,0,0,0,60.063,14.931L78.478,33.37a29.7,29.7,0,0,1,17.7-7.254" transform="translate(-42.311)" fill="#ffa726"/>
        <path id="Trazado_123617" data-name="Trazado 123617" d="M78.265,265.783,59.98,284.044a55.777,55.777,0,0,0,36.144,14.931V273.2a29.845,29.845,0,0,1-17.859-7.412" transform="translate(-42.252 -187.228)" fill="#d2e1f1"/>
        <path id="Trazado_123618" data-name="Trazado 123618" d="M25.941,195.884H0a55.737,55.737,0,0,0,14.926,36.04L33.2,213.651a29.81,29.81,0,0,1-7.256-17.767" transform="translate(0 -137.988)" fill="#d2e1f1"/>
        <path id="Trazado_123619" data-name="Trazado 123619" d="M33.355,78.489,14.926,60.039A55.673,55.673,0,0,0,0,96.052H25.962a30.345,30.345,0,0,1,7.393-17.563" transform="translate(0 -42.294)" fill="#d2e1f1"/>
      </g>
    </g>
    <g id="Grupo_92668" data-name="Grupo 92668" transform="translate(528.186 1668.739)">
      <g id="Grupo_92665-2" data-name="Grupo 92665" clip-path="url(#clip-path)">
        <path id="Trazado_123616-2" data-name="Trazado 123616" d="M96.182,26.116V0A55.712,55.712,0,0,0,60.063,14.931L78.478,33.37a29.7,29.7,0,0,1,17.7-7.254" transform="translate(-42.311)" fill="#ffa726"/>
        <path id="Trazado_123617-2" data-name="Trazado 123617" d="M78.265,265.783,59.98,284.044a55.777,55.777,0,0,0,36.144,14.931V273.2a29.845,29.845,0,0,1-17.859-7.412" transform="translate(-42.252 -187.228)" fill="#d2e1f1"/>
        <path id="Trazado_123618-2" data-name="Trazado 123618" d="M25.941,195.884H0a55.737,55.737,0,0,0,14.926,36.04L33.2,213.651a29.81,29.81,0,0,1-7.256-17.767" transform="translate(0 -137.988)" fill="#d2e1f1"/>
        <path id="Trazado_123619-2" data-name="Trazado 123619" d="M33.355,78.489,14.926,60.039A55.673,55.673,0,0,0,0,96.052H25.962a30.345,30.345,0,0,1,7.393-17.563" transform="translate(0 -42.294)" fill="#34af00"/>
      </g>
    </g>
    <g id="Grupo_92670" data-name="Grupo 92670" transform="translate(787.186 1668.739)">
      <g id="Grupo_92665-3" data-name="Grupo 92665" clip-path="url(#clip-path)">
        <path id="Trazado_123616-3" data-name="Trazado 123616" d="M96.182,26.116V0A55.712,55.712,0,0,0,60.063,14.931L78.478,33.37a29.7,29.7,0,0,1,17.7-7.254" transform="translate(-42.311)" fill="#ffa726"/>
        <path id="Trazado_123617-3" data-name="Trazado 123617" d="M78.265,265.783,59.98,284.044a55.777,55.777,0,0,0,36.144,14.931V273.2a29.845,29.845,0,0,1-17.859-7.412" transform="translate(-42.252 -187.228)" fill="#d2e1f1"/>
        <path id="Trazado_123618-3" data-name="Trazado 123618" d="M25.941,195.884H0a55.737,55.737,0,0,0,14.926,36.04L33.2,213.651a29.81,29.81,0,0,1-7.256-17.767" transform="translate(0 -137.988)" fill="#ffd54f"/>
        <path id="Trazado_123619-3" data-name="Trazado 123619" d="M33.355,78.489,14.926,60.039A55.673,55.673,0,0,0,0,96.052H25.962a30.345,30.345,0,0,1,7.393-17.563" transform="translate(0 -42.294)" fill="#34af00"/>
      </g>
    </g>
    <g id="Grupo_92671" data-name="Grupo 92671" transform="translate(1073.314 1668.739)">
      <g id="Grupo_92665-4" data-name="Grupo 92665" clip-path="url(#clip-path)">
        <path id="Trazado_123616-4" data-name="Trazado 123616" d="M96.182,26.116V0A55.712,55.712,0,0,0,60.063,14.931L78.478,33.37a29.7,29.7,0,0,1,17.7-7.254" transform="translate(-42.311)" fill="#ffa726"/>
        <path id="Trazado_123617-4" data-name="Trazado 123617" d="M78.265,265.783,59.98,284.044a55.777,55.777,0,0,0,36.144,14.931V273.2a29.845,29.845,0,0,1-17.859-7.412" transform="translate(-42.252 -187.228)" fill="#bf8d48"/>
        <path id="Trazado_123618-4" data-name="Trazado 123618" d="M25.941,195.884H0a55.737,55.737,0,0,0,14.926,36.04L33.2,213.651a29.81,29.81,0,0,1-7.256-17.767" transform="translate(0 -137.988)" fill="#ffd54f"/>
        <path id="Trazado_123619-4" data-name="Trazado 123619" d="M33.355,78.489,14.926,60.039A55.673,55.673,0,0,0,0,96.052H25.962a30.345,30.345,0,0,1,7.393-17.563" transform="translate(0 -42.294)" fill="#34af00"/>
      </g>
    </g>
    <g id="Grupo_20671" data-name="Grupo 20671" transform="translate(319.686 1669)">
      <text id="Estructura_unidad_productiva" data-name="Estructura unidad productiva" fill="#12263f" font-size="18" font-family="Roboto-Black, Roboto" font-weight="800"><tspan x="0" y="17">Estructura unidad </tspan><tspan x="0" y="42">productiva</tspan></text>
      <text id="Es_la_distribución_del_personal_según_sus_funciones_y_sus_tareas_y_se_denomina_organigrama." data-name="Es la distribución del personal según sus funciones y sus tareas, y se denomina organigrama." transform="translate(0 59)" fill="#12263f" font-size="16" font-family="Roboto-Regular, Roboto"><tspan x="0" y="15">Es la distribución del </tspan><tspan x="0" y="37">personal según sus </tspan><tspan x="0" y="59">funciones y sus tareas, </tspan><tspan x="0" y="81">y se denomina </tspan><tspan x="0" y="103">organigrama.</tspan></text>
    </g>
    <g id="Grupo_92667" data-name="Grupo 92667" transform="translate(601.186 1669)">
      <text id="Planificación_estratégica" data-name="Planificación estratégica" fill="#12263f" font-size="18" font-family="Roboto-Black, Roboto" font-weight="800"><tspan x="0" y="17">Planificación </tspan><tspan x="0" y="42">estratégica</tspan></text>
      <text id="Es_el_conjunto_de_actividades_que_permite_alcanzar_los_objetivos_y_las_metas_de_la_organización." data-name="Es el conjunto de actividades que permite alcanzar los objetivos y las metas de la organización." transform="translate(0 60)" fill="#12263f" font-size="16" font-family="Roboto-Regular, Roboto"><tspan x="0" y="15">Es el conjunto de </tspan><tspan x="0" y="37">actividades que </tspan><tspan x="0" y="59">permite alcanzar los </tspan><tspan x="0" y="81">objetivos y las metas </tspan><tspan x="0" y="103">de la organización.</tspan></text>
    </g>
    <g id="Grupo_92669" data-name="Grupo 92669" transform="translate(860.186 1669)">
      <text id="Recursos" fill="#12263f" font-size="18" font-family="Roboto-Black, Roboto" font-weight="800"><tspan x="0" y="17">Recursos</tspan></text>
      <text id="Son_todos_aquellos_que_necesita_la_organización_para_funcionar_por_ejemplo_el_personal_la_infraestructura_el_dinero_y_el_equipamiento." data-name="Son todos aquellos que necesita la organización para funcionar, por ejemplo, el personal, la infraestructura, el dinero y el equipamiento." transform="translate(0 39)" fill="#12263f" font-size="16" font-family="Roboto-Regular, Roboto"><tspan x="0" y="15">Son todos aquellos que </tspan><tspan x="0" y="37">necesita la organización </tspan><tspan x="0" y="59">para funcionar, por </tspan><tspan x="0" y="81">ejemplo, el personal, la </tspan><tspan x="0" y="103">infraestructura, el dinero </tspan><tspan x="0" y="125">y el equipamiento.</tspan></text>
    </g>
    <g id="Grupo_92672" data-name="Grupo 92672" transform="translate(1146.314 1669)">
      <text id="Procedimientos" fill="#12263f" font-size="18" font-family="Roboto-Black, Roboto" font-weight="800"><tspan x="0" y="17">Procedimientos</tspan></text>
      <text id="Son_los_detalles_paso_a_paso_de_cómo_realizar_cada_actividad_o_tarea._Según_la_complejidad_de_la_estructura_los_procedimientos_pueden_estar_asentados_por_escrito." data-name="Son los detalles, paso a paso, de cómo realizar cada actividad o tarea. Según la complejidad de la estructura, los procedimientos pueden estar asentados por escrito." transform="translate(0 38)" fill="#12263f" font-size="16" font-family="Roboto-Regular, Roboto"><tspan x="0" y="15">Son los detalles, paso a </tspan><tspan x="0" y="37">paso, de cómo realizar cada </tspan><tspan x="0" y="59">actividad o tarea. Según la </tspan><tspan x="0" y="81">complejidad de la estructura, </tspan><tspan x="0" y="103">los procedimientos pueden </tspan><tspan x="0" y="125">estar asentados por escrito.</tspan></text>
    </g>
  </g>
</svg>
