<svg id="Grupo_80829" data-name="Grupo 80829" xmlns="http://www.w3.org/2000/svg" xmlns:xlink="http://www.w3.org/1999/xlink" width="419.785" height="415.606" viewBox="0 0 419.785 415.606">
  <defs>
    <clipPath id="clip-path">
      <rect id="Rectángulo_46621" data-name="Rectángulo 46621" width="419.785" height="415.606" fill="#78f146"/>
    </clipPath>
  </defs>
  <g id="Grupo_80828" data-name="Grupo 80828" clip-path="url(#clip-path)">
    <path id="Trazado_114811" data-name="Trazado 114811" d="M270.347,410.9,108.435,361.532A133.238,133.238,0,0,1,19.849,195.225L69.217,33.314a43.063,43.063,0,0,1,53.75-28.631L284.878,54.052a133.242,133.242,0,0,1,88.587,166.307L324.1,382.27a43.064,43.064,0,0,1-53.75,28.631" transform="translate(14.131 2.822)" fill="#ffa726"/>
    <path id="Trazado_114813" data-name="Trazado 114813" d="M30.738,135.469a.566.566,0,1,0-.568-.568.568.568,0,0,0,.568.568" transform="translate(30.408 135.399)" fill="#fff"/>
    <path id="Trazado_114814" data-name="Trazado 114814" d="M37.174,136.776a1.437,1.437,0,1,0-1.436-1.436,1.435,1.435,0,0,0,1.436,1.436" transform="translate(36.021 134.962)" fill="#fff"/>
    <path id="Trazado_114815" data-name="Trazado 114815" d="M43.408,137.478a1.9,1.9,0,1,0-1.9-1.9,1.9,1.9,0,0,0,1.9,1.9" transform="translate(41.833 134.728)" fill="#fff"/>
    <path id="Trazado_114816" data-name="Trazado 114816" d="M49.408,137.478a1.9,1.9,0,1,0-1.9-1.9,1.9,1.9,0,0,0,1.9,1.9" transform="translate(47.881 134.728)" fill="#fff"/>
    <path id="Trazado_114817" data-name="Trazado 114817" d="M55.225,136.926a1.536,1.536,0,1,0-1.538-1.536,1.535,1.535,0,0,0,1.538,1.536" transform="translate(54.111 134.912)" fill="#fff"/>
    <path id="Trazado_114818" data-name="Trazado 114818" d="M60.806,135.673a.7.7,0,1,0-.7-.7.7.7,0,0,0,.7.7" transform="translate(60.578 135.33)" fill="#fff"/>
    <rect id="Rectángulo_46613" data-name="Rectángulo 46613" width="0.048" height="0.048" transform="translate(133.397 270.301) rotate(-45)" fill="#fff"/>
    <path id="Trazado_114819" data-name="Trazado 114819" d="M25.358,143.328a1.8,1.8,0,1,0-1.8-1.8,1.8,1.8,0,0,0,1.8,1.8" transform="translate(23.741 140.824)" fill="#fff"/>
    <path id="Trazado_114820" data-name="Trazado 114820" d="M31.9,144.933a2.872,2.872,0,1,0-2.873-2.873,2.874,2.874,0,0,0,2.873,2.873" transform="translate(29.251 140.288)" fill="#fff"/>
    <path id="Trazado_114821" data-name="Trazado 114821" d="M37.929,145.035a2.941,2.941,0,1,0-2.94-2.94,2.94,2.94,0,0,0,2.94,2.94" transform="translate(35.266 140.254)" fill="#fff"/>
    <path id="Trazado_114822" data-name="Trazado 114822" d="M43.929,145.035a2.941,2.941,0,1,0-2.94-2.94,2.94,2.94,0,0,0,2.94,2.94" transform="translate(41.313 140.254)" fill="#fff"/>
    <path id="Trazado_114823" data-name="Trazado 114823" d="M49.929,145.035a2.941,2.941,0,1,0-2.94-2.94,2.94,2.94,0,0,0,2.94,2.94" transform="translate(47.36 140.254)" fill="#fff"/>
    <path id="Trazado_114824" data-name="Trazado 114824" d="M55.929,145.035a2.941,2.941,0,1,0-2.94-2.94,2.94,2.94,0,0,0,2.94,2.94" transform="translate(53.408 140.254)" fill="#fff"/>
    <path id="Trazado_114825" data-name="Trazado 114825" d="M61.912,144.984A2.906,2.906,0,1,0,59,142.078a2.906,2.906,0,0,0,2.907,2.905" transform="translate(59.471 140.271)" fill="#fff"/>
    <path id="Trazado_114826" data-name="Trazado 114826" d="M67.56,143.93a2.2,2.2,0,1,0-2.2-2.2,2.206,2.206,0,0,0,2.2,2.2" transform="translate(65.872 140.624)" fill="#fff"/>
    <path id="Trazado_114827" data-name="Trazado 114827" d="M72.655,141.221a.4.4,0,1,0-.4-.4.4.4,0,0,0,.4.4" transform="translate(72.824 141.53)" fill="#fff"/>
    <path id="Trazado_114828" data-name="Trazado 114828" d="M25.476,149.68a2.038,2.038,0,1,0-2.038-2.038,2.038,2.038,0,0,0,2.038,2.038" transform="translate(23.623 146.755)" fill="#fff"/>
    <path id="Trazado_114829" data-name="Trazado 114829" d="M31.929,151.035a2.941,2.941,0,1,0-2.94-2.94,2.94,2.94,0,0,0,2.94,2.94" transform="translate(29.218 146.301)" fill="#fff"/>
    <path id="Trazado_114830" data-name="Trazado 114830" d="M37.929,151.035a2.941,2.941,0,1,0-2.94-2.94,2.94,2.94,0,0,0,2.94,2.94" transform="translate(35.266 146.301)" fill="#fff"/>
    <path id="Trazado_114831" data-name="Trazado 114831" d="M43.929,151.035a2.941,2.941,0,1,0-2.94-2.94,2.94,2.94,0,0,0,2.94,2.94" transform="translate(41.313 146.301)" fill="#fff"/>
    <path id="Trazado_114832" data-name="Trazado 114832" d="M49.929,151.035a2.941,2.941,0,1,0-2.94-2.94,2.94,2.94,0,0,0,2.94,2.94" transform="translate(47.36 146.301)" fill="#fff"/>
    <path id="Trazado_114833" data-name="Trazado 114833" d="M55.929,151.035a2.941,2.941,0,1,0-2.94-2.94,2.94,2.94,0,0,0,2.94,2.94" transform="translate(53.408 146.301)" fill="#fff"/>
    <path id="Trazado_114834" data-name="Trazado 114834" d="M61.929,151.035a2.941,2.941,0,1,0-2.94-2.94,2.94,2.94,0,0,0,2.94,2.94" transform="translate(59.455 146.301)" fill="#fff"/>
    <path id="Trazado_114835" data-name="Trazado 114835" d="M67.929,151.035a2.941,2.941,0,1,0-2.94-2.94,2.94,2.94,0,0,0,2.94,2.94" transform="translate(65.503 146.301)" fill="#fff"/>
    <path id="Trazado_114836" data-name="Trazado 114836" d="M73.761,150.534a2.606,2.606,0,1,0-2.606-2.606,2.606,2.606,0,0,0,2.606,2.606" transform="translate(71.717 146.47)" fill="#fff"/>
    <path id="Trazado_114837" data-name="Trazado 114837" d="M78.688,147.322a.468.468,0,1,0-.468-.468.468.468,0,0,0,.468.468" transform="translate(78.838 147.543)" fill="#fff"/>
    <path id="Trazado_114838" data-name="Trazado 114838" d="M25.023,154.326a1.136,1.136,0,1,0-1.136-1.136,1.135,1.135,0,0,0,1.136,1.136" transform="translate(24.076 153.255)" fill="#fff"/>
    <path id="Trazado_114839" data-name="Trazado 114839" d="M31.929,157.035a2.941,2.941,0,1,0-2.94-2.94,2.94,2.94,0,0,0,2.94,2.94" transform="translate(29.218 152.349)" fill="#fff"/>
    <path id="Trazado_114840" data-name="Trazado 114840" d="M37.929,157.035a2.941,2.941,0,1,0-2.94-2.94,2.94,2.94,0,0,0,2.94,2.94" transform="translate(35.266 152.349)" fill="#fff"/>
    <path id="Trazado_114841" data-name="Trazado 114841" d="M43.929,157.035a2.941,2.941,0,1,0-2.94-2.94,2.94,2.94,0,0,0,2.94,2.94" transform="translate(41.313 152.349)" fill="#fff"/>
    <path id="Trazado_114842" data-name="Trazado 114842" d="M49.929,157.035a2.941,2.941,0,1,0-2.94-2.94,2.94,2.94,0,0,0,2.94,2.94" transform="translate(47.36 152.349)" fill="#fff"/>
    <path id="Trazado_114843" data-name="Trazado 114843" d="M55.929,157.035a2.941,2.941,0,1,0-2.94-2.94,2.94,2.94,0,0,0,2.94,2.94" transform="translate(53.408 152.349)" fill="#fff"/>
    <path id="Trazado_114844" data-name="Trazado 114844" d="M61.929,157.035a2.941,2.941,0,1,0-2.94-2.94,2.94,2.94,0,0,0,2.94,2.94" transform="translate(59.455 152.349)" fill="#fff"/>
    <path id="Trazado_114845" data-name="Trazado 114845" d="M67.929,157.035a2.941,2.941,0,1,0-2.94-2.94,2.94,2.94,0,0,0,2.94,2.94" transform="translate(65.503 152.349)" fill="#fff"/>
    <path id="Trazado_114846" data-name="Trazado 114846" d="M73.929,157.035a2.941,2.941,0,1,0-2.94-2.94,2.94,2.94,0,0,0,2.94,2.94" transform="translate(71.55 152.349)" fill="#fff"/>
    <path id="Trazado_114847" data-name="Trazado 114847" d="M79.627,156.13a2.338,2.338,0,1,0-2.339-2.339,2.339,2.339,0,0,0,2.339,2.339" transform="translate(77.899 152.651)" fill="#fff"/>
    <rect id="Rectángulo_46614" data-name="Rectángulo 46614" width="0.094" height="0.094" transform="translate(169.507 306.444) rotate(-45)" fill="#fff"/>
    <rect id="Rectángulo_46615" data-name="Rectángulo 46615" width="0.283" height="0.283" transform="translate(48.899 318.491) rotate(-45)" fill="#fff"/>
    <path id="Trazado_114848" data-name="Trazado 114848" d="M31.777,162.583a2.639,2.639,0,1,0-2.638-2.638,2.638,2.638,0,0,0,2.638,2.638" transform="translate(29.369 158.547)" fill="#fff"/>
    <path id="Trazado_114849" data-name="Trazado 114849" d="M37.929,163.035a2.941,2.941,0,1,0-2.94-2.94,2.94,2.94,0,0,0,2.94,2.94" transform="translate(35.266 158.396)" fill="#fff"/>
    <path id="Trazado_114850" data-name="Trazado 114850" d="M43.929,163.035a2.941,2.941,0,1,0-2.94-2.94,2.94,2.94,0,0,0,2.94,2.94" transform="translate(41.313 158.396)" fill="#fff"/>
    <path id="Trazado_114851" data-name="Trazado 114851" d="M49.929,163.035a2.941,2.941,0,1,0-2.94-2.94,2.94,2.94,0,0,0,2.94,2.94" transform="translate(47.36 158.396)" fill="#fff"/>
    <path id="Trazado_114852" data-name="Trazado 114852" d="M55.929,163.035a2.941,2.941,0,1,0-2.94-2.94,2.94,2.94,0,0,0,2.94,2.94" transform="translate(53.408 158.396)" fill="#fff"/>
    <path id="Trazado_114853" data-name="Trazado 114853" d="M61.929,163.035a2.941,2.941,0,1,0-2.94-2.94,2.94,2.94,0,0,0,2.94,2.94" transform="translate(59.455 158.396)" fill="#fff"/>
    <path id="Trazado_114854" data-name="Trazado 114854" d="M67.929,163.035a2.941,2.941,0,1,0-2.94-2.94,2.94,2.94,0,0,0,2.94,2.94" transform="translate(65.503 158.396)" fill="#fff"/>
    <path id="Trazado_114855" data-name="Trazado 114855" d="M73.929,163.035a2.941,2.941,0,1,0-2.94-2.94,2.94,2.94,0,0,0,2.94,2.94" transform="translate(71.55 158.396)" fill="#fff"/>
    <path id="Trazado_114856" data-name="Trazado 114856" d="M79.929,163.035a2.941,2.941,0,1,0-2.94-2.94,2.94,2.94,0,0,0,2.94,2.94" transform="translate(77.598 158.396)" fill="#fff"/>
    <path id="Trazado_114857" data-name="Trazado 114857" d="M84.939,160.074a.969.969,0,1,0-.968-.968.967.967,0,0,0,.968.968" transform="translate(84.635 159.386)" fill="#fff"/>
    <path id="Trazado_114858" data-name="Trazado 114858" d="M31.09,166.526a1.27,1.27,0,1,0-1.269-1.269,1.269,1.269,0,0,0,1.269,1.269" transform="translate(30.057 165.282)" fill="#fff"/>
    <path id="Trazado_114859" data-name="Trazado 114859" d="M37.929,169.035a2.941,2.941,0,1,0-2.94-2.94,2.94,2.94,0,0,0,2.94,2.94" transform="translate(35.266 164.444)" fill="#fff"/>
    <path id="Trazado_114860" data-name="Trazado 114860" d="M43.929,169.035a2.941,2.941,0,1,0-2.94-2.94,2.94,2.94,0,0,0,2.94,2.94" transform="translate(41.313 164.444)" fill="#fff"/>
    <path id="Trazado_114861" data-name="Trazado 114861" d="M49.929,169.035a2.941,2.941,0,1,0-2.94-2.94,2.94,2.94,0,0,0,2.94,2.94" transform="translate(47.36 164.444)" fill="#fff"/>
    <path id="Trazado_114862" data-name="Trazado 114862" d="M55.929,169.035a2.941,2.941,0,1,0-2.94-2.94,2.94,2.94,0,0,0,2.94,2.94" transform="translate(53.408 164.444)" fill="#fff"/>
    <path id="Trazado_114863" data-name="Trazado 114863" d="M61.929,169.035a2.941,2.941,0,1,0-2.94-2.94,2.94,2.94,0,0,0,2.94,2.94" transform="translate(59.455 164.444)" fill="#fff"/>
    <path id="Trazado_114864" data-name="Trazado 114864" d="M67.929,169.035a2.941,2.941,0,1,0-2.94-2.94,2.94,2.94,0,0,0,2.94,2.94" transform="translate(65.503 164.444)" fill="#fff"/>
    <path id="Trazado_114865" data-name="Trazado 114865" d="M73.929,169.035a2.941,2.941,0,1,0-2.94-2.94,2.94,2.94,0,0,0,2.94,2.94" transform="translate(71.55 164.444)" fill="#fff"/>
    <path id="Trazado_114866" data-name="Trazado 114866" d="M79.929,169.035a2.941,2.941,0,1,0-2.94-2.94,2.94,2.94,0,0,0,2.94,2.94" transform="translate(77.598 164.444)" fill="#fff"/>
    <path id="Trazado_114867" data-name="Trazado 114867" d="M85.426,167.529a1.938,1.938,0,1,0-1.938-1.938,1.938,1.938,0,0,0,1.938,1.938" transform="translate(84.148 164.948)" fill="#fff"/>
    <rect id="Rectángulo_46616" data-name="Rectángulo 46616" width="0.094" height="0.094" transform="matrix(0.707, -0.707, 0.707, 0.707, 61.08, 342.586)" fill="#fff"/>
    <path id="Trazado_114868" data-name="Trazado 114868" d="M37.509,173.781a2.105,2.105,0,1,0-2.1-2.1,2.1,2.1,0,0,0,2.1,2.1" transform="translate(35.685 170.91)" fill="#fff"/>
    <path id="Trazado_114869" data-name="Trazado 114869" d="M43.929,175.035a2.941,2.941,0,1,0-2.94-2.94,2.94,2.94,0,0,0,2.94,2.94" transform="translate(41.313 170.491)" fill="#fff"/>
    <path id="Trazado_114870" data-name="Trazado 114870" d="M49.929,175.035a2.941,2.941,0,1,0-2.94-2.94,2.94,2.94,0,0,0,2.94,2.94" transform="translate(47.36 170.491)" fill="#fff"/>
    <path id="Trazado_114871" data-name="Trazado 114871" d="M55.929,175.035a2.941,2.941,0,1,0-2.94-2.94,2.94,2.94,0,0,0,2.94,2.94" transform="translate(53.408 170.491)" fill="#fff"/>
    <path id="Trazado_114872" data-name="Trazado 114872" d="M61.929,175.035a2.941,2.941,0,1,0-2.94-2.94,2.94,2.94,0,0,0,2.94,2.94" transform="translate(59.455 170.491)" fill="#fff"/>
    <path id="Trazado_114873" data-name="Trazado 114873" d="M67.929,175.035a2.941,2.941,0,1,0-2.94-2.94,2.94,2.94,0,0,0,2.94,2.94" transform="translate(65.503 170.491)" fill="#fff"/>
    <path id="Trazado_114874" data-name="Trazado 114874" d="M73.929,175.035a2.941,2.941,0,1,0-2.94-2.94,2.94,2.94,0,0,0,2.94,2.94" transform="translate(71.55 170.491)" fill="#fff"/>
    <path id="Trazado_114875" data-name="Trazado 114875" d="M79.929,175.035a2.941,2.941,0,1,0-2.94-2.94,2.94,2.94,0,0,0,2.94,2.94" transform="translate(77.598 170.491)" fill="#fff"/>
    <path id="Trazado_114876" data-name="Trazado 114876" d="M85.678,174.281a2.439,2.439,0,1,0-2.44-2.438,2.436,2.436,0,0,0,2.44,2.438" transform="translate(83.896 170.743)" fill="#fff"/>
    <path id="Trazado_114877" data-name="Trazado 114877" d="M36.571,176.97l.233-.235-.233-.233-.235.233Z" transform="translate(36.623 177.898)" fill="#fff"/>
    <path id="Trazado_114878" data-name="Trazado 114878" d="M43.627,180.13a2.338,2.338,0,1,0-2.339-2.339,2.339,2.339,0,0,0,2.339,2.339" transform="translate(41.614 176.841)" fill="#fff"/>
    <path id="Trazado_114879" data-name="Trazado 114879" d="M49.929,181.035a2.941,2.941,0,1,0-2.94-2.94,2.94,2.94,0,0,0,2.94,2.94" transform="translate(47.36 176.539)" fill="#fff"/>
    <path id="Trazado_114880" data-name="Trazado 114880" d="M55.929,181.035a2.941,2.941,0,1,0-2.94-2.94,2.94,2.94,0,0,0,2.94,2.94" transform="translate(53.408 176.539)" fill="#fff"/>
    <path id="Trazado_114881" data-name="Trazado 114881" d="M61.929,181.035a2.941,2.941,0,1,0-2.94-2.94,2.94,2.94,0,0,0,2.94,2.94" transform="translate(59.455 176.539)" fill="#fff"/>
    <path id="Trazado_114882" data-name="Trazado 114882" d="M67.929,181.035a2.941,2.941,0,1,0-2.94-2.94,2.94,2.94,0,0,0,2.94,2.94" transform="translate(65.503 176.539)" fill="#fff"/>
    <path id="Trazado_114883" data-name="Trazado 114883" d="M73.929,181.035a2.941,2.941,0,1,0-2.94-2.94,2.94,2.94,0,0,0,2.94,2.94" transform="translate(71.55 176.539)" fill="#fff"/>
    <path id="Trazado_114884" data-name="Trazado 114884" d="M79.929,181.035a2.941,2.941,0,1,0-2.94-2.94,2.94,2.94,0,0,0,2.94,2.94" transform="translate(77.598 176.539)" fill="#fff"/>
    <path id="Trazado_114885" data-name="Trazado 114885" d="M85.711,180.383a2.506,2.506,0,1,0-2.506-2.506,2.506,2.506,0,0,0,2.506,2.506" transform="translate(83.863 176.757)" fill="#fff"/>
    <rect id="Rectángulo_46617" data-name="Rectángulo 46617" width="0.283" height="0.283" transform="translate(85.041 366.681) rotate(-45)" fill="#fff"/>
    <path id="Trazado_114886" data-name="Trazado 114886" d="M49.426,185.529a1.938,1.938,0,1,0-1.938-1.938,1.938,1.938,0,0,0,1.938,1.938" transform="translate(47.863 183.09)" fill="#fff"/>
    <path id="Trazado_114887" data-name="Trazado 114887" d="M55.912,186.984a2.906,2.906,0,1,0-2.907-2.905,2.906,2.906,0,0,0,2.907,2.905" transform="translate(53.424 182.603)" fill="#fff"/>
    <path id="Trazado_114888" data-name="Trazado 114888" d="M61.929,187.035a2.941,2.941,0,1,0-2.94-2.94,2.94,2.94,0,0,0,2.94,2.94" transform="translate(59.455 182.586)" fill="#fff"/>
    <path id="Trazado_114889" data-name="Trazado 114889" d="M67.929,187.035a2.941,2.941,0,1,0-2.94-2.94,2.94,2.94,0,0,0,2.94,2.94" transform="translate(65.503 182.586)" fill="#fff"/>
    <path id="Trazado_114890" data-name="Trazado 114890" d="M73.929,187.035a2.941,2.941,0,1,0-2.94-2.94,2.94,2.94,0,0,0,2.94,2.94" transform="translate(71.55 182.586)" fill="#fff"/>
    <path id="Trazado_114891" data-name="Trazado 114891" d="M79.929,187.035a2.941,2.941,0,1,0-2.94-2.94,2.94,2.94,0,0,0,2.94,2.94" transform="translate(77.598 182.586)" fill="#fff"/>
    <path id="Trazado_114892" data-name="Trazado 114892" d="M85.509,185.781a2.105,2.105,0,1,0-2.1-2.1,2.1,2.1,0,0,0,2.1,2.1" transform="translate(84.064 183.005)" fill="#fff"/>
    <rect id="Rectángulo_46618" data-name="Rectángulo 46618" width="0.048" height="0.048" transform="translate(97.255 378.728) rotate(-45)" fill="#fff"/>
    <path id="Trazado_114893" data-name="Trazado 114893" d="M54.939,190.074a.969.969,0,1,0-.968-.968.967.967,0,0,0,.968.968" transform="translate(54.398 189.623)" fill="#fff"/>
    <path id="Trazado_114894" data-name="Trazado 114894" d="M61.643,192.181a2.371,2.371,0,1,0-2.371-2.371,2.372,2.372,0,0,0,2.371,2.371" transform="translate(59.741 188.92)" fill="#fff"/>
    <path id="Trazado_114895" data-name="Trazado 114895" d="M67.912,192.984A2.906,2.906,0,1,0,65,190.078a2.906,2.906,0,0,0,2.907,2.905" transform="translate(65.519 188.651)" fill="#fff"/>
    <path id="Trazado_114896" data-name="Trazado 114896" d="M73.929,193.035a2.941,2.941,0,1,0-2.94-2.94,2.94,2.94,0,0,0,2.94,2.94" transform="translate(71.55 188.633)" fill="#fff"/>
    <path id="Trazado_114897" data-name="Trazado 114897" d="M79.929,193.035a2.941,2.941,0,1,0-2.94-2.94,2.94,2.94,0,0,0,2.94,2.94" transform="translate(77.598 188.633)" fill="#fff"/>
    <path id="Trazado_114898" data-name="Trazado 114898" d="M85.074,190.476a1.236,1.236,0,1,0-1.237-1.237,1.237,1.237,0,0,0,1.237,1.237" transform="translate(84.5 189.49)" fill="#fff"/>
    <rect id="Rectángulo_46619" data-name="Rectángulo 46619" width="0.048" height="0.048" transform="translate(121.35 390.776) rotate(-45.002)" fill="#fff"/>
    <path id="Trazado_114899" data-name="Trazado 114899" d="M66.754,195.522a.6.6,0,1,0-.6-.6.6.6,0,0,0,.6.6" transform="translate(66.677 195.855)" fill="#fff"/>
    <path id="Trazado_114900" data-name="Trazado 114900" d="M73.14,196.676a1.369,1.369,0,1,0-1.369-1.369,1.37,1.37,0,0,0,1.369,1.369" transform="translate(72.338 195.47)" fill="#fff"/>
    <path id="Trazado_114901" data-name="Trazado 114901" d="M79.358,197.328a1.8,1.8,0,1,0-1.8-1.8,1.8,1.8,0,0,0,1.8,1.8" transform="translate(78.168 195.251)" fill="#fff"/>
    <rect id="Rectángulo_46620" data-name="Rectángulo 46620" width="0.283" height="0.283" transform="translate(169.373 390.776) rotate(-45)" fill="#fff"/>
    <path id="Trazado_114902" data-name="Trazado 114902" d="M134.227,2.19A2.189,2.189,0,1,1,132.039,0a2.189,2.189,0,0,1,2.189,2.189" transform="translate(130.876 0.001)" fill="#78f146"/>
    <path id="Trazado_114903" data-name="Trazado 114903" d="M139.279,2.19A2.189,2.189,0,1,1,137.091,0a2.189,2.189,0,0,1,2.189,2.189" transform="translate(135.968 0.001)" fill="#78f146"/>
    <path id="Trazado_114904" data-name="Trazado 114904" d="M144.331,2.19A2.189,2.189,0,1,1,142.143,0a2.189,2.189,0,0,1,2.189,2.189" transform="translate(141.06 0.001)" fill="#78f146"/>
    <path id="Trazado_114905" data-name="Trazado 114905" d="M149.383,2.19A2.189,2.189,0,1,1,147.195,0a2.189,2.189,0,0,1,2.189,2.189" transform="translate(146.152 0.001)" fill="#78f146"/>
    <path id="Trazado_114906" data-name="Trazado 114906" d="M154.435,2.19A2.189,2.189,0,1,1,152.247,0a2.189,2.189,0,0,1,2.189,2.189" transform="translate(151.244 0.001)" fill="#78f146"/>
    <path id="Trazado_114907" data-name="Trazado 114907" d="M159.487,2.19A2.189,2.189,0,1,1,157.3,0a2.189,2.189,0,0,1,2.189,2.189" transform="translate(156.336 0.001)" fill="#78f146"/>
    <path id="Trazado_114908" data-name="Trazado 114908" d="M164.54,2.19A2.19,2.19,0,1,1,162.35,0,2.189,2.189,0,0,1,164.54,2.19" transform="translate(161.427 0.001)" fill="#78f146"/>
    <path id="Trazado_114909" data-name="Trazado 114909" d="M169.59,2.19A2.189,2.189,0,1,1,167.4,0,2.189,2.189,0,0,1,169.59,2.19" transform="translate(166.519 0.001)" fill="#78f146"/>
    <path id="Trazado_114910" data-name="Trazado 114910" d="M174.642,2.19A2.189,2.189,0,1,1,172.454,0a2.189,2.189,0,0,1,2.189,2.189" transform="translate(171.611 0.001)" fill="#78f146"/>
    <path id="Trazado_114911" data-name="Trazado 114911" d="M132.047,5.726a2.189,2.189,0,1,1-2.191-2.189,2.19,2.19,0,0,1,2.191,2.189" transform="translate(128.679 3.565)" fill="#78f146"/>
    <path id="Trazado_114912" data-name="Trazado 114912" d="M137.1,5.726a2.19,2.19,0,1,1-2.191-2.189A2.19,2.19,0,0,1,137.1,5.726" transform="translate(133.77 3.565)" fill="#78f146"/>
    <path id="Trazado_114913" data-name="Trazado 114913" d="M142.15,5.726a2.189,2.189,0,1,1-2.189-2.189,2.189,2.189,0,0,1,2.189,2.189" transform="translate(138.862 3.565)" fill="#78f146"/>
    <path id="Trazado_114914" data-name="Trazado 114914" d="M147.2,5.726a2.189,2.189,0,1,1-2.189-2.189A2.189,2.189,0,0,1,147.2,5.726" transform="translate(143.954 3.565)" fill="#78f146"/>
    <path id="Trazado_114915" data-name="Trazado 114915" d="M152.254,5.726a2.189,2.189,0,1,1-2.189-2.189,2.189,2.189,0,0,1,2.189,2.189" transform="translate(149.046 3.565)" fill="#78f146"/>
    <path id="Trazado_114916" data-name="Trazado 114916" d="M157.306,5.726a2.189,2.189,0,1,1-2.189-2.189,2.189,2.189,0,0,1,2.189,2.189" transform="translate(154.138 3.565)" fill="#78f146"/>
    <path id="Trazado_114917" data-name="Trazado 114917" d="M162.358,5.726a2.189,2.189,0,1,1-2.189-2.189,2.189,2.189,0,0,1,2.189,2.189" transform="translate(159.23 3.565)" fill="#78f146"/>
    <path id="Trazado_114918" data-name="Trazado 114918" d="M167.41,5.726a2.189,2.189,0,1,1-2.189-2.189,2.189,2.189,0,0,1,2.189,2.189" transform="translate(164.322 3.565)" fill="#78f146"/>
    <path id="Trazado_114919" data-name="Trazado 114919" d="M172.462,5.726a2.189,2.189,0,1,1-2.189-2.189,2.189,2.189,0,0,1,2.189,2.189" transform="translate(169.414 3.565)" fill="#78f146"/>
    <path id="Trazado_114920" data-name="Trazado 114920" d="M134.227,9.81a2.189,2.189,0,1,1-2.189-2.189,2.189,2.189,0,0,1,2.189,2.189" transform="translate(130.876 7.681)" fill="#78f146"/>
    <path id="Trazado_114921" data-name="Trazado 114921" d="M139.279,9.81a2.189,2.189,0,1,1-2.189-2.189,2.189,2.189,0,0,1,2.189,2.189" transform="translate(135.968 7.681)" fill="#78f146"/>
    <path id="Trazado_114922" data-name="Trazado 114922" d="M144.331,9.81a2.189,2.189,0,1,1-2.189-2.189,2.189,2.189,0,0,1,2.189,2.189" transform="translate(141.06 7.681)" fill="#78f146"/>
    <path id="Trazado_114923" data-name="Trazado 114923" d="M149.383,9.81a2.189,2.189,0,1,1-2.189-2.189,2.189,2.189,0,0,1,2.189,2.189" transform="translate(146.152 7.681)" fill="#78f146"/>
    <path id="Trazado_114924" data-name="Trazado 114924" d="M154.435,9.81a2.189,2.189,0,1,1-2.189-2.189,2.189,2.189,0,0,1,2.189,2.189" transform="translate(151.244 7.681)" fill="#78f146"/>
    <path id="Trazado_114925" data-name="Trazado 114925" d="M159.487,9.81A2.189,2.189,0,1,1,157.3,7.621a2.189,2.189,0,0,1,2.189,2.189" transform="translate(156.336 7.681)" fill="#78f146"/>
    <path id="Trazado_114926" data-name="Trazado 114926" d="M164.54,9.81a2.19,2.19,0,1,1-2.191-2.189A2.189,2.189,0,0,1,164.54,9.81" transform="translate(161.427 7.681)" fill="#78f146"/>
    <path id="Trazado_114927" data-name="Trazado 114927" d="M169.59,9.81A2.189,2.189,0,1,1,167.4,7.621,2.189,2.189,0,0,1,169.59,9.81" transform="translate(166.519 7.681)" fill="#78f146"/>
    <path id="Trazado_114928" data-name="Trazado 114928" d="M174.642,9.81a2.189,2.189,0,1,1-2.189-2.189,2.189,2.189,0,0,1,2.189,2.189" transform="translate(171.611 7.681)" fill="#78f146"/>
    <path id="Trazado_114929" data-name="Trazado 114929" d="M132.047,13.346a2.189,2.189,0,1,1-2.191-2.189,2.19,2.19,0,0,1,2.191,2.189" transform="translate(128.679 11.245)" fill="#78f146"/>
    <path id="Trazado_114930" data-name="Trazado 114930" d="M137.1,13.346a2.19,2.19,0,1,1-2.191-2.189,2.19,2.19,0,0,1,2.191,2.189" transform="translate(133.77 11.245)" fill="#78f146"/>
    <path id="Trazado_114931" data-name="Trazado 114931" d="M142.15,13.346a2.189,2.189,0,1,1-2.189-2.189,2.189,2.189,0,0,1,2.189,2.189" transform="translate(138.862 11.245)" fill="#78f146"/>
    <path id="Trazado_114932" data-name="Trazado 114932" d="M147.2,13.346a2.189,2.189,0,1,1-2.189-2.189,2.189,2.189,0,0,1,2.189,2.189" transform="translate(143.954 11.245)" fill="#78f146"/>
    <path id="Trazado_114933" data-name="Trazado 114933" d="M152.254,13.346a2.189,2.189,0,1,1-2.189-2.189,2.189,2.189,0,0,1,2.189,2.189" transform="translate(149.046 11.245)" fill="#78f146"/>
    <path id="Trazado_114934" data-name="Trazado 114934" d="M157.306,13.346a2.189,2.189,0,1,1-2.189-2.189,2.189,2.189,0,0,1,2.189,2.189" transform="translate(154.138 11.245)" fill="#78f146"/>
    <path id="Trazado_114935" data-name="Trazado 114935" d="M162.358,13.346a2.189,2.189,0,1,1-2.189-2.189,2.189,2.189,0,0,1,2.189,2.189" transform="translate(159.23 11.245)" fill="#78f146"/>
    <path id="Trazado_114936" data-name="Trazado 114936" d="M167.41,13.346a2.189,2.189,0,1,1-2.189-2.189,2.189,2.189,0,0,1,2.189,2.189" transform="translate(164.322 11.245)" fill="#78f146"/>
    <path id="Trazado_114937" data-name="Trazado 114937" d="M172.462,13.346a2.189,2.189,0,1,1-2.189-2.189,2.189,2.189,0,0,1,2.189,2.189" transform="translate(169.414 11.245)" fill="#78f146"/>
    <path id="Trazado_114938" data-name="Trazado 114938" d="M134.227,17.43a2.189,2.189,0,1,1-2.189-2.189,2.189,2.189,0,0,1,2.189,2.189" transform="translate(130.876 15.361)" fill="#78f146"/>
    <path id="Trazado_114939" data-name="Trazado 114939" d="M139.279,17.43a2.189,2.189,0,1,1-2.189-2.189,2.189,2.189,0,0,1,2.189,2.189" transform="translate(135.968 15.361)" fill="#78f146"/>
    <path id="Trazado_114940" data-name="Trazado 114940" d="M144.331,17.43a2.189,2.189,0,1,1-2.189-2.189,2.189,2.189,0,0,1,2.189,2.189" transform="translate(141.06 15.361)" fill="#78f146"/>
    <path id="Trazado_114941" data-name="Trazado 114941" d="M149.383,17.43a2.189,2.189,0,1,1-2.189-2.189,2.189,2.189,0,0,1,2.189,2.189" transform="translate(146.152 15.361)" fill="#78f146"/>
    <path id="Trazado_114942" data-name="Trazado 114942" d="M154.435,17.43a2.189,2.189,0,1,1-2.189-2.189,2.189,2.189,0,0,1,2.189,2.189" transform="translate(151.244 15.361)" fill="#78f146"/>
    <path id="Trazado_114943" data-name="Trazado 114943" d="M159.487,17.43a2.189,2.189,0,1,1-2.189-2.189,2.189,2.189,0,0,1,2.189,2.189" transform="translate(156.336 15.361)" fill="#78f146"/>
    <path id="Trazado_114944" data-name="Trazado 114944" d="M164.54,17.43a2.19,2.19,0,1,1-2.191-2.189,2.189,2.189,0,0,1,2.191,2.189" transform="translate(161.427 15.361)" fill="#78f146"/>
    <path id="Trazado_114945" data-name="Trazado 114945" d="M169.59,17.43a2.189,2.189,0,1,1-2.189-2.189,2.189,2.189,0,0,1,2.189,2.189" transform="translate(166.519 15.361)" fill="#78f146"/>
    <path id="Trazado_114946" data-name="Trazado 114946" d="M174.642,17.43a2.189,2.189,0,1,1-2.189-2.189,2.189,2.189,0,0,1,2.189,2.189" transform="translate(171.611 15.361)" fill="#78f146"/>
    <path id="Trazado_114947" data-name="Trazado 114947" d="M132.047,20.966a2.189,2.189,0,1,1-2.191-2.189,2.19,2.19,0,0,1,2.191,2.189" transform="translate(128.679 18.925)" fill="#78f146"/>
    <path id="Trazado_114948" data-name="Trazado 114948" d="M137.1,20.966a2.19,2.19,0,1,1-2.191-2.189,2.19,2.19,0,0,1,2.191,2.189" transform="translate(133.77 18.925)" fill="#78f146"/>
    <path id="Trazado_114949" data-name="Trazado 114949" d="M142.15,20.966a2.189,2.189,0,1,1-2.189-2.189,2.189,2.189,0,0,1,2.189,2.189" transform="translate(138.862 18.925)" fill="#78f146"/>
    <path id="Trazado_114950" data-name="Trazado 114950" d="M147.2,20.966a2.189,2.189,0,1,1-2.189-2.189,2.189,2.189,0,0,1,2.189,2.189" transform="translate(143.954 18.925)" fill="#78f146"/>
    <path id="Trazado_114951" data-name="Trazado 114951" d="M152.254,20.966a2.189,2.189,0,1,1-2.189-2.189,2.189,2.189,0,0,1,2.189,2.189" transform="translate(149.046 18.925)" fill="#78f146"/>
    <path id="Trazado_114952" data-name="Trazado 114952" d="M157.306,20.966a2.189,2.189,0,1,1-2.189-2.189,2.189,2.189,0,0,1,2.189,2.189" transform="translate(154.138 18.925)" fill="#78f146"/>
    <path id="Trazado_114953" data-name="Trazado 114953" d="M162.358,20.966a2.189,2.189,0,1,1-2.189-2.189,2.189,2.189,0,0,1,2.189,2.189" transform="translate(159.23 18.925)" fill="#78f146"/>
    <path id="Trazado_114954" data-name="Trazado 114954" d="M167.41,20.966a2.189,2.189,0,1,1-2.189-2.189,2.189,2.189,0,0,1,2.189,2.189" transform="translate(164.322 18.925)" fill="#78f146"/>
    <path id="Trazado_114955" data-name="Trazado 114955" d="M172.462,20.966a2.189,2.189,0,1,1-2.189-2.189,2.189,2.189,0,0,1,2.189,2.189" transform="translate(169.414 18.925)" fill="#78f146"/>
    <path id="Trazado_114956" data-name="Trazado 114956" d="M203.089,207.255c0-4.648,2.773-7.016,5.221-9.1,2.351-2,4.379-3.737,4.379-7.279s-2.028-5.273-4.379-7.277c-2.448-2.088-5.221-4.456-5.221-9.1s2.773-7.012,5.221-9.1c2.351-2,4.379-3.733,4.379-7.273s-2.028-5.271-4.379-7.275c-2.448-2.086-5.221-4.451-5.221-9.1s2.773-7.012,5.221-9.1c2.351-2,4.379-3.735,4.379-7.273a1.2,1.2,0,1,1,2.4,0c0,4.646-2.773,7.012-5.221,9.1-2.349,2-4.379,3.735-4.379,7.273s2.03,5.271,4.379,7.275c2.448,2.088,5.221,4.454,5.221,9.1s-2.773,7.014-5.221,9.1c-2.349,2-4.379,3.733-4.379,7.273s2.03,5.273,4.379,7.277c2.448,2.088,5.221,4.456,5.221,9.1s-2.773,7.016-5.221,9.1c-2.349,2.006-4.379,3.737-4.379,7.279a1.2,1.2,0,1,1-2.4,0" transform="translate(204.694 125.156)" fill="#ffd54f"/>
    <path id="Trazado_114957" data-name="Trazado 114957" d="M196.117,207.255c0-4.648,2.773-7.016,5.221-9.1,2.351-2,4.379-3.737,4.379-7.279s-2.028-5.273-4.379-7.277c-2.448-2.088-5.221-4.456-5.221-9.1s2.773-7.012,5.221-9.1c2.351-2,4.379-3.733,4.379-7.273s-2.028-5.271-4.379-7.275c-2.448-2.086-5.221-4.451-5.221-9.1s2.773-7.012,5.221-9.1c2.351-2,4.379-3.735,4.379-7.273a1.2,1.2,0,1,1,2.4,0c0,4.646-2.773,7.012-5.221,9.1-2.349,2-4.379,3.735-4.379,7.273s2.03,5.271,4.379,7.275c2.448,2.088,5.221,4.454,5.221,9.1s-2.773,7.014-5.221,9.1c-2.349,2-4.379,3.733-4.379,7.273s2.03,5.273,4.379,7.277c2.448,2.088,5.221,4.456,5.221,9.1s-2.773,7.016-5.221,9.1c-2.349,2.006-4.379,3.737-4.379,7.279a1.2,1.2,0,1,1-2.4,0" transform="translate(197.667 125.156)" fill="#ffd54f"/>
    <path id="Trazado_114958" data-name="Trazado 114958" d="M83.081,165.2c-4.648,0-7.016-2.773-9.1-5.221-2-2.351-3.737-4.379-7.279-4.379s-5.273,2.028-7.277,4.379c-2.088,2.448-4.456,5.221-9.1,5.221s-7.012-2.773-9.1-5.221c-2-2.351-3.733-4.379-7.273-4.379s-5.271,2.028-7.275,4.379c-2.086,2.448-4.452,5.221-9.1,5.221s-7.012-2.773-9.1-5.221c-2-2.351-3.735-4.379-7.273-4.379a1.2,1.2,0,1,1,0-2.4c4.646,0,7.012,2.773,9.1,5.221,2,2.349,3.735,4.379,7.273,4.379s5.271-2.03,7.275-4.379c2.088-2.448,4.454-5.221,9.1-5.221s7.014,2.773,9.1,5.221c2,2.349,3.733,4.379,7.273,4.379s5.273-2.03,7.277-4.379c2.088-2.448,4.456-5.221,9.1-5.221s7.016,2.773,9.1,5.221c2.006,2.349,3.737,4.379,7.279,4.379a1.2,1.2,0,1,1,0,2.4" transform="translate(0 154.411)" fill="#ffa726"/>
    <path id="Trazado_114959" data-name="Trazado 114959" d="M83.081,172.171c-4.648,0-7.016-2.773-9.1-5.221-2-2.351-3.737-4.379-7.279-4.379s-5.273,2.028-7.277,4.379c-2.088,2.448-4.456,5.221-9.1,5.221s-7.012-2.773-9.1-5.221c-2-2.351-3.733-4.379-7.273-4.379s-5.271,2.028-7.275,4.379c-2.086,2.448-4.452,5.221-9.1,5.221s-7.012-2.773-9.1-5.221c-2-2.351-3.735-4.379-7.273-4.379a1.2,1.2,0,1,1,0-2.4c4.646,0,7.012,2.773,9.1,5.221,2,2.349,3.735,4.379,7.273,4.379s5.271-2.03,7.275-4.379c2.088-2.448,4.454-5.221,9.1-5.221s7.014,2.773,9.1,5.221c2,2.349,3.733,4.379,7.273,4.379s5.273-2.03,7.277-4.379c2.088-2.448,4.456-5.221,9.1-5.221s7.016,2.773,9.1,5.221c2.006,2.349,3.737,4.379,7.279,4.379a1.2,1.2,0,1,1,0,2.4" transform="translate(0 161.438)" fill="#ffa726"/>
  </g>
</svg>
