<svg xmlns="http://www.w3.org/2000/svg" xmlns:xlink="http://www.w3.org/1999/xlink" width="818.06" height="339.831" viewBox="0 0 818.06 339.831">
  <defs>
    <clipPath id="clip-path">
      <rect id="Rectángulo_54179" data-name="Rectángulo 54179" width="818.06" height="339.831" fill="none"/>
    </clipPath>
    <clipPath id="clip-path-2">
      <rect id="Rectángulo_54180" data-name="Rectángulo 54180" width="82.125" height="105.027" fill="none"/>
    </clipPath>
    <clipPath id="clip-path-3">
      <rect id="Rectángulo_54181" data-name="Rectángulo 54181" width="83.233" height="87.684" transform="translate(0 0)" fill="none"/>
    </clipPath>
    <clipPath id="clip-path-4">
      <rect id="Rectángulo_54182" data-name="Rectángulo 54182" width="126.713" height="97.879" fill="none"/>
    </clipPath>
    <clipPath id="clip-path-5">
      <rect id="Rectángulo_54183" data-name="Rectángulo 54183" width="107.27" height="106.428"/>
    </clipPath>
  </defs>
  <g id="Grupo_98370" data-name="Grupo 98370" transform="translate(-186.075 -971.445)">
    <g id="Grupo_98037" data-name="Grupo 98037" transform="translate(186.075 971.445)">
      <g id="Grupo_98036" data-name="Grupo 98036" clip-path="url(#clip-path)">
        <path id="Trazado_130993" data-name="Trazado 130993" d="M702.456,108.625a114.886,114.886,0,0,0-59.278,16.4l4.146,6.243a108.183,108.183,0,1,1-39.767,41.218l-.02-.011a115.6,115.6,0,1,0-201.2.629c.1.186.422.775.52.962a108.119,108.119,0,1,1-191.083-.781l-.041-.021a115.743,115.743,0,1,0-41.678,42.01l-4.181-6.223a108.222,108.222,0,1,1,39.752-40.167c-.066.116-.449.888-.516,1a115.6,115.6,0,1,0,203.321-1.252l0,0a106.857,106.857,0,0,1-13.793-52.684A108.12,108.12,0,1,1,600.636,169.5l.035.018a115.571,115.571,0,1,0,101.785-60.889" fill="#e0e0e0"/>
        <path id="Trazado_130994" data-name="Trazado 130994" d="M578.2,177.011A84.118,84.118,0,1,1,494.08,92.894,84.117,84.117,0,0,1,578.2,177.011" transform="translate(208.376 47.216)" fill="#ffd54f"/>
        <path id="Trazado_130995" data-name="Trazado 130995" d="M189.11,104.991a84.118,84.118,0,1,1-84.117-84.115,84.117,84.117,0,0,1,84.117,84.115" transform="translate(10.61 10.611)" fill="#34af00"/>
        <path id="Trazado_130996" data-name="Trazado 130996" d="M448.785,104.991a84.118,84.118,0,1,1-84.117-84.115,84.117,84.117,0,0,1,84.117,84.115" transform="translate(142.598 10.611)" fill="#bf8d48"/>
        <path id="Trazado_130997" data-name="Trazado 130997" d="M319.045,177.011a84.118,84.118,0,1,1-84.117-84.117,84.117,84.117,0,0,1,84.117,84.117" transform="translate(76.654 47.216)" fill="#ffa726"/>
      </g>
    </g>
    <g id="Grupo_98039" data-name="Grupo 98039" transform="translate(261.425 1036.334)">
      <g id="Grupo_98038" data-name="Grupo 98038" clip-path="url(#clip-path-2)">
        <path id="Trazado_130998" data-name="Trazado 130998" d="M6.626,105.027A8.459,8.459,0,0,1,.138,98.492,7.589,7.589,0,0,1,0,96.762Q0,55.849,0,14.936a8.131,8.131,0,0,1,8.3-8.293q7.63-.022,15.259.006a1.975,1.975,0,0,0,1.6-.679,7.867,7.867,0,0,1,6.013-2.607c.375,0,.752-.02,1.126,0a4.964,4.964,0,0,0,4.4-1.558,6.316,6.316,0,0,1,9.485.762,1.9,1.9,0,0,0,1.728.806,32.918,32.918,0,0,1,3.889.03A7.641,7.641,0,0,1,56.9,5.966a1.938,1.938,0,0,0,1.6.682q7.578-.029,15.157-.007a8.14,8.14,0,0,1,8.411,8.4c.007,26.9-.051,53.8.055,80.7.019,4.821-2.506,8.223-6.677,9.289ZM78.654,55.905q0-20.175,0-40.35c0-3.367-1.932-5.454-5.149-5.484-4.472-.043-8.944,0-13.416-.026-.782,0-.987.283-.974,1.025.041,2.287.03,4.574.015,6.861-.008,1.342-.6,1.951-1.939,1.952q-16.13.013-32.259,0c-1.4,0-1.976-.595-1.983-2.012-.011-2.287-.012-4.574.011-6.861.006-.6-.093-.965-.822-.961-4.608.022-9.218-.044-13.825.039a4.714,4.714,0,0,0-4.8,4.3,9.466,9.466,0,0,0-.084,1.529q-.005,39.94,0,79.881c0,.273-.006.546,0,.819a4.9,4.9,0,0,0,4.666,5.031,10.492,10.492,0,0,0,1.125.027h63.6c.273,0,.546.006.819-.005a4.851,4.851,0,0,0,4.947-4.4,9.973,9.973,0,0,0,.072-1.531q.005-19.919,0-39.838M40.977,16.469c4.571,0,9.141-.011,13.712.011.718,0,1.071-.167,1.037-.968-.052-1.226.018-2.456-.023-3.683a4.907,4.907,0,0,0-5.072-5.039c-1.534-.041-3.07-.035-4.6,0A2,2,0,0,1,43.92,5.513,3.108,3.108,0,0,0,38.161,5.5a2,2,0,0,1-2.1,1.292c-1.5-.034-3-.028-4.5,0a4.946,4.946,0,0,0-5.2,5.23c-.018,1.125.045,2.254-.019,3.376-.05.874.3,1.1,1.124,1.092,4.5-.032,9.005-.015,13.508-.015" transform="translate(0 0)"/>
        <path id="Trazado_130999" data-name="Trazado 130999" d="M92.918,90.852q0,20.122,0,40.244c0,2.016-.445,2.459-2.467,2.459h-64c-2.078,0-2.5-.425-2.5-2.531q0-40.141,0-80.283c0-2.112.416-2.536,2.49-2.536,2.9,0,5.8-.006,8.7,0,1.344,0,2.065.632,2.047,1.738-.017,1.054-.735,1.668-2.009,1.675-2.287.011-4.574.023-6.861-.007-.7-.009-1.033.213-.954.938a5.673,5.673,0,0,1,0,.614q0,37.735,0,75.47c0,1.5,0,1.5,1.505,1.5H88.067c1.43,0,1.431,0,1.431-1.471q0-37.786,0-75.572c0-1.466,0-1.467-1.434-1.468-2.116,0-4.233.007-6.349,0-1.336-.007-2.06-.641-2.038-1.747.021-1.055.734-1.661,2.016-1.665q4.454-.015,8.909,0c1.819,0,2.316.493,2.316,2.3q0,20.173,0,40.346" transform="translate(-17.399 -35.012)"/>
        <path id="Trazado_131000" data-name="Trazado 131000" d="M147.246,141.455c-4.5,0-9-.008-13.5.007a1.809,1.809,0,0,1-1.909-1.07,1.688,1.688,0,0,1,1.3-2.326,4.5,4.5,0,0,1,.714-.029q13.5,0,27,0c1.24,0,1.928.454,2.1,1.352a1.713,1.713,0,0,1-1.9,2.059c-4.4.014-8.8.006-13.195.007h-.614" transform="translate(-95.663 -100.264)"/>
        <path id="Trazado_131001" data-name="Trazado 131001" d="M147.375,207.324q-6.8,0-13.6,0c-1.27,0-1.981-.626-1.991-1.687a1.641,1.641,0,0,1,1.443-1.7,5.012,5.012,0,0,1,.715-.025h26.9c.17,0,.342,0,.511.007a1.7,1.7,0,0,1,.037,3.4c-.578.035-1.159.013-1.738.013H147.375" transform="translate(-95.72 -148.108)"/>
        <path id="Trazado_131002" data-name="Trazado 131002" d="M147.336,269.765c4.535,0,9.069.006,13.6-.006a1.889,1.889,0,0,1,1.775.788,1.712,1.712,0,0,1-1.051,2.589,3.864,3.864,0,0,1-.815.046q-13.5,0-27,.01c-.982,0-1.779-.233-2.079-1.258-.345-1.181.491-2.158,1.862-2.163,4.3-.015,8.592-.006,12.888-.007h.818" transform="translate(-95.654 -195.943)"/>
        <path id="Trazado_131003" data-name="Trazado 131003" d="M60.52,137.632a1.619,1.619,0,0,1-1.287-.524c-1.6-1.59-3.2-3.17-4.774-4.783a1.724,1.724,0,1,1,2.422-2.443c1.014.965,2.014,1.946,2.968,2.968.5.532.82.5,1.314-.01,2.028-2.074,4.1-4.109,6.145-6.164a1.744,1.744,0,0,1,2.225-.42,1.63,1.63,0,0,1,.838,1.823,1.864,1.864,0,0,1-.609,1.041l-7.891,7.892a1.746,1.746,0,0,1-1.35.619" transform="translate(-39.126 -91.536)"/>
        <path id="Trazado_131004" data-name="Trazado 131004" d="M70.411,193.757A1.741,1.741,0,0,1,69.779,195c-2.631,2.63-5.251,5.272-7.9,7.886a1.736,1.736,0,0,1-2.776-.041q-2.3-2.258-4.56-4.562a1.736,1.736,0,1,1,2.425-2.453c.983.947,1.963,1.9,2.893,2.9.494.53.818.5,1.314-.005,2.028-2.075,4.1-4.108,6.143-6.166a1.774,1.774,0,0,1,2.044-.512,1.64,1.64,0,0,1,1.047,1.708" transform="translate(-39.142 -139.396)"/>
        <path id="Trazado_131005" data-name="Trazado 131005" d="M60.507,269.4a1.736,1.736,0,0,1-1.361-.614c-1.544-1.546-3.1-3.078-4.629-4.639a1.744,1.744,0,0,1-.157-2.551,1.765,1.765,0,0,1,2.626.142c.933.9,1.876,1.8,2.745,2.757.562.622.931.658,1.538.025,1.818-1.9,3.7-3.731,5.56-5.589.193-.193.38-.393.584-.574a1.728,1.728,0,1,1,2.479,2.4c-.066.078-.14.15-.212.222q-3.837,3.838-7.674,7.676a1.906,1.906,0,0,1-1.5.74" transform="translate(-39.134 -187.258)"/>
        <path id="Trazado_131006" data-name="Trazado 131006" d="M145.435,24.295a1.7,1.7,0,1,1-1.679,1.669,1.655,1.655,0,0,1,1.679-1.669" transform="translate(-104.419 -17.647)"/>
      </g>
    </g>
    <g id="Grupo_98041" data-name="Grupo 98041" transform="translate(454.667 1150.99)">
      <g id="Grupo_98040" data-name="Grupo 98040" clip-path="url(#clip-path-3)">
        <path id="Trazado_131007" data-name="Trazado 131007" d="M80.544,0H2.687A2.686,2.686,0,0,0,0,2.687V54.951a2.68,2.68,0,0,0,1.017,2.086l12.975,10.3a2.687,2.687,0,0,0,3.342,0l11.3-8.973,11.305,8.973a2.688,2.688,0,0,0,3.342,0L54.59,58.363,65.9,67.338a2.7,2.7,0,0,0,3.341,0l12.977-10.3a2.682,2.682,0,0,0,1.016-1.99c0,.041,0,.042,0-.02V2.687A2.686,2.686,0,0,0,80.544,0M77.857,53.635,67.567,61.8,56.261,52.828a2.691,2.691,0,0,0-3.341,0L41.614,61.8l-11.3-8.974a2.686,2.686,0,0,0-3.341,0L15.663,61.8,5.374,53.635V5.373H77.857Z"/>
        <path id="Trazado_131008" data-name="Trazado 131008" d="M66.057,16.812H17.174a2.687,2.687,0,0,0,0,5.374H66.057a2.687,2.687,0,1,0,0-5.374"/>
        <path id="Trazado_131009" data-name="Trazado 131009" d="M66.057,28.976H17.174a2.687,2.687,0,1,0,0,5.374H66.057a2.687,2.687,0,1,0,0-5.374"/>
        <path id="Trazado_131010" data-name="Trazado 131010" d="M66.057,41.14H17.174a2.687,2.687,0,0,0,0,5.374H66.057a2.687,2.687,0,1,0,0-5.374"/>
        <path id="Trazado_131011" data-name="Trazado 131011" d="M83.232,65.9a2.691,2.691,0,0,0-4.358-1.981L67.568,72.89,56.261,63.915a2.688,2.688,0,0,0-3.341,0l-11.3,8.974L30.309,63.916a2.686,2.686,0,0,0-3.341,0L15.663,72.889l-11.3-8.973A2.69,2.69,0,0,0,0,65.9C0,65.912,0,85,0,85a2.687,2.687,0,0,0,2.687,2.687H80.545A2.688,2.688,0,0,0,83.232,85s0-19.085,0-19.1M5.375,82.31V71.583l8.618,6.842a2.688,2.688,0,0,0,3.341,0l11.305-8.974,11.305,8.974a2.688,2.688,0,0,0,3.341,0l11.306-8.974L65.9,78.425a2.688,2.688,0,0,0,3.341,0l8.62-6.842V82.31Z"/>
      </g>
    </g>
    <g id="Grupo_98044" data-name="Grupo 98044" transform="translate(632.954 1036.334)">
      <path id="Trazado_131012" data-name="Trazado 131012" d="M108.379,22.247,59.771,5.528,10.961,22.259,59.569,38.977Z" transform="translate(3.686 1.859)" fill="#6e4409"/>
      <g id="Grupo_98043" data-name="Grupo 98043" transform="translate(0 0)">
        <g id="Grupo_98042" data-name="Grupo 98042" clip-path="url(#clip-path-4)">
          <path id="Trazado_131013" data-name="Trazado 131013" d="M126.714,40.071a3.354,3.354,0,0,0-2.423-3.145l-18.015-5.738,18.011-5.715a3.252,3.252,0,0,0,0-6.29L64.628.182a3.846,3.846,0,0,0-2.332,0l-59.869,19a3.252,3.252,0,0,0,0,6.29l18.015,5.736L2.427,36.924a3.252,3.252,0,0,0,0,6.29L20.438,48.95,2.427,54.667a3.252,3.252,0,0,0,0,6.29l18.015,5.736L2.427,72.409a3.252,3.252,0,0,0,0,6.29l59.662,19a3.87,3.87,0,0,0,2.333,0l59.869-19a3.251,3.251,0,0,0,0-6.288l-18.015-5.738,18.011-5.717a3.251,3.251,0,0,0,0-6.288L106.277,48.93l18.011-5.717a3.356,3.356,0,0,0,2.427-3.143M14.647,22.332,63.459,6.84l48.607,15.481L63.256,37.813Zm97.418,53.217L63.256,91.04,14.649,75.56l16.844-5.345,30.592,9.743a3.87,3.87,0,0,0,2.333,0l30.8-9.775Zm0-17.743L63.256,73.3,14.647,57.817l16.846-5.345,30.592,9.743a3.87,3.87,0,0,0,2.333,0l30.8-9.775Zm-48.81-2.251L14.649,40.075l16.844-5.345,30.592,9.743a3.87,3.87,0,0,0,2.333,0l30.8-9.775,16.848,5.365Z" transform="translate(0 0)"/>
        </g>
      </g>
    </g>
    <g id="Grupo_98046" data-name="Grupo 98046" transform="translate(839.479 1141.361)">
      <g id="Grupo_98045" data-name="Grupo 98045" clip-path="url(#clip-path-5)">
        <path id="Trazado_131014" data-name="Trazado 131014" d="M94.341,38.227H93.012a39.4,39.4,0,0,0-78.756,0H12.93A12.945,12.945,0,0,0,0,51.157V93.5a12.944,12.944,0,0,0,12.93,12.929H94.341A12.943,12.943,0,0,0,107.27,93.5V51.157a12.944,12.944,0,0,0-12.929-12.93M53.634,6.485A32.951,32.951,0,0,1,86.523,38.227H78.446a24.838,24.838,0,0,0-49.622,0H20.746A32.95,32.95,0,0,1,53.634,6.485M71.95,38.227H35.322a18.351,18.351,0,0,1,36.628,0M100.786,93.5a6.453,6.453,0,0,1-6.445,6.444H12.93A6.453,6.453,0,0,1,6.484,93.5V51.157a6.454,6.454,0,0,1,6.446-6.445H94.341a6.453,6.453,0,0,1,6.445,6.445Z"/>
        <path id="Trazado_131015" data-name="Trazado 131015" d="M46.764,44.311a13.525,13.525,0,0,0-8.995,23.624V78.169a3.242,3.242,0,0,0,3.242,3.242h11.5a3.242,3.242,0,0,0,3.242-3.242V67.935a13.525,13.525,0,0,0-8.994-23.624M50.7,63.672a3.244,3.244,0,0,0-1.426,2.686v8.569H44.254V66.358a3.244,3.244,0,0,0-1.426-2.686,7.038,7.038,0,1,1,7.871,0" transform="translate(6.872 9.16)"/>
      </g>
    </g>
  </g>
</svg>
