<svg xmlns="http://www.w3.org/2000/svg" xmlns:xlink="http://www.w3.org/1999/xlink" width="168.235" height="168.234" viewBox="0 0 168.235 168.234">
  <defs>
    <clipPath id="clip-path">
      <rect id="Rectángulo_54181" data-name="Rectángulo 54181" width="83.233" height="87.684" transform="translate(0 0)" fill="none"/>
    </clipPath>
  </defs>
  <g id="Grupo_98373" data-name="Grupo 98373" transform="translate(-715.883 -909.93)">
    <path id="Trazado_130997" data-name="Trazado 130997" d="M319.045,177.011a84.118,84.118,0,1,1-84.117-84.117,84.117,84.117,0,0,1,84.117,84.117" transform="translate(565.073 817.036)" fill="#ffa726"/>
    <g id="Grupo_98041" data-name="Grupo 98041" transform="translate(757.011 949.365)">
      <g id="Grupo_98040" data-name="Grupo 98040" clip-path="url(#clip-path)">
        <path id="Trazado_131007" data-name="Trazado 131007" d="M80.544,0H2.687A2.686,2.686,0,0,0,0,2.687V54.951a2.68,2.68,0,0,0,1.017,2.086l12.975,10.3a2.687,2.687,0,0,0,3.342,0l11.3-8.973,11.305,8.973a2.688,2.688,0,0,0,3.342,0L54.59,58.363,65.9,67.338a2.7,2.7,0,0,0,3.341,0l12.977-10.3a2.682,2.682,0,0,0,1.016-1.99c0,.041,0,.042,0-.02V2.687A2.686,2.686,0,0,0,80.544,0M77.857,53.635,67.567,61.8,56.261,52.828a2.691,2.691,0,0,0-3.341,0L41.614,61.8l-11.3-8.974a2.686,2.686,0,0,0-3.341,0L15.663,61.8,5.374,53.635V5.373H77.857Z"/>
        <path id="Trazado_131008" data-name="Trazado 131008" d="M66.057,16.812H17.174a2.687,2.687,0,0,0,0,5.374H66.057a2.687,2.687,0,1,0,0-5.374"/>
        <path id="Trazado_131009" data-name="Trazado 131009" d="M66.057,28.976H17.174a2.687,2.687,0,1,0,0,5.374H66.057a2.687,2.687,0,1,0,0-5.374"/>
        <path id="Trazado_131010" data-name="Trazado 131010" d="M66.057,41.14H17.174a2.687,2.687,0,0,0,0,5.374H66.057a2.687,2.687,0,1,0,0-5.374"/>
        <path id="Trazado_131011" data-name="Trazado 131011" d="M83.232,65.9a2.691,2.691,0,0,0-4.358-1.981L67.568,72.89,56.261,63.915a2.688,2.688,0,0,0-3.341,0l-11.3,8.974L30.309,63.916a2.686,2.686,0,0,0-3.341,0L15.663,72.889l-11.3-8.973A2.69,2.69,0,0,0,0,65.9C0,65.912,0,85,0,85a2.687,2.687,0,0,0,2.687,2.687H80.545A2.688,2.688,0,0,0,83.232,85s0-19.085,0-19.1M5.375,82.31V71.583l8.618,6.842a2.688,2.688,0,0,0,3.341,0l11.305-8.974,11.305,8.974a2.688,2.688,0,0,0,3.341,0l11.306-8.974L65.9,78.425a2.688,2.688,0,0,0,3.341,0l8.62-6.842V82.31Z"/>
      </g>
    </g>
  </g>
</svg>
