<svg xmlns="http://www.w3.org/2000/svg" xmlns:xlink="http://www.w3.org/1999/xlink" width="448.242" height="389.392" viewBox="0 0 448.242 389.392">
  <defs>
    <clipPath id="clip-path">
      <rect id="Rectángulo_54192" data-name="Rectángulo 54192" width="448.242" height="359.747" fill="none"/>
    </clipPath>
  </defs>
  <g id="Grupo_98372" data-name="Grupo 98372" transform="translate(-285.353 -1656.675)">
    <path id="Trazado_1383" data-name="Trazado 1383" d="M372.831,109.059C383.1,16.036,292.45-16.282,228.189,7.536c-64.782,24.011-79.8-15.792-170.895-4.419C-34.943,14.632,11.888,158.686,11.888,158.686s14.676,125.264,32.064,183c17.294,57.427,182.83,36.65,223.1,34.937,40.037-1.7,74.828,1.585,109.662-61.47C411.483,252.216,362.6,201.774,372.831,109.059Z" transform="translate(318.635 2046.066) rotate(-90)" fill="#ffd54f" opacity="0.58"/>
    <g id="Grupo_98052" data-name="Grupo 98052" transform="translate(285.353 1664.99)">
      <g id="Grupo_98051" data-name="Grupo 98051" clip-path="url(#clip-path)">
        <path id="Trazado_131016" data-name="Trazado 131016" d="M205.1,140.392c30.974-5.4,57.918-28.83,77.417-50.808,14.877-16.77,40.435-60.65,9.873-76.414C259.578-3.752,251.867,49.242,245.342,66c-7.658,19.668-27.4,29.115-47.869,34.01-14.281,3.415-49.764.759-40.965,24.154,6.966,18.52,31.487,19.211,48.59,16.228" fill="#d04628"/>
        <path id="Trazado_131017" data-name="Trazado 131017" d="M158.874,127.119c11.275,6.761,23.78,7.4,36.181,5.725,1.944-.26,3.866-.562,5.747-.889,8.265-1.258,16.065-4.535,23.814-8.152q2.325-1.086,4.644-2.219a85.01,85.01,0,0,0,16.7-8.2c1.757-1.1,3.484-2.264,5.162-3.471C268.76,97,281.655,80.53,290.839,61.449c.616-1.85,1.192-3.784,1.693-5.783.425-1.877.832-3.867,1.18-5.92a51.775,51.775,0,0,0,.851-5.235c.108-10.472.8-22.179-9.764-27.921C262.72,3.9,256.167,38.407,250.414,53.435c-.641,2.209-1.239,4.359-1.8,6.4-1.871,9.464-7.346,15.149-13.227,22.825-1.259,1.072-2.6,2.034-3.981,3.062q-2.489,1.722-5.156,3.274a125.813,125.813,0,0,1-16.893,8.062c-2.128.771-4.287,1.455-6.474,2.077a120.673,120.673,0,0,1-27.35,4.434,49.858,49.858,0,0,0-6.453,1.2c-8.19,2.146-14.369,6.715-14.223,16.5.89,2.486,2.288,4.831,4.019,5.851" fill="#eb5c26"/>
        <path id="Trazado_131018" data-name="Trazado 131018" d="M181.443,113.24a8.722,8.722,0,0,0-4.368-5.879c-6.445-3.766-19.6,5.891-16.631,12.909,2.013,4.762,10.135,4.429,14.214,3.356a9.089,9.089,0,0,0,6.785-10.386" fill="#f37b52"/>
        <path id="Trazado_131019" data-name="Trazado 131019" d="M280.491,11.171c-2.613-2.813-6.412-6.957-7.733-10.448,3.841-2.017,16.4.72,20.729,1.747-1.149,3.347-4.134,5.531-6.579,7.973Z" fill="#d04628"/>
        <path id="Trazado_131020" data-name="Trazado 131020" d="M279.238,12.128a8.747,8.747,0,0,1,2.569.426,21.721,21.721,0,0,0,4.348.866,2.433,2.433,0,0,0,2.729-1.9,2.287,2.287,0,0,0-2.031-2.555c-2.745-.145-5.372-1.657-8.147-1.313a2.255,2.255,0,1,0,.532,4.477" fill="#db985e"/>
        <path id="Trazado_131021" data-name="Trazado 131021" d="M107.242,111.307c-30.336,7.337-58.379,30.846-79.117,52.451C12.3,180.244-16.211,222.346,11.857,234.393c30.132,12.934,42.248-36.12,50.018-51.948,9.12-18.577,28.983-28.743,49.15-34.8,14.068-4.228,48.037-4.547,41.622-25.257-5.078-16.4-28.655-15.128-45.405-11.077" fill="#d04628"/>
        <path id="Trazado_131022" data-name="Trazado 131022" d="M150.629,119.864c-10.271-5.309-22.27-4.93-34.372-2.433-1.9.388-3.776.813-5.618,1.257-8.079,1.79-15.887,5.39-23.677,9.3q-2.337,1.173-4.673,2.389a103.11,103.11,0,0,0-16.818,8.789c-1.791,1.145-3.558,2.34-5.282,3.573a152.139,152.139,0,0,0-42.573,47.391c-.757,1.739-1.483,3.552-2.143,5.419-.575,1.749-1.144,3.6-1.66,5.5A50.151,50.151,0,0,0,12.53,205.9c-1.029,9.584-2.727,20.342,6.946,24.774,20.162,9.892,29.528-22.165,36.4-36.352.813-2.07,1.58-4.082,2.3-5.99,2.64-8.8,8.42-14.421,14.767-21.9,1.309-1.078,2.682-2.061,4.109-3.109,1.7-1.177,3.458-2.307,5.259-3.392a152.264,152.264,0,0,1,17-8.68c2.119-.869,4.261-1.662,6.424-2.4a134.1,134.1,0,0,1,26.756-6.173,56.047,56.047,0,0,0,6.327-1.6c8.084-2.6,14.445-7.253,15.168-16.188-.638-2.2-1.778-4.24-3.357-5.039" fill="#eb5c26"/>
        <path id="Trazado_131023" data-name="Trazado 131023" d="M127.647,134.3a6.31,6.31,0,0,0,3.692,5.038c5.879,2.944,19.411-6.9,17.171-13.092-1.519-4.2-9.378-3.265-13.4-1.968-4.9,1.577-7.89,6.13-7.458,10.022" fill="#f37b52"/>
        <path id="Trazado_131024" data-name="Trazado 131024" d="M23.15,235.3c2.27,2.37,5.567,5.865,6.532,8.954-3.882,2.143-15.748.612-19.828.008,1.4-3.149,4.473-5.377,7.045-7.8Z" fill="#d04628"/>
        <path id="Trazado_131025" data-name="Trazado 131025" d="M24.441,234.328a8.322,8.322,0,0,1-2.439-.19,20.191,20.191,0,0,0-4.114-.456,2.876,2.876,0,0,0-2.8,1.95,1.729,1.729,0,0,0,1.732,2.178c2.633-.079,5.032,1.1,7.737.57,3-.588,2.881-4.64-.117-4.052" fill="#db985e"/>
        <path id="Trazado_131026" data-name="Trazado 131026" d="M10.1,281.364c13.65,26.4,43.787,47.518,70.494,62.3,20.378,11.282,70.081,29.174,77.18,1.043,7.622-30.2-46.139-31.674-64.244-35.694-21.252-4.718-35.805-20.95-46.118-38.268-7.195-12.082-14.208-43.2-34.639-33.237C-3.395,245.4,2.568,266.787,10.1,281.364" fill="#d04628"/>
        <path id="Trazado_131027" data-name="Trazado 131027" d="M10.536,239.859C7,250.33,9.751,261.268,14.747,271.886c.778,1.664,1.593,3.305,2.421,4.909,3.464,7.063,8.77,13.522,14.394,19.9q1.688,1.914,3.421,3.819A96.36,96.36,0,0,0,47.5,314.225c1.552,1.419,3.15,2.806,4.781,4.146,17.369,14.067,36.916,23.655,58.008,29.757,1.971.353,4.012.663,6.1.9,1.944.184,4,.342,6.091.442,1.718.148,3.512.227,5.335.223,10.24-.939,21.842-1.5,24.583-11.246,6.395-20.452-29.023-22.744-45.233-26.263-2.328-.34-4.585-.647-6.727-.935C90.7,310.557,83.672,306.357,74.6,302c-1.387-.989-2.685-2.056-4.064-3.16q-2.352-1.994-4.587-4.16a142.219,142.219,0,0,1-12.433-13.893c-1.327-1.774-2.579-3.585-3.776-5.425a115.607,115.607,0,0,1-11.728-23.345,48.559,48.559,0,0,0-2.915-5.492c-4.309-6.91-10.438-11.832-19.939-10.74-2.182,1.02-4.09,2.467-4.617,4.073" fill="#eb5c26"/>
        <path id="Trazado_131028" data-name="Trazado 131028" d="M30.178,258.115a6.523,6.523,0,0,0,4.551-4.379c1.927-5.975-11.049-16.459-17.089-13.187-4.1,2.221-1.576,9.25.575,12.692a11.179,11.179,0,0,0,11.963,4.874" fill="#f37b52"/>
        <path id="Trazado_131029" data-name="Trazado 131029" d="M156.509,334.167c2.036-2.549,5.049-6.263,8.094-7.756,3.007,3.141,3.737,14.333,3.907,18.2-3.574-.668-6.511-3.048-9.554-4.933Z" fill="#d04628"/>
        <path id="Trazado_131030" data-name="Trazado 131030" d="M155.237,333.173a6.865,6.865,0,0,1,.281,2.276,16.626,16.626,0,0,0,.331,3.866,2.831,2.831,0,0,0,2.592,2.185,1.752,1.752,0,0,0,1.942-2.018c-.6-2.4.163-4.834-.925-7.214-1.206-2.638-5.426-1.731-4.221.9" fill="#db985e"/>
        <path id="Trazado_131031" data-name="Trazado 131031" d="M207.419,337.315c23.989-18.867,38.459-51.4,47.216-79.264,6.681-21.261,13.011-70.758-17.864-70.3-33.143.5-21.475,49.645-21.195,67.062.33,20.443-12.907,37.634-28.308,51.244-10.747,9.494-41.248,23.5-25.918,39.591,12.134,12.742,32.823,2.081,46.069-8.337" fill="#d04628"/>
        <path id="Trazado_131032" data-name="Trazado 131032" d="M164.332,347.111c11.713.643,22.363-4.543,32.132-11.681,1.533-1.116,3.032-2.258,4.49-3.4,6.464-4.877,11.85-11.277,17.078-17.947q1.567-2,3.115-4.042a94.8,94.8,0,0,0,11.125-14.72c1.088-1.756,2.132-3.547,3.119-5.356a141.722,141.722,0,0,0,16.578-59.945c-.118-1.875-.3-3.8-.563-5.754-.287-1.81-.627-3.71-1.037-5.636a50.064,50.064,0,0,0-1.079-4.9c-3.486-9.063-6.91-19.454-17.68-19.548-22.748-.785-16.429,31.919-16.1,47.493.22,2.2.455,4.321.683,6.334,1.672,9-.953,16.411-3.236,25.716-.685,1.5-1.471,2.943-2.275,4.463q-1.488,2.625-3.182,5.185a140.408,140.408,0,0,1-11.336,14.693c-1.512,1.639-3.08,3.219-4.691,4.758a125.675,125.675,0,0,1-21.3,16.372,52.225,52.225,0,0,0-4.972,3.993c-6.1,5.607-9.691,12.376-6.228,20.73,1.592,1.731,3.559,3.108,5.351,3.191" fill="#eb5c26"/>
        <path id="Trazado_131033" data-name="Trazado 131033" d="M178.415,324.8a6.821,6.821,0,0,0-5.651-3.055c-6.661-.282-14.333,14.066-9.462,18.745,3.3,3.174,9.966-.841,13-3.637,3.691-3.4,4.3-8.715,2.112-12.053" fill="#f37b52"/>
        <path id="Trazado_131034" data-name="Trazado 131034" d="M226.166,191.5c-3.14-1.222-7.724-3.044-10.018-5.442,2.515-3.5,13.926-6.909,17.885-8.011.185,3.407-1.558,6.657-2.763,9.881Z" fill="#d04628"/>
        <path id="Trazado_131035" data-name="Trazado 131035" d="M225.448,192.894a8.1,8.1,0,0,1,2.289-.813,19.808,19.808,0,0,0,3.921-1.25,2.671,2.671,0,0,0,1.627-2.889,1.839,1.839,0,0,0-2.566-1.266c-2.339,1.134-5.047,1.039-7.244,2.609-2.436,1.743-.461,5.35,1.973,3.609" fill="#db985e"/>
        <path id="Trazado_131036" data-name="Trazado 131036" d="M288.351,235.942c1.249,20.078.667,38.342-15.915,52.2-24.371,20.36-62.354,28.353-93.17,30.482a188.158,188.158,0,0,1-89.281-15.607c-19.563-8.808-30.553-30.574-33.323-50.926-1.608-11.806-4.806-26.121.249-37.554,3.449-7.8,11.425-22.466,20.232-24.2Z" fill="#c04f4e"/>
        <path id="Trazado_131037" data-name="Trazado 131037" d="M90.836,170.562c-35.117,19.985-48.142,57.647-23.218,92.376,25.49,35.519,88.987,38.178,127.961,31.4,29.349-5.105,83.7-11.783,92.476-47.015,10.53-42.28-43.259-75.012-75.99-85.817-39.424-13.014-84.645-11.763-121.229,9.057" fill="#f1cac1"/>
        <path id="Trazado_131038" data-name="Trazado 131038" d="M147.267,187.1c-10.995-24-68.144,5.185-30.586,18,10.156,3.464,39.386,1.21,30.586-18" fill="#fff"/>
        <path id="Trazado_131039" data-name="Trazado 131039" d="M141.556,187.8c-5.493-3.589-27.426-3.077-30.334,4.737-2.523,6.78,9.111,7.638,13.77,7.156,4.857-.5,29.248-3.6,16.564-11.893" fill="#c04f4e"/>
        <path id="Trazado_131040" data-name="Trazado 131040" d="M118.891,227.5c1.993,13.913-9.117,32.94-21.647,37.478-24.775,8.971-43.03-29.273-35.225-48.933,5.332-13.434,19.044-22.625,31.482-28.584-1.656,17.888,18.857,21.229,24.383,36.028a19.207,19.207,0,0,1,1.007,4.011" fill="#f48c87"/>
        <path id="Trazado_131041" data-name="Trazado 131041" d="M157.948,195.427c12.068,10.07,11.343,21.2-3.766,25.394-5.656,1.571-34.653,1.627-26.234-7.526.89-.967,33.837-14.666,30-17.868" fill="#f48c87"/>
        <path id="Trazado_131042" data-name="Trazado 131042" d="M252.072,263.352c-29.746,6.316-64.367-6.066-92.488-15.3-10.721-3.522-18.783-8.864-26.988-16.523,9.521-1.075,17.78,1.333,27.555-2.032,11.554-3.977,9.585-9.7,12.369-19.232,2.766-9.468,16.517-7.571,25.34-7.7,13.58-.2,32.737-4.51,45.684.1,12.5,4.45,27.047,13.091,29.87,27.06,3.079,15.234-5.79,30.335-21.342,33.637" fill="#f48c87"/>
        <path id="Trazado_131043" data-name="Trazado 131043" d="M186.619,263.126c-15.287-5.525-33.067-10.4-46.883-18.994-5.293-3.291-8.818-7.89-13.763-2.4-4.62,5.132-5.449,13.861-10.921,19.451-6.1,6.227-16.041,12.933-3.092,18.085,11.035,4.391,27.641,3.572,39.339,3.683,12.616.12,25.243-1.332,37.778-2.631a144.374,144.374,0,0,0,27.957-5.734c-6.8-7.075-21.227-8.142-30.415-11.463" fill="#f48c87"/>
        <path id="Trazado_131044" data-name="Trazado 131044" d="M207.681,193.178c-13.668-.853-25.432,2.445-38.642-2.854-6.953-2.789-21.013-10.071-15.223-19.655,6.212-10.272,27.072-1.232,35.192.75,11.916,2.909,29.8,3.459,39.513,11.784,14.219,12.189-14.249,10.386-20.84,9.975" fill="#f48c87"/>
        <path id="Trazado_131045" data-name="Trazado 131045" d="M135.379,167.519c-5.576-7.827-21.631-.75-26.995,3.868-15.358,13.22,10.589,4.408,16.073,3.668,4.941-.667,16.277-.019,10.922-7.536" fill="#f48c87"/>
        <path id="Trazado_131046" data-name="Trazado 131046" d="M142.973,165.479a7.927,7.927,0,0,0,1.728,3.831c13.79-.65,3.2-14.161-1.757-4.906,1.153.543.938,1.442,1.261,1.939Z" fill="#f48c87"/>
        <path id="Trazado_131047" data-name="Trazado 131047" d="M255.742,201.4c-4.794.761-16.772-4.037-16.288-10.006.048-.589,3.84-7.9,3.309-8.156,3.092,1.5,12.383,15.173,12.979,18.162" fill="#f48c87"/>
        <path id="Trazado_131048" data-name="Trazado 131048" d="M320.822,319.927l.043-.06-.089.044.046.016" fill="#fac5af"/>
        <path id="Trazado_131049" data-name="Trazado 131049" d="M194.164,233.746c-3.925,2.874-11.656,5.214-15.669,8.481a9.981,9.981,0,0,0-1.845,1.591,8.022,8.022,0,0,0-.875,2.142c-3.324,9.216,12.571,17.586,19.664,20.584,15.093,6.376,29.691,13.236,44.869,19.53,18.928,7.848,36.481,17.02,55.265,24.888,4.179,1.749,8.566,3.464,13.05,5.064,4,1.424,8.074,2.72,12.153,3.886.028-.015.059-.03.088-.044,16.825-8.216,37.894-18.033,51.747-28.853.137-6.07.993-13.6,3.383-20.059-41.092-9.539-80.612-20.131-118.837-33.188C245.428,233.76,234.2,227.22,221.4,224.556c-10.8-2.247-18.085,2.484-27.237,9.19" fill="#fcdfd6"/>
        <path id="Trazado_131050" data-name="Trazado 131050" d="M176.65,243.817a8.035,8.035,0,0,0-.875,2.142c-3.324,9.216,12.57,17.587,19.663,20.584,15.094,6.377,29.692,13.236,44.87,19.531,18.928,7.847,36.481,17.019,55.265,24.887,4.179,1.75,8.566,3.464,13.05,5.064,4,1.424,8.074,2.721,12.153,3.886l.088-.044c1.883-2.893,1.958-5.55,2.5-8.635.649-3.671,3.213-7.919.516-10.738-2.76-2.885-9.406-3.965-13.7-5.513-8.806-3.178-17.518-6.466-26.179-9.8-29.632-11.4-59.919-21.967-87.472-35.4a151.172,151.172,0,0,0-18.042-7.558,10.019,10.019,0,0,0-1.845,1.591" fill="#fac5af"/>
        <path id="Trazado_131051" data-name="Trazado 131051" d="M334.634,313.087c2-6.284,2.927-12.892,2.108-18.776-1.274-9.164-13.5-11.076-22.861-14.616-10.809-4.09-20.7-9.1-31.413-13.291-9.621-3.759-20.076-6.448-30.215-9.612-14.087-4.4-25.762-10.938-41.7-12.991-7.887-1.016-14.222-4.344-20.718-7,4.832-4.282,12.162-9.3,18.909-11.557,6.9-2.31,13.715-.934,18.856.927,5.559,2.013,11.837,3.472,16.586,6.215,4.862,2.807,11.3,4.871,17.191,6.675,6.126,1.875,12.462,3.514,18.738,5.207,4.067,1.1,8.306,2.024,12.314,3.18,4.224,1.219,7.73,3.217,12.005,4.381,6.964,1.9,13.182,4.833,20.335,6.324,7.986,1.665,15.787,3.584,23.584,5.5a130.522,130.522,0,0,0,13.546,2.837c4.411.611,8.925,1.48,12.021,3.591,2.377,1.62,1.651,3.847.975,6.443a26.308,26.308,0,0,0-.539,8.731c.375,6.742-7.792,10.917-15.243,14.962-4.681,2.541-9.322,5.118-13.985,7.681a63.858,63.858,0,0,1-10.519,4.3c-.418.051.209-.174.262-.328Z" fill="#f4836f"/>
        <path id="Trazado_131052" data-name="Trazado 131052" d="M320.841,319.879l.023-.012c16.826-8.215,37.894-18.032,51.748-28.852.136-6.07.992-13.6,3.382-20.059l-.389-.092c-16.121,9.532-32.264,19.391-50.347,29.152-5.007,1.877-5.093,12.188-4.417,19.863" fill="#f79f80"/>
        <path id="Trazado_131053" data-name="Trazado 131053" d="M331.461,314.725a76.032,76.032,0,0,0,3.764-17.941c.172-2.937-1.61-3.408-4.753-4.514-7.911-2.784-15.364-6.048-22.955-9.161-5.766-2.364-11.546-4.71-17.22-7.166,13.841,4.663,28.991,7.448,42.294,12.832,3.144,1.273,6.343,2.485,6.787,5.469.485,3.259-.408,7.591-1.241,11.081-.8,3.365-.171,7.24-6.676,9.4" fill="#d6515c"/>
        <path id="Trazado_131054" data-name="Trazado 131054" d="M185.142,238.459c9.477,2.112,17.279,6.922,25.633,10.49,4.237,1.81,9.11,2.824,13.661,4.24,2.293.713,4.379,1.984,6.705,2.512-6.882-5.84-17.682-9.537-26.542-13.744-4.809-2.284-8.427-5.626-14.923-6.094Z" fill="#d6515c"/>
        <path id="Trazado_131055" data-name="Trazado 131055" d="M351.025,304.476c2.372-5.44,1.769-10.914,2.333-16.185.222-2.062.975-4.191-.8-5.574-3.1-2.414-9.59-3.5-13.638-5.087-9.44-3.708-19.492-6.772-29.08-10.332-7.891-2.93-15.64-6.024-23.654-8.821-4.284-1.495-8.214-3.336-12.4-4.931-2.756-1.05-5.524-1.893-6.95-3.992,10.247,1.316,17.837,6.136,26.717,9.108,6.154,2.06,12.8,3.344,19.378,4.851,6.1,1.4,11.308,3.787,16.886,5.784,5.029,1.8,10.6,3.028,15.493,4.967,3.636,1.441,6.826,3.16,10.949,4.079,3.077.685,4.47.777,4.472,3.453,0,2.824-1,5.915-1.528,8.815-.506,2.782-.02,5.7-1.006,8.5-1.058,3.006-4.3,4.493-7.932,6.1Z" fill="#d6515c"/>
        <path id="Trazado_131056" data-name="Trazado 131056" d="M284.773,272.831c-5.294-1.43-9.375-3.935-14.27-5.766-4.742-1.774-9.7-3.276-14.462-5.007-7.209-2.619-13.755-6.129-20.223-9.439-3.316-1.7-5.972-3.729-9.691-5.061,10.366-.933,20.576,4.7,28.025,7.925a137.931,137.931,0,0,1,21.219,11.461c3.116,2.062,6.441,3.959,9.476,6.084Z" fill="#f4836f"/>
        <path id="Trazado_131057" data-name="Trazado 131057" d="M196.021,232.587c-.872.786,4.364,1.709,5.617,2.191,2.934,1.131,5.581,2.59,8.419,3.813,3.863,1.665,6.41,3.9,9.789,5.9,8.394,4.974,18.441,8.038,28.621,11.325a95.783,95.783,0,0,1,13.572,5.962c-2.634-4.424-7.9-7.418-12.811-10.335-6.975-4.145-14.072-8.241-21.406-12.083-4.787-2.508-9.9-4.728-15.112-6.837-2.746-1.112-6.039-3.238-9.428-3.562-3.833-.367-5.907,2.282-8.295,4.609a1.52,1.52,0,0,0-.173-.528Z" fill="#d6515c"/>
        <path id="Trazado_131058" data-name="Trazado 131058" d="M323.528,280.715c-12.336-.665-23.268-7.2-32.939-11.288-5.744-2.43-11.06-5.38-16.594-8.02-2.73-1.3-5.625-2.541-8.126-4.044,8.52,1.923,17.735,3.315,25.4,6.309,9.124,3.561,15.743,9.674,24.571,13.549a89.506,89.506,0,0,0,8.59,3.154Z" fill="#d6515c"/>
        <path id="Trazado_131059" data-name="Trazado 131059" d="M207.135,225.506c3.987,1.09,7.512,2.705,11.514,3.783,5.159,1.39,10.1,2.226,14.569,4.447,11.658,5.786,23.482,10.937,37.77,13.889,20.142,4.162,36.19,13.545,56.769,17.024,5.437.919,10.2,2.71,15.652,3.6a69.681,69.681,0,0,1,9.244,1.926c-17.455-5.6-35.906-10.176-50.717-18.57-7.883-4.468-17.038-7.237-26.505-10.123-8.284-2.526-16.834-4.63-24.95-7.373-7.791-2.632-14.932-6.467-23.072-8.639-3.472-.926-7.394-1.361-10.947-2.205-3.4-.808-5.854.011-9.474,1.853Z" fill="#d6515c"/>
        <path id="Trazado_131060" data-name="Trazado 131060" d="M270.464,255.781c-7.3,1.435-15.246-4.325-19.683-6.929-5.968-3.5-11.661-7.31-18.125-10.383-2.562-1.218-5.382-2.2-8.041-3.232-.144-.018-.145-.013-.006.014,3.715-.456,6.638,1.091,9.417,2.113a118.331,118.331,0,0,1,11.77,4.909c5.885,2.926,10.959,6.605,16.669,9.655,2.941,1.571,6.1,2.553,8.6,4.526Z" fill="#d6515c"/>
        <path id="Trazado_131061" data-name="Trazado 131061" d="M366.283,296.513c1.176-1.482.108-3.623.117-5.183.01-2.054.1-4.079.2-6.136a14.3,14.3,0,0,0-.191-4.874c-.382-1.3-1.179-2.26-.156-3.75-4.9.122-9.3-2.631-13.587-3.575-3.44-.758-7.154-1.178-10.592-1.95,4.442.521,8.76,1.226,13.308,1.561,4.369.322,8.238-.386,12.705-.635,5.612-.312,4.524,2.565,3.537,5.9a32.934,32.934,0,0,0-.9,9.894c.039,3.29.109,6.6-5.494,8.69Z" fill="#d6515c"/>
        <path id="Trazado_131062" data-name="Trazado 131062" d="M360.123,291.321c.012-.019.03-.041.042-.06l-.088.044.046.016" fill="#fac5af"/>
        <path id="Trazado_131063" data-name="Trazado 131063" d="M233.465,205.14c-3.925,2.874-11.656,5.214-15.669,8.481a9.98,9.98,0,0,0-1.845,1.591,8.022,8.022,0,0,0-.875,2.142c-3.324,9.216,12.571,17.586,19.664,20.584,15.093,6.376,29.691,13.236,44.869,19.531,18.928,7.847,36.481,17.019,55.265,24.887,4.179,1.749,8.566,3.464,13.05,5.064,3.995,1.424,8.074,2.72,12.153,3.886l.088-.045c16.825-8.215,37.894-18.032,51.747-28.852.137-6.07.993-13.6,3.383-20.059-41.092-9.539-80.612-20.131-118.837-33.188-11.729-4.008-22.953-10.548-35.756-13.212-10.8-2.247-18.085,2.484-27.237,9.19" fill="#fcdfd6"/>
        <path id="Trazado_131064" data-name="Trazado 131064" d="M215.951,215.211a8.035,8.035,0,0,0-.875,2.142c-3.324,9.216,12.57,17.587,19.663,20.584,15.094,6.377,29.692,13.236,44.87,19.531,18.928,7.847,36.481,17.019,55.265,24.887,4.179,1.75,8.566,3.464,13.05,5.064,3.995,1.424,8.074,2.721,12.153,3.886l.088-.044c1.883-2.893,1.958-5.55,2.5-8.635.649-3.671,3.213-7.919.516-10.738-2.759-2.885-9.406-3.965-13.695-5.513-8.806-3.178-17.518-6.465-26.179-9.8-29.632-11.4-59.919-21.967-87.472-35.4A151.172,151.172,0,0,0,217.8,213.62a10.018,10.018,0,0,0-1.845,1.591" fill="#fac5af"/>
        <path id="Trazado_131065" data-name="Trazado 131065" d="M373.935,284.481c2-6.283,2.927-12.892,2.108-18.776-1.274-9.164-13.5-11.076-22.86-14.616-10.81-4.09-20.7-9.1-31.414-13.29-9.621-3.76-20.076-6.449-30.215-9.613-14.087-4.4-25.762-10.939-41.7-12.991-7.887-1.016-14.222-4.344-20.718-7,4.832-4.282,12.162-9.3,18.909-11.557,6.9-2.31,13.715-.934,18.856.927,5.56,2.013,11.837,3.472,16.587,6.215,4.861,2.807,11.3,4.872,17.191,6.674,6.125,1.876,12.461,3.515,18.737,5.208,4.067,1.1,8.306,2.024,12.314,3.18,4.224,1.219,7.73,3.217,12.005,4.381,6.964,1.9,13.182,4.833,20.336,6.324,7.985,1.665,15.786,3.584,23.583,5.5a130.515,130.515,0,0,0,13.546,2.837c4.412.611,8.925,1.48,12.021,3.591,2.377,1.62,1.651,3.848.975,6.443a26.309,26.309,0,0,0-.539,8.731c.375,6.742-7.792,10.917-15.242,14.962-4.682,2.541-9.323,5.118-13.986,7.681a63.824,63.824,0,0,1-10.519,4.3c-.417.051.209-.174.262-.328Z" fill="#f4836f"/>
        <path id="Trazado_131066" data-name="Trazado 131066" d="M360.142,291.273l.023-.012c16.826-8.215,37.894-18.032,51.748-28.852.136-6.07.992-13.6,3.382-20.059l-.389-.092c-16.121,9.532-32.264,19.391-50.347,29.152-5.007,1.877-5.093,12.188-4.417,19.863" fill="#f79f80"/>
        <path id="Trazado_131067" data-name="Trazado 131067" d="M370.762,286.119a76.029,76.029,0,0,0,3.764-17.942c.172-2.936-1.61-3.408-4.753-4.513-7.911-2.784-15.363-6.048-22.956-9.161-5.765-2.364-11.545-4.71-17.219-7.166,13.841,4.663,28.991,7.448,42.294,12.832,3.144,1.273,6.343,2.485,6.787,5.469.485,3.259-.408,7.591-1.241,11.08-.8,3.366-.171,7.241-6.676,9.4" fill="#d6515c"/>
        <path id="Trazado_131068" data-name="Trazado 131068" d="M224.443,209.853c9.477,2.112,17.279,6.922,25.633,10.49,4.237,1.81,9.11,2.824,13.661,4.239,2.293.714,4.379,1.985,6.706,2.513-6.883-5.84-17.683-9.538-26.543-13.745-4.809-2.283-8.427-5.625-14.923-6.094Z" fill="#d6515c"/>
        <path id="Trazado_131069" data-name="Trazado 131069" d="M390.326,275.87c2.372-5.44,1.769-10.914,2.334-16.184.22-2.063.974-4.192-.8-5.575-3.1-2.414-9.59-3.5-13.638-5.087-9.44-3.708-19.492-6.771-29.08-10.332-7.891-2.93-15.64-6.024-23.654-8.821-4.284-1.495-8.214-3.336-12.4-4.931-2.756-1.05-5.523-1.893-6.95-3.992,10.247,1.316,17.837,6.136,26.717,9.108,6.154,2.06,12.8,3.344,19.378,4.851,6.1,1.4,11.308,3.787,16.886,5.785,5.029,1.8,10.6,3.027,15.493,4.966,3.636,1.441,6.826,3.16,10.95,4.079,3.076.686,4.469.778,4.471,3.454,0,2.823-1,5.914-1.528,8.814-.506,2.781-.02,5.7-1.006,8.5-1.058,3.006-4.3,4.493-7.932,6.1Z" fill="#d6515c"/>
        <path id="Trazado_131070" data-name="Trazado 131070" d="M324.074,244.225c-5.294-1.43-9.375-3.935-14.27-5.766-4.742-1.774-9.7-3.276-14.462-5.007-7.209-2.619-13.755-6.129-20.223-9.439-3.316-1.7-5.972-3.729-9.691-5.061,10.366-.933,20.576,4.7,28.025,7.926a137.84,137.84,0,0,1,21.219,11.46c3.116,2.062,6.441,3.959,9.476,6.084Z" fill="#f4836f"/>
        <path id="Trazado_131071" data-name="Trazado 131071" d="M235.322,203.981c-.873.786,4.364,1.708,5.617,2.191,2.934,1.131,5.581,2.59,8.419,3.813,3.863,1.665,6.41,3.9,9.789,5.9,8.394,4.974,18.441,8.038,28.621,11.325a95.666,95.666,0,0,1,13.572,5.961c-2.633-4.424-7.9-7.417-12.811-10.334-6.975-4.145-14.073-8.241-21.406-12.083-4.787-2.508-9.9-4.729-15.112-6.837-2.746-1.112-6.039-3.238-9.428-3.563-3.833-.366-5.907,2.283-8.294,4.61a1.542,1.542,0,0,0-.174-.528Z" fill="#d6515c"/>
        <path id="Trazado_131072" data-name="Trazado 131072" d="M362.829,252.109c-12.336-.665-23.268-7.2-32.939-11.288-5.744-2.43-11.061-5.38-16.594-8.02-2.73-1.3-5.625-2.54-8.126-4.043,8.52,1.922,17.735,3.314,25.4,6.308,9.124,3.562,15.743,9.675,24.571,13.55a89.934,89.934,0,0,0,8.59,3.154Z" fill="#d6515c"/>
        <path id="Trazado_131073" data-name="Trazado 131073" d="M246.436,196.9c3.987,1.09,7.512,2.705,11.514,3.783,5.158,1.39,10.1,2.226,14.569,4.447,11.658,5.786,23.482,10.936,37.77,13.889,20.142,4.162,36.19,13.545,56.769,17.024,5.437.919,10.2,2.71,15.651,3.6a69.662,69.662,0,0,1,9.245,1.926c-17.455-5.6-35.906-10.176-50.717-18.571-7.883-4.467-17.038-7.235-26.505-10.122-8.285-2.526-16.834-4.63-24.95-7.373-7.791-2.632-14.932-6.467-23.072-8.639-3.472-.926-7.394-1.361-10.947-2.2-3.4-.808-5.854.011-9.474,1.853Z" fill="#d6515c"/>
        <path id="Trazado_131074" data-name="Trazado 131074" d="M309.764,227.175c-7.3,1.435-15.245-4.325-19.682-6.929-5.968-3.5-11.661-7.31-18.125-10.383-2.562-1.218-5.382-2.2-8.042-3.232-.143-.017-.144-.013-.005.014,3.715-.456,6.638,1.091,9.417,2.113a118.322,118.322,0,0,1,11.77,4.909c5.885,2.926,10.959,6.6,16.669,9.655,2.941,1.572,6.1,2.553,8.6,4.526Z" fill="#d6515c"/>
        <path id="Trazado_131075" data-name="Trazado 131075" d="M405.585,267.907c1.176-1.482.108-3.623.116-5.183.011-2.054.1-4.079.2-6.136a14.3,14.3,0,0,0-.191-4.874c-.382-1.3-1.179-2.26-.156-3.75-4.9.122-9.3-2.631-13.587-3.575-3.44-.758-7.154-1.178-10.592-1.951,4.442.522,8.759,1.227,13.308,1.562,4.369.322,8.238-.386,12.7-.635,5.612-.312,4.524,2.565,3.536,5.9a32.965,32.965,0,0,0-.9,9.894c.038,3.29.109,6.6-5.494,8.69Z" fill="#d6515c"/>
        <path id="Trazado_131076" data-name="Trazado 131076" d="M392.345,262.03c.013-.019.031-.04.044-.06l-.09.043.046.017" fill="#fac5af"/>
        <path id="Trazado_131077" data-name="Trazado 131077" d="M266.988,173.967c-3.967,2.815-11.732,5.039-15.793,8.246a10.008,10.008,0,0,0-1.869,1.563,8,8,0,0,0-.907,2.129c-3.461,9.166,12.306,17.772,19.354,20.875,15,6.6,29.49,13.678,44.573,20.2,18.809,8.129,36.222,17.561,54.887,25.709,4.153,1.812,8.514,3.592,12.974,5.259,3.972,1.483,8.031,2.84,12.093,4.066l.089-.043c16.946-7.963,38.158-17.464,52.172-28.076.226-6.067,1.2-13.582,3.681-20.007-40.945-10.151-80.3-21.331-118.328-34.958-11.667-4.182-22.793-10.89-35.554-13.745-10.764-2.407-18.121,2.215-27.372,8.783" fill="#fcdfd6"/>
        <path id="Trazado_131078" data-name="Trazado 131078" d="M249.326,183.776a8,8,0,0,0-.907,2.129c-3.461,9.165,12.307,17.772,19.354,20.875,15,6.6,29.49,13.678,44.573,20.2,18.809,8.129,36.223,17.561,54.887,25.709,4.153,1.812,8.514,3.591,12.974,5.259,3.973,1.483,8.031,2.84,12.093,4.066l.089-.043c1.925-2.864,2.04-5.519,2.632-8.6.7-3.661,3.33-7.871.676-10.729-2.717-2.927-9.346-4.105-13.611-5.717-8.758-3.309-17.421-6.727-26.031-10.186-29.458-11.837-59.584-22.859-86.934-36.7a151.128,151.128,0,0,0-17.926-7.827,10.008,10.008,0,0,0-1.869,1.563" fill="#fac5af"/>
        <path id="Trazado_131079" data-name="Trazado 131079" d="M406.258,255.4c2.1-6.253,3.118-12.847,2.388-18.742-1.138-9.182-13.337-11.277-22.639-14.956-10.749-4.251-20.56-9.411-31.213-13.758-9.562-3.9-19.978-6.748-30.067-10.063-14.021-4.605-25.6-11.321-41.5-13.612-7.871-1.133-14.156-4.555-20.612-7.305,4.895-4.21,12.3-9.116,19.078-11.274,6.932-2.206,13.728-.729,18.84,1.209,5.53,2.1,11.784,3.648,16.493,6.462,4.818,2.879,11.228,5.039,17.089,6.93,6.1,1.966,12.409,3.7,18.658,5.486,4.05,1.158,8.274,2.148,12.265,3.364,4.206,1.282,7.681,3.332,11.938,4.56,6.935,2,13.108,5.029,20.239,6.627,7.96,1.784,15.731,3.819,23.5,5.852a130.7,130.7,0,0,0,13.5,3.038c4.4.677,8.9,1.613,11.966,3.77,2.353,1.656,1.592,3.872.879,6.457a26.3,26.3,0,0,0-.671,8.722c.275,6.747-7.954,10.8-15.464,14.733-4.718,2.471-9.4,4.978-14.1,7.471a63.794,63.794,0,0,1-10.583,4.148c-.417.044.213-.172.267-.324Z" fill="#f4836f"/>
        <path id="Trazado_131080" data-name="Trazado 131080" d="M392.365,261.982l.024-.011c16.946-7.963,38.158-17.465,52.172-28.077.227-6.067,1.2-13.582,3.682-20.006l-.388-.1c-16.262,9.291-32.55,18.907-50.777,28.4-5.035,1.8-5.275,12.11-4.713,19.795" fill="#f79f80"/>
        <path id="Trazado_131081" data-name="Trazado 131081" d="M403.061,256.987a76.089,76.089,0,0,0,4.032-17.883c.215-2.934-1.559-3.432-4.685-4.584-7.869-2.9-15.272-6.277-22.817-9.5-5.73-2.45-11.474-4.882-17.11-7.422,13.77,4.869,28.876,7.88,42.1,13.462,3.125,1.319,6.3,2.579,6.7,5.57.436,3.266-.522,7.584-1.406,11.06-.853,3.354-.28,7.237-6.816,9.3" fill="#d6515c"/>
        <path id="Trazado_131082" data-name="Trazado 131082" d="M257.9,178.545c9.444,2.254,17.173,7.179,25.474,10.872,4.209,1.872,9.066,2.959,13.6,4.443,2.282.747,4.349,2.049,6.668,2.612-6.8-5.942-17.538-9.8-26.334-14.139-4.775-2.355-8.342-5.751-14.831-6.317Z" fill="#d6515c"/>
        <path id="Trazado_131083" data-name="Trazado 131083" d="M422.776,247.031c2.452-5.4,1.931-10.886,2.575-16.148.251-2.059,1.037-4.176-.716-5.586-3.059-2.46-9.536-3.639-13.56-5.289-9.383-3.849-19.389-7.062-28.922-10.765-7.847-3.048-15.549-6.257-23.52-9.174-4.261-1.558-8.163-3.458-12.325-5.115-2.74-1.091-5.5-1.976-6.89-4.1,10.226,1.469,17.744,6.4,26.578,9.506,6.122,2.152,12.746,3.535,19.3,5.14,6.083,1.488,11.25,3.955,16.8,6.036,5,1.876,10.555,3.185,15.418,5.2,3.614,1.495,6.778,3.262,10.887,4.242,3.066.731,4.458.844,4.419,3.52-.04,2.823-1.088,5.9-1.659,8.791-.547,2.773-.106,5.7-1.133,8.487-1.1,2.989-4.366,4.428-8.022,5.975Z" fill="#d6515c"/>
        <path id="Trazado_131084" data-name="Trazado 131084" d="M357,214.4c-5.272-1.508-9.316-4.074-14.182-5.978-4.716-1.845-9.646-3.42-14.386-5.223-7.169-2.726-13.662-6.334-20.08-9.739-3.29-1.746-5.915-3.818-9.615-5.206,10.379-.778,20.505,5.011,27.9,8.343a137.85,137.85,0,0,1,21.046,11.777c3.084,2.107,6.381,4.054,9.384,6.224Z" fill="#f4836f"/>
        <path id="Trazado_131085" data-name="Trazado 131085" d="M268.862,172.836c-.884.773,4.338,1.773,5.583,2.275,2.918,1.174,5.542,2.672,8.362,3.938,3.837,1.722,6.351,3.991,9.7,6.044,8.319,5.1,18.319,8.312,28.449,11.751a95.59,95.59,0,0,1,13.481,6.163c-2.567-4.463-7.791-7.535-12.656-10.525-6.911-4.249-13.947-8.45-21.222-12.4-4.749-2.58-9.833-4.876-15.009-7.062-2.728-1.153-5.99-3.328-9.374-3.7-3.827-.424-5.94,2.2-8.362,4.486a1.517,1.517,0,0,0-.166-.532Z" fill="#d6515c"/>
        <path id="Trazado_131086" data-name="Trazado 131086" d="M395.637,222.862c-12.325-.849-23.158-7.543-32.767-11.778-5.707-2.516-10.979-5.545-16.472-8.267-2.711-1.344-5.587-2.624-8.065-4.164,8.491,2.049,17.683,3.579,25.306,6.686,9.07,3.7,15.6,9.909,24.366,13.915a89.473,89.473,0,0,0,8.542,3.282Z" fill="#d6515c"/>
        <path id="Trazado_131087" data-name="Trazado 131087" d="M280.08,165.921c3.97,1.15,7.471,2.817,11.456,3.955,5.137,1.466,10.061,2.376,14.5,4.664,11.571,5.959,23.316,11.285,37.559,14.451,20.078,4.462,35.983,14.084,56.508,17.869,5.423,1,10.158,2.863,15.6,3.828a69.693,69.693,0,0,1,9.215,2.065c-17.37-5.862-35.75-10.712-50.434-19.326-7.816-4.585-16.929-7.49-26.351-10.517-8.246-2.649-16.763-4.881-24.837-7.745-7.751-2.748-14.834-6.689-22.941-8.982-3.457-.978-7.373-1.472-10.913-2.369-3.387-.858-5.853-.076-9.5,1.712Z" fill="#d6515c"/>
        <path id="Trazado_131088" data-name="Trazado 131088" d="M342.95,197.139c-7.318,1.326-15.179-4.552-19.577-7.222-5.915-3.59-11.55-7.483-17.968-10.653-2.543-1.256-5.348-2.277-7.993-3.351-.142-.02-.143-.015,0,.013,3.722-.4,6.621,1.191,9.384,2.254a118.5,118.5,0,0,1,11.7,5.084c5.841,3.014,10.859,6.768,16.523,9.9,2.918,1.615,6.061,2.643,8.526,4.654Z" fill="#d6515c"/>
        <path id="Trazado_131089" data-name="Trazado 131089" d="M438.151,239.3c1.2-1.464.162-3.621.194-5.181.041-2.054.164-4.076.289-6.132a14.327,14.327,0,0,0-.118-4.876c-.363-1.307-1.145-2.278-.1-3.752-4.9.048-9.259-2.77-13.532-3.778-3.428-.809-7.136-1.284-10.562-2.108,4.434.587,8.74,1.357,13.283,1.76,4.363.387,8.243-.263,12.713-.445,5.617-.229,4.486,2.632,3.448,5.956a32.99,32.99,0,0,0-1.044,9.879c-.01,3.291.01,6.605-5.623,8.608Z" fill="#d6515c"/>
      </g>
    </g>
  </g>
</svg>
