<svg xmlns="http://www.w3.org/2000/svg" xmlns:xlink="http://www.w3.org/1999/xlink" width="109" height="109" viewBox="0 0 109 109">
  <defs>
    <clipPath id="clip-path">
      <rect id="Rectángulo_54282" data-name="Rectángulo 54282" width="72.968" height="64.389" fill="#fff"/>
    </clipPath>
  </defs>
  <g id="Grupo_98375" data-name="Grupo 98375" transform="translate(-1161.75 -1517)">
    <circle id="Elipse_4798" data-name="Elipse 4798" cx="54.5" cy="54.5" r="54.5" transform="translate(1161.75 1517)" fill="#34af00"/>
    <g id="Grupo_98261" data-name="Grupo 98261" transform="translate(1179.516 1538.426)">
      <g id="Grupo_98260" data-name="Grupo 98260" transform="translate(0 0)" clip-path="url(#clip-path)">
        <path id="Trazado_132304" data-name="Trazado 132304" d="M65.322,6.444H46.363A7.659,7.659,0,0,0,38.811,0H16.487A7.654,7.654,0,0,0,8.841,7.645V9.49h-1.2A7.655,7.655,0,0,0,0,17.135V62.2a2.184,2.184,0,0,0,2.185,2.185H61.942A2.184,2.184,0,0,0,64.126,62.2V54.9h6.657a2.184,2.184,0,0,0,2.185-2.185V14.09a7.655,7.655,0,0,0-7.646-7.646m-27.8,9.49A7.657,7.657,0,0,0,29.97,9.49H13.21V7.645a3.28,3.28,0,0,1,3.276-3.276H38.811a3.28,3.28,0,0,1,3.277,3.276v.983a2.185,2.185,0,0,0,2.185,2.185H65.322A3.281,3.281,0,0,1,68.6,14.09V50.53H64.126V23.58a7.655,7.655,0,0,0-7.646-7.646ZM59.757,60.02H4.369V17.135a3.28,3.28,0,0,1,3.277-3.276H29.97a3.28,3.28,0,0,1,3.277,3.276v.983A2.184,2.184,0,0,0,35.432,20.3H56.48a3.281,3.281,0,0,1,3.277,3.277Z" transform="translate(0 0)" fill="#fff"/>
      </g>
    </g>
  </g>
</svg>
