<svg xmlns="http://www.w3.org/2000/svg" xmlns:xlink="http://www.w3.org/1999/xlink" width="400" height="351.795" viewBox="0 0 400 351.795">
  <defs>
    <clipPath id="clip-path">
      <rect id="Rect치ngulo_54284" data-name="Rect치ngulo 54284" width="315.39" height="334.703" fill="none"/>
    </clipPath>
  </defs>
  <g id="Grupo_98376" data-name="Grupo 98376" transform="translate(-180.75 -2066)">
    <g id="Image_Place_Holder" data-name="Image Place Holder" transform="translate(180.75 2147.025)" opacity="0.1">
      <rect id="Image_Place_Holder-2" data-name="Image Place Holder" width="400" height="270.769" rx="10" fill="#ffa726"/>
    </g>
    <g id="Grupo_98264" data-name="Grupo 98264" transform="translate(225.252 2066)">
      <rect id="Rect치ngulo_54283" data-name="Rect치ngulo 54283" width="50.37" height="34.294" transform="translate(118.688 71.588)" fill="#34af00"/>
      <path id="Trazado_132305" data-name="Trazado 132305" d="M247.553,215.081l-14.825,4.108,10.717-14.647Z" transform="translate(-124.043 -109.021)" fill="#34af00"/>
      <g id="Grupo_98263" data-name="Grupo 98263">
        <g id="Grupo_98262" data-name="Grupo 98262" clip-path="url(#clip-path)">
          <path id="Trazado_132306" data-name="Trazado 132306" d="M305.063,172.3h-29.65a.8.8,0,0,1,0-1.607h29.65a.8.8,0,1,1,0,1.607" transform="translate(-146.366 -90.979)" fill="#fff"/>
          <path id="Trazado_132307" data-name="Trazado 132307" d="M305.063,189.9h-29.65a.8.8,0,0,1,0-1.607h29.65a.8.8,0,1,1,0,1.607" transform="translate(-146.366 -100.357)" fill="#fff"/>
          <path id="Trazado_132308" data-name="Trazado 132308" d="M305.063,207.489h-29.65a.8.8,0,0,1,0-1.608h29.65a.8.8,0,1,1,0,1.608" transform="translate(-146.366 -109.734)" fill="#fff"/>
          <path id="Trazado_132309" data-name="Trazado 132309" d="M394.153,69.231c0,10.9-13.715,19.737-30.633,19.737s-30.633-8.837-30.633-19.737S346.6,49.494,363.521,49.494s30.633,8.837,30.633,19.737" transform="translate(-177.428 -26.38)" fill="#ffa726"/>
          <path id="Trazado_132310" data-name="Trazado 132310" d="M431.566,119.365l15,3.215-6.43-10.36Z" transform="translate(-230.023 -59.813)" fill="#ffa726"/>
          <path id="Trazado_132311" data-name="Trazado 132311" d="M374.047,87.668a3.751,3.751,0,1,1-3.751-3.751,3.751,3.751,0,0,1,3.751,3.751" transform="translate(-195.367 -44.727)" fill="#fff"/>
          <path id="Trazado_132312" data-name="Trazado 132312" d="M402.35,87.668a3.751,3.751,0,1,1-3.751-3.751,3.751,3.751,0,0,1,3.751,3.751" transform="translate(-210.453 -44.727)" fill="#fff"/>
          <path id="Trazado_132313" data-name="Trazado 132313" d="M430.653,87.668a3.751,3.751,0,1,1-3.751-3.751,3.751,3.751,0,0,1,3.751,3.751" transform="translate(-225.538 -44.727)" fill="#fff"/>
          <path id="Trazado_132314" data-name="Trazado 132314" d="M87.1,673.66s-2.838,14.216-2.519,17.009c.262,2.307,3.963,2.966,7.315,2.966s5.039-1.54,4.99-2.636c-.111-2.471-4.655-2.615-3.06-16.844Z" transform="translate(-45.069 -359.058)" fill="#d7b09d"/>
          <path id="Trazado_132315" data-name="Trazado 132315" d="M91.7,704.513c-5.39.293-6.721-2.442-7.048-3.964a14.95,14.95,0,0,0-.526,4.476c.272,2.386,4.1,3.068,7.569,3.068s5.213-1.593,5.163-2.727c-.048-1.061-.822-1.831-1.67-2.768-.322.988-1.273,1.795-3.488,1.916" transform="translate(-44.819 -373.39)" fill="#615556"/>
          <path id="Trazado_132316" data-name="Trazado 132316" d="M173.174,676.848c1.3,12.707,14.521,11.695,13.973,15.185-.49,3.123-15.484,1.443-17.175-.676a11.359,11.359,0,0,1-2.2-4.39,38.286,38.286,0,0,1-1.038-9.682Z" transform="translate(-88.862 -360.757)" fill="#d7b09d"/>
          <path id="Trazado_132317" data-name="Trazado 132317" d="M182.615,699.745c4.117,1.3,6.378,2.382,6.145,3.935-.478,3.191-15.919,1.533-17.739-.552a7.7,7.7,0,0,1-2.059-4.611c.862,1.414,2.793,3.5,6.848,3.96,4.812.542,6.331-1.545,6.805-2.732" transform="translate(-90.056 -372.307)" fill="#615556"/>
          <path id="Trazado_132318" data-name="Trazado 132318" d="M154.562,374.007s3.755,54.514,3.787,74.051.149,67.358.149,67.358a20.238,20.238,0,0,1-16.065,1.335s-4.136-28.337-4.437-41,.088-23.47.088-23.47l-8.674-42.018,6.454-34.057Z" transform="translate(-68.975 -199.344)" fill="#c0ccc5"/>
          <path id="Trazado_132319" data-name="Trazado 132319" d="M91.279,371.368s-6.564,16.633-7.8,26.137c-.853,6.557,1.883,41.578,1.545,48.971s-2.44,14.608-4.56,27.985-1.328,38.921-1.328,38.921,7.835,3.52,15.539,1.936c0,0,8.3-48.249,10.885-57.4s8.412-58.035,8.412-58.035l.3-25.345Z" transform="translate(-42.102 -197.938)" fill="#c0ccc5"/>
          <path id="Trazado_132320" data-name="Trazado 132320" d="M156.15,592.191a22.351,22.351,0,0,1-6.9-1.119.374.374,0,0,1-.255-.3c-.042-.283-4.143-28.5-4.44-41.044-.289-12.151.062-22.731.087-23.454l-2.214-13.057a.375.375,0,0,1,.74-.126l2.22,13.094.005.076c0,.108-.385,10.944-.088,23.448.283,11.889,4,37.979,4.4,40.721,8.81,2.75,14.989-1.061,15.051-1.1a.375.375,0,0,1,.4.634,17.875,17.875,0,0,1-9.009,2.228" transform="translate(-75.913 -273.308)" fill="#8ba3a0"/>
          <path id="Trazado_132321" data-name="Trazado 132321" d="M90.495,519.311a29.142,29.142,0,0,1-10.916-2.231.375.375,0,0,1,.308-.684c.073.033,7.254,3.21,14.657,1.792.656-3.8,8.39-48.463,10.85-57.186,2.543-9.02,8.343-57.489,8.4-57.978l.3-25.305a.376.376,0,0,1,.375-.371h0a.375.375,0,0,1,.371.38l-.3,25.345c-.061.529-5.867,49.056-8.426,58.132-2.546,9.029-10.793,56.882-10.877,57.364a.375.375,0,0,1-.294.3,22.114,22.114,0,0,1-4.451.438" transform="translate(-42.298 -201.126)" fill="#8ba3a0"/>
          <path id="Trazado_132322" data-name="Trazado 132322" d="M153.467,429.057a.375.375,0,0,1-.12-.73l8.549-2.9a.375.375,0,0,1,.241.71l-8.549,2.9Z" transform="translate(-81.597 -226.738)" fill="#8ba3a0"/>
          <path id="Trazado_132323" data-name="Trazado 132323" d="M152.551,437.083a.375.375,0,0,1,0-.75,17.269,17.269,0,0,0,6.181-1.286.375.375,0,1,1,.311.683,17.715,17.715,0,0,1-6.491,1.354" transform="translate(-81.109 -231.86)" fill="#8ba3a0"/>
          <path id="Trazado_132324" data-name="Trazado 132324" d="M154.247,396.806a.375.375,0,0,1-.244-.66c.036-.031,3.611-3.115,4.1-5.087a61.842,61.842,0,0,0,.346-12.52.375.375,0,0,1,.74-.123,61.581,61.581,0,0,1-.358,12.825c-.551,2.2-4.189,5.342-4.344,5.474a.377.377,0,0,1-.244.09" transform="translate(-82.013 -201.528)" fill="#8ba3a0"/>
          <path id="Trazado_132325" data-name="Trazado 132325" d="M155.465,577.73a.375.375,0,0,1-.371-.321c-.043-.289-4.232-29.035-4.58-39.843-.339-10.488.634-24.718.7-25.685l-4.957-24.662a.375.375,0,1,1,.736-.148l4.967,24.712.006.1c-.01.148-1.05,14.891-.7,25.659s4.53,39.47,4.572,39.759a.375.375,0,0,1-.317.425Z" transform="translate(-77.951 -259.446)" fill="#8ba3a0"/>
          <path id="Trazado_132326" data-name="Trazado 132326" d="M109.344,547.109a.376.376,0,0,1-.358-.264,16.2,16.2,0,0,1-.665-6.243.375.375,0,0,1,.747.07,15.433,15.433,0,0,0,.636,5.951.376.376,0,0,1-.247.47Z" transform="translate(-57.699 -287.957)" fill="#8ba3a0"/>
          <path id="Trazado_132327" data-name="Trazado 132327" d="M126.519,548.713a.375.375,0,0,1-.288-.615,10.73,10.73,0,0,0,2.4-7.449.375.375,0,1,1,.749-.046,11.487,11.487,0,0,1-2.573,7.975.374.374,0,0,1-.289.135" transform="translate(-67.234 -287.952)" fill="#8ba3a0"/>
          <path id="Trazado_132328" data-name="Trazado 132328" d="M177.045,543.5a.375.375,0,0,1-.321-.18,9.374,9.374,0,0,1-1.352-4.962.375.375,0,1,1,.75.012,8.617,8.617,0,0,0,1.243,4.56.375.375,0,0,1-.32.57" transform="translate(-93.472 -286.746)" fill="#8ba3a0"/>
          <path id="Trazado_132329" data-name="Trazado 132329" d="M265.785,277.9s1.645-2.389,4.2-5.791,3.07-3.9,5.106-4.892,4.14-2.533,4.862-1.994S276.8,268.9,276.8,268.9a14.038,14.038,0,0,0,4.6.115c2.745-.339,5.386-3.506,6.371-3.273s-.191,1.554-.191,1.554,1.563-1.723,2.272-1.073-1.366,2.873-1.366,2.873.969-.557,1.234.039-1.754,3.276-5.966,4.561-6,1.178-7.234,2.04-2.944,4.707-2.944,4.707Z" transform="translate(-141.662 -141.306)" fill="#d7b09d"/>
          <path id="Trazado_132330" data-name="Trazado 132330" d="M280.782,280.337a.382.382,0,0,1-.283-.637,4.377,4.377,0,0,1,2.111-1.3.382.382,0,1,1,.125.753,3.67,3.67,0,0,0-1.669,1.055.381.381,0,0,1-.284.126" transform="translate(-149.452 -148.385)" fill="#b87e7a"/>
          <path id="Trazado_132331" data-name="Trazado 132331" d="M304.134,272.251a.382.382,0,0,1-.122-.743,13.412,13.412,0,0,0,3.55-2.448.382.382,0,1,1,.525.554,13.868,13.868,0,0,1-3.83,2.617Z" transform="translate(-161.899 -143.352)" fill="#b87e7a"/>
          <path id="Trazado_132332" data-name="Trazado 132332" d="M305.108,276.108a.382.382,0,0,1-.106-.748,12.436,12.436,0,0,0,3.988-2.447.382.382,0,0,1,.518.561,12.982,12.982,0,0,1-4.293,2.618Z" transform="translate(-162.418 -145.408)" fill="#b87e7a"/>
          <path id="Trazado_132333" data-name="Trazado 132333" d="M124.725,203.36c.2,2.974,3.1,4.463,4.372,9.607s-1.949,10.026-5.817,10.843-26.675,8.866-31.347,6-3.538-10.072-1.983-13c2.877-5.42,4.952-6.989,5.449-13.558s-.533-11.791,1.344-16.335c2.42-5.858,27.981,16.444,27.981,16.444" transform="translate(-47.221 -99.103)" fill="#91625c"/>
          <path id="Trazado_132334" data-name="Trazado 132334" d="M114.969,197.184s-10.072-2.611-10.46-15.481c-.349-11.57,10.268-18.079,17.7-14.961,1.289-1.206,7.6-1.749,12.418,5.152,5.543,7.945-5.487,16.75-5.487,16.75Z" transform="translate(-55.698 -88.458)" fill="#91625c"/>
          <path id="Trazado_132335" data-name="Trazado 132335" d="M179.2,265.711c10.31,6.708,18,23.6,23.808,30.334l.66,20.2s-13.34-1.422-24.561-17.4L178.486,274Z" transform="translate(-95.132 -141.623)" fill="#f1e6d7"/>
          <path id="Trazado_132336" data-name="Trazado 132336" d="M243.628,285.841a27.112,27.112,0,0,0,9.52,4.671s-6.028,17.31-13.1,27.876c-4.8,7.171-8.784,9.063-12.467,8.582-9.108-1.188-.66-20.2-.66-20.2Z" transform="translate(-119.049 -152.352)" fill="#f1e6d7"/>
          <path id="Trazado_132337" data-name="Trazado 132337" d="M203.949,354.005l-.04,0c-.135-.014-13.639-1.625-24.828-17.553a.375.375,0,0,1,.614-.432c10.981,15.632,24.162,17.224,24.294,17.238a.375.375,0,0,1-.04.748" transform="translate(-95.413 -179.012)" fill="#d5c4a8"/>
          <path id="Trazado_132338" data-name="Trazado 132338" d="M233.122,326.992a9.205,9.205,0,0,1-1.19-.078.375.375,0,0,1,.1-.744c6.984.909,11.424-6.927,13.559-10.693.151-.267.289-.51.414-.725,3.84-6.616,9.994-21.814,11.041-24.423a30.541,30.541,0,0,1-9.249-4.621.375.375,0,1,1,.461-.592,30.581,30.581,0,0,0,9.388,4.605.375.375,0,0,1,.251.5c-.07.176-7.029,17.644-11.243,24.906-.124.213-.26.454-.41.718-1.932,3.409-6.315,11.145-13.118,11.145" transform="translate(-123.445 -151.924)" fill="#d5c4a8"/>
          <path id="Trazado_132339" data-name="Trazado 132339" d="M105.479,363.454l-.176,3.7s6.321,4.785,21.473,4.225c9.5-.352,14.96-2.992,14.96-2.992l-.7-4.048Z" transform="translate(-56.126 -193.72)" fill="#615556"/>
          <path id="Trazado_132340" data-name="Trazado 132340" d="M110.525,256.982c-2.323,2.493-6.733,2.866-11.818,6.161l5.413,17.293s12.276,2.244,21.781.264,11.617-4.268,11.617-4.268l-5.632-17.249a13.04,13.04,0,0,0-3.74-1.32Z" transform="translate(-52.61 -136.97)" fill="#ce9f8b"/>
          <path id="Trazado_132341" data-name="Trazado 132341" d="M124.4,237.046c.981-1.593,2.751-7.088.458-15.647l6.094-1.2,8.119,11s-.382,5.453,1.438,6.643c0,0,.027,2.963-6.549,4.277-7.541,1.507-10.832-3.013-9.56-5.078" transform="translate(-66.162 -117.367)" fill="#ce9f8b"/>
          <path id="Trazado_132342" data-name="Trazado 132342" d="M124.013,237.379c2.008,2.738,6.253,4.226,10.642,3.986a11.986,11.986,0,0,0,7.118-2.995l-1.329-.523c-1.821-1.189-1.438-6.643-1.438-6.643l-8.119-11-6.094,1.2c2.088,7.795.807,13.037-.179,15.116a5.469,5.469,0,0,1-.6.863" transform="translate(-66.098 -117.367)" fill="#bb7f7a"/>
          <path id="Trazado_132343" data-name="Trazado 132343" d="M104.642,260.592s7.333,12.477,17.519,11.732c5.117-.375,8.287-8.658,5.585-12.2a31.778,31.778,0,0,1,6.615,2.608c2.112,1.366.135,10.621.135,10.621a26.823,26.823,0,0,1,2.816,7.964c1.056,5.1-1.584,8.316-2.112,15.973-.368,5.34,4.882,18.218,1.451,19.933-4.287,2.143-4.823-4.823-12.325-4.823-8.573,0-14.646,13.575-27.507,6.787-4.134-2.182,4.058-21.194,3.882-27.53a50.691,50.691,0,0,0-1.056-9.856s-5.5-12.392-5.28-16.193a53.016,53.016,0,0,1,10.276-5.019" transform="translate(-50.293 -138.646)" fill="#f1e6d7"/>
          <path id="Trazado_132344" data-name="Trazado 132344" d="M182.031,332.27a.375.375,0,0,1-.168-.711c1.835-.917.663-6.257-.372-10.968-.736-3.356-1.433-6.525-1.286-8.655a42.4,42.4,0,0,1,1.428-8.085c.709-2.791,1.268-5,.691-7.786a26.785,26.785,0,0,0-2.768-7.844.375.375,0,0,1,.639-.393,26.949,26.949,0,0,1,2.864,8.085c.612,2.958,0,5.351-.7,8.122a41.74,41.74,0,0,0-1.407,7.952c-.139,2.023.577,5.287,1.271,8.443,1.2,5.462,2.332,10.621-.026,11.8a.371.371,0,0,1-.167.04" transform="translate(-95.673 -153.316)" fill="#d5c4a8"/>
          <path id="Trazado_132345" data-name="Trazado 132345" d="M148.938,321.817a.375.375,0,0,1-.136-.724,19.09,19.09,0,0,0,9.122-8.137.375.375,0,1,1,.64.39,19.827,19.827,0,0,1-9.489,8.445.372.372,0,0,1-.137.026" transform="translate(-79.183 -166.708)" fill="#d5c4a8"/>
          <path id="Trazado_132346" data-name="Trazado 132346" d="M155.679,325.747a.375.375,0,0,1-.16-.714,12.591,12.591,0,0,0,5.4-4.885.375.375,0,0,1,.644.384,13.35,13.35,0,0,1-5.721,5.18.375.375,0,0,1-.16.036" transform="translate(-82.776 -170.54)" fill="#d5c4a8"/>
          <path id="Trazado_132347" data-name="Trazado 132347" d="M222.942,340.292l-.057,0a.375.375,0,0,1-.315-.427,36.374,36.374,0,0,1,2.366-8.543,11.249,11.249,0,0,0-2.9,3.153.375.375,0,0,1-.651-.372,13.024,13.024,0,0,1,4.274-4.187.375.375,0,0,1,.521.5,33.759,33.759,0,0,0-2.866,9.563.375.375,0,0,1-.37.319" transform="translate(-117.97 -175.815)" fill="#d5c4a8"/>
          <path id="Trazado_132348" data-name="Trazado 132348" d="M184.191,293.1a.375.375,0,0,1-.351-.508,7.639,7.639,0,0,0,.028-3.33l-.066-.6a.375.375,0,1,1,.745-.08l.067.6a8.185,8.185,0,0,1-.072,3.68.375.375,0,0,1-.351.242" transform="translate(-97.965 -153.634)" fill="#d5c4a8"/>
          <path id="Trazado_132349" data-name="Trazado 132349" d="M139.6,209.892c-1.326.372-9.072-.162-13.431-8.074a24.7,24.7,0,0,1-2.929-12.86c.313-3.326,2.673-13.881,12.937-11.576,0,0,8.328,1.929,9.577,15.079,1.122,11.822-4.669,17.015-6.153,17.432" transform="translate(-65.657 -94.37)" fill="#d7b09d"/>
          <path id="Trazado_132350" data-name="Trazado 132350" d="M156.79,214.733s.2-.043.566-.148a5.554,5.554,0,0,0,1.5-.688,3.291,3.291,0,0,0,.841-.8,2.3,2.3,0,0,0,.306-.6,1.2,1.2,0,0,0,.073-.364,1.039,1.039,0,0,0-.011-.208.647.647,0,0,0-.021-.116l-.018-.063-.01-.032-.005-.015,0-.008-.044-.092a1.029,1.029,0,0,0-.229-.228c-.059-.038-.116-.072-.163-.1l-.277-.14-.517-.256a6.832,6.832,0,0,1-.952-.591,3.819,3.819,0,0,1-1.288-1.631,3.979,3.979,0,0,1-.227-1.821,6.879,6.879,0,0,1,.281-1.339l.175-.5,0-.01a.164.164,0,0,0-.119-.212.2.2,0,0,0-.23.106l-.225.509a7.442,7.442,0,0,0-.416,1.406,4.523,4.523,0,0,0,.089,2.081,4.452,4.452,0,0,0,1.348,2.036,7.579,7.579,0,0,0,1.016.749l.518.309.23.139.079.055c-.012.008-.1-.124-.035-.034-.084-.167-.023-.046-.042-.083h0v.019l-.006.059a1.4,1.4,0,0,1-.017.159,1.274,1.274,0,0,1-.127.355,2.247,2.247,0,0,1-.52.622,4.662,4.662,0,0,1-1.172.7c-.326.134-.532.2-.532.2a.3.3,0,0,0-.2.382.312.312,0,0,0,.367.184Z" transform="translate(-82.989 -109.143)" fill="#bb7f7a"/>
          <path id="Trazado_132351" data-name="Trazado 132351" d="M167.139,207.944a1.205,1.205,0,0,1-.537,1.448c-.449.151-.936-.253-1.089-.9a1.2,1.2,0,0,1,.537-1.448c.449-.151.936.253,1.089.9" transform="translate(-88.194 -110.336)" fill="#765856"/>
          <path id="Trazado_132352" data-name="Trazado 132352" d="M162.259,208.176a2.992,2.992,0,0,1,1.835-1.487c.98-.316,1.064.643,1.96.657a1,1,0,0,0,.847-.939.516.516,0,0,1-.693.178c-.344-.194-1.171-1.267-2.36-.914a2.066,2.066,0,0,0-1.59,2.5" transform="translate(-86.453 -109.584)" fill="#765856"/>
          <path id="Trazado_132353" data-name="Trazado 132353" d="M146.1,210.072a1.531,1.531,0,0,0-.869-1.554c-.516-.15-.965.3-1,1.01a1.53,1.53,0,0,0,.869,1.553c.517.15.965-.3,1-1.01" transform="translate(-76.874 -111.124)" fill="#765856"/>
          <path id="Trazado_132354" data-name="Trazado 132354" d="M143.545,209a2.478,2.478,0,0,0-2.335-.395c-1.146.246-1.1.912-1.962,1.346a1.092,1.092,0,0,1-1.331-.456.583.583,0,0,0,.786-.219,3.954,3.954,0,0,1,2.231-1.833,2.03,2.03,0,0,1,2.61,1.557" transform="translate(-73.51 -110.516)" fill="#765856"/>
          <path id="Trazado_132355" data-name="Trazado 132355" d="M137.54,172.107c1.487,6.721-8.14,4.9-12.944,13.183-1.356,2.082-1.355,5.077-3.785,5.531l-2.964-3.01a17.565,17.565,0,0,1,2.029-12.927c3.887-6.173,15.634-7.788,17.664-2.778" transform="translate(-62.574 -90.152)" fill="#91625c"/>
          <path id="Trazado_132356" data-name="Trazado 132356" d="M120,212s-2.009-3.715-4.146-1.606c-1.855,1.831,1.428,8.138,5.569,5.952Z" transform="translate(-61.469 -111.796)" fill="#d7b09d"/>
          <path id="Trazado_132357" data-name="Trazado 132357" d="M118.689,215.922c.647.935,1.606,1.255,1.982.83s.156-1.527-.491-2.462-1.476-1.348-1.852-.924a2.463,2.463,0,0,0,.361,2.555" transform="translate(-62.951 -113.635)" fill="#bb7f7a"/>
          <path id="Trazado_132358" data-name="Trazado 132358" d="M159.693,200.615c.076.712,1.235.314,3.024.327,1.4.01,2.48.545,2.48.14,0-.358-.5-1.446-2.692-1.592-2.579-.171-2.881.478-2.812,1.125" transform="translate(-85.111 -106.312)" fill="#91625c"/>
          <path id="Trazado_132359" data-name="Trazado 132359" d="M143.732,201.291c-.216.583-1.842.215-4.2.891-1.84.527-3.531,1.159-3.69.882s1.2-1.936,4.272-2.524c2.685-.514,3.858.1,3.616.75" transform="translate(-72.397 -106.785)" fill="#91625c"/>
          <path id="Trazado_132360" data-name="Trazado 132360" d="M124.669,192.065l-.111-.017a.375.375,0,0,1-.248-.469,16.594,16.594,0,0,1,7.008-9.093c.741-.46,1.523-.863,2.279-1.253.691-.356,1.406-.724,2.075-1.13a8.023,8.023,0,0,0,3.3-3.306.375.375,0,0,1,.679.319,8.735,8.735,0,0,1-3.592,3.629c-.692.419-1.418.793-2.121,1.155-.743.383-1.512.778-2.227,1.223a15.836,15.836,0,0,0-6.687,8.676.375.375,0,0,1-.358.265" transform="translate(-66.248 -94.118)" fill="#815251"/>
          <path id="Trazado_132361" data-name="Trazado 132361" d="M121.632,198.946l-.1-.013a.375.375,0,0,1-.267-.458,15.724,15.724,0,0,1,4.008-7.023.375.375,0,0,1,.534.527,14.969,14.969,0,0,0-3.817,6.687.375.375,0,0,1-.362.279" transform="translate(-64.629 -101.984)" fill="#815251"/>
          <path id="Trazado_132362" data-name="Trazado 132362" d="M100.949,205.376a.369.369,0,0,1-.195-.055.375.375,0,0,1-.126-.515c2.32-3.814,2.722-8.513,2.81-13.021.012-.6.02-1.2.027-1.8.05-3.959.1-8.053,1.375-11.866,1.616-4.841,7.447-10.676,14.194-9.032a.375.375,0,0,1-.177.729c-6.832-1.662-12.037,4.742-13.3,8.542-1.236,3.7-1.287,7.736-1.337,11.637-.007.6-.015,1.2-.027,1.8-.091,4.614-.507,9.43-2.919,13.4a.375.375,0,0,1-.321.18" transform="translate(-53.606 -89.974)" fill="#815251"/>
          <path id="Trazado_132363" data-name="Trazado 132363" d="M93.646,260.032a.375.375,0,0,1-.372-.33,9.318,9.318,0,0,1,1.646-6.535.375.375,0,1,1,.607.441,8.562,8.562,0,0,0-1.507,6,.375.375,0,0,1-.327.418Z" transform="translate(-49.679 -134.855)" fill="#815251"/>
          <path id="Trazado_132364" data-name="Trazado 132364" d="M102.219,242.5h-.008a.376.376,0,0,1-.367-.383,15.827,15.827,0,0,1,2.413-7.044l.21-.37c1.532-2.7,3.847-6.793,3.669-9.755a.375.375,0,0,1,.352-.4.379.379,0,0,1,.4.352c.192,3.184-2.189,7.388-3.765,10.17l-.21.369a15.158,15.158,0,0,0-2.315,6.692.375.375,0,0,1-.375.367" transform="translate(-54.282 -119.685)" fill="#815251"/>
          <path id="Trazado_132365" data-name="Trazado 132365" d="M114.354,242.035a.375.375,0,0,1-.3-.605c2.508-3.22,5.036-8.177,2.837-13.508a.375.375,0,0,1,.694-.286c1.848,4.483.832,9.412-2.939,14.255a.375.375,0,0,1-.3.144" transform="translate(-60.75 -121.205)" fill="#815251"/>
          <path id="Trazado_132366" data-name="Trazado 132366" d="M143.435,176.145a.375.375,0,0,1-.109-.734,5.122,5.122,0,0,0,3.538-4.593.375.375,0,0,1,.75.028,5.893,5.893,0,0,1-4.071,5.283Z" transform="translate(-76.251 -90.853)" fill="#815251"/>
          <path id="Trazado_132367" data-name="Trazado 132367" d="M164.589,181.832a.375.375,0,0,1-.375-.361,6.424,6.424,0,0,0-3.229-5.277.375.375,0,0,1,.365-.655,7.188,7.188,0,0,1,3.614,5.9.375.375,0,0,1-.361.389Z" transform="translate(-85.702 -93.536)" fill="#815251"/>
          <path id="Trazado_132368" data-name="Trazado 132368" d="M169.128,248.012a.375.375,0,0,1-.337-.539,5.572,5.572,0,0,0-.2-5.145.375.375,0,0,1,.646-.381,6.254,6.254,0,0,1,.231,5.854.374.374,0,0,1-.337.211" transform="translate(-89.829 -128.858)" fill="#815251"/>
          <path id="Trazado_132369" data-name="Trazado 132369" d="M110.024,203.957l-.119-.02a.375.375,0,0,1-.237-.474c1.1-3.271.978-7.813.885-11.462a39.036,39.036,0,0,1,.029-4.455,13.264,13.264,0,0,1,4.395-9.117.375.375,0,0,1,.49.568,12.548,12.548,0,0,0-4.139,8.628,38.537,38.537,0,0,0-.025,4.357c.1,3.708.214,8.323-.923,11.719a.376.376,0,0,1-.356.256" transform="translate(-58.442 -95.053)" fill="#815251"/>
          <path id="Trazado_132370" data-name="Trazado 132370" d="M148.175,235.986c-.122.332.2,1.155,1.176,1.513,1.011.371,1.923,0,2.045-.332s-.7-.265-1.585-.591-1.515-.923-1.636-.591" transform="translate(-78.964 -125.728)" fill="#bb7f7a"/>
          <path id="Trazado_132371" data-name="Trazado 132371" d="M145.894,227.078a36.35,36.35,0,0,0,4.114,1.4,16.829,16.829,0,0,0,3.816.554s-1,2.735-4.7,1.692a4.718,4.718,0,0,1-3.234-3.643" transform="translate(-77.761 -121.032)" fill="#765856"/>
          <path id="Trazado_132372" data-name="Trazado 132372" d="M150.28,231.225c2.133.6,2.859-.561,2.859-.561a19.161,19.161,0,0,1-2.747-.631,22.817,22.817,0,0,1-2.509-.868,3.124,3.124,0,0,0,2.4,2.06" transform="translate(-78.821 -122.144)" fill="#f3f1f7"/>
          <path id="Trazado_132373" data-name="Trazado 132373" d="M156.6,333.147c2.382-1.035,5.95-5.56,6.692-5.1,1.048.644-1.7,3.028-2.414,4.413a18.119,18.119,0,0,0,4.92-1.152c2.88-1.06,4.872-2.332,5.286-1.724.437.642-2.279,2.2-4.48,3.258a7.186,7.186,0,0,0,2.835-.63c1.609-.565,2.8-1.087,3.138-.49s-1.753,1.651-2.817,2.174c-1.619.8-2.853,1.19-2.794,1.471s.8.065,2.227-.282c1.168-.283,2.193-.555,2.408-.07.316.712-3.439,2.151-6.118,2.922a25.029,25.029,0,0,1-6.958,1.354,25.937,25.937,0,0,0-3.149,1.03l-2.215-5.839s2.457-.906,3.439-1.332" transform="translate(-81.635 -174.829)" fill="#d7b09d"/>
          <path id="Trazado_132374" data-name="Trazado 132374" d="M79.989,271.786C72.261,275,61.9,311.254,70.832,319.292c8.368,7.531,39.206-6.52,39.206-6.52s.268-6.966-3.215-10.717l-20.809,1.875a66.642,66.642,0,0,0,2.858-15.271c.268-7.234-4.64-17.94-8.884-16.874" transform="translate(-35.916 -144.821)" fill="#f1e6d7"/>
          <path id="Trazado_132375" data-name="Trazado 132375" d="M96.666,340.682a.375.375,0,0,1-.032-.749c11.2-.962,26.45-7.607,28.44-8.492.006-1.205-.129-6.842-3-10.082l-20.623,1.859a.368.368,0,0,1-.327-.139.378.378,0,0,1-.064-.349,66.758,66.758,0,0,0,2.84-15.171.375.375,0,0,1,.75.028,66.316,66.316,0,0,1-2.71,14.834L122.2,320.6a.367.367,0,0,1,.308.119c3.549,3.821,3.326,10.7,3.316,10.986a.376.376,0,0,1-.219.327c-.167.076-16.828,7.616-28.9,8.653Z" transform="translate(-51.323 -163.735)" fill="#d5c4a8"/>
          <path id="Trazado_132376" data-name="Trazado 132376" d="M557.127,275.933c6.957,4.051,27.51,14.5,33.838,24.508,1.866,2.953,2.667,7.629-.938,10.985-7.77,7.234-20.069-5.492-38.556-13.128Z" transform="translate(-293.932 -147.071)" fill="#ffa726"/>
          <path id="Trazado_132377" data-name="Trazado 132377" d="M443.554,269.133c-8.507,2.255-15.458,14.034-21.7,22.548-9.824,13.4-13.4,15.54-10.784,22.932,2.154,6.1,8.6,9.934,22.528-3.73A181.252,181.252,0,0,0,451.659,289.7Z" transform="translate(-218.657 -143.447)" fill="#ffa726"/>
          <path id="Trazado_132378" data-name="Trazado 132378" d="M537.94,174.47s2.82-1.71,7.26,1.5,6.443,11.747,2.744,17.62-5.241,10.438-4.33,13.062a2.932,2.932,0,0,0,2.537,1.751,2.941,2.941,0,0,1-3.657.516,3.738,3.738,0,0,1-1.615-3.785s-1.017,3,.69,5.253a4.459,4.459,0,0,0,4.233,1.743s-2.711,3.573-7.95.17-4.532-8.6-4.143-10.76,4.231-27.068,4.231-27.068" transform="translate(-284.323 -92.749)" fill="#ad684f"/>
          <path id="Trazado_132379" data-name="Trazado 132379" d="M504.086,201.374s11.346-1.9,13.022-16.036c1.507-12.709-8.185-21.083-17.407-19.063,0,0-6.374-3.4-13.329,4.748s2.941,19.571,2.941,19.571Z" transform="translate(-257.914 -88.25)" fill="#ad684f"/>
          <path id="Trazado_132380" data-name="Trazado 132380" d="M552.8,668.256s1.812,14.676,1.264,17.56c-.453,2.381-4.325,3.062-7.785,3.062s-5.081-1.59-4.945-2.721c.308-2.552,5.011-2.7,4.483-17.39Z" transform="translate(-288.527 -356.178)" fill="#d7b2a0"/>
          <path id="Trazado_132381" data-name="Trazado 132381" d="M546.251,700.107c5.541.3,7.13-2.521,7.587-4.092a15.158,15.158,0,0,1,.191,4.621c-.468,2.464-4.474,3.168-8.054,3.168s-5.257-1.645-5.116-2.816c.132-1.1.992-1.89,1.941-2.858.255,1.02,1.174,1.853,3.45,1.977" transform="translate(-288.272 -370.973)" fill="#615556"/>
          <path id="Trazado_132382" data-name="Trazado 132382" d="M445.9,671.546c-1.187,13.119-14.849,12.074-14.241,15.677.544,3.224,16,1.489,17.722-.7a11.565,11.565,0,0,0,2.223-4.531,39.4,39.4,0,0,0,.955-10Z" transform="translate(-230.065 -357.932)" fill="#d7b2a0"/>
          <path id="Trazado_132383" data-name="Trazado 132383" d="M437.036,695.186c-4.234,1.344-6.556,2.458-6.3,4.062.532,3.294,16.453,1.582,18.306-.569a7.847,7.847,0,0,0,2.07-4.76c-.872,1.459-2.841,3.616-7.021,4.088-4.961.56-6.554-1.595-7.058-2.82" transform="translate(-229.572 -369.856)" fill="#615556"/>
          <path id="Trazado_132384" data-name="Trazado 132384" d="M459.478,375.688c-4.56,50.663-6,67.349-6.192,81.845-.155,11.538.462,58.052.462,58.052a20.141,20.141,0,0,0,14.126.577s2.941-18.557,3.961-30.1,1.815-28.63,1.815-28.63L481,422.631,478.12,378Z" transform="translate(-241.586 -200.24)" fill="#e9e9e9"/>
          <path id="Trazado_132385" data-name="Trazado 132385" d="M494.757,377.973c7.107,70.242,6.863,67.632,9.327,80.692,1.125,5.959,7.692,31.8,13.173,55.456,0,0,6.057,2.307,14.134-1.154,0,0-.78-26.74-2.307-36.922a193.185,193.185,0,0,0-4.327-20.842s2.292-39.793,2.292-47.869-7.121-33.311-7.121-33.311Z" transform="translate(-263.704 -199.353)" fill="#e9e9e9"/>
          <path id="Trazado_132386" data-name="Trazado 132386" d="M520.389,525.5a14.044,14.044,0,0,1-5.36-.916.377.377,0,0,1-.212-.258c-2.6-11.223-5.5-23.182-7.838-32.791-2.651-10.917-4.745-19.539-5.337-22.68-.944-5-5.192-44.033-5.53-47.145l-5.052-2.787a.377.377,0,0,1-.194-.343l1-25.209a.375.375,0,0,1,.75.03l-.992,24.978,5.02,2.769a.374.374,0,0,1,.191.288c.046.421,4.57,42.126,5.542,47.28.589,3.121,2.681,11.736,5.329,22.642,2.321,9.556,5.206,21.436,7.8,32.607.982.364,6.154,1.992,13.206-1.031a.375.375,0,1,1,.3.69,21.807,21.807,0,0,1-8.615,1.876" transform="translate(-261.629 -209.474)" fill="#b6b5b4"/>
          <path id="Trazado_132387" data-name="Trazado 132387" d="M496.406,456.458l-.1-.014a47.955,47.955,0,0,1-5.632-1.943.375.375,0,1,1,.311-.683,48.144,48.144,0,0,0,5.522,1.9.375.375,0,0,1-.1.736" transform="translate(-261.41 -241.866)" fill="#b6b5b4"/>
          <path id="Trazado_132388" data-name="Trazado 132388" d="M461.785,583.338a20.081,20.081,0,0,1-8.072-1.644.375.375,0,0,1,.325-.676,19.951,19.951,0,0,0,13.629.632c.336-2.146,2.975-19.133,3.922-29.845,1.007-11.4,1.805-28.444,1.813-28.615l.008-.061,5.076-23.747a.375.375,0,1,1,.734.157l-5.07,23.717c-.039.827-.826,17.432-1.814,28.615-1.01,11.419-3.935,29.935-3.964,30.12a.375.375,0,0,1-.248.3,19.389,19.389,0,0,1-6.339,1.051" transform="translate(-241.714 -266.011)" fill="#b6b5b4"/>
          <path id="Trazado_132389" data-name="Trazado 132389" d="M477.316,573.568l-.053,0a.375.375,0,0,1-.319-.424c.036-.256,3.618-25.675,4.317-35.358s1.173-24.048,1.178-24.193l.009-.073,7.351-31.441a.375.375,0,0,1,.731.171l-7.342,31.4c-.028.822-.5,14.725-1.178,24.185-.7,9.708-4.287,35.153-4.323,35.408a.374.374,0,0,1-.371.323" transform="translate(-254.207 -256.791)" fill="#b6b5b4"/>
          <path id="Trazado_132390" data-name="Trazado 132390" d="M486.882,390.132c-2.541,0-5.243-.1-8.055-.347-9.786-.858-12.818-3.466-12.943-3.576a.375.375,0,0,1,.5-.562c.031.027,3.029,2.559,12.511,3.391a92.24,92.24,0,0,0,27.072-1.6.375.375,0,0,1,.18.728,89.546,89.546,0,0,1-19.262,1.964" transform="translate(-248.248 -205.499)" fill="#b6b5b4"/>
          <path id="Trazado_132391" data-name="Trazado 132391" d="M542.156,401.052c-7.084,0-10.636-7.428-10.672-7.506a.375.375,0,1,1,.679-.318c.037.078,3.73,7.782,11.008,7.02a.375.375,0,0,1,.078.746,10.457,10.457,0,0,1-1.093.058" transform="translate(-283.26 -209.474)" fill="#b6b5b4"/>
          <path id="Trazado_132392" data-name="Trazado 132392" d="M464.222,398.261a.375.375,0,0,1-.212-.685c.04-.027,3.989-2.784,4.755-7.124a.375.375,0,1,1,.739.13c-.822,4.656-4.9,7.494-5.07,7.612a.373.373,0,0,1-.212.066" transform="translate(-247.228 -207.944)" fill="#b6b5b4"/>
          <path id="Trazado_132393" data-name="Trazado 132393" d="M509.967,269.246a40.7,40.7,0,0,0-8.16-3.329c-3.246-.374-4.616-.706-5.992-1.426a50.68,50.68,0,0,0-10.215-1.1c-5.632.028-11.416,1.15-15,3.19-1.869,1.063-7.22,9.557-7.6,18.559-.157,3.738,2.817,10.263,2.694,15.9-.152,6.932-3.293,12.644-.9,15.583,1.437,1.769,7.363,4.243,16.3,4.243s19.827-1.161,22.863-4.2c1.5-1.5-.849-9.109,2.1-21.434,2.653-11.095,7.141-24.6,3.914-25.982" transform="translate(-246.773 -140.384)" fill="#ffa726"/>
          <path id="Trazado_132394" data-name="Trazado 132394" d="M476.9,265.793c.111.088,1.627,4.189,13.959,3.6,11.38-.545,18.363-4.6,18.363-4.6s-5.056-.86-5.971-1.387c-7.743-4.459-17.14-.535-17.14-.535s-5.753.961-9.21,2.925" transform="translate(-254.185 -139.257)" fill="#ce9f8b"/>
          <path id="Trazado_132395" data-name="Trazado 132395" d="M513.241,244.65c-1.939-2.091-3.492-7-1.517-18.187l-4.45-.3-9.819,11.15s.4,5.869-1.684,7.052c0,0-1.242,3.05,5.808,4.558,10.753,1.1,11.663-4.273,11.663-4.273" transform="translate(-264.198 -120.544)" fill="#ce9f8b"/>
          <path id="Trazado_132396" data-name="Trazado 132396" d="M496.46,246.853c-3.453.066-5.815-.761-6.667-1.907,1.937-.547,3.188-.791,3.188-.791,1.69-1.732,1.332-6.842,1.332-6.842l9.819-11.15,4.45.3c-1.156,6.551-1.1,10.839-.532,13.682-.8,2.124-4.09,6.564-11.591,6.708" transform="translate(-261.058 -120.544)" fill="#bb7f7a"/>
          <path id="Trazado_132397" data-name="Trazado 132397" d="M486.5,215.037c1.462.467,10.085.251,15.18-8.137a26.1,26.1,0,0,0,3.661-13.828c-.243-3.627-2.532-15.2-14.01-13.18,0,0-9.315,1.7-11.117,15.925-1.621,12.787,4.65,18.7,6.287,19.22" transform="translate(-255.813 -95.756)" fill="#d7b09d"/>
          <path id="Trazado_132398" data-name="Trazado 132398" d="M498.7,173.692c-2.289,7.257,10.474,4.793,12.938,16.309.175,2.115-.518,4.651,2.114,5.387l3.557-3.028a19.419,19.419,0,0,0-.981-14.433c-3.683-7.176-14.906-9.556-17.627-4.235" transform="translate(-265.659 -91.036)" fill="#ad684f"/>
          <path id="Trazado_132399" data-name="Trazado 132399" d="M487.686,203.23c-.48.533-1.22-.462-3.5-.71-1.567-.171-2.6.844-2.69.448-.1-.423.7-1.946,3.171-1.837,2.534.112,3.648,1.4,3.016,2.1" transform="translate(-256.633 -107.199)" fill="#ad684f"/>
          <path id="Trazado_132400" data-name="Trazado 132400" d="M505.373,206.19c.026.868,1.895.233,4.1,1.159,2.289.962,2.834,2.411,3.337,2.063.258-.178-.256-2.543-3.22-3.709-2.638-1.038-4.239-.386-4.213.487" transform="translate(-269.362 -109.355)" fill="#ad684f"/>
          <path id="Trazado_132401" data-name="Trazado 132401" d="M491.271,218.863s-.2-.061-.566-.2a5.285,5.285,0,0,1-1.47-.857,3.331,3.331,0,0,1-.775-.941,2.539,2.539,0,0,1-.247-.681,1.392,1.392,0,0,1-.034-.409,1.248,1.248,0,0,1,.035-.23.734.734,0,0,1,.035-.127l.026-.069.014-.035.007-.017,0-.008.056-.1a1.16,1.16,0,0,1,.262-.239c.065-.039.128-.073.178-.1l.3-.138.56-.252a7.4,7.4,0,0,0,1.047-.6,4.471,4.471,0,0,0,1.509-1.73,4.856,4.856,0,0,0,.439-2.009,8.04,8.04,0,0,0-.138-1.5l-.124-.567,0-.012a.192.192,0,0,1,.371-.1l.175.579a8.55,8.55,0,0,1,.269,1.587,5.485,5.485,0,0,1-.326,2.305,5.292,5.292,0,0,1-1.617,2.178,8.349,8.349,0,0,1-1.129.768l-.567.311-.253.14-.087.057c.011.01.113-.132.04-.035.105-.181.029-.05.053-.09h0v.087a1.6,1.6,0,0,0,0,.178,1.441,1.441,0,0,0,.092.4,2.336,2.336,0,0,0,.464.722,4.485,4.485,0,0,0,1.127.852c.321.17.525.261.525.261a.33.33,0,0,1-.231.618Z" transform="translate(-260.194 -110.763)" fill="#b97e7b"/>
          <path id="Trazado_132402" data-name="Trazado 132402" d="M529.551,218.952s2.321-3.948,4.556-1.58c1.1,1.17.548,3.946-.948,5.652-1.133,1.291-3.451,2.162-4.7.881,0,0-1.24-.694,1.091-4.954" transform="translate(-281.492 -115.456)" fill="#d7b09d"/>
          <path id="Trazado_132403" data-name="Trazado 132403" d="M533.57,224.393c-.806,1.08-1.956,1.419-2.383.9s-.12-1.815.686-2.9,1.805-1.535,2.232-1.016.27,1.932-.536,3.012" transform="translate(-283.018 -117.881)" fill="#bb7f7a"/>
          <path id="Trazado_132404" data-name="Trazado 132404" d="M486.356,211.8a2.588,2.588,0,0,1-2.382.664c-1.181-.238-.884-1.092-1.627-1.479a1.014,1.014,0,0,0-1.2.552.538.538,0,0,1,.743.123c.253.335.613,1.736,1.907,1.9a2.14,2.14,0,0,0,2.561-1.761" transform="translate(-256.448 -112.424)" fill="#765856"/>
          <path id="Trazado_132405" data-name="Trazado 132405" d="M505.132,215.432A2.647,2.647,0,0,0,507.358,217c1.16.14,1.575-.5,2.419-.6a1.167,1.167,0,0,1,1.152.953.611.611,0,0,0-.855-.077,3.64,3.64,0,0,1-2.858.987,2.469,2.469,0,0,1-2.084-2.829" transform="translate(-269.219 -114.824)" fill="#765856"/>
          <path id="Trazado_132406" data-name="Trazado 132406" d="M551.548,202.436l-.123-.021a.368.368,0,0,1-.223-.469,29.749,29.749,0,0,1,2.494-4.856,34.462,34.462,0,0,0,2.121-3.962c1.006-2.41,1.162-4.789.537-8.21-.567-3.105-2.8-5.612-5.435-6.1a.368.368,0,0,1,.133-.723c2.926.539,5.4,3.289,6.024,6.687a14.473,14.473,0,0,1-.581,8.626,34.963,34.963,0,0,1-2.166,4.052,29.228,29.228,0,0,0-2.434,4.729.368.368,0,0,1-.346.245" transform="translate(-293.477 -94.923)" fill="#99563f"/>
          <path id="Trazado_132407" data-name="Trazado 132407" d="M545.274,233.467l-.038,0a.367.367,0,0,1-.328-.4,10.969,10.969,0,0,1,1.48-4.471.368.368,0,1,1,.631.376,10.218,10.218,0,0,0-1.38,4.169.368.368,0,0,1-.365.33" transform="translate(-290.433 -121.743)" fill="#99563f"/>
          <path id="Trazado_132408" data-name="Trazado 132408" d="M542.269,246.538a.369.369,0,0,1-.141-.029c-3.511-1.468-5.336-4.415-4.883-7.884a.367.367,0,1,1,.729.1c-.414,3.167,1.2,5.759,4.437,7.11a.368.368,0,0,1-.141.707" transform="translate(-286.313 -127.016)" fill="#99563f"/>
          <path id="Trazado_132409" data-name="Trazado 132409" d="M515.6,191.386a.368.368,0,0,1-.359-.288,13.02,13.02,0,0,0-7.443-8.988c-.354-.152-.716-.289-1.078-.426a11.2,11.2,0,0,1-2.641-1.279,3.652,3.652,0,0,1-1.609-3.869.367.367,0,0,1,.7.23,2.924,2.924,0,0,0,1.341,3.043A10.492,10.492,0,0,0,506.977,181c.372.141.744.282,1.108.439a13.769,13.769,0,0,1,7.87,9.5.368.368,0,0,1-.279.439Z" transform="translate(-267.742 -93.958)" fill="#99563f"/>
          <path id="Trazado_132410" data-name="Trazado 132410" d="M508.48,176.205a.365.365,0,0,1-.289-.14,5.776,5.776,0,0,1-1.213-3.152.367.367,0,0,1,.342-.391.372.372,0,0,1,.391.341,5.036,5.036,0,0,0,1.057,2.748.367.367,0,0,1-.289.594" transform="translate(-270.217 -91.953)" fill="#99563f"/>
          <path id="Trazado_132411" data-name="Trazado 132411" d="M541.363,184.487a.368.368,0,0,1-.368-.366,12.316,12.316,0,0,0-2.451-7.413,11.849,11.849,0,0,0-5.9-4.606.367.367,0,0,1,.245-.693,12.587,12.587,0,0,1,6.266,4.893,12.964,12.964,0,0,1,2.573,7.814.368.368,0,0,1-.366.369Z" transform="translate(-283.768 -91.35)" fill="#99563f"/>
          <path id="Trazado_132412" data-name="Trazado 132412" d="M519.268,170a.367.367,0,0,1-.163-.7,4.057,4.057,0,0,1,3.15-.165.367.367,0,0,1-.255.689,3.314,3.314,0,0,0-2.57.135.363.363,0,0,1-.163.038" transform="translate(-276.572 -90.021)" fill="#99563f"/>
          <path id="Trazado_132413" data-name="Trazado 132413" d="M533.784,206.888l-.074-.007a.367.367,0,0,1-.286-.434,6.849,6.849,0,0,0-.945-5.047.367.367,0,0,1,.618-.4,7.589,7.589,0,0,1,1.047,5.592.367.367,0,0,1-.36.294" transform="translate(-283.778 -107.043)" fill="#99563f"/>
          <path id="Trazado_132414" data-name="Trazado 132414" d="M540.028,209.156a.373.373,0,0,1-.158-.035.368.368,0,0,1-.174-.49,3.544,3.544,0,0,0,.085-2.8.367.367,0,1,1,.681-.276,4.291,4.291,0,0,1-.1,3.4.368.368,0,0,1-.332.21" transform="translate(-287.637 -109.435)" fill="#99563f"/>
          <path id="Trazado_132415" data-name="Trazado 132415" d="M486.784,182.387a.368.368,0,0,1-.323-.543,12,12,0,0,1,5.623-5.22.368.368,0,0,1,.3.671,11.255,11.255,0,0,0-5.276,4.9.367.367,0,0,1-.324.193" transform="translate(-259.258 -94.123)" fill="#99563f"/>
          <path id="Trazado_132416" data-name="Trazado 132416" d="M555.363,185.964a.367.367,0,0,1-.348-.25,3.824,3.824,0,0,0-2.092-2.257.367.367,0,1,1,.288-.676,4.569,4.569,0,0,1,2.5,2.7.368.368,0,0,1-.23.466Z" transform="translate(-294.587 -97.406)" fill="#99563f"/>
          <path id="Trazado_132417" data-name="Trazado 132417" d="M533.872,223.34a.368.368,0,0,1-.133-.71c4.216-1.637,7.08-6.918,7.634-11.054a.363.363,0,0,1,.413-.315.367.367,0,0,1,.315.413c-.6,4.455-3.569,9.884-8.1,11.642a.37.37,0,0,1-.133.025" transform="translate(-284.356 -112.599)" fill="#99563f"/>
          <path id="Trazado_132418" data-name="Trazado 132418" d="M545.011,196.415l-.067-.006a.367.367,0,0,1-.295-.428,12.55,12.55,0,0,0-1.605-8.691.367.367,0,1,1,.627-.382,13.29,13.29,0,0,1,1.7,9.206.367.367,0,0,1-.36.3" transform="translate(-289.412 -99.528)" fill="#99563f"/>
          <path id="Trazado_132419" data-name="Trazado 132419" d="M497.954,170.69a.368.368,0,0,1-.246-.641,7.791,7.791,0,0,1,6.981-1.739.367.367,0,1,1-.177.713A7.045,7.045,0,0,0,498.2,170.6a.367.367,0,0,1-.245.094" transform="translate(-265.212 -89.592)" fill="#99563f"/>
          <path id="Trazado_132420" data-name="Trazado 132420" d="M498.609,234.588a31.594,31.594,0,0,1-4.719,1.122,14.418,14.418,0,0,1-4.282-.02s.757,4.128,4.966,3.422c3.187-.534,4.036-4.524,4.036-4.524" transform="translate(-260.959 -125.035)" fill="#765856"/>
          <path id="Trazado_132421" data-name="Trazado 132421" d="M496.87,238.434c-2.431.407-3.235-.656-3.235-.656a16.293,16.293,0,0,0,3.112-.319,19.878,19.878,0,0,0,2.88-.708s-.386,1.285-2.757,1.683" transform="translate(-263.106 -126.187)" fill="#f0edf3"/>
          <path id="Trazado_132422" data-name="Trazado 132422" d="M502.131,245.333c.106.337-.256,1.145-1.245,1.457-1.026.324-1.921-.089-2.027-.426s.707-.232,1.611-.517,1.556-.851,1.662-.514" transform="translate(-265.885 -130.706)" fill="#bb7f7a"/>
          <path id="Trazado_132423" data-name="Trazado 132423" d="M482.558,337.481a48.374,48.374,0,0,1-5.329-.278c-11.229-1.248-12.95-3.628-13.2-4.154-1.513-1.914-.93-4.734-.193-8.3a41.023,41.023,0,0,0,1.047-7.487A36.284,36.284,0,0,0,463.361,308a26.3,26.3,0,0,1-1.166-6.638,21.072,21.072,0,0,1,1.712-7.275.375.375,0,1,1,.691.291,20.331,20.331,0,0,0-1.653,7.015,25.947,25.947,0,0,0,1.143,6.422,36.877,36.877,0,0,1,1.55,9.468,41.649,41.649,0,0,1-1.063,7.622c-.7,3.4-1.257,6.078.075,7.716a.384.384,0,0,1,.066.12c0,.009,1.173,2.449,12.6,3.719,11.846,1.316,25.707-2.54,25.845-2.578a.375.375,0,1,1,.2.722,88.228,88.228,0,0,1-20.8,2.88" transform="translate(-246.345 -156.624)" fill="#984544"/>
          <path id="Trazado_132424" data-name="Trazado 132424" d="M461.118,305.447a.374.374,0,0,1-.291-.138c-1.824-2.247-1.222-6.37-1.2-6.545a.375.375,0,0,1,.742.113c-.006.04-.578,3.971,1.036,5.959a.375.375,0,0,1-.291.611" transform="translate(-244.92 -159.071)" fill="#984544"/>
          <path id="Trazado_132425" data-name="Trazado 132425" d="M359.478,326.078l3.914-4.829s19.139,10.512,26.841,12.67c3.871,1.084,6.792,2.644,7.615,6.457.989,4.581-3.841,8.846-10.04,7.056-13.614-3.93-22.654-16.405-28.329-21.354" transform="translate(-191.6 -171.225)" fill="#d7b09d"/>
          <path id="Trazado_132426" data-name="Trazado 132426" d="M348.64,308.574c-.892-.672-1.91-4.134-2.71-5.92-.906-2.019-1.823-3.371-2.333-3.195-1.242.43,1.406,4.227.154,5.031-.77.494-3.6-2.792-4.878-4.252-1.627-1.855-2.484-3.087-3-2.789-.543.313.623,2.308,1.825,4.051.979,1.42,2.026,2.65,1.835,2.853s-1.585-.774-3-1.936c-1.789-1.47-3.691-3.21-4.037-2.782-.552.682,1.382,2.33,3.012,3.957,1.27,1.268,2.522,2.339,2.325,2.573-.316.375-1.715-.234-3.05-1-1.609-.925-3.184-2.048-3.439-1.557-.162.315,1.045,1.492,2.769,2.734,2.026,1.46,4.9,3.573,6.184,4.329,2.13,1.252,4.026,2.478,4.62,2.8Z" transform="translate(-176.599 -158.516)" fill="#d7b09d"/>
          <path id="Trazado_132427" data-name="Trazado 132427" d="M359.2,321.266a.326.326,0,0,1-.145-.034,3.906,3.906,0,0,1-2.111-3.129.326.326,0,0,1,.3-.351.33.33,0,0,1,.351.3,3.239,3.239,0,0,0,1.752,2.6.326.326,0,0,1-.146.618" transform="translate(-190.249 -169.36)" fill="#b87e7a"/>
          <path id="Trazado_132428" data-name="Trazado 132428" d="M579.855,337.016c-4.525,0-10.2-3.131-17.219-7.005a146.631,146.631,0,0,0-20.329-9.8.375.375,0,0,1,.26-.7A147.246,147.246,0,0,1,563,329.354c9.891,5.458,17.037,9.4,21.757,5.008a.375.375,0,1,1,.511.549,7.6,7.6,0,0,1-5.412,2.105" transform="translate(-288.917 -170.282)" fill="#984544"/>
          <path id="Trazado_132429" data-name="Trazado 132429" d="M560.674,350.537s8.308-2.978,18.063-12.876c5.882-5.969,12.382-13.545,16.491-9.765s2.1,11.369-5.851,17.889c-8.95,7.335-25.23,11.134-25.23,11.134Z" transform="translate(-298.837 -174.227)" fill="#d7b09d"/>
          <path id="Trazado_132430" data-name="Trazado 132430" d="M544.248,377.472c-1.174.664-6.2.486-8.414.878s-5.985.905-5.978,1.816,3.656.115,4.883.2,2.789.04,2.849.41-2.162,1.25-3.36,2.168-3.456,2.916-2.953,3.445c.7.737,3.164-1.425,4.1-1.818s3.134-1.487,3.351-1.125c.136.229-1.761.829-2.631,1.7-1.01,1.011-2.271,2.9-1.586,3.156s2.356-1.595,3.2-2.123a10.829,10.829,0,0,1,3.446-.856,12.827,12.827,0,0,0,6.571-1.47c2.81-1.561-2.3-7.046-3.474-6.382" transform="translate(-282.411 -201.161)" fill="#d7b09d"/>
          <path id="Trazado_132431" data-name="Trazado 132431" d="M547.548,325.662a15.907,15.907,0,0,1-3.678-.471.375.375,0,0,1,.193-.725,13.987,13.987,0,0,0,4.848.349.375.375,0,1,1,.114.742,9.756,9.756,0,0,1-1.477.105" transform="translate(-289.732 -172.933)" fill="#984544"/>
          <path id="Trazado_132432" data-name="Trazado 132432" d="M497.318,330.782a.374.374,0,0,1-.156-.034,26.606,26.606,0,0,1-8.995-6.774.375.375,0,1,1,.569-.489,25.839,25.839,0,0,0,8.739,6.581.375.375,0,0,1-.157.716" transform="translate(-260.143 -172.347)" fill="#984544"/>
          <path id="Trazado_132433" data-name="Trazado 132433" d="M494.822,336.183l-.121-.02a8.773,8.773,0,0,1-4.2-3.08.375.375,0,0,1,.6-.444,8.016,8.016,0,0,0,3.837,2.814.375.375,0,0,1-.121.73" transform="translate(-261.397 -177.214)" fill="#984544"/>
          <path id="Trazado_132434" data-name="Trazado 132434" d="M633.64,339.151a.382.382,0,0,1-.346-.541,5.52,5.52,0,0,0,.093-4.323.382.382,0,0,1,.707-.289,6.3,6.3,0,0,1-.107,4.932.381.381,0,0,1-.347.222" transform="translate(-337.525 -177.892)" fill="#b87e7a"/>
          <path id="Trazado_132435" data-name="Trazado 132435" d="M281.917,509.462a40.914,40.914,0,0,1-38.1-26.026l8.527-3.33a31.935,31.935,0,0,0,29.588,20.2h.262a31.784,31.784,0,0,0,31.48-32.013l9.153-.077a40.948,40.948,0,0,1-40.557,41.243h-.351" transform="translate(-129.952 -249.558)" fill="#34af00"/>
          <path id="Trazado_132436" data-name="Trazado 132436" d="M253.708,483.063l-12.333-13.458-5.491,17.408Z" transform="translate(-125.725 -250.298)" fill="#34af00"/>
          <path id="Trazado_132437" data-name="Trazado 132437" d="M237.767,413.9a40.9,40.9,0,0,1,40.557-41.242h.338a41.136,41.136,0,0,1,38.115,26.026l-8.527,3.33a31.9,31.9,0,0,0-29.85-20.2,31.748,31.748,0,0,0-31.48,32.013Z" transform="translate(-126.728 -198.626)" fill="#34af00"/>
          <path id="Trazado_132438" data-name="Trazado 132438" d="M376.718,426.262l12.333,13.458,5.491-17.409Z" transform="translate(-200.789 -225.091)" fill="#34af00"/>
          <path id="Trazado_132439" data-name="Trazado 132439" d="M288.918,43.6a1.048,1.048,0,0,1-1.048-1.048V33.47a1.048,1.048,0,1,1,2.1,0v9.086a1.048,1.048,0,0,1-1.048,1.048" transform="translate(-153.434 -17.28)" fill="#becac3"/>
          <path id="Trazado_132440" data-name="Trazado 132440" d="M288.276,44.246h-9.086a1.049,1.049,0,0,1,0-2.1h9.086a1.049,1.049,0,0,1,0,2.1" transform="translate(-148.248 -22.465)" fill="#becac3"/>
          <path id="Trazado_132441" data-name="Trazado 132441" d="M662.176,253.759a1.048,1.048,0,0,1-1.048-1.048v-9.087a1.048,1.048,0,0,1,2.1,0v9.087a1.048,1.048,0,0,1-1.048,1.048" transform="translate(-352.379 -129.292)" fill="#e6cd8f"/>
          <path id="Trazado_132442" data-name="Trazado 132442" d="M661.535,254.4h-9.086a1.048,1.048,0,1,1,0-2.1h9.086a1.048,1.048,0,1,1,0,2.1" transform="translate(-347.194 -134.478)" fill="#e6cd8f"/>
          <path id="Trazado_132443" data-name="Trazado 132443" d="M31.686,236.712a1.049,1.049,0,0,1-1.048-1.049v-9.086a1.048,1.048,0,0,1,2.1,0v9.086a1.049,1.049,0,0,1-1.048,1.049" transform="translate(-16.33 -120.206)" fill="#e6cd8f"/>
          <path id="Trazado_132444" data-name="Trazado 132444" d="M31.044,237.354H21.957a1.049,1.049,0,0,1,0-2.1h9.086a1.049,1.049,0,1,1,0,2.1" transform="translate(-11.144 -125.391)" fill="#e6cd8f"/>
          <path id="Trazado_132445" data-name="Trazado 132445" d="M197.6,89.744a1.049,1.049,0,0,1-1.048-1.048V79.609a1.049,1.049,0,0,1,2.1,0V88.7a1.049,1.049,0,0,1-1.049,1.048" transform="translate(-104.761 -41.873)" fill="#a25454"/>
          <path id="Trazado_132446" data-name="Trazado 132446" d="M196.958,90.387h-9.086a1.048,1.048,0,1,1,0-2.1h9.086a1.048,1.048,0,1,1,0,2.1" transform="translate(-99.576 -47.058)" fill="#a25454"/>
          <path id="Trazado_132447" data-name="Trazado 132447" d="M592.389,44.311a1.049,1.049,0,0,1-1.049-1.048V34.176a1.049,1.049,0,0,1,2.1,0v9.086a1.049,1.049,0,0,1-1.048,1.048" transform="translate(-315.182 -17.657)" fill="#becac3"/>
          <path id="Trazado_132448" data-name="Trazado 132448" d="M591.747,44.953H582.66a1.049,1.049,0,0,1,0-2.1h9.087a1.049,1.049,0,0,1,0,2.1" transform="translate(-309.997 -22.842)" fill="#becac3"/>
          <path id="Trazado_132449" data-name="Trazado 132449" d="M217.895,3.67A3.669,3.669,0,1,1,214.226,0a3.669,3.669,0,0,1,3.669,3.67" transform="translate(-112.226)" fill="#e6cd8f"/>
          <path id="Trazado_132450" data-name="Trazado 132450" d="M523.8,81.8a3.669,3.669,0,1,1-3.669-3.67A3.669,3.669,0,0,1,523.8,81.8" transform="translate(-275.272 -41.645)" fill="#a25454"/>
          <path id="Trazado_132451" data-name="Trazado 132451" d="M633.753,159.116a2.446,2.446,0,1,1-2.447-2.446,2.446,2.446,0,0,1,2.447,2.446" transform="translate(-335.18 -83.505)" fill="#e6cd8f"/>
          <path id="Trazado_132452" data-name="Trazado 132452" d="M4.893,133.989a2.446,2.446,0,1,1-2.446-2.446,2.446,2.446,0,0,1,2.446,2.446" transform="translate(0 -70.112)" fill="#becac3"/>
          <path id="Trazado_132453" data-name="Trazado 132453" d="M667.848,372.653a2.446,2.446,0,1,1-2.447-2.447,2.446,2.446,0,0,1,2.447,2.447" transform="translate(-353.353 -197.318)" fill="#becac3"/>
          <path id="Trazado_132454" data-name="Trazado 132454" d="M106.23,76.217a2.446,2.446,0,1,1-2.446-2.446,2.446,2.446,0,0,1,2.446,2.446" transform="translate(-54.013 -39.32)" fill="#e6cd8f"/>
          <path id="Trazado_132455" data-name="Trazado 132455" d="M11.523,367.473a2.446,2.446,0,1,1-2.447-2.446,2.446,2.446,0,0,1,2.447,2.446" transform="translate(-3.534 -194.558)" fill="#a25454"/>
        </g>
      </g>
    </g>
  </g>
</svg>
