<svg xmlns="http://www.w3.org/2000/svg" xmlns:xlink="http://www.w3.org/1999/xlink" width="400" height="350.804" viewBox="0 0 400 350.804">
  <defs>
    <clipPath id="clip-path">
      <rect id="Rectángulo_54292" data-name="Rectángulo 54292" width="335.823" height="333.713" fill="none"/>
    </clipPath>
    <clipPath id="clip-path-2">
      <path id="Trazado_132488" data-name="Trazado 132488" d="M76.8,444.623v6.446s6.943,4.655,19.084,4.385c11.6-.258,19.34-2.063,23.723-6.448l-.516-6.963Z" transform="translate(-76.8 -442.044)" fill="none"/>
    </clipPath>
  </defs>
  <g id="Grupo_98377" data-name="Grupo 98377" transform="translate(-600.749 -2066.99)">
    <g id="Image_Place_Holder" data-name="Image Place Holder" transform="translate(600.749 2147.025)" opacity="0.1">
      <rect id="Image_Place_Holder-2" data-name="Image Place Holder" width="400" height="270.769" rx="10" fill="#ffa726"/>
    </g>
    <g id="Grupo_98271" data-name="Grupo 98271" transform="translate(632.089 2066.99)">
      <rect id="Rectángulo_54285" data-name="Rectángulo 54285" width="151.681" height="121.826" transform="translate(65.749 63.744)" fill="#f7f7f8"/>
      <rect id="Rectángulo_54286" data-name="Rectángulo 54286" width="151.681" height="5.098" transform="translate(65.749 63.744)" fill="#dcdbdb"/>
      <rect id="Rectángulo_54287" data-name="Rectángulo 54287" width="72.824" height="10.864" transform="translate(76.121 120.479)" fill="#ffd54f"/>
      <rect id="Rectángulo_54288" data-name="Rectángulo 54288" width="72.824" height="37.434" transform="translate(76.121 136.773)" fill="#ffd54f"/>
      <g id="Grupo_98266" data-name="Grupo 98266">
        <g id="Grupo_98265" data-name="Grupo 98265" clip-path="url(#clip-path)">
          <path id="Trazado_132456" data-name="Trazado 132456" d="M297,130.8H144.088a2.758,2.758,0,0,0-2.758,2.758v.5a2.759,2.759,0,0,0,2.758,2.758H297a2.759,2.759,0,0,0,2.758-2.758v-.5A2.758,2.758,0,0,0,297,130.8" transform="translate(-78.953 -73.07)" fill="#69615f"/>
          <path id="Trazado_132457" data-name="Trazado 132457" d="M184.872,182.233A15.553,15.553,0,1,1,172.8,200.617a15.554,15.554,0,0,1,12.075-18.384" transform="translate(-96.349 -101.621)" fill="#ffd54f"/>
          <path id="Trazado_132458" data-name="Trazado 132458" d="M190.576,197.471l-13.536-7.655a15.552,15.552,0,1,1,26.8,15.779Z" transform="translate(-98.902 -101.629)" fill="#ffa726"/>
          <path id="Trazado_132459" data-name="Trazado 132459" d="M188.03,197.949l-12.967,8.585a15.555,15.555,0,0,1,9.546-23.757Z" transform="translate(-96.356 -102.107)" fill="#34af00"/>
          <path id="Trazado_132460" data-name="Trazado 132460" d="M199.74,204.963a5.43,5.43,0,1,1-4.215,6.418,5.431,5.431,0,0,1,4.215-6.418" transform="translate(-109.165 -114.438)" fill="#f7f7f8"/>
          <path id="Trazado_132461" data-name="Trazado 132461" d="M279.528,181.914a15.553,15.553,0,1,1-15.668,15.436,15.557,15.557,0,0,1,15.668-15.436" transform="translate(-147.403 -101.625)" fill="#ffd54f"/>
          <path id="Trazado_132462" data-name="Trazado 132462" d="M299.1,200.9l8.77-12.844a15.552,15.552,0,0,1-7.084,28.3Z" transform="translate(-167.091 -105.055)" fill="#ffa726"/>
          <path id="Trazado_132463" data-name="Trazado 132463" d="M299.1,198.356l4.621-14.851a15.526,15.526,0,0,1,7.552,5.173Z" transform="translate(-167.091 -102.514)" fill="#34af00"/>
          <path id="Trazado_132464" data-name="Trazado 132464" d="M292.268,204.852a5.429,5.429,0,1,1-5.468,5.389,5.431,5.431,0,0,1,5.468-5.389" transform="translate(-160.219 -114.439)" fill="#f7f7f8"/>
          <path id="Trazado_132465" data-name="Trazado 132465" d="M360.965,214.039a.492.492,0,0,1-.393-.191.5.5,0,0,1,.084-.7l21.057-16.587a.5.5,0,0,1,.8.268l.936,3.615,23.034-18.2a.5.5,0,1,1,.618.786L383.47,201.7a.5.5,0,0,1-.8-.267l-.94-3.616-20.457,16.112a.5.5,0,0,1-.309.107" transform="translate(-201.371 -101.748)" fill="#b16062"/>
          <path id="Trazado_132466" data-name="Trazado 132466" d="M455.048,188.739a.4.4,0,0,1-.247-.511l2.017-5.8-6.1.623a.4.4,0,0,1-.079-.8l6.731-.687a.4.4,0,0,1,.419.531l-2.224,6.39a.4.4,0,0,1-.512.247" transform="translate(-251.544 -101.432)" fill="#b16062"/>
          <rect id="Rectángulo_54289" data-name="Rectángulo 54289" width="15.293" height="30.087" transform="translate(160.503 144.37)" fill="#c0ccc5"/>
          <rect id="Rectángulo_54290" data-name="Rectángulo 54290" width="15.289" height="51.71" transform="translate(175.598 122.746)" fill="#c0ccc5"/>
          <rect id="Rectángulo_54291" data-name="Rectángulo 54291" width="15.293" height="71.692" transform="translate(190.886 102.765)" fill="#c0ccc5"/>
          <path id="Trazado_132467" data-name="Trazado 132467" d="M378.322,357.694H363.029a.5.5,0,0,1-.5-.5V327.607a.5.5,0,1,1,1,0v29.084h14.79a.5.5,0,1,1,0,1" transform="translate(-202.525 -182.736)" fill="#8ba3a0"/>
          <path id="Trazado_132468" data-name="Trazado 132468" d="M447.156,305.033H431.863a.5.5,0,0,1-.5-.5v-71.19a.5.5,0,0,1,1.006,0v70.689h14.79a.5.5,0,0,1,0,1" transform="translate(-240.977 -130.075)" fill="#8ba3a0"/>
          <path id="Trazado_132469" data-name="Trazado 132469" d="M412.512,330.324H397.223a.5.5,0,0,1-.5-.5v-51.21a.5.5,0,1,1,1,0v50.709h14.79a.5.5,0,1,1,0,1" transform="translate(-221.626 -155.366)" fill="#8ba3a0"/>
          <path id="Trazado_132470" data-name="Trazado 132470" d="M161.016,721.116c.768,2.969,1.584,5.522,3.915,7.006s9.074,3.24,9.52,5.366c.362,1.729-5.5,1.705-10.451,1.485-4.153-.185-7.472-.306-7.861-1.631-1.086-3.716.309-8.76-.5-12.788Z" transform="translate(-86.947 -402.534)" fill="#69615f"/>
          <path id="Trazado_132471" data-name="Trazado 132471" d="M64.636,720.814c0,3-.053,5.019,2.03,6.5s8.536,3.24,8.629,5.367c.079,1.729-5.777,1.705-10.694,1.484-4.127-.185-7.424-.306-7.591-1.631-.472-3.716,2.211-9.406,2.45-13.424Z" transform="translate(-31.817 -401.729)" fill="#69615f"/>
          <path id="Trazado_132472" data-name="Trazado 132472" d="M105.244,457.819c.772,16.427,2.322,44.559,2.834,63.072s0,55.018,0,55.018A34.684,34.684,0,0,1,93.9,576.952s-6.448-26.857-5.932-52.41l-4.383-25.2S81.777,521.152,81,525.324s-13.664,52.149-13.664,52.149-10.575.261-16.246-3.129c0,0,2.833-29.986,9.8-50.585,0,0-.256-35.694-.516-40.387S62.437,459.9,62.437,459.9Z" transform="translate(-28.541 -255.758)" fill="#dcdbdb"/>
          <path id="Trazado_132473" data-name="Trazado 132473" d="M66.276,629.939c-2.379,0-10.849-.218-15.814-3.184a.353.353,0,0,1-.124-.482.357.357,0,0,1,.485-.121c5.027,3.005,14.132,3.086,15.8,3.083,1.02-3.8,12.857-47.912,13.589-51.866.764-4.107,2.56-25.733,2.578-25.95a.35.35,0,0,1,.331-.322.346.346,0,0,1,.362.29l4.387,25.2,0,.068c-.485,23.957,5.234,49.377,5.866,52.086a34.581,34.581,0,0,0,13.784-1.058.351.351,0,1,1,.225.665,35.418,35.418,0,0,1-14.34,1.059.346.346,0,0,1-.3-.266c-.066-.269-6.448-27.169-5.941-52.466L83.255,554.19c-.512,6-1.743,20.005-2.352,23.307-.768,4.138-13.148,50.217-13.673,52.177a.356.356,0,0,1-.331.26c-.057,0-.274.006-.622.006" transform="translate(-28.094 -307.867)" fill="#b6b5b4"/>
          <path id="Trazado_132474" data-name="Trazado 132474" d="M108.272,533.845a.348.348,0,0,1-.34-.271L105.4,522.682l-9.864-3.035a.35.35,0,1,1,.2-.671L105.8,522.07a.347.347,0,0,1,.238.256l2.578,11.089a.348.348,0,0,1-.26.421Z" transform="translate(-53.23 -289.914)" fill="#b6b5b4"/>
          <path id="Trazado_132475" data-name="Trazado 132475" d="M105.734,491.643a.348.348,0,0,1-.349-.315,125.984,125.984,0,0,1,.516-24.057.345.345,0,0,1,.384-.31.352.352,0,0,1,.313.388,125.738,125.738,0,0,0-.516,23.908.351.351,0,0,1-.313.385Z" transform="translate(-58.685 -260.864)" fill="#b6b5b4"/>
          <path id="Trazado_132476" data-name="Trazado 132476" d="M252.47,286.642c.216-.86-.3-6.145.6-7.821.671-1.245,3.306-5.159,3.906-4.471s-2.317,10.53-2.317,10.53Z" transform="translate(-141.041 -153.219)" fill="#ce9f8b"/>
          <path id="Trazado_132477" data-name="Trazado 132477" d="M265.133,265.132c-.552,2.18-1.121,3.917-2.458,3.578s-1.011-2.137-.455-4.317.878-3.978,2.458-3.578,1.006,2.137.455,4.316" transform="translate(-146.219 -145.672)" fill="#69615f"/>
          <path id="Trazado_132478" data-name="Trazado 132478" d="M248.44,288.289c1.845-3.735,4.047-11.974,4.978-14.518s1.62-5.169,2.816-4.854,1.139.843.508,3.24c0,0,.944-2.733,2.4-2.079,1.289.581.644,3.417.644,3.417s.49-1.969,1.483-1.225c1.028.774,1.28,2.5.644,5.352s-4.118,7.622-4.581,8.668-1.249,4.043-1.249,4.043Z" transform="translate(-138.79 -150.215)" fill="#d7b09d"/>
          <path id="Trazado_132479" data-name="Trazado 132479" d="M76.8,444.622v6.447s6.943,4.655,19.084,4.385c11.6-.258,19.34-2.063,23.723-6.448l-.516-6.962Z" transform="translate(-42.904 -246.946)" fill="#ab701e"/>
        </g>
      </g>
      <g id="Grupo_98268" data-name="Grupo 98268" transform="translate(33.896 195.098)">
        <g id="Grupo_98267" data-name="Grupo 98267" clip-path="url(#clip-path-2)">
          <path id="Trazado_132480" data-name="Trazado 132480" d="M81.633,457.234h0a.356.356,0,0,1-.349-.357c.049-2.665.119-5.374.19-7.994l.057-2.323a.365.365,0,0,1,.362-.342.349.349,0,0,1,.34.36l-.057,2.324c-.071,2.618-.141,5.326-.19,7.988a.347.347,0,0,1-.349.345" transform="translate(-79.303 -444.375)" fill="#8f3d3b"/>
          <path id="Trazado_132481" data-name="Trazado 132481" d="M96.723,464.056H96.7a.353.353,0,0,1-.327-.361l.3-10.409a.348.348,0,0,1,.362-.341.354.354,0,0,1,.34.361l-.287,9.918a.332.332,0,0,1,.022.162l-.035.355a.355.355,0,0,1-.349.315" transform="translate(-87.733 -448.133)" fill="#8f3d3b"/>
          <path id="Trazado_132482" data-name="Trazado 132482" d="M103.523,463.317a.353.353,0,0,1-.353-.351v-8.51a.353.353,0,0,1,.353-.351.349.349,0,0,1,.349.351v8.51a.349.349,0,0,1-.349.351" transform="translate(-91.531 -448.782)" fill="#8f3d3b"/>
          <path id="Trazado_132483" data-name="Trazado 132483" d="M124.824,465.609a.344.344,0,0,1-.194-.06c-.075-.05-.119-.08-.146-.308h-.009l0-.043c-.035-.384-.026-1.25-.009-3.357.013-1.723.062-4.1.194-5.625a.356.356,0,0,1,.38-.319.349.349,0,0,1,.318.38c-.243,2.786-.2,8.537-.185,8.944v.05a.354.354,0,0,1-.194.3.345.345,0,0,1-.159.037" transform="translate(-103.422 -449.781)" fill="#8f3d3b"/>
          <path id="Trazado_132484" data-name="Trazado 132484" d="M130.619,464.513a.354.354,0,0,1-.353-.34l-.3-9.411a.352.352,0,0,1,.34-.362.356.356,0,0,1,.362.34l.3,9.411a.349.349,0,0,1-.34.361Z" transform="translate(-106.503 -448.947)" fill="#8f3d3b"/>
          <path id="Trazado_132485" data-name="Trazado 132485" d="M149.653,460.879a.353.353,0,0,1-.353-.342c-.026-1.11-.062-2.19-.093-3.249-.066-2.1-.132-4.079-.137-6.043a.351.351,0,0,1,.7,0c0,1.953.071,3.93.137,6.023.031,1.06.066,2.142.093,3.254a.349.349,0,0,1-.34.36Z" transform="translate(-117.173 -446.987)" fill="#8f3d3b"/>
          <path id="Trazado_132486" data-name="Trazado 132486" d="M158.159,457.949a.352.352,0,0,1-.349-.32l-.892-10.152a.352.352,0,0,1,.7-.061l.843,9.632a.323.323,0,0,1,.062.212l-.013.353a.353.353,0,0,1-.344.337Z" transform="translate(-121.558 -444.866)" fill="#8f3d3b"/>
          <path id="Trazado_132487" data-name="Trazado 132487" d="M169.023,451.787a.354.354,0,0,1-.353-.329l-.521-8.38a.348.348,0,0,1,.327-.372.36.36,0,0,1,.375.328l.521,8.38a.351.351,0,0,1-.327.372Z" transform="translate(-127.831 -442.413)" fill="#8f3d3b"/>
        </g>
      </g>
      <g id="Grupo_98270" data-name="Grupo 98270">
        <g id="Grupo_98269" data-name="Grupo 98269" clip-path="url(#clip-path)">
          <path id="Trazado_132489" data-name="Trazado 132489" d="M37.425,318.765c-8.937,3.35-35.5,19.854-36.015,33.522s24.5,23.037,32.493,25.1c0,0,4.643-4.126,5.415-9.542L22.127,353.061l18.48-10.315Z" transform="translate(-0.783 -178.076)" fill="#bf8d48"/>
          <path id="Trazado_132490" data-name="Trazado 132490" d="M155.451,311.3c8.041,2.971,24.879,17.013,24.879,17.013s8.942-15.129,13.069-23.381a31.961,31.961,0,0,1,9.626,4.3s-5.186,37.685-20.113,39.456c-15.214,1.805-32.493-12.12-32.493-12.12Z" transform="translate(-84.031 -170.349)" fill="#bf8d48"/>
          <path id="Trazado_132491" data-name="Trazado 132491" d="M75.793,315.4c3.16-1.459,8.774-2.717,17.3-2.655,6.245.045,12.861.775,17.478,2.917,0,0,3.5,4.107,4.369,25.6.6,14.754,1.942,24.107,1.942,27.253s-11.127,8.336-24.235,8.511-19.327-3.76-20.377-5.159-.159-17.377-1.028-24.5c-1.549-12.635-2.71-28.623,4.55-31.974" transform="translate(-39.152 -174.713)" fill="#bf8d48"/>
          <path id="Trazado_132492" data-name="Trazado 132492" d="M115.519,266.73l2.419,6.353s6.06,6.019,5.83,9.69c-.68.931-2.269,1.449-5.994.487-5.954-1.54-14.755-7.011-14.755-7.011Z" transform="translate(-57.552 -149.007)" fill="#bb7f7a"/>
          <path id="Trazado_132493" data-name="Trazado 132493" d="M104.322,284.806c5.724-.818,12.861,1.275,14.891,4.948a29.028,29.028,0,0,0,.675,8.659s-8.964,3.9-16.079-.946c1.355-3.277.861-9.514.512-12.661" transform="translate(-57.993 -159.007)" fill="#d0a290"/>
          <path id="Trazado_132494" data-name="Trazado 132494" d="M110.421,293.618c-3.584-.5-4.564-1.1-5.08-1.933a57.678,57.678,0,0,0-.371-7.5c5.817-1.628,13.139-.316,15.028,4.567a25.593,25.593,0,0,0-.154,3.823,20.314,20.314,0,0,1-9.423,1.039" transform="translate(-58.641 -158.39)" fill="#bb7f7a"/>
          <path id="Trazado_132495" data-name="Trazado 132495" d="M137.175,253.566c.3.446.591.983,1.064,1.024,1.509.132,1.284-5.818,2.5-8.876,3.032-7.651,5.309-4.628,5.5-3.478.238,1.4-.159,6.619-.741,12.36-.7,6.837-2.392,13.041-3.818,13.989-1.955,1.514-6.024-4.019-5.914-11.351Z" transform="translate(-75.844 -134.45)" fill="#d7b09d"/>
          <path id="Trazado_132496" data-name="Trazado 132496" d="M91.725,221.662a6.794,6.794,0,0,1,1.7-5.426,9.716,9.716,0,0,1,7.525-3.169,4.388,4.388,0,0,1,2.856-1.464c6.872-1.034,8,3.59,13.766,2.931a9.007,9.007,0,0,0,4.034-1.383,2.392,2.392,0,0,1,.41,2.378A4.151,4.151,0,0,0,124.65,213c2.2,2.237,2.277,5.391.574,8.592-1.377,2.585-3.359,3.566-6.086,5.17a7.189,7.189,0,0,0-2.251,1.98c-2.357,3.273-2.454,9.172-3.977,9.5-1.752.377-2.039-1.806-3.624-1.389s-2.507,7.424-5.389,9.371a7.4,7.4,0,0,1-8.646-.439c-1.072-.928-3.4-3.381-4.886-11.041s-.768-12.208,1.359-13.084" transform="translate(-50.043 -118.126)" fill="#ad684f"/>
          <path id="Trazado_132497" data-name="Trazado 132497" d="M157.922,257.031c-.018.629-.137.97-.481,1.127-.2.092-1.143.063-1.227-.726a1.373,1.373,0,0,1,1.011-1.371c.636-.1.719.309.7.97" transform="translate(-87.265 -143.039)" fill="#ad684f"/>
          <path id="Trazado_132498" data-name="Trazado 132498" d="M146.6,233.21a.36.36,0,0,1-.234-.087.355.355,0,0,1-.031-.5,18.672,18.672,0,0,1,4.33-3.311l.252-.156a15.134,15.134,0,0,0,4.259-3.477,5.291,5.291,0,0,0,.962-4.977.35.35,0,1,1,.649-.263,5.916,5.916,0,0,1-1.05,5.662,15.649,15.649,0,0,1-4.453,3.651l-.252.157a18.187,18.187,0,0,0-4.166,3.179.354.354,0,0,1-.265.119" transform="translate(-81.699 -123.026)" fill="#99563f"/>
          <path id="Trazado_132499" data-name="Trazado 132499" d="M131.887,255.274a.351.351,0,0,1-.035-.7,6.314,6.314,0,0,0,4.4-2.468.349.349,0,0,1,.49-.071.345.345,0,0,1,.071.491,7.017,7.017,0,0,1-4.89,2.747Z" transform="translate(-73.482 -140.758)" fill="#99563f"/>
          <path id="Trazado_132500" data-name="Trazado 132500" d="M138.188,258.77a.351.351,0,0,1-.018-.7,3,3,0,0,0,2.366-1.459.352.352,0,1,1,.609.351,3.674,3.674,0,0,1-2.935,1.808Z" transform="translate(-77.003 -143.256)" fill="#99563f"/>
          <path id="Trazado_132501" data-name="Trazado 132501" d="M105.314,280.039a6.942,6.942,0,0,1-5.746-3.12.35.35,0,1,1,.587-.381,6.1,6.1,0,0,0,6.943,2.5c2.97-1.045,4-5.764,4.008-5.811a.352.352,0,0,1,.689.144c-.044.21-1.117,5.153-4.462,6.329a6.089,6.089,0,0,1-2.017.338" transform="translate(-55.591 -152.482)" fill="#99563f"/>
          <path id="Trazado_132502" data-name="Trazado 132502" d="M119.175,272.762a.35.35,0,0,1-.274-.57,12.3,12.3,0,0,0,2.083-5,.355.355,0,0,1,.4-.292.35.35,0,0,1,.291.4,12.741,12.741,0,0,1-2.229,5.333.353.353,0,0,1-.274.131" transform="translate(-66.38 -149.099)" fill="#99563f"/>
          <path id="Trazado_132503" data-name="Trazado 132503" d="M92.288,241.789a.35.35,0,0,1-.349-.349c-.013-2.769.53-4.64,1.611-5.559a2.149,2.149,0,0,1,1.646-.554.351.351,0,0,1-.11.693,1.473,1.473,0,0,0-1.1.412c-.618.542-1.355,1.85-1.342,5a.351.351,0,0,1-.349.353Z" transform="translate(-51.362 -131.457)" fill="#99563f"/>
          <path id="Trazado_132504" data-name="Trazado 132504" d="M97.829,224.472h0a.346.346,0,0,1-.344-.354A5.863,5.863,0,0,1,99.3,219.99c3.345-2.764,6.175-2.321,6.289-2.3a.351.351,0,1,1-.115.692c-.026,0-2.644-.4-5.724,2.15a5.218,5.218,0,0,0-1.571,3.594.353.353,0,0,1-.353.348" transform="translate(-54.457 -121.59)" fill="#99563f"/>
          <path id="Trazado_132505" data-name="Trazado 132505" d="M160.082,227.318a.352.352,0,0,1-.225-.623,6.022,6.022,0,0,0,2.33-5.427.35.35,0,1,1,.689-.129,6.638,6.638,0,0,1-2.573,6.1.356.356,0,0,1-.221.079" transform="translate(-89.232 -123.378)" fill="#99563f"/>
          <path id="Trazado_132506" data-name="Trazado 132506" d="M126.259,215.573a.33.33,0,0,1-.154-.038c-.053-.025-4.908-2.431-7.468-.492a.351.351,0,1,1-.424-.56c2.9-2.2,7.989.316,8.2.425a.351.351,0,0,1-.159.664" transform="translate(-65.961 -119.317)" fill="#99563f"/>
          <path id="Trazado_132507" data-name="Trazado 132507" d="M102.283,229.029a.35.35,0,0,1-.349-.312c-.441-4.013,2.578-4.94,2.608-4.949a.351.351,0,0,1,.2.674c-.1.03-2.485.787-2.11,4.2a.352.352,0,0,1-.313.388Z" transform="translate(-56.92 -124.999)" fill="#99563f"/>
          <path id="Trazado_132508" data-name="Trazado 132508" d="M97.27,313.208s1.05,2.01,9.7,2.534,13.722-2.019,13.722-2.019-8.523-2.919-23.423-.516" transform="translate(-54.339 -174.442)" fill="#d0a290"/>
          <path id="Trazado_132509" data-name="Trazado 132509" d="M179.709,348.752c-14.446,0-29.791-12.226-29.955-12.357a.351.351,0,1,1,.441-.546c.172.138,17.341,13.811,32.228,12.045,13.92-1.651,19.331-35.926,19.777-38.946a32.088,32.088,0,0,0-9.33-4.119.351.351,0,1,1,.163-.682,31.881,31.881,0,0,1,9.75,4.354.353.353,0,0,1,.146.333c-.216,1.55-5.4,37.974-20.421,39.756a23.78,23.78,0,0,1-2.8.162" transform="translate(-83.586 -169.905)" fill="#984544"/>
          <path id="Trazado_132510" data-name="Trazado 132510" d="M155.892,384.928h-.009a24.331,24.331,0,0,1-6.541-.892.351.351,0,1,1,.185-.677,23.459,23.459,0,0,0,6.378.867.351.351,0,0,1-.013.7" transform="translate(-83.285 -214.154)" fill="#984544"/>
          <path id="Trazado_132511" data-name="Trazado 132511" d="M222.262,362.832a.346.346,0,0,1-.322-.218,12.134,12.134,0,0,0-4.383-4.869.347.347,0,0,1-.15-.377.352.352,0,0,1,.3-.266,7.558,7.558,0,0,1,5.429,2.152.35.35,0,1,1-.468.522,7.6,7.6,0,0,0-3.712-1.884,12.146,12.146,0,0,1,3.628,4.455.353.353,0,0,1-.194.457.346.346,0,0,1-.132.026" transform="translate(-121.448 -199.487)" fill="#984544"/>
          <path id="Trazado_132512" data-name="Trazado 132512" d="M107.367,386.486a.345.345,0,0,1-.234-.091,32.384,32.384,0,0,1-6.559-8.3.351.351,0,1,1,.613-.339,31.743,31.743,0,0,0,6.417,8.12.351.351,0,0,1,.022.5.345.345,0,0,1-.26.115" transform="translate(-56.161 -210.93)" fill="#984544"/>
          <path id="Trazado_132513" data-name="Trazado 132513" d="M105.19,392.468a.349.349,0,0,1-.181-.051,9,9,0,0,1-3.69-4.392.351.351,0,1,1,.653-.256,8.3,8.3,0,0,0,3.4,4.048.352.352,0,0,1-.185.651" transform="translate(-56.588 -216.501)" fill="#984544"/>
          <path id="Trazado_132514" data-name="Trazado 132514" d="M71.872,398.972a.343.343,0,0,1-.278-.14c-.6-.79-.636-4.543-.658-11.108-.013-4.783-.031-10.2-.441-13.558s-.98-8.4-1.125-13.182a.351.351,0,0,1,.7-.021c.146,4.753.711,9.763,1.117,13.118.419,3.4.437,8.839.45,13.641.018,4.709.035,10.047.516,10.689a.353.353,0,0,1-.071.491.348.348,0,0,1-.212.07" transform="translate(-38.753 -201.459)" fill="#984544"/>
          <path id="Trazado_132515" data-name="Trazado 132515" d="M67.635,369.155a.349.349,0,0,1-.234-.089,7.812,7.812,0,0,1-2.551-5.452.353.353,0,0,1,.34-.363.361.361,0,0,1,.362.339,7.073,7.073,0,0,0,2.317,4.952.355.355,0,0,1,.026.5.348.348,0,0,1-.26.117" transform="translate(-36.228 -202.928)" fill="#984544"/>
          <path id="Trazado_132516" data-name="Trazado 132516" d="M59.051,398.726a.363.363,0,0,1-.229-.085l-11.135-9.577a.355.355,0,0,1-.119-.3.362.362,0,0,1,.177-.271l10.231-5.71a.352.352,0,1,1,.344.613l-9.794,5.465,10.756,9.25a.35.35,0,0,1-.23.617" transform="translate(-26.572 -213.814)" fill="#984544"/>
          <path id="Trazado_132517" data-name="Trazado 132517" d="M31.42,401.02a.351.351,0,0,1-.181-.652,9.49,9.49,0,0,0,3.1-3.342,33.755,33.755,0,0,1-9.026,3.854.351.351,0,1,1-.172-.681,32.946,32.946,0,0,0,9.9-4.459.352.352,0,0,1,.53.417,10.975,10.975,0,0,1-3.968,4.813.353.353,0,0,1-.181.05" transform="translate(-13.898 -221.042)" fill="#984544"/>
          <path id="Trazado_132518" data-name="Trazado 132518" d="M104.332,321.454c-.666,0-1.351-.016-2.057-.05-9.67-.466-13.7-3.554-13.867-3.685a.349.349,0,0,1-.062-.492.354.354,0,0,1,.494-.06c.04.03,4.052,3.082,13.466,3.536,10.478.507,16.635-3.136,16.7-3.173a.351.351,0,0,1,.481.119.356.356,0,0,1-.119.482c-.238.144-5.618,3.323-15.033,3.323" transform="translate(-49.312 -177.143)" fill="#984544"/>
          <path id="Trazado_132519" data-name="Trazado 132519" d="M146,269.7a.351.351,0,0,1-.066-.7c1.311-.245,1.792-2.384,1.907-3.55l-10.831.249a.364.364,0,0,1-.362-.343.352.352,0,0,1,.344-.359l11.219-.258a.356.356,0,0,1,.256.1.341.341,0,0,1,.1.26c-.009.17-.194,4.153-2.5,4.586Z" transform="translate(-76.339 -147.896)" fill="#69615f"/>
          <path id="Trazado_132520" data-name="Trazado 132520" d="M131.5,260.882c1.4.085,2.123.728,2.132,3.245.013,3.753-1.571,4.4-1.571,4.4-2.052.407-3.138-1.769-2.9-4.337.128-1.418.967-3.386,2.339-3.3" transform="translate(-72.136 -145.739)" fill="#d7b09d"/>
          <path id="Trazado_132521" data-name="Trazado 132521" d="M134.234,266.205c-.057,1.353-.64,2.425-1.306,2.394s-1.161-1.153-1.1-2.506.64-2.425,1.306-2.394,1.156,1.153,1.1,2.506" transform="translate(-73.64 -147.314)" fill="#bb7f7a"/>
          <path id="Trazado_132522" data-name="Trazado 132522" d="M265.725,277.6l-.675-.2s.388-1.291.649-2.13a.346.346,0,0,1,.437-.232.354.354,0,0,1,.234.438c-.26.837-.644,2.125-.644,2.125" transform="translate(-148.069 -153.64)" fill="#bb7f7a"/>
          <path id="Trazado_132523" data-name="Trazado 132523" d="M272.965,281.2l-.071-.007a.349.349,0,0,1-.274-.413l.322-1.612.689.136-.322,1.613a.354.354,0,0,1-.344.282" transform="translate(-152.294 -155.955)" fill="#bb7f7a"/>
          <path id="Trazado_132524" data-name="Trazado 132524" d="M81.028,615.641l-.079-.009a.349.349,0,0,1-.26-.422c4.784-20.4,12.371-50.531,12.632-51.556l3.866-37.367a.347.347,0,0,1,.384-.313.352.352,0,0,1,.313.385l-3.871,37.392L94,563.8c-.075.307-7.79,30.924-12.632,51.569a.352.352,0,0,1-.344.271" transform="translate(-45.071 -293.831)" fill="#b6b5b4"/>
          <path id="Trazado_132525" data-name="Trazado 132525" d="M146.951,608.059a25.666,25.666,0,0,1-3.465-.233.351.351,0,1,1,.1-.7,25.245,25.245,0,0,0,11.206-1.017.351.351,0,1,1,.216.667,25.932,25.932,0,0,1-8.055,1.279" transform="translate(-79.988 -338.592)" fill="#b6b5b4"/>
          <path id="Trazado_132526" data-name="Trazado 132526" d="M151.924,614.908a12.642,12.642,0,0,1-1.408-.079.351.351,0,1,1,.079-.7,12.015,12.015,0,0,0,5.009-.5.351.351,0,1,1,.216.668,12.745,12.745,0,0,1-3.9.609" transform="translate(-83.911 -342.792)" fill="#b6b5b4"/>
          <path id="Trazado_132527" data-name="Trazado 132527" d="M85.94,610.466a.333.333,0,0,1-.159-.04,17.639,17.639,0,0,0-9.388-1.9.351.351,0,0,1-.053-.7A18.344,18.344,0,0,1,86.1,609.8a.351.351,0,0,1-.163.663" transform="translate(-42.466 -339.53)" fill="#b6b5b4"/>
          <rect id="Rectángulo_54293" data-name="Rectángulo 54293" width="49.127" height="96.088" transform="translate(156.875 237.447)" fill="#e5cb89"/>
          <rect id="Rectángulo_54294" data-name="Rectángulo 54294" width="49.127" height="96.088" transform="translate(215.505 237.447)" fill="#d0a15e"/>
          <rect id="Rectángulo_54295" data-name="Rectángulo 54295" width="2.917" height="96.088" transform="translate(203.085 237.447)" fill="#d0a15e"/>
          <rect id="Rectángulo_54296" data-name="Rectángulo 54296" width="2.917" height="96.088" transform="translate(261.715 237.447)" fill="#b1aeae"/>
          <rect id="Rectángulo_54297" data-name="Rectángulo 54297" width="49.127" height="6.786" transform="translate(215.505 237.447)" fill="#bb7b3f"/>
          <rect id="Rectángulo_54298" data-name="Rectángulo 54298" width="64.906" height="4.614" transform="translate(205.46 237.447)" fill="#d0a15e"/>
          <rect id="Rectángulo_54299" data-name="Rectángulo 54299" width="49.127" height="6.514" transform="translate(156.875 237.447)" fill="#d0a15e"/>
          <rect id="Rectángulo_54300" data-name="Rectángulo 54300" width="55.099" height="4.614" transform="translate(150.904 237.447)" fill="#e5cb89"/>
          <path id="Trazado_132528" data-name="Trazado 132528" d="M592.2,373.869c-.04,2.606-1.69,5.253-1.523,5.847s2.035.932,2.035.932Z" transform="translate(-329.971 -208.86)" fill="#bd817a"/>
          <path id="Trazado_132529" data-name="Trazado 132529" d="M428.885,514.5H400.21v-7.4h28.675a.985.985,0,0,1,.984.985v5.431a.985.985,0,0,1-.984.985" transform="translate(-223.575 -283.289)" fill="#8b4342"/>
          <path id="Trazado_132530" data-name="Trazado 132530" d="M436.59,507.1H423.46a.9.9,0,0,1,.812.973v5.455a.9.9,0,0,1-.812.973h13.13a.9.9,0,0,0,.812-.973v-5.455a.9.9,0,0,0-.812-.973" transform="translate(-236.564 -283.289)" fill="#a35656"/>
          <path id="Trazado_132531" data-name="Trazado 132531" d="M379.666,514.594H361.65v-5.383h18.016a2.457,2.457,0,0,1,2.458,2.459v.465a2.457,2.457,0,0,1-2.458,2.459" transform="translate(-202.034 -284.468)" fill="#f7f7f8"/>
          <path id="Trazado_132532" data-name="Trazado 132532" d="M374.3,514.644h-9.692a.095.095,0,0,1,0-.189H374.3a.095.095,0,0,1,0,.189" transform="translate(-203.637 -287.398)" fill="#c5c4c3"/>
          <path id="Trazado_132533" data-name="Trazado 132533" d="M387.434,515.7h-4.321a.095.095,0,0,1,0-.189h4.321a.095.095,0,1,1,0,.189" transform="translate(-213.972 -287.985)" fill="#c5c4c3"/>
          <path id="Trazado_132534" data-name="Trazado 132534" d="M395.806,518.1h-5.014a.095.095,0,0,1,0-.189h5.014a.095.095,0,0,1,0,.189" transform="translate(-218.263 -289.327)" fill="#c5c4c3"/>
          <path id="Trazado_132535" data-name="Trazado 132535" d="M372.048,519.49h-8.315a.095.095,0,0,1,0-.189h8.315a.095.095,0,1,1,0,.189" transform="translate(-203.146 -290.105)" fill="#c5c4c3"/>
          <path id="Trazado_132536" data-name="Trazado 132536" d="M379.878,509.211H361.65v1.139h17.906a2.236,2.236,0,0,1,2.052,2.336,2.689,2.689,0,0,1-.3,1.289,2.913,2.913,0,0,0,.812-2.073,2.5,2.5,0,0,0-2.246-2.691" transform="translate(-202.034 -284.468)" fill="#c5c4c3"/>
          <path id="Trazado_132537" data-name="Trazado 132537" d="M379.959,507.1H359.326a.539.539,0,0,0-.485.582v.178a.539.539,0,0,0,.485.582h19.442a.906.906,0,0,1,.816.973v2.95a.906.906,0,0,1-.816.973H359.326a.592.592,0,0,0,0,1.164h20.633a.9.9,0,0,0,.812-.973v-5.455a.9.9,0,0,0-.812-.973" transform="translate(-200.464 -283.289)" fill="#a35656"/>
          <path id="Trazado_132538" data-name="Trazado 132538" d="M357.567,530.076h24.919v-6.259H357.567a.926.926,0,0,0-.927.924v4.411a.925.925,0,0,0,.927.924" transform="translate(-199.235 -292.628)" fill="#c0ccc5"/>
          <path id="Trazado_132539" data-name="Trazado 132539" d="M370.343,523.817h8.651a.835.835,0,0,0-.843.823v4.613a.835.835,0,0,0,.843.823h-8.651a.835.835,0,0,1-.843-.823V524.64a.835.835,0,0,1,.843-.823" transform="translate(-206.419 -292.628)" fill="#e9f1ee"/>
          <path id="Trazado_132540" data-name="Trazado 132540" d="M408.992,530.154h24.376V525.6H408.992a1.942,1.942,0,0,0-1.942,1.942v.669a1.942,1.942,0,0,0,1.942,1.941" transform="translate(-227.396 -293.625)" fill="#f7f7f8"/>
          <path id="Trazado_132541" data-name="Trazado 132541" d="M450.593,530.194H440.513a.089.089,0,1,1,0-.177h10.081a.089.089,0,0,1,0,.177" transform="translate(-246.038 -296.091)" fill="#c5c4c3"/>
          <path id="Trazado_132542" data-name="Trazado 132542" d="M438.421,531.084h-4.493a.089.089,0,0,1,0-.178h4.493a.089.089,0,0,1,0,.178" transform="translate(-242.362 -296.588)" fill="#c5c4c3"/>
          <path id="Trazado_132543" data-name="Trazado 132543" d="M423.174,533.115H412.948a.089.089,0,0,1,0-.177h10.226a.089.089,0,0,1,0,.177" transform="translate(-230.642 -297.723)" fill="#c5c4c3"/>
          <path id="Trazado_132544" data-name="Trazado 132544" d="M453.323,534.292h-8.655a.089.089,0,0,1,0-.177h8.655a.089.089,0,0,1,0,.177" transform="translate(-248.362 -298.381)" fill="#c5c4c3"/>
          <path id="Trazado_132545" data-name="Trazado 132545" d="M409.389,525.6h23.979v.963H409.725a2.086,2.086,0,0,0-2.132,1.976,1.962,1.962,0,0,0,.3,1.09,2.251,2.251,0,0,1-.847-1.753,2.307,2.307,0,0,1,2.339-2.276" transform="translate(-227.396 -293.625)" fill="#c5c4c3"/>
          <path id="Trazado_132546" data-name="Trazado 132546" d="M407.387,523.817h26.481a.5.5,0,0,1,.5.492v.151a.5.5,0,0,1-.5.492H408.628a.835.835,0,0,0-.847.823v2.495a.836.836,0,0,0,.847.823h25.241a.492.492,0,1,1,0,.984H407.387a.836.836,0,0,1-.847-.823V524.64a.836.836,0,0,1,.847-.823" transform="translate(-227.111 -292.628)" fill="#a4b6b1"/>
          <path id="Trazado_132547" data-name="Trazado 132547" d="M507.247,722.062c-.49,3.125-1.077,5.812-3.372,7.374s-10.332,3.411-10.57,5.649c-.2,1.82,7.093,1.795,12.283,1.562,4.352-.2,7.834-.322,8.1-1.717.746-3.911-1.258-9.22-.839-13.46Z" transform="translate(-275.58 -403.045)" fill="#564e4c"/>
          <path id="Trazado_132548" data-name="Trazado 132548" d="M558.459,723.237c-.3,3.009-.437,5.034-2.75,6.539s-9.185,3.312-9.489,5.446c-.252,1.735,5.835,1.67,10.959,1.413,4.3-.215,7.737-.36,8.042-1.69.856-3.732-1.368-9.422-1.218-13.452Z" transform="translate(-305.139 -403.058)" fill="#564e4c"/>
          <path id="Trazado_132549" data-name="Trazado 132549" d="M559.93,615.28s1.9,35.423,3.169,49.9c0,0,7.552,2.85,12.618.135,0,0,5.565-30.4,2.489-49.129Z" transform="translate(-312.802 -343.723)" fill="#69615f"/>
          <path id="Trazado_132550" data-name="Trazado 132550" d="M574.232,667.547a22.206,22.206,0,0,1-7.234-1.34.349.349,0,0,1-.2-.454.345.345,0,0,1,.45-.2c.071.028,7.119,2.7,11.978.232.437-2.466,5.371-31.1,2.458-48.842a.35.35,0,0,1,.287-.4.356.356,0,0,1,.406.289c3.05,18.574-2.436,48.945-2.489,49.25a.366.366,0,0,1-.181.246,11.581,11.581,0,0,1-5.477,1.222" transform="translate(-316.626 -344.424)" fill="#564e4c"/>
          <path id="Trazado_132551" data-name="Trazado 132551" d="M533.114,552.14s-32.934,3.8-36.372,10.5.543,21.353,3.257,35.106,5.4,31.486,5.4,31.486,6.541,2.9,12.332-.362c0,0,2.533-31.753.093-47.5,0,0,23.251,2.076,36.46.628s18.276-14.115,19.724-27.686Z" transform="translate(-276.757 -308.45)" fill="#69615f"/>
          <path id="Trazado_132552" data-name="Trazado 132552" d="M524.269,667.329a15.372,15.372,0,0,1-6.007-1.23.351.351,0,1,1,.3-.636c.057.028,5.98,2.724,11.493-.26.2-2.651,2.392-32.331.079-47.226a.348.348,0,0,1,.38-.4c.229.021,23.37,2.056,36.39.629a.351.351,0,0,1,.079.7c-12.089,1.325-32.8-.314-36.09-.59,2.308,15.751-.128,46.822-.154,47.137a.349.349,0,0,1-.177.278,12.687,12.687,0,0,1-6.289,1.6" transform="translate(-289.411 -345.003)" fill="#564e4c"/>
          <path id="Trazado_132553" data-name="Trazado 132553" d="M456.422,531.694h-6.876c-.817,0-2.171-1.448-3.169-1.538s-6.876,1.9-7.693,1.176,5.883-5.157,8.236-5.338c1.258-.1,6.152,1,9.864,1.176Z" transform="translate(-245.031 -293.841)" fill="#d7b09d"/>
          <path id="Trazado_132554" data-name="Trazado 132554" d="M544.545,397.957c1.611,2.871,4.414,8.306,4.414,8.306l-7.719,5.558s-.631-5.064-3.469-8.475c0,0,1.571-1.671,3.213-3.146a13.47,13.47,0,0,1,3.562-2.243" transform="translate(-300.422 -222.317)" fill="#d7b09d"/>
          <path id="Trazado_132555" data-name="Trazado 132555" d="M531.8,396.773a32.439,32.439,0,0,1-5.464-4.013c-.684-.717.852-1.986.3-4.076.371-1.631-1.161-2.544-.234-3.416,1.006-.945,2.083.6,6.263.941,3.478.286,4.211,1.924,4.692,4.738s-5.552,5.826-5.552,5.826" transform="translate(-293.9 -215.06)" fill="#ce9f8b"/>
          <path id="Trazado_132556" data-name="Trazado 132556" d="M536,389.1h0a.231.231,0,0,1,0-.462,2.065,2.065,0,0,0,1.258-.421.761.761,0,0,0,.229-.588.931.931,0,0,0-.41-.757.231.231,0,1,1,.282-.365,1.382,1.382,0,0,1,.591,1.121,1.235,1.235,0,0,1-.366.917A2.5,2.5,0,0,1,536,389.1" transform="translate(-299.305 -215.893)" fill="#bb7f7a"/>
          <path id="Trazado_132557" data-name="Trazado 132557" d="M654.858,348.829c-.278,2.017-1.633,3.029-3.3,3.954-.406.224-.075.943.349.741,1.955-.924,3.588-2.338,3.178-4.677-.018-.115-.2-.158-.225-.018" transform="translate(-363.885 -194.823)" fill="#af8073"/>
          <path id="Trazado_132558" data-name="Trazado 132558" d="M605.6,378.448l-3.531,5.506s-6.894,4.474-7.4,7.978c.459,1.011,1.854,1.812,5.548,1.639,5.914-.277,15.28-3.7,15.28-3.7Z" transform="translate(-332.209 -211.418)" fill="#bd817a"/>
          <path id="Trazado_132559" data-name="Trazado 132559" d="M623.38,400.3c-5.614-1.094-12.777.619-14.966,4.148-.031,3.942-.256,5.5-.834,7.132,0,0,9.37,3.027,16.643-1.4-1.47-2.649-1.487-6.9-.843-9.876" transform="translate(-339.421 -223.441)" fill="#d0a290"/>
          <path id="Trazado_132560" data-name="Trazado 132560" d="M618.171,408.67c3.606-.311,5.2-1.454,5.76-2.248a18.549,18.549,0,0,1,.146-6.791c-5.742-1.913-13.011-.614-15.134,4.116a16.721,16.721,0,0,1-.093,3.2,19.954,19.954,0,0,0,9.321,1.722" transform="translate(-340.131 -222.777)" fill="#bd817a"/>
          <path id="Trazado_132561" data-name="Trazado 132561" d="M601.025,362.66c-.371.361-.75.809-1.2.755-1.448-.173-.066-5.733-.6-8.852-1.351-7.8-4.087-5.4-4.5-4.36-.5,1.276-1.152,6.265-1.735,11.786-.689,6.576-.313,12.753.839,13.926,1.545,1.81,6.938-4.064,8.125-9.064Z" transform="translate(-331.075 -194.98)" fill="#d7b2a0"/>
          <path id="Trazado_132562" data-name="Trazado 132562" d="M621.156,335.962a6.542,6.542,0,0,0-.539-5.446c-4.285-6.5-9.6-3.648-12.954-5.884a1.91,1.91,0,0,0-1.567-1.9,3.46,3.46,0,0,0-3.469,1.084c.821-1.4-1.143-2.561-1.143-2.561-4.749-2-10.522.637-11.29,4.715-.587,3.1.719,5.627,3.429,8.772l0,0a8.263,8.263,0,0,1,2.432,2.941c1.58,3.547.508,9.122,1.876,9.73,1.576.7,2.277-1.3,3.685-.594s.9,7.486,3.231,9.886a7.124,7.124,0,0,0,8.231,1.29c1.192-.663,3.866-2.515,6.775-9.437s3.129-11.346,1.3-12.59" transform="translate(-329.632 -179.085)" fill="#91625c"/>
          <path id="Trazado_132563" data-name="Trazado 132563" d="M613.653,373.4c-1.333-.2-2.145.267-2.648,2.636-.75,3.532.614,4.449.614,4.449,1.854.788,3.3-1.049,3.588-3.514.155-1.361-.247-3.38-1.554-3.571" transform="translate(-341.209 -208.577)" fill="#d7b2a0"/>
          <path id="Trazado_132564" data-name="Trazado 132564" d="M612.908,378.182c-.216,1.285.124,2.409.755,2.511s1.32-.857,1.536-2.142-.124-2.41-.759-2.511-1.32.857-1.532,2.142" transform="translate(-342.361 -210.068)" fill="#bd817a"/>
          <path id="Trazado_132565" data-name="Trazado 132565" d="M593.812,365.787c-.124.714-.075,1.126.265,1.384a1.056,1.056,0,0,0,1.5-.534,1.585,1.585,0,0,0-.781-1.781c-.667-.258-.852.181-.984.931" transform="translate(-331.695 -203.783)" fill="#91625c"/>
          <path id="Trazado_132566" data-name="Trazado 132566" d="M601.763,339.685a.352.352,0,0,1-.194-.058,25.375,25.375,0,0,1-4.162-3.169,8.728,8.728,0,0,1-2.578-4.634,5.488,5.488,0,0,1,1.659-5.023.351.351,0,0,1,.455.535,4.766,4.766,0,0,0-1.421,4.373,8.2,8.2,0,0,0,2.379,4.254,25.012,25.012,0,0,0,4.052,3.078.351.351,0,0,1-.19.644" transform="translate(-332.254 -182.519)" fill="#815251"/>
          <path id="Trazado_132567" data-name="Trazado 132567" d="M600.361,328.268l-.035,0a.351.351,0,0,1-.318-.382,3.173,3.173,0,0,1,4.2-2.7.351.351,0,0,1-.23.663,2.468,2.468,0,0,0-3.27,2.1.353.353,0,0,1-.349.318" transform="translate(-335.191 -181.565)" fill="#815251"/>
          <path id="Trazado_132568" data-name="Trazado 132568" d="M611.4,365.3l-.1-.014a6.934,6.934,0,0,1-3.663-2.565.357.357,0,0,1,.079-.49.352.352,0,0,1,.49.078,6.22,6.22,0,0,0,3.288,2.3.351.351,0,0,1-.1.689" transform="translate(-339.418 -202.321)" fill="#815251"/>
          <path id="Trazado_132569" data-name="Trazado 132569" d="M610.478,369.226l-.053,0a3.43,3.43,0,0,1-2.348-1.5.351.351,0,1,1,.587-.384,2.73,2.73,0,0,0,1.863,1.193.351.351,0,0,1-.049.7" transform="translate(-339.667 -205.121)" fill="#815251"/>
          <path id="Trazado_132570" data-name="Trazado 132570" d="M652.048,345.363a.34.34,0,0,1-.207-.069.35.35,0,0,1-.075-.491,3.859,3.859,0,0,0,.658-3.405,6.276,6.276,0,0,0-3.474-3.852.351.351,0,1,1,.278-.644,6.918,6.918,0,0,1,3.875,4.314,4.541,4.541,0,0,1-.772,4.006.356.356,0,0,1-.282.142" transform="translate(-362.413 -188.192)" fill="#815251"/>
          <path id="Trazado_132571" data-name="Trazado 132571" d="M657.77,362.042a.344.344,0,0,1-.154-.036.354.354,0,0,1-.163-.469,2.83,2.83,0,0,0-.883-3.429.35.35,0,1,1,.4-.574,3.549,3.549,0,0,1,1.112,4.31.346.346,0,0,1-.313.2" transform="translate(-366.705 -199.699)" fill="#815251"/>
          <path id="Trazado_132572" data-name="Trazado 132572" d="M628.1,394.855a5.505,5.505,0,0,1-3.981-1.817,9.011,9.011,0,0,1-2.1-5.511.352.352,0,0,1,.7-.052,8.482,8.482,0,0,0,1.916,5.088,4.523,4.523,0,0,0,4.842,1.324.351.351,0,1,1,.269.648,4.265,4.265,0,0,1-1.646.32" transform="translate(-347.487 -216.28)" fill="#815251"/>
          <path id="Trazado_132573" data-name="Trazado 132573" d="M624.983,383.713a.349.349,0,0,1-.322-.211,8.781,8.781,0,0,1-.622-4.838.351.351,0,1,1,.693.109,8.125,8.125,0,0,0,.569,4.448.347.347,0,0,1-.181.462.34.34,0,0,1-.137.029" transform="translate(-348.558 -211.373)" fill="#815251"/>
          <path id="Trazado_132574" data-name="Trazado 132574" d="M620.618,355.016a10.506,10.506,0,0,1-7.282-2.93.35.35,0,1,1,.49-.5,9.758,9.758,0,0,0,8.739,2.521.351.351,0,0,1,.15.685,9.753,9.753,0,0,1-2.1.225" transform="translate(-342.577 -196.355)" fill="#815251"/>
          <path id="Trazado_132575" data-name="Trazado 132575" d="M631.443,354.232a5.656,5.656,0,0,1-2.03-.373.351.351,0,1,1,.252-.655,5,5,0,0,0,3.721-.065.351.351,0,0,1,.274.646,5.678,5.678,0,0,1-2.216.447" transform="translate(-351.492 -197.264)" fill="#815251"/>
          <path id="Trazado_132576" data-name="Trazado 132576" d="M644.248,350.487a3.659,3.659,0,0,1-.4-.022.351.351,0,0,1,.079-.7,3.176,3.176,0,0,0,3.319-4.27.349.349,0,1,1,.653-.247,3.871,3.871,0,0,1-3.65,5.237" transform="translate(-359.507 -192.745)" fill="#815251"/>
          <path id="Trazado_132577" data-name="Trazado 132577" d="M652.441,360.5a.355.355,0,0,1-.322-.21,1.439,1.439,0,0,0-1.139-.832.351.351,0,0,1,.071-.7,2.139,2.139,0,0,1,1.712,1.249.351.351,0,0,1-.181.463.345.345,0,0,1-.141.03" transform="translate(-363.491 -200.42)" fill="#815251"/>
          <path id="Trazado_132578" data-name="Trazado 132578" d="M601.55,418.733l1.9-6.65s6.92-2.714,11.537-2.443S621.5,411.4,621.5,411.4l2.035,6.107Z" transform="translate(-336.053 -228.833)" fill="#f6f6f7"/>
          <path id="Trazado_132579" data-name="Trazado 132579" d="M537.79,416.112s3.8,12.3,6.333,24.248,6.876,22.982,12.305,22.982,8.143-14.657,3.438-30.944-10.314-21.715-10.314-21.715-7.419-.362-11.762,5.429" transform="translate(-300.434 -229.424)" fill="#ffa726"/>
          <path id="Trazado_132580" data-name="Trazado 132580" d="M586.922,427.007c9.953-2.9,23.162-4.343,30.4.543s6.514,17.915,5.791,29.858-.362,20.448-.9,24.248-6.514,10.676-21.172,11.4-20.448-9.41-20.629-11.762,1.086-9.048,1.448-18.819-1.991-32.753,5.067-35.468" transform="translate(-324.232 -237.061)" fill="#ffa726"/>
          <path id="Trazado_132581" data-name="Trazado 132581" d="M599.111,541.255c-13.682,0-19.3-9.554-19.495-12.123a40.24,40.24,0,0,1,.406-5.629c.353-3.289.839-7.8,1.042-13.23a.35.35,0,0,1,.362-.338.354.354,0,0,1,.34.363c-.2,5.46-.689,9.979-1.046,13.28a41.212,41.212,0,0,0-.406,5.5c.075.952,1.377,3.985,4.762,6.792,2.811,2.33,7.785,5.027,15.5,4.647,14.128-.7,20.285-7.178,20.841-11.1a.352.352,0,0,1,.7.1c-.591,4.143-6.951,10.983-21.5,11.7-.508.025-1.011.037-1.5.037" transform="translate(-323.789 -284.873)" fill="#617a7f"/>
          <path id="Trazado_132582" data-name="Trazado 132582" d="M622.631,562.571a20.43,20.43,0,0,1-6.96-1.2.352.352,0,0,1,.243-.66,20.335,20.335,0,0,0,17.619-1.981.352.352,0,0,1,.384.59,20.966,20.966,0,0,1-11.285,3.252" transform="translate(-343.813 -312.1)" fill="#617a7f"/>
          <path id="Trazado_132583" data-name="Trazado 132583" d="M636.2,556.177a5.94,5.94,0,0,1-.671-.037.351.351,0,0,1,.079-.7,5.875,5.875,0,0,0,5.111-2.109.351.351,0,1,1,.547.44,6.609,6.609,0,0,1-5.067,2.4" transform="translate(-354.859 -309.044)" fill="#617a7f"/>
          <path id="Trazado_132584" data-name="Trazado 132584" d="M514.418,478.277h-37.1s-2.171-5.791,1.448-9.772c0,0,11.219-2.171,25.7-6.333,0,0,5.645-8.053,9.542-14.024,4.343-6.65,8.686-16.422,14.975-17.779a43.566,43.566,0,0,1,2.714,26.6s-13.479,21.307-17.279,21.307" transform="translate(-266.293 -240.423)" fill="#ffa726"/>
          <path id="Trazado_132585" data-name="Trazado 132585" d="M596.63,426.777s7.869.326,16.286.19,11.263-.814,11.263-.814-2.308-2.036-12.76-2.036-14.79,2.66-14.79,2.66" transform="translate(-333.304 -236.931)" fill="#f6f6f7"/>
          <path id="Trazado_132586" data-name="Trazado 132586" d="M534.671,363.649c-.349,6.052-.869,10.944-1.593,10.9s-.684-4.961-.34-11.014.75-10.951,1.593-10.9.684,4.961.34,11.014" transform="translate(-297.478 -196.998)" fill="#69615f"/>
          <path id="Trazado_132587" data-name="Trazado 132587" d="M525.478,398.861c-.287,1.369,1.942,1.881,3.5,1.881s2.308-.4,2.37-1.407-1.329-.96-2.811-1.316-2.732-.684-3.054.841" transform="translate(-293.542 -222.185)" fill="#d7b09d"/>
          <path id="Trazado_132588" data-name="Trazado 132588" d="M523.162,392.2c-.159,1.537,2.683,2.1,4.612,2.088s2.8-.463,2.732-1.592-1.584-1.182-3.478-1.571-3.694-.637-3.866,1.075" transform="translate(-292.258 -218.341)" fill="#d7b09d"/>
          <path id="Trazado_132589" data-name="Trazado 132589" d="M523.639,385.188c-.269,1.521,1.73,1.835,3.646,2.066,2.317.279,3.637.084,3.646-1.047s-1.54-1.355-3.4-1.879-3.593-.835-3.888.861" transform="translate(-292.515 -214.471)" fill="#d7b09d"/>
          <path id="Trazado_132590" data-name="Trazado 132590" d="M530.728,400.5a.231.231,0,0,1-.049-.457,1.435,1.435,0,0,0,.98-.568.6.6,0,0,0,.093-.462c-.225-.944-3.036-1.221-4.753-1.174a.239.239,0,0,1-.238-.225.23.23,0,0,1,.225-.237c.494-.015,4.828-.085,5.217,1.528a1.067,1.067,0,0,1-.15.815,1.878,1.878,0,0,1-1.276.775Z" transform="translate(-294.272 -221.991)" fill="#bb7f7a"/>
          <path id="Trazado_132591" data-name="Trazado 132591" d="M530.66,394.138a.231.231,0,0,1-.049-.457c.013,0,1.355-.314,1.465-1.205a.849.849,0,0,0-.2-.671c-.8-.979-3.624-1.181-5.137-1.291l-.185-.014a.231.231,0,1,1,.031-.461l.19.014c1.695.122,4.528.326,5.46,1.457a1.307,1.307,0,0,1,.3,1.021c-.15,1.216-1.757,1.586-1.827,1.6Z" transform="translate(-294.036 -217.894)" fill="#bb7f7a"/>
          <path id="Trazado_132592" data-name="Trazado 132592" d="M543.213,383.624c-.931-1.92-1.7-4.762-3.4-6.52-1.4-1.453-2.511-5.172-3.54-4.776-2.246.864.433,4.307,1.108,7.2.221.963-.949,6.271,1.8,7.945,3.456,2.106,4.811-2.245,4.034-3.849" transform="translate(-299.095 -207.983)" fill="#d7b09d"/>
          <path id="Trazado_132593" data-name="Trazado 132593" d="M645.14,673.53h3.747l-6.21-65.064H636.94Z" transform="translate(-355.823 -339.916)" fill="#91625c"/>
          <path id="Trazado_132594" data-name="Trazado 132594" d="M686.09,673.53h3.747l-13.36-65.064H670.74Z" transform="translate(-374.705 -339.916)" fill="#91625c"/>
          <path id="Trazado_132595" data-name="Trazado 132595" d="M595.543,673.53H591.8l6.21-65.064h5.738Z" transform="translate(-330.606 -339.916)" fill="#91625c"/>
          <path id="Trazado_132596" data-name="Trazado 132596" d="M545.543,673.53H541.8l13.36-65.064H560.9Z" transform="translate(-302.674 -339.916)" fill="#91625c"/>
          <path id="Trazado_132597" data-name="Trazado 132597" d="M674.928,626.213l-4.188-17.747Zm4.833-1.752-3.284-16,3.284,16" transform="translate(-374.705 -339.916)" fill="#d1cfcf"/>
          <path id="Trazado_132598" data-name="Trazado 132598" d="M674.928,626.213l-4.188-17.747h5.738l3.284,16a26.513,26.513,0,0,1-4.833,1.752" transform="translate(-374.705 -339.916)" fill="#76504a"/>
          <path id="Trazado_132599" data-name="Trazado 132599" d="M640.1,633.472l-1.977-15.684Z" transform="translate(-356.482 -345.124)" fill="#d1cfcf"/>
          <path id="Trazado_132600" data-name="Trazado 132600" d="M639.438,628.264l-1.977-15.684-.521-4.114h5.738l1.862,19.518c-1.593.122-3.3.215-5.1.28" transform="translate(-355.823 -339.916)" fill="#76504a"/>
          <path id="Trazado_132601" data-name="Trazado 132601" d="M617.43,613.485l.636-5.019Z" transform="translate(-344.924 -339.916)" fill="#564e4c"/>
          <path id="Trazado_132602" data-name="Trazado 132602" d="M617.23,620.544l.088-.706Z" transform="translate(-344.812 -346.269)" fill="#47403e"/>
          <path id="Trazado_132603" data-name="Trazado 132603" d="M606.752,628.259q-2.661-.1-5.1-.284l1.862-19.509h5.738l-.636,5.019-.088.706Z" transform="translate(-336.109 -339.916)" fill="#76504a"/>
          <path id="Trazado_132604" data-name="Trazado 132604" d="M570.233,633.343h0l2.909-12.332Zm-4.113-5.224,1.509-7.36-1.509,7.36" transform="translate(-316.26 -346.784)" fill="#564e4c"/>
          <path id="Trazado_132605" data-name="Trazado 132605" d="M582.4,617.219h0l.472-2Z" transform="translate(-325.355 -343.688)" fill="#564e4c"/>
          <path id="Trazado_132606" data-name="Trazado 132606" d="M575.053,620.449h0l.163-.7Zm-5.513-.252h0l.031-.147-.031.147" transform="translate(-318.171 -346.222)" fill="#47403e"/>
          <path id="Trazado_132607" data-name="Trazado 132607" d="M569.183,630.247q-2.728-.539-4.943-1.193l.83-4.031,1.509-7.36.031-.147,1.5-.348a14.59,14.59,0,0,0,4.621-1.951l-.472,2-.163.7Z" transform="translate(-315.21 -343.688)" fill="#76504a"/>
          <path id="Trazado_132608" data-name="Trazado 132608" d="M550.25,518.126a17.334,17.334,0,0,0,11.877-10.715c6.841-16.3,6.051-49.966,32.621-48.223,29.461,0,24.464,56.918,20.4,64.761-3.831,7.4-13.589,11.646-40.375,11.646-29.346,0-43.191-5.191-41.584-10.546.79-2.63,9.37-5.061,17.058-6.924" transform="translate(-297.795 -256.486)" fill="#e9e9e9"/>
          <path id="Trazado_132609" data-name="Trazado 132609" d="M669.691,528.7a.534.534,0,0,1-.388-.169,126.369,126.369,0,0,1-18.731-26.5.525.525,0,1,1,.927-.492,125.274,125.274,0,0,0,18.581,26.283.526.526,0,0,1-.388.883" transform="translate(-363.404 -280.025)" fill="#c5c4c3"/>
          <path id="Trazado_132610" data-name="Trazado 132610" d="M665.654,541.767a.527.527,0,0,1-.4-.185,95.19,95.19,0,0,1-7.706-10.416.526.526,0,0,1,.887-.566,93.986,93.986,0,0,0,7.622,10.3.53.53,0,0,1-.062.742.52.52,0,0,1-.34.125" transform="translate(-367.289 -296.281)" fill="#c5c4c3"/>
          <path id="Trazado_132611" data-name="Trazado 132611" d="M533.191,525.05c.79-2.63,9.37-5.061,17.058-6.924a17.334,17.334,0,0,0,11.877-10.714c6.841-16.3,6.051-49.966,32.621-48.224a20.5,20.5,0,0,1,3.972.377c-18.864.324-26.331,15.086-26.331,33.261,0,18.378,5.786,35.644,26.962,35.644a23.083,23.083,0,0,0,16.613-6.713,12.844,12.844,0,0,1-.812,2.193c-3.831,7.4-13.589,11.646-40.375,11.646-29.346,0-43.191-5.191-41.584-10.546" transform="translate(-297.795 -256.486)" fill="#c5c4c3"/>
          <path id="Trazado_132612" data-name="Trazado 132612" d="M649.9,471.848a.518.518,0,0,1-.424-.218.525.525,0,0,1,.115-.734,21.068,21.068,0,0,1,6.841-3.394.526.526,0,1,1,.269,1.016,20.071,20.071,0,0,0-6.492,3.229.515.515,0,0,1-.309.1" transform="translate(-362.767 -261.158)" fill="#f7f7f8"/>
          <path id="Trazado_132613" data-name="Trazado 132613" d="M690.8,483.105a.531.531,0,0,1-.516-.421c-1.1-5.354-4.272-11.936-9.864-14.354a15.7,15.7,0,0,0-6.281-.993.529.529,0,0,1-.525-.529.519.519,0,0,1,.53-.523,16.622,16.622,0,0,1,6.7,1.079c5.963,2.579,9.321,9.5,10.478,15.108a.526.526,0,0,1-.411.621Z" transform="translate(-376.309 -260.488)" fill="#f7f7f8"/>
          <path id="Trazado_132614" data-name="Trazado 132614" d="M362.708,661.994c-.009-.277-.088-6.822,3.716-10.7a10.195,10.195,0,0,1,13.978.011c3.756,3.828,3.672,10.209,3.668,10.479l-2.67-.052c0-.053.053-5.546-2.913-8.562a6.77,6.77,0,0,0-5.1-1.969,6.7,6.7,0,0,0-5.054,1.966c-3.032,3.087-2.957,8.722-2.957,8.779Z" transform="translate(-202.624 -362.295)" fill="#564e4c"/>
          <path id="Trazado_132615" data-name="Trazado 132615" d="M375.566,711.411H328.624a4.034,4.034,0,0,1-4.034-4.035V680.614a4.034,4.034,0,0,1,4.034-4.036h46.943a4.034,4.034,0,0,1,4.034,4.036v26.762a4.034,4.034,0,0,1-4.034,4.035" transform="translate(-181.331 -377.967)" fill="#69615f"/>
          <path id="Trazado_132616" data-name="Trazado 132616" d="M426.539,734.98h-7.684a.457.457,0,0,1,0-.915h7.684a3.22,3.22,0,0,0,3.217-3.216V721.94a.457.457,0,1,1,.914,0v8.909a4.136,4.136,0,0,1-4.131,4.131" transform="translate(-233.737 -403.052)" fill="#564e4c"/>
          <path id="Trazado_132617" data-name="Trazado 132617" d="M397.641,680.929h-7.966a.457.457,0,0,1,0-.915h7.966a.457.457,0,1,1,0,.915" transform="translate(-217.436 -379.886)" fill="#96908e"/>
          <path id="Trazado_132618" data-name="Trazado 132618" d="M328.079,684.6a.457.457,0,0,1-.459-.458,4.136,4.136,0,0,1,4.131-4.132h19.106a.457.457,0,1,1,0,.915H331.751a3.221,3.221,0,0,0-3.217,3.217.456.456,0,0,1-.455.458" transform="translate(-183.023 -379.886)" fill="#96908e"/>
          <path id="Trazado_132619" data-name="Trazado 132619" d="M403.711,750.907h-5.592a.457.457,0,1,1,0-.915h5.592a.457.457,0,1,1,0,.915" transform="translate(-222.151 -418.979)" fill="#564e4c"/>
          <path id="Trazado_132620" data-name="Trazado 132620" d="M358.108,713.937a.459.459,0,0,1-.238-.85l24.915-14.913a.458.458,0,0,1,.627.158.453.453,0,0,1-.159.628l-24.91,14.913a.458.458,0,0,1-.234.065" transform="translate(-199.798 -389.995)" fill="#564e4c"/>
          <path id="Trazado_132621" data-name="Trazado 132621" d="M377.308,719.933a.459.459,0,0,1-.238-.85l11.864-7.1a.458.458,0,0,1,.472.786l-11.864,7.1a.458.458,0,0,1-.234.065" transform="translate(-210.524 -397.709)" fill="#564e4c"/>
          <path id="Trazado_132622" data-name="Trazado 132622" d="M513.915,511.854h-37.1a.357.357,0,0,1-.327-.213c-.022-.056-2.352-5.658,1.509-9.98a.352.352,0,0,1,.525.467c-3.156,3.534-1.832,8-1.47,9.024h36.858c2.644,0,11.6-12.645,16.983-21.145a.35.35,0,1,1,.591.376c-1.39,2.2-13.7,21.471-17.575,21.471" transform="translate(-265.79 -273.649)" fill="#617a7f"/>
          <path id="Trazado_132623" data-name="Trazado 132623" d="M594.035,498.048a.352.352,0,0,1-.159-.665,20.728,20.728,0,0,0,3.857-2.525.351.351,0,0,1,.472.519,21.009,21.009,0,0,1-4.016,2.633.335.335,0,0,1-.155.037" transform="translate(-331.658 -276.399)" fill="#617a7f"/>
          <path id="Trazado_132624" data-name="Trazado 132624" d="M531.023,508.4l-.084-.011a.349.349,0,0,1-.256-.425,16.594,16.594,0,0,1,2.057-4.636,7.506,7.506,0,0,0-2.344,2.552.355.355,0,0,1-.463.185.348.348,0,0,1-.181-.461c.847-1.984,4.034-3.843,4.171-3.921a.35.35,0,0,1,.446.524,17.92,17.92,0,0,0-3.006,5.928.349.349,0,0,1-.34.266" transform="translate(-295.926 -280.234)" fill="#617a7f"/>
          <path id="Trazado_132625" data-name="Trazado 132625" d="M539.188,461.394a.353.353,0,0,1-.287-.553c.057-.08,5.689-8.117,9.542-14.015.741-1.137,1.487-2.342,2.273-3.618,3.76-6.081,8.019-12.974,13.373-14.13l.084-.008c.212.005,21.119.527,27.519-.718a.357.357,0,0,1,.415.278.353.353,0,0,1-.278.411c-6.4,1.244-26.3.765-27.629.731-5.049,1.12-9.211,7.858-12.883,13.8-.794,1.28-1.54,2.489-2.286,3.633-3.857,5.908-9.5,13.953-9.551,14.034a.356.356,0,0,1-.291.15" transform="translate(-301.019 -239.294)" fill="#617a7f"/>
          <path id="Trazado_132626" data-name="Trazado 132626" d="M602.335,426.367a.351.351,0,0,1-.075-.694,79.277,79.277,0,0,1,21.141-.82.35.35,0,0,1,.318.381.346.346,0,0,1-.38.318,78.491,78.491,0,0,0-20.933.808Z" transform="translate(-336.295 -237.155)" fill="#e9e9e9"/>
          <path id="Trazado_132627" data-name="Trazado 132627" d="M352.414,69.447a.983.983,0,0,1-.984-.981v-8.5a.982.982,0,0,1,1.964,0v8.5a.982.982,0,0,1-.98.981" transform="translate(-196.325 -32.951)" fill="#becac3"/>
          <path id="Trazado_132628" data-name="Trazado 132628" d="M351.285,70.577h-8.5a.981.981,0,0,1,0-1.962h8.5a.981.981,0,0,1,0,1.962" transform="translate(-190.945 -38.331)" fill="#becac3"/>
          <path id="Trazado_132629" data-name="Trazado 132629" d="M731.19,238.919a.98.98,0,0,1-.98-.981v-8.5a.98.98,0,1,1,1.96,0v8.5a.98.98,0,0,1-.98.981" transform="translate(-407.928 -127.625)" fill="#a25454"/>
          <path id="Trazado_132630" data-name="Trazado 132630" d="M730.055,240.048h-8.5a.981.981,0,1,1,0-1.962h8.5a.981.981,0,0,1,0,1.962" transform="translate(-402.543 -133.006)" fill="#a25454"/>
          <path id="Trazado_132631" data-name="Trazado 132631" d="M62.76,189.708a.979.979,0,0,1-.98-.981v-8.5a.98.98,0,1,1,1.96,0v8.5a.979.979,0,0,1-.98.981" transform="translate(-34.513 -100.134)" fill="#e6cd8f"/>
          <path id="Trazado_132632" data-name="Trazado 132632" d="M61.63,190.838h-8.5a.981.981,0,0,1,0-1.962h8.5a.981.981,0,1,1,0,1.962" transform="translate(-29.133 -105.515)" fill="#e6cd8f"/>
          <path id="Trazado_132633" data-name="Trazado 132633" d="M243.494,91.979A.983.983,0,0,1,242.51,91V82.5a.982.982,0,0,1,1.964,0V91a.982.982,0,0,1-.98.981" transform="translate(-135.477 -45.538)" fill="#a25454"/>
          <path id="Trazado_132634" data-name="Trazado 132634" d="M242.365,93.109h-8.5a.981.981,0,1,1,0-1.962h8.5a.981.981,0,0,1,0,1.962" transform="translate(-130.097 -50.919)" fill="#a25454"/>
          <path id="Trazado_132635" data-name="Trazado 132635" d="M466.134,11.512a.983.983,0,0,1-.984-.981V2.03a.982.982,0,0,1,1.964,0v8.5a.982.982,0,0,1-.98.981" transform="translate(-259.854 -0.586)" fill="#becac3"/>
          <path id="Trazado_132636" data-name="Trazado 132636" d="M465,12.642h-8.5a.981.981,0,1,1,0-1.962H465a.981.981,0,0,1,0,1.962" transform="translate(-254.474 -5.966)" fill="#becac3"/>
          <path id="Trazado_132637" data-name="Trazado 132637" d="M264.788,13.348a3.434,3.434,0,1,1-3.434-3.433,3.432,3.432,0,0,1,3.434,3.433" transform="translate(-144.086 -5.539)" fill="#e6cd8f"/>
          <path id="Trazado_132638" data-name="Trazado 132638" d="M469.277,77.2a3.434,3.434,0,1,1-3.434-3.433,3.436,3.436,0,0,1,3.434,3.433" transform="translate(-258.323 -41.209)" fill="#a25454"/>
          <path id="Trazado_132639" data-name="Trazado 132639" d="M551.357,268.995a2.288,2.288,0,1,1-2.286-2.289,2.288,2.288,0,0,1,2.286,2.289" transform="translate(-305.456 -148.994)" fill="#e6cd8f"/>
          <path id="Trazado_132640" data-name="Trazado 132640" d="M45.247,72.475a2.288,2.288,0,1,1-2.286-2.289,2.288,2.288,0,0,1,2.286,2.289" transform="translate(-22.72 -39.209)" fill="#becac3"/>
          <path id="Trazado_132641" data-name="Trazado 132641" d="M714.917,368.734a2.288,2.288,0,1,1-2.286-2.289,2.288,2.288,0,0,1,2.286,2.289" transform="translate(-396.828 -204.713)" fill="#becac3"/>
          <path id="Trazado_132642" data-name="Trazado 132642" d="M144.007,35.443a2.288,2.288,0,1,1-2.291-2.289,2.289,2.289,0,0,1,2.291,2.289" transform="translate(-77.892 -18.521)" fill="#e6cd8f"/>
          <path id="Trazado_132643" data-name="Trazado 132643" d="M4.577,277.7a2.288,2.288,0,1,1-2.291-2.288A2.289,2.289,0,0,1,4.577,277.7" transform="translate(0 -153.855)" fill="#a25454"/>
          <path id="Trazado_132644" data-name="Trazado 132644" d="M624.727,124.978h-20a14.984,14.984,0,0,0-1.24-7.454c-3.478-7.055-12.918-10.383-12.918-27.288s11.18-25.159,24.1-25.159S638.89,73.33,638.89,90.236s-9.441,20.233-12.918,27.288a14.958,14.958,0,0,0-1.245,7.454" transform="translate(-329.919 -36.355)" fill="#fcfbf7"/>
          <path id="Trazado_132645" data-name="Trazado 132645" d="M641.987,219.219h-13.58a1.2,1.2,0,0,1-1.2-1.2v-.271a1.2,1.2,0,0,1,1.2-1.2h13.58a1.2,1.2,0,0,1,1.2,1.2v.271a1.2,1.2,0,0,1-1.2,1.2" transform="translate(-350.388 -120.978)" fill="#69615f"/>
          <path id="Trazado_132646" data-name="Trazado 132646" d="M603.751,124.774l-.093-.005a.776.776,0,0,1-.675-.857,14.265,14.265,0,0,0-1.165-7.022,26.6,26.6,0,0,0-4.233-5.663c-3.906-4.393-8.765-9.86-8.765-21.966,0-8.13,2.573-14.865,7.446-19.479a26.839,26.839,0,0,1,34.907,0c4.912,4.621,7.512,11.357,7.512,19.481,0,12.105-4.864,17.573-8.77,21.966a26.72,26.72,0,0,0-4.228,5.663,14.3,14.3,0,0,0-1.17,7.023.771.771,0,0,1-1.532.181,15.6,15.6,0,0,1,1.315-7.887,27.742,27.742,0,0,1,4.462-6.006c3.928-4.417,8.377-9.422,8.377-20.941,0-18-12.632-24.387-23.449-24.387-10.76,0-23.33,6.387-23.33,24.387,0,11.518,4.453,16.524,8.381,20.941a27.719,27.719,0,0,1,4.458,6.006,15.676,15.676,0,0,1,1.32,7.887.773.773,0,0,1-.768.681" transform="translate(-328.941 -35.379)" fill="#e5cb89"/>
          <path id="Trazado_132647" data-name="Trazado 132647" d="M629.459,135.686a1.974,1.974,0,0,0-.874.207,2.186,2.186,0,0,0-1,1.658,3.5,3.5,0,0,0,1.3,3.08,5.719,5.719,0,0,0,2.767.991V140.4c0-2.359-.494-3.957-1.39-4.5a1.525,1.525,0,0,0-.8-.214m10.138,0a1.524,1.524,0,0,0-.8.214c-.9.543-1.39,2.141-1.39,4.5v1.222a5.714,5.714,0,0,0,2.767-.991,3.5,3.5,0,0,0,1.3-3.08,2.186,2.186,0,0,0-1-1.658,1.958,1.958,0,0,0-.874-.207m-2.961,28.647a.77.77,0,0,1-.768-.771V143.32a21.457,21.457,0,0,1-2.675,0v20.242a.772.772,0,0,1-1.545,0v-20.4a7.574,7.574,0,0,1-3.809-1.392,5.127,5.127,0,0,1-1.788-4.418,3.709,3.709,0,0,1,1.818-2.824,3.337,3.337,0,0,1,3.191.056c1.412.858,2.132,2.816,2.132,5.82v1.389a21.122,21.122,0,0,0,2.675,0V140.4c0-3,.715-4.962,2.132-5.82a3.326,3.326,0,0,1,3.187-.056A3.71,3.71,0,0,1,643,137.349a5.116,5.116,0,0,1-1.788,4.418,7.562,7.562,0,0,1-3.809,1.393v20.4a.771.771,0,0,1-.772.771" transform="translate(-349.72 -74.939)" fill="#e5cb89"/>
          <path id="Trazado_132648" data-name="Trazado 132648" d="M640.166,203.718H619.114a1.853,1.853,0,0,1-1.854-1.853v-.421a1.853,1.853,0,0,1,1.854-1.852h21.053a1.853,1.853,0,0,1,1.854,1.852v.421a1.853,1.853,0,0,1-1.854,1.853" transform="translate(-344.829 -111.501)" fill="#e5cb89"/>
          <path id="Trazado_132649" data-name="Trazado 132649" d="M640.166,199.592h-.927a1.589,1.589,0,0,1,.252.847v.361a1.587,1.587,0,0,1-1.589,1.587H619.868a1.587,1.587,0,0,1-1.589-1.587v-.361a1.6,1.6,0,0,1,.181-.724,1.846,1.846,0,0,0-1.2,1.729v.421a1.853,1.853,0,0,0,1.854,1.853h21.053a1.853,1.853,0,0,0,1.854-1.853v-.421a1.853,1.853,0,0,0-1.854-1.852" transform="translate(-344.829 -111.501)" fill="#d0a15e"/>
          <path id="Trazado_132650" data-name="Trazado 132650" d="M640.414,212.039H620.381a1.76,1.76,0,0,1-1.761-1.763v-.4a1.76,1.76,0,0,1,1.761-1.763h20.033a1.764,1.764,0,0,1,1.765,1.763v.4a1.764,1.764,0,0,1-1.765,1.763" transform="translate(-345.589 -116.261)" fill="#e5cb89"/>
          <path id="Trazado_132651" data-name="Trazado 132651" d="M640.414,208.112h-.878a1.523,1.523,0,0,1,.238.806v.343a1.513,1.513,0,0,1-1.514,1.51H621.1a1.513,1.513,0,0,1-1.514-1.51v-.343a1.459,1.459,0,0,1,.177-.689,1.76,1.76,0,0,0-1.143,1.645v.4a1.76,1.76,0,0,0,1.761,1.763h20.033a1.764,1.764,0,0,0,1.765-1.763v-.4a1.764,1.764,0,0,0-1.765-1.763" transform="translate(-345.589 -116.261)" fill="#d0a15e"/>
          <path id="Trazado_132652" data-name="Trazado 132652" d="M546.919,130.835H528.788a1.256,1.256,0,1,1,0-2.512h18.131a1.256,1.256,0,0,1,0,2.512" transform="translate(-294.702 -71.687)" fill="#e6cd8f"/>
          <path id="Trazado_132653" data-name="Trazado 132653" d="M733.5,132.182H715.378a1.256,1.256,0,1,1,0-2.512H733.5a1.256,1.256,0,1,1,0,2.512" transform="translate(-398.939 -72.439)" fill="#e6cd8f"/>
          <path id="Trazado_132654" data-name="Trazado 132654" d="M574.705,46.553a1.241,1.241,0,0,1-.9-.38L560.749,32.757a1.256,1.256,0,0,1,1.8-1.752l13.055,13.416a1.257,1.257,0,0,1-.9,2.132" transform="translate(-313.061 -17.109)" fill="#e6cd8f"/>
          <path id="Trazado_132655" data-name="Trazado 132655" d="M700,55.42a1.255,1.255,0,0,1-.834-2.195l13.051-11.6a1.256,1.256,0,1,1,1.668,1.878L700.831,55.1a1.25,1.25,0,0,1-.834.317" transform="translate(-390.347 -23.075)" fill="#e6cd8f"/>
          <path id="Trazado_132656" data-name="Trazado 132656" d="M651.066,22.091a1.259,1.259,0,0,1-1.249-1.418l2.538-19.58a1.257,1.257,0,0,1,2.494.323L652.31,21a1.258,1.258,0,0,1-1.245,1.095" transform="translate(-363.011 0)" fill="#e6cd8f"/>
        </g>
      </g>
    </g>
  </g>
</svg>
