<svg xmlns="http://www.w3.org/2000/svg" xmlns:xlink="http://www.w3.org/1999/xlink" width="388" height="341.661" viewBox="0 0 388 341.661">
  <defs>
    <clipPath id="clip-path">
      <rect id="Rectángulo_54311" data-name="Rectángulo 54311" width="315.416" height="324.569" fill="none"/>
    </clipPath>
  </defs>
  <g id="Grupo_98378" data-name="Grupo 98378" transform="translate(-1020.75 -2076.134)">
    <g id="Image_Place_Holder" data-name="Image Place Holder" transform="translate(1020.75 2147.025)" opacity="0.1">
      <rect id="Image_Place_Holder-2" data-name="Image Place Holder" width="388" height="270.77" rx="10" fill="#ffa726"/>
    </g>
    <g id="Grupo_98273" data-name="Grupo 98273" transform="translate(1057.227 2076.134)">
      <g id="Grupo_98272" data-name="Grupo 98272" clip-path="url(#clip-path)">
        <path id="Trazado_132657" data-name="Trazado 132657" d="M139.561,667.406c-.094,4.069-1.135,10.791-2.925,11.852s-4.867,1.586-5.02,2.831c-.217,1.769,10.555,2.476,12.612-2.3,1.8-4.177.463-12.383.463-12.383Z" transform="translate(-75.666 -383.7)" fill="#69615f"/>
        <path id="Trazado_132658" data-name="Trazado 132658" d="M231.646,598.034c-.731,1.938-.85,4.874.973,6.3,2.678,2.091,8.3,1.733,8.43,3.116.1,1.125-4.055,1.667-9.093,1.379-4.23-.242-6.517-.434-6.653-1.292-.387-2.4,1.331-5.809,1.428-9.378Z" transform="translate(-129.497 -343.817)" fill="#69615f"/>
        <path id="Trazado_132659" data-name="Trazado 132659" d="M125.09,363.746s2.767,45.639,3.826,68.458,2.886,56.164,2.886,56.164,5.305,1.857,13.19-.265c0,0,9.373-67.22,10.7-98.264l25.476,21.05s-14.419,26.888-14.683,46.523a15.929,15.929,0,0,0,12.472-.177c16.893-31.664,26.619-39.094,25.382-50.415-.055-7.448-32.549-45.2-33.344-54.218Z" transform="translate(-71.916 -202.715)" fill="#dcdbdb"/>
        <path id="Trazado_132660" data-name="Trazado 132660" d="M146.157,539.371a19.008,19.008,0,0,1-5.832-.778.328.328,0,0,1,.217-.62c.055.018,5.22,1.763,12.787-.216.591-4.239,9.4-68.217,10.67-98.017a.326.326,0,0,1,.2-.286.33.33,0,0,1,.344.047l25.471,21.05a.333.333,0,0,1,.081.409c-.145.267-14.274,26.839-14.64,46.15a15.667,15.667,0,0,0,12-.256.329.329,0,0,1,.285.593,16.1,16.1,0,0,1-12.748.179.323.323,0,0,1-.191-.3c.247-18.51,13.169-43.716,14.593-46.435l-24.757-20.46c-1.416,30.992-10.585,96.969-10.678,97.636a.324.324,0,0,1-.238.272,29.043,29.043,0,0,1-7.554,1.036" transform="translate(-80.549 -252.63)" fill="#b6b5b4"/>
        <path id="Trazado_132661" data-name="Trazado 132661" d="M196.637,418.907h-.008a.33.33,0,0,1-.319-.339l.23-6.739a.312.312,0,0,1,.094-.221l8.918-8.918a.33.33,0,0,1,.468.465l-8.829,8.827-.221,6.609a.332.332,0,0,1-.332.318" transform="translate(-112.861 -231.455)" fill="#b6b5b4"/>
        <path id="Trazado_132662" data-name="Trazado 132662" d="M197.175,422.132a.329.329,0,0,1-.14-.626,61.3,61.3,0,0,0,8.621-5.6.329.329,0,1,1,.4.52,60.889,60.889,0,0,1-8.744,5.67.342.342,0,0,1-.14.031" transform="translate(-113.169 -239.072)" fill="#b6b5b4"/>
        <path id="Trazado_132663" data-name="Trazado 132663" d="M200.988,383.2a.332.332,0,0,1-.293-.177c-.059-.113-5.9-11.442-6.606-21.486a.328.328,0,0,1,.3-.351.333.333,0,0,1,.353.3c.689,9.905,6.474,21.116,6.534,21.228a.327.327,0,0,1-.14.443.309.309,0,0,1-.149.037" transform="translate(-111.583 -207.65)" fill="#b6b5b4"/>
        <path id="Trazado_132664" data-name="Trazado 132664" d="M212.773,502.1l-.042,0a.331.331,0,0,1-.285-.367,142.325,142.325,0,0,1,7.294-28.708,118.574,118.574,0,0,1,9.267-19.536L200.82,428.563a.328.328,0,1,1,.434-.492l28.4,25.112a.328.328,0,0,1,.055.426c-.043.068-4.5,6.931-9.356,19.651a142.057,142.057,0,0,0-7.256,28.557.327.327,0,0,1-.323.287" transform="translate(-115.39 -246.056)" fill="#b6b5b4"/>
        <path id="Trazado_132665" data-name="Trazado 132665" d="M296.518,487.921a.325.325,0,0,1-.259-.128,10.261,10.261,0,0,1-2.074-7.037.328.328,0,1,1,.655.055,9.609,9.609,0,0,0,1.938,6.582.328.328,0,0,1-.06.461.321.321,0,0,1-.2.068" transform="translate(-169.11 -276.219)" fill="#b6b5b4"/>
        <path id="Trazado_132666" data-name="Trazado 132666" d="M162.887,539.508a.328.328,0,0,1-.289-.485,11.332,11.332,0,0,0,1.02-7.987.328.328,0,1,1,.638-.157,12,12,0,0,1-1.08,8.456.331.331,0,0,1-.289.173" transform="translate(-93.457 -305.065)" fill="#b6b5b4"/>
        <path id="Trazado_132667" data-name="Trazado 132667" d="M142.995,538.872a.325.325,0,0,1-.281-.16,9.272,9.272,0,0,1-1.207-6.086.329.329,0,0,1,.65.1,8.63,8.63,0,0,0,1.118,5.655.329.329,0,0,1-.111.45.335.335,0,0,1-.17.046" transform="translate(-81.297 -306.051)" fill="#b6b5b4"/>
        <path id="Trazado_132668" data-name="Trazado 132668" d="M130.206,385.142a.329.329,0,0,1-.327-.3l-.939-12.2a.328.328,0,1,1,.655-.05l.9,11.66c1.853-1.222,8.812-6.343,9.008-14.459a.317.317,0,0,1,.336-.32.33.33,0,0,1,.323.337c-.238,9.695-9.692,15.242-9.786,15.3a.343.343,0,0,1-.166.044" transform="translate(-74.128 -212.409)" fill="#b6b5b4"/>
        <path id="Trazado_132669" data-name="Trazado 132669" d="M229.983,362.714c-6.967,0-9.815-9-9.934-9.385a.327.327,0,1,1,.625-.193c.03.089,2.827,8.921,9.309,8.921a.329.329,0,0,1,0,.657" transform="translate(-126.5 -202.889)" fill="#b6b5b4"/>
        <path id="Trazado_132670" data-name="Trazado 132670" d="M79.34,261.188S62.889,282.68,50.817,276.047,58.911,237.97,73.5,226.826a71.693,71.693,0,0,1,4.774,16.318,100.731,100.731,0,0,1,1.063,18.043" transform="translate(-27.093 -130.405)" fill="#ffd54f"/>
        <path id="Trazado_132671" data-name="Trazado 132671" d="M337.282,149.056l3.337,1.153a45.514,45.514,0,0,1,1.8-5.41,15.592,15.592,0,0,0,3.409-5.123c1.331-3.129,1.433-6.948-.221-7.622l-6.925,2.383-2.355,3.613Z" transform="translate(-193.36 -75.919)" fill="#d7b2a0"/>
        <path id="Trazado_132672" data-name="Trazado 132672" d="M411.67,104.221a8.484,8.484,0,0,1,8.825,1,19.826,19.826,0,0,1,7.15,9.026l5.658-7.685a27.969,27.969,0,0,1-10.631-4.164,8.732,8.732,0,0,1-3.868-7.93Z" transform="translate(-236.674 -54.31)" fill="#ffa726"/>
        <path id="Trazado_132673" data-name="Trazado 132673" d="M447.065,135.958l16.923-23.651a18.892,18.892,0,0,0-16.923,23.651" transform="translate(-256.656 -64.567)" fill="#ffd54f"/>
        <path id="Trazado_132674" data-name="Trazado 132674" d="M322.85,45.576l19.495-27.245S378.077,36.5,365.635,55.574s-42.785-10-42.785-10" transform="translate(-185.61 -10.539)" fill="#ffd54f"/>
        <path id="Trazado_132675" data-name="Trazado 132675" d="M333.944,114.3a25.612,25.612,0,0,1-7.7-1.189c-5.807-1.847-9.786-5.586-10.916-10.257-2.125-8.767,4.366-12.924,8.1-13.9a1.526,1.526,0,0,1,.774,2.953c-.808.218-7.817,2.347-5.9,10.226,1.2,4.944,6.075,7.176,8.876,8.067,5.777,1.839,12.447,1.215,15.507-1.453,4.34-3.783,3.418-7.278,3.375-7.425a1.519,1.519,0,0,1,1-1.9,1.537,1.537,0,0,1,1.917,1.011c.068.221,1.624,5.465-4.289,10.618-2.436,2.122-6.419,3.25-10.738,3.25" transform="translate(-181.044 -51.113)" fill="#ffa726"/>
        <path id="Trazado_132676" data-name="Trazado 132676" d="M398.933,32.3a1.527,1.527,0,0,1-.1-3.05c.132-.013,3.728-.412,5.692-5.825,1.348-3.723-.14-9.717-3.545-14.251-1.832-2.439-5.764-6.478-11.516-6.1a7.437,7.437,0,0,0-5.484,2.44c-2.219,2.653-1.832,6.7-1.828,6.743a1.525,1.525,0,1,1-3.031.343c-.025-.217-.565-5.357,2.517-9.044A10.364,10.364,0,0,1,389.263.03c5.254-.346,10.41,2.322,14.155,7.312,4.043,5.385,5.679,12.427,3.975,17.125-2.678,7.373-8.128,7.814-8.357,7.83Z" transform="translate(-217.931 0)" fill="#ffa726"/>
        <path id="Trazado_132677" data-name="Trazado 132677" d="M362.547,18.331,357.99,24.7c5.539,3.17,32.387,19.535,23.108,33.763a10.992,10.992,0,0,1-2.874,3.027,13.5,13.5,0,0,0,7.613-5.915C398.28,36.5,362.547,18.331,362.547,18.331" transform="translate(-205.813 -10.539)" fill="#ffa726"/>
        <path id="Trazado_132678" data-name="Trazado 132678" d="M454.035,119.74q-.593.766-1.075,1.539c3.184-4.031,10.8-3.405,10.8-3.405l3.983-5.566a18.831,18.831,0,0,0-13.709,7.433" transform="translate(-260.412 -64.567)" fill="#ffa726"/>
        <path id="Trazado_132679" data-name="Trazado 132679" d="M329.97,59.387a.572.572,0,0,1-.463-.905l11.252-15.725a.572.572,0,1,1,.931.666L330.437,59.147a.573.573,0,0,1-.468.239" transform="translate(-189.376 -24.443)" fill="#f7efdb"/>
        <path id="Trazado_132680" data-name="Trazado 132680" d="M336.09,73.379a.572.572,0,0,1-.463-.906l4.221-5.9a.572.572,0,0,1,.931.667l-4.221,5.9a.573.573,0,0,1-.468.239" transform="translate(-192.895 -38.138)" fill="#f7efdb"/>
        <path id="Trazado_132681" data-name="Trazado 132681" d="M378.95,109.78c-5.658,0-12.753-3.877-13.131-4.087a.572.572,0,1,1,.553-1c.111.062,11.3,6.179,16.153,3.078a.572.572,0,1,1,.616.964,7.707,7.707,0,0,1-4.191,1.046" transform="translate(-210.143 -60.148)" fill="#f7efdb"/>
        <path id="Trazado_132682" data-name="Trazado 132682" d="M450.764,144.356a.583.583,0,0,1-.336-.107.575.575,0,0,1-.132-.8l5.4-7.552a.574.574,0,0,1,.8-.133.568.568,0,0,1,.132.8l-5.4,7.553a.566.566,0,0,1-.463.239" transform="translate(-258.82 -77.992)" fill="#f7efdb"/>
        <path id="Trazado_132683" data-name="Trazado 132683" d="M320.569,118.21a.571.571,0,0,1-.4-.159c-.2-.2-5.016-4.919-2.721-11.214a.572.572,0,1,1,1.075.392c-2.036,5.584,2.257,9.82,2.44,10a.572.572,0,0,1,.013.809.563.563,0,0,1-.412.175" transform="translate(-182.151 -61.205)" fill="#f7efdb"/>
        <path id="Trazado_132684" data-name="Trazado 132684" d="M321.83,97.683a.567.567,0,0,1-.332-.107.575.575,0,0,1-.132-.8,10.07,10.07,0,0,1,3.269-2.951.572.572,0,1,1,.455,1.05,9.106,9.106,0,0,0-2.793,2.567.573.573,0,0,1-.468.239" transform="translate(-184.696 -53.915)" fill="#f7efdb"/>
        <path id="Trazado_132685" data-name="Trazado 132685" d="M383.236,9.464a.573.573,0,0,1-.548-.737,8.691,8.691,0,0,1,6.529-5.783.572.572,0,1,1,.2,1.126,7.541,7.541,0,0,0-5.637,4.988.574.574,0,0,1-.548.406" transform="translate(-219.998 -1.687)" fill="#f7efdb"/>
        <path id="Trazado_132686" data-name="Trazado 132686" d="M326.089,144.284a33.162,33.162,0,0,0,1.683-4.929c-.055-1.391-1.781-3.4-2.138-6.691-.323-2.952,1.73-6.635,2.925-6.221,1.509.523.145,3.927.217,5.156s2.746,2.495,3.8,4.616a6.592,6.592,0,0,1,.582,4.124l-2.049,5.473Z" transform="translate(-187.191 -72.675)" fill="#d7b2a0"/>
        <path id="Trazado_132687" data-name="Trazado 132687" d="M337.251,133.626c1.131.318,1.645-1.565,2.4-3.121.676-1.384,1.866-2.95.846-3.566-1.05-.631-2.7.079-3.609,2.334-.752,1.877-.837,4.015.361,4.352" transform="translate(-193.363 -72.853)" fill="#d7b2a0"/>
        <path id="Trazado_132688" data-name="Trazado 132688" d="M350.313,137.707c1,.281,1.454-1.385,2.125-2.761.6-1.224,1.654-2.61.744-3.155-.927-.559-2.385.07-3.188,2.066-.667,1.661-.744,3.553.319,3.851" transform="translate(-200.932 -75.656)" fill="#d7b2a0"/>
        <path id="Trazado_132689" data-name="Trazado 132689" d="M343.541,135.879c1.195.335,1.739-1.654,2.538-3.3.714-1.463,1.977-3.119.893-3.77-1.105-.667-2.852.083-3.809,2.468-.8,1.984-.888,4.245.378,4.6" transform="translate(-196.95 -73.92)" fill="#d7b2a0"/>
        <path id="Trazado_132690" data-name="Trazado 132690" d="M219.04,182.277c12.2,2.388,28.256,6.766,28.256,6.766s11.409-16.982,14.993-24.013a35.961,35.961,0,0,1,13.531,4.643s-9.82,35.533-21.093,39.4c-8.889,3.051-32.239-1.194-32.239-1.194Z" transform="translate(-125.929 -94.878)" fill="#ffd54f"/>
        <path id="Trazado_132691" data-name="Trazado 132691" d="M249.5,210.072a151.021,151.021,0,0,1-22.857-2.311.329.329,0,0,1,.119-.647c.234.042,23.367,4.195,32.073,1.206,10.508-3.606,19.937-35.85,20.817-38.944a36.057,36.057,0,0,0-13.182-4.465.328.328,0,1,1,.068-.653,36.654,36.654,0,0,1,13.675,4.693.333.333,0,0,1,.14.366c-.4,1.458-10,35.744-21.305,39.626a31.506,31.506,0,0,1-9.547,1.13" transform="translate(-130.146 -94.432)" fill="#8ba3a0"/>
        <path id="Trazado_132692" data-name="Trazado 132692" d="M121.784,204.367s-8.225,3.6-12.6,7.187c0,0,1.59,10.083,3.579,27.2s-1.892,36.739,1.552,41.589c2.244,3.164,9.416,2.28,16.846-1.435,4.833-2.416,11.188-7.518,16.761-9.508s13.4-2.919,14.857-4.909,0-10.083-.663-18.308-1.058-18.176-2.121-25.606a168.932,168.932,0,0,0-4.111-18.043s-9.4-1.755-13.658-2.27Z" transform="translate(-62.769 -115.133)" fill="#ffd54f"/>
        <path id="Trazado_132693" data-name="Trazado 132693" d="M229.972,285.706a.329.329,0,0,1-.264-.523c1-1.364.489-6.164-.1-11.722-.221-2.063-.446-4.2-.625-6.365-.208-2.582-.383-5.274-.574-8.123-.4-6.084-.82-12.376-1.543-17.462-.191-1.323-.459-2.844-.795-4.522a.325.325,0,0,1,.255-.387.33.33,0,0,1,.387.257c.34,1.689.612,3.223.8,4.558.727,5.111,1.148,11.415,1.547,17.512.191,2.847.37,5.536.578,8.114.174,2.16.4,4.289.621,6.348.629,5.929,1.131,10.612-.021,12.18a.33.33,0,0,1-.268.134" transform="translate(-129.966 -136.022)" fill="#8ba3a0"/>
        <path id="Trazado_132694" data-name="Trazado 132694" d="M113.732,123.4c-.344-3.269,1.131-6.339,3.184-7.252,1.467-.653,2.861-.144,4.357.6,1.671.826,13.08-.409,14.045,1.139s-2.806,5.162-2.253,6.855c.714,2.191-5.173,2.842-4.667,5.068.37,1.652.663,3.457-.149,4.849-.85,1.452,1.1,10.249-.689,9.781,0,0-5.917,1.285-10.819-10.041a41.448,41.448,0,0,1-3.01-10.993" transform="translate(-65.357 -66.603)" fill="#ad684f"/>
        <path id="Trazado_132695" data-name="Trazado 132695" d="M160.736,200.352c.888.86-1.024,4.906-8.289,6.067s-14.615-1.5-13.718-2.473,4.485-2.57,10.092-3.722c6.636-1.362,11.38-.389,11.915.127" transform="translate(-79.714 -114.713)" fill="#ce9f8b"/>
        <path id="Trazado_132696" data-name="Trazado 132696" d="M152.741,183.374a13.1,13.1,0,0,0,6.079-2.779c-1.938-2.7-1.492-8.693-1.492-8.693l-13.416-7.341-3.9-.1c3.307,11.9,2.423,18.455,2.423,18.455s5.722,1.418,10.308.459" transform="translate(-80.493 -94.55)" fill="#ce9f8b"/>
        <path id="Trazado_132697" data-name="Trazado 132697" d="M142.471,178.323a66.546,66.546,0,0,0-2.461-13.863l3.9.1,13.416,7.341s-.34,4.593.876,7.549a17.131,17.131,0,0,1,1.743.228c-.225.772-1.233,2.516-5.688,3.151-4.034.575-8.532-1.167-11.788-4.507" transform="translate(-80.493 -94.55)" fill="#ba7e7a"/>
        <path id="Trazado_132698" data-name="Trazado 132698" d="M133.222,135.438c2.606-.639,2.6-4.191,1.479-6.491,0,0,4.162-3.51,2.436-8.579,3.766-3.694,15.8-6.629,17.505.993,2.857,12.739,2.368,20.122,1.216,23.893-1.212,3.968-5.314,5.831-10.351,4.507a14.763,14.763,0,0,1-9.369-8.13c-2.483,1.1-4.778-.311-6.181-2.463-2.5-4.735,1.683-5.255,3.265-3.73" transform="translate(-74.267 -67.03)" fill="#d7b09d"/>
        <path id="Trazado_132699" data-name="Trazado 132699" d="M173.041,144.694a11.053,11.053,0,0,0-.34,2.15,6.342,6.342,0,0,0,.021,1.09,4.918,4.918,0,0,0,.111.628,5.425,5.425,0,0,0,.174.581,7.269,7.269,0,0,0,1.394,2.324,21.79,21.79,0,0,0,1.828,1.8,3.458,3.458,0,0,1,.323.336l.013.011a.34.34,0,0,1-.034-.22c-.034.19.026-.089,0,.015a1.712,1.712,0,0,1-.51.48,5.519,5.519,0,0,1-1.186.61l-.5.163-.008,0a.456.456,0,0,0-.289.588.486.486,0,0,0,.429.319,3.6,3.6,0,0,0,.646-.051,4.627,4.627,0,0,0,1.607-.575,2.777,2.777,0,0,0,.948-.895,1.371,1.371,0,0,0,.17-.5.955.955,0,0,0-.1-.489,1.255,1.255,0,0,0-.149-.225,4.093,4.093,0,0,0-.493-.5,20.858,20.858,0,0,1-1.781-1.662,7.257,7.257,0,0,1-1.254-1.871,4.381,4.381,0,0,1-.187-.528,2.441,2.441,0,0,1-.106-.464,8.3,8.3,0,0,1-.089-.94,11.626,11.626,0,0,1,.055-1.459c.047-.349.072-.548.072-.548a.4.4,0,0,0-.34-.442.383.383,0,0,0-.425.268" transform="translate(-99.28 -83.03)" fill="#c58a87"/>
        <path id="Trazado_132700" data-name="Trazado 132700" d="M136.431,164.413c.829,1.034.939,2.23.251,2.671s-1.913-.039-2.738-1.073-.935-2.23-.251-2.671,1.913.039,2.738,1.073" transform="translate(-76.604 -93.812)" fill="#bb7f7a"/>
        <path id="Trazado_132701" data-name="Trazado 132701" d="M178.358,136.983c.047.709,1.564.817,3.107,1.051,2.287.346,2.857.391,3.116-.19.123-.281.026-1.667-2.436-2.108-2.882-.515-3.834.519-3.788,1.246" transform="translate(-102.539 -77.957)" fill="#ad684f"/>
        <path id="Trazado_132702" data-name="Trazado 132702" d="M154.354,141.969c-1.526.9-2.606,1.859-3.214,1.426-.514-.366-.646-1.719,1.683-3.446,1.284-.953,3.622-1.759,4.293-.568.621,1.111-1.207,1.669-2.763,2.588" transform="translate(-86.714 -79.789)" fill="#ad684f"/>
        <path id="Trazado_132703" data-name="Trazado 132703" d="M162.984,151.254a1.15,1.15,0,1,1-1.331-1.221,1.3,1.3,0,0,1,1.331,1.221" transform="translate(-92.415 -86.249)" fill="#765856"/>
        <path id="Trazado_132704" data-name="Trazado 132704" d="M156.22,152.452a3.448,3.448,0,0,1,2.623-3.132,1.6,1.6,0,0,1,1.947,1.5,1.829,1.829,0,0,0-1.764-.481,11.277,11.277,0,0,0-2.806,2.109" transform="translate(-89.813 -85.817)" fill="#765856"/>
        <path id="Trazado_132705" data-name="Trazado 132705" d="M187.367,147.335a1.223,1.223,0,0,1-.82,1.492c-.565.088-1.122-.437-1.237-1.174a1.217,1.217,0,0,1,.816-1.492c.57-.088,1.122.437,1.241,1.173" transform="translate(-106.524 -84.025)" fill="#765856"/>
        <path id="Trazado_132706" data-name="Trazado 132706" d="M181.515,148.341a2.75,2.75,0,0,1,2.138-2.95c1.092-.242,2.062,1.086,2.028,1.713a1.918,1.918,0,0,0-1.849-.734,5,5,0,0,0-2.317,1.971" transform="translate(-104.336 -83.57)" fill="#765856"/>
        <path id="Trazado_132707" data-name="Trazado 132707" d="M122.39,102.1s1.139-6.032,6.835-7.479,11.715-.2,14.661-1.106c3.1-.95,1.024-2.59,1.024-2.59s2.151.281,2.555,1.667c.625,2.142-.8,2.843-.8,2.843a3.833,3.833,0,0,0,2.431-1.87,3.262,3.262,0,0,0-.4-2.83s4.706,1.867,5.628,5.448c.88,3.416-.587,7.667-6.746,8.767s-15.273.59-15.273.59Z" transform="translate(-70.363 -52.166)" fill="#ad684f"/>
        <path id="Trazado_132708" data-name="Trazado 132708" d="M125.568,147.542a.35.35,0,0,1-.021-.7,6.3,6.3,0,0,0,5.148-3.475.349.349,0,0,1,.629.3,6.922,6.922,0,0,1-5.734,3.871Z" transform="translate(-71.989 -82.31)" fill="#99563f"/>
        <path id="Trazado_132709" data-name="Trazado 132709" d="M132.181,153.514a.35.35,0,0,1-.068-.692,3.733,3.733,0,0,0,2.491-1.811.349.349,0,0,1,.476-.133.345.345,0,0,1,.132.476,4.446,4.446,0,0,1-2.959,2.153Z" transform="translate(-75.793 -86.715)" fill="#99563f"/>
        <path id="Trazado_132710" data-name="Trazado 132710" d="M116.369,125.935a.349.349,0,0,1-.349-.349,4.106,4.106,0,0,1,2.5-3.729.349.349,0,0,1,.264.647,3.4,3.4,0,0,0-2.062,3.081.348.348,0,0,1-.349.35" transform="translate(-66.701 -70.042)" fill="#99563f"/>
        <path id="Trazado_132711" data-name="Trazado 132711" d="M126.038,109.915l-.055,0a.347.347,0,0,1-.289-.4,7.469,7.469,0,0,1,3.851-5.372.349.349,0,1,1,.323.619,6.754,6.754,0,0,0-3.486,4.86.347.347,0,0,1-.344.3" transform="translate(-72.261 -59.848)" fill="#99563f"/>
        <path id="Trazado_132712" data-name="Trazado 132712" d="M174.689,109.028a.35.35,0,0,1-.047-.7,14.756,14.756,0,0,0,4.531-1.231,6.456,6.456,0,0,0,3.18-3.159,4.111,4.111,0,0,0-.514-4.186.349.349,0,1,1,.527-.457,4.805,4.805,0,0,1,.629,4.912,7.132,7.132,0,0,1-3.511,3.517,15.409,15.409,0,0,1-4.748,1.3Z" transform="translate(-100.23 -57.019)" fill="#99563f"/>
        <path id="Trazado_132713" data-name="Trazado 132713" d="M188.166,102.574l-.106-.017a.348.348,0,0,1-.225-.439,1.789,1.789,0,0,0-1.084-2.139.35.35,0,0,1,.225-.662,2.487,2.487,0,0,1,1.526,3.013.356.356,0,0,1-.336.244" transform="translate(-107.229 -57.088)" fill="#99563f"/>
        <path id="Trazado_132714" data-name="Trazado 132714" d="M147.542,121.522h-.008a55.833,55.833,0,0,1-5.866-.463.349.349,0,1,1,.089-.692,55.351,55.351,0,0,0,5.794.457.349.349,0,0,1-.008.7" transform="translate(-81.271 -69.198)" fill="#99563f"/>
        <path id="Trazado_132715" data-name="Trazado 132715" d="M142.882,129.4l-.094-.013a.346.346,0,0,1-.242-.431,3.924,3.924,0,0,0-.332-2.888.35.35,0,0,1,.616-.334,4.619,4.619,0,0,1,.387,3.41.348.348,0,0,1-.336.255" transform="translate(-81.737 -72.183)" fill="#99563f"/>
        <path id="Trazado_132716" data-name="Trazado 132716" d="M167.658,99.908a5.052,5.052,0,0,1-1.177-.137.35.35,0,0,1,.166-.68,4.647,4.647,0,0,0,4.591-1.55.349.349,0,0,1,.54.442,5.368,5.368,0,0,1-4.119,1.925" transform="translate(-95.559 -56.004)" fill="#99563f"/>
        <path id="Trazado_132717" data-name="Trazado 132717" d="M171.709,184.376c-.021.363.548,1.076,1.611,1.135,1.109.06,1.9-.58,1.913-.944s-.761-.05-1.739-.1-1.768-.451-1.785-.088" transform="translate(-98.717 -105.913)" fill="#bb7f7a"/>
        <path id="Trazado_132718" data-name="Trazado 132718" d="M166.22,174.952a37.453,37.453,0,0,0,4.472.132,17.372,17.372,0,0,0,3.924-.607s-.162,3-4.111,3.084a4.856,4.856,0,0,1-4.285-2.609" transform="translate(-95.562 -100.309)" fill="#765856"/>
        <path id="Trazado_132719" data-name="Trazado 132719" d="M172.044,178.346c2.279-.051,2.644-1.416,2.644-1.416a19.728,19.728,0,0,1-2.895.208,23.483,23.483,0,0,1-2.733-.1,3.219,3.219,0,0,0,2.984,1.3" transform="translate(-97.195 -101.719)" fill="#f3f1f7"/>
        <path id="Trazado_132720" data-name="Trazado 132720" d="M49.287,277.711c-7.52-4.9-5.263-16.538.4-26.2A133.737,133.737,0,0,1,61.64,234.46s5.573-7.562,11.146-3.582c4,2.857.03,17.676-5.042,28.657-5.713,12.373-11.592,20.294-18.457,18.177" transform="translate(-25.58 -132.069)" fill="#ffd54f"/>
        <path id="Trazado_132721" data-name="Trazado 132721" d="M72.214,277.727a.328.328,0,0,1-.191-.6c3.571-2.557,7.116-7.836,11.171-16.613,5.331-11.547,8.816-25.632,5.148-28.252a.329.329,0,1,1,.383-.535c4.4,3.144-.238,18.887-4.935,29.062-4.1,8.884-7.72,14.246-11.384,16.872a.32.32,0,0,1-.191.061" transform="translate(-41.327 -133.19)" fill="#8ba3a0"/>
        <path id="Trazado_132722" data-name="Trazado 132722" d="M99.43,232.259a5.115,5.115,0,0,1-10.215,0c-.289-2.2,1.352-2.667,3-5.953s7.218,3.279,7.218,5.953" transform="translate(-51.272 -129.588)" fill="#ce9f8b"/>
        <rect id="Rectángulo_54302" data-name="Rectángulo 54302" width="5.309" height="250.835" transform="translate(46.938 73.734)" fill="#69615f"/>
        <rect id="Rectángulo_54303" data-name="Rectángulo 54303" width="5.305" height="250.835" transform="translate(113.541 73.734)" fill="#69615f"/>
        <rect id="Rectángulo_54304" data-name="Rectángulo 54304" width="66.067" height="3.184" transform="translate(50.258 297.416)" fill="#69615f"/>
        <rect id="Rectángulo_54305" data-name="Rectángulo 54305" width="66.067" height="3.184" transform="translate(50.258 263.806)" fill="#69615f"/>
        <rect id="Rectángulo_54306" data-name="Rectángulo 54306" width="66.067" height="3.184" transform="translate(50.258 230.196)" fill="#69615f"/>
        <rect id="Rectángulo_54307" data-name="Rectángulo 54307" width="66.067" height="3.184" transform="translate(50.258 196.587)" fill="#69615f"/>
        <rect id="Rectángulo_54308" data-name="Rectángulo 54308" width="66.067" height="3.184" transform="translate(50.258 162.977)" fill="#69615f"/>
        <rect id="Rectángulo_54309" data-name="Rectángulo 54309" width="66.067" height="3.184" transform="translate(50.258 129.368)" fill="#69615f"/>
        <rect id="Rectángulo_54310" data-name="Rectángulo 54310" width="66.067" height="3.184" transform="translate(50.258 95.758)" fill="#69615f"/>
        <path id="Trazado_132723" data-name="Trazado 132723" d="M95.834,214.251c1.526-2.7,3.286-7.745,5.73-8.918,2.491-1.194,7.69-1.195,8,0a1.332,1.332,0,0,1-1.169,1.714s1.938,0,2.032,1.277c.128,1.745-1.964,1.93-1.964,1.93a1.045,1.045,0,0,1,.973,1.375c-.391,1.717-1.892,1.224-3.277,1.918s-2.27,5.426-5.632,6.337c-4.319,1.17-5.8-3.676-4.693-5.633" transform="translate(-54.894 -117.533)" fill="#d7b2a0"/>
        <path id="Trazado_132724" data-name="Trazado 132724" d="M114.269,210.558a.328.328,0,0,1-.068-.649,12.824,12.824,0,0,1,4.876-.253.329.329,0,0,1-.132.644,12.428,12.428,0,0,0-4.6.25Z" transform="translate(-65.507 -120.465)" fill="#ba7e7a"/>
        <path id="Trazado_132725" data-name="Trazado 132725" d="M116.476,218.417a.328.328,0,0,1-.1-.642,15.692,15.692,0,0,1,3.97-.428.328.328,0,0,1,0,.657h-.153a14.578,14.578,0,0,0-3.618.4Z" transform="translate(-66.774 -124.954)" fill="#ba7e7a"/>
        <path id="Trazado_132726" data-name="Trazado 132726" d="M91.049,313.983a.311.311,0,0,1-.162-.045.326.326,0,0,1-.119-.449,12.075,12.075,0,0,0,1.641-6.26.329.329,0,0,1,.659-.009,12.716,12.716,0,0,1-1.734,6.6.325.325,0,0,1-.285.163" transform="translate(-52.157 -176.438)" fill="#8ba3a0"/>
        <path id="Trazado_132727" data-name="Trazado 132727" d="M230.116,248.913l-.1-.017a.325.325,0,0,1-.208-.415,20.781,20.781,0,0,0,.765-7.839.329.329,0,0,1,.655-.073,20.932,20.932,0,0,1-.8,8.12.325.325,0,0,1-.31.225" transform="translate(-132.108 -138.137)" fill="#8ba3a0"/>
        <path id="Trazado_132728" data-name="Trazado 132728" d="M290.969,228.3a.328.328,0,0,1-.3-.186,19.728,19.728,0,0,0-5.79-6.766.33.33,0,0,1,.221-.6,10.666,10.666,0,0,1,5.943,2.764.33.33,0,0,1-.468.465,9.486,9.486,0,0,0-4.225-2.312,19.57,19.57,0,0,1,4.91,6.162.328.328,0,0,1-.293.471" transform="translate(-163.702 -126.91)" fill="#8ba3a0"/>
        <path id="Trazado_132729" data-name="Trazado 132729" d="M187.758,278.149a.338.338,0,0,1-.213-.078.333.333,0,0,1-.038-.463,30.259,30.259,0,0,0,5.322-9.1.329.329,0,1,1,.616.228,30.859,30.859,0,0,1-5.437,9.3.324.324,0,0,1-.251.116" transform="translate(-107.756 -154.242)" fill="#8ba3a0"/>
        <path id="Trazado_132730" data-name="Trazado 132730" d="M194.347,281.676a.317.317,0,0,1-.217-.084.326.326,0,0,1-.026-.464,14.313,14.313,0,0,0,2.806-4.7.33.33,0,0,1,.621.222,15.027,15.027,0,0,1-2.937,4.914.332.332,0,0,1-.247.108" transform="translate(-111.544 -158.799)" fill="#8ba3a0"/>
        <path id="Trazado_132731" data-name="Trazado 132731" d="M169.676,353.626a.324.324,0,0,1-.251-.117.329.329,0,0,1,.038-.463,35.163,35.163,0,0,1,22.934-8.119.328.328,0,0,1,.323.335.339.339,0,0,1-.336.323,34.528,34.528,0,0,0-22.5,7.964.331.331,0,0,1-.213.077" transform="translate(-97.36 -198.3)" fill="#8ba3a0"/>
        <path id="Trazado_132732" data-name="Trazado 132732" d="M183.037,345.4a.324.324,0,0,1-.285-.166.329.329,0,0,1,.123-.448,22.772,22.772,0,0,1,9.037-2.851.329.329,0,0,1,.064.654,22.139,22.139,0,0,0-8.778,2.768.322.322,0,0,1-.162.043" transform="translate(-105.042 -196.584)" fill="#8ba3a0"/>
        <path id="Trazado_132733" data-name="Trazado 132733" d="M335.972,140.108l-.025,0a.236.236,0,0,1-.208-.258c0-.033.34-3.337-.965-4.993a15.187,15.187,0,0,0-1.909-1.99c-.434-.386-.672-.6-.718-.848a5.821,5.821,0,0,1,.1-1.226c.115-.89.412-3.253.106-3.5a.229.229,0,0,1-.145-.295.24.24,0,0,1,.3-.146c.578.193.527,1.443.2,4a10.345,10.345,0,0,0-.111,1.079,2.667,2.667,0,0,0,.57.586,15.052,15.052,0,0,1,1.964,2.049c1.428,1.807,1.084,5.191,1.067,5.334a.235.235,0,0,1-.234.21" transform="translate(-190.949 -72.922)" fill="#ba7e7a"/>
        <path id="Trazado_132734" data-name="Trazado 132734" d="M338.389,135.456a1.822,1.822,0,0,1-.353-.039.235.235,0,0,1,.094-.46c.57.116.812.038,1.692-2.2a9.341,9.341,0,0,1,1.615-2.975.234.234,0,0,1,.332,0,.231.231,0,0,1,0,.332,9.313,9.313,0,0,0-1.509,2.814c-.735,1.874-1.114,2.53-1.87,2.53" transform="translate(-194.233 -74.572)" fill="#ba7e7a"/>
        <path id="Trazado_132735" data-name="Trazado 132735" d="M343.372,138.372a2.685,2.685,0,0,1-.315-.02c-1.484-.176-1.275-2.852-1.267-2.966a.235.235,0,0,1,.468.039c0,.024-.166,2.34.854,2.46.871.1,1.02-.213,1.79-2.136l.034-.079a17.715,17.715,0,0,1,1.547-3.1.236.236,0,0,1,.391.264,17.523,17.523,0,0,0-1.5,3.007l-.03.079c-.7,1.753-.978,2.449-1.968,2.449" transform="translate(-196.491 -76.16)" fill="#ba7e7a"/>
        <path id="Trazado_132736" data-name="Trazado 132736" d="M349.856,140.073a.9.9,0,0,1-.6-.224,2.738,2.738,0,0,1-.638-1.728.232.232,0,0,1,.225-.244.23.23,0,0,1,.242.224,2.345,2.345,0,0,0,.472,1.391.45.45,0,0,0,.361.107c.642-.074.859-.552,1.194-1.39.081-.2.166-.415.264-.627a3.412,3.412,0,0,1,.825-1.076,2.618,2.618,0,0,0,.808-1.2.233.233,0,1,1,.446.135,2.991,2.991,0,0,1-.927,1.4,3,3,0,0,0-.727.936c-.094.2-.174.407-.255.6-.319.809-.625,1.573-1.573,1.683a1.018,1.018,0,0,1-.119.007" transform="translate(-200.425 -77.693)" fill="#ba7e7a"/>
        <path id="Trazado_132737" data-name="Trazado 132737" d="M559.129,729.965s1.229,10.091.85,12.075c-.315,1.637-2.98,2.105-5.36,2.105s-3.49-1.094-3.4-1.872c.217-1.754,3.452-1.856,3.107-11.957Z" transform="translate(-316.901 -419.665)" fill="#d7b2a0"/>
        <path id="Trazado_132738" data-name="Trazado 132738" d="M554.573,753.749c3.809.208,4.906-1.734,5.22-2.814a10.454,10.454,0,0,1,.128,3.177c-.327,1.694-3.082,2.178-5.543,2.178s-3.613-1.131-3.516-1.936a3.749,3.749,0,0,1,1.339-1.965c.174.7.8,1.274,2.372,1.36" transform="translate(-316.694 -431.721)" fill="#615556"/>
        <path id="Trazado_132739" data-name="Trazado 132739" d="M497.456,733.812c1.879,11.1-10.972,8.224-10.032,10.748.837,2.258,13.777,1.28,14.551-.259a7.02,7.02,0,0,0,.74-3.185,30.823,30.823,0,0,0-.91-7.011Z" transform="translate(-280.197 -421.877)" fill="#d7b2a0"/>
        <path id="Trazado_132740" data-name="Trazado 132740" d="M493.525,751.877c-2.517.958-7.107.834-6.691,2.632.553,2.395,14.083,1.344,14.946-.171a4.94,4.94,0,0,0,.608-3.344,4.312,4.312,0,0,1-3.894,2.891c-3.1.41-4.459-1.15-4.969-2.007" transform="translate(-279.871 -431.755)" fill="#615556"/>
        <path id="Trazado_132741" data-name="Trazado 132741" d="M517.736,423.1c.276,6.087,5.258,21.3,5.628,33.015.251,7.981-1.229,36.7-2.793,51.644s-4.982,48.693-4.982,48.693-6.9.922-11.9,0c0,0-2.7-36.059-3.541-49.523s-1.892-30.884-1.892-30.884-9.7,29.062-9.7,30.353,5.479,24.408,5.479,50.053a33.96,33.96,0,0,1-11.069-.184s-4.888-14.859-8.021-23.9-6.916-23.589-6.81-28.4c.187-8.3,5.887-34.578,9.207-46.014s9.131-26.283,9.131-33.2Z" transform="translate(-269.136 -243.247)" fill="#ffa726"/>
        <path id="Trazado_132742" data-name="Trazado 132742" d="M528.6,628.354a30.428,30.428,0,0,1-5.352-.412.328.328,0,0,1-.268-.3c-.026-.36-2.712-36.215-3.541-49.527-.684-10.941-1.5-24.493-1.79-29.19-3.856,11.569-9.122,27.7-9.148,28.639,0,.2.2,1.263.48,2.728,1.365,7.206,5,26.347,5,47.325a.33.33,0,0,1-.268.323,34.638,34.638,0,0,1-11.188-.184.329.329,0,0,1,.119-.647,34.449,34.449,0,0,0,10.678.228c-.03-20.806-3.63-39.766-4.986-46.923-.349-1.838-.493-2.594-.493-2.851,0-1.307,8.723-27.477,9.718-30.457a.33.33,0,0,1,.642.084s1.054,17.419,1.892,30.883c.791,12.715,3.277,46.009,3.524,49.264a46.908,46.908,0,0,0,11.541-.047.329.329,0,0,1,.089.652,57.144,57.144,0,0,1-6.648.409" transform="translate(-288.755 -314.409)" fill="#984544"/>
        <path id="Trazado_132743" data-name="Trazado 132743" d="M527.972,523.841a.331.331,0,0,1-.332-.315l-.616-14.8-6.984-2.43a.329.329,0,1,1,.217-.621l7.2,2.5a.333.333,0,0,1,.221.3l.625,15.02a.327.327,0,0,1-.315.342Z" transform="translate(-298.849 -290.71)" fill="#984544"/>
        <path id="Trazado_132744" data-name="Trazado 132744" d="M528.222,515.038a14.426,14.426,0,0,1-6.011-1.208.326.326,0,0,1-.149-.44.332.332,0,0,1,.442-.148,14.034,14.034,0,0,0,5.717,1.139.329.329,0,1,1,0,.657" transform="translate(-300.12 -295.049)" fill="#984544"/>
        <path id="Trazado_132745" data-name="Trazado 132745" d="M528.434,470.171l-.043,0a.329.329,0,0,1-.285-.366c0-.059.718-5.969,1.879-14.555,1.156-8.563,1.322-13.993,1.326-14.047a.326.326,0,0,1,.327-.319h.008a.328.328,0,0,1,.319.338c0,.054-.17,5.515-1.331,14.116-1.16,8.581-1.87,14.487-1.879,14.546a.325.325,0,0,1-.323.289" transform="translate(-303.613 -253.468)" fill="#984544"/>
        <path id="Trazado_132746" data-name="Trazado 132746" d="M512.835,617.482a.326.326,0,0,1-.327-.319c0-.157-.489-15.847-2.342-28.123a200.585,200.585,0,0,0-4.684-22.254.317.317,0,0,1,0-.2l13.378-38.254a.329.329,0,0,1,.621.217L506.14,566.706a201.573,201.573,0,0,1,4.676,22.236c1.858,12.316,2.342,28.045,2.347,28.2a.326.326,0,0,1-.319.338Z" transform="translate(-290.599 -303.618)" fill="#984544"/>
        <path id="Trazado_132747" data-name="Trazado 132747" d="M484.253,617.833a.317.317,0,0,1-.128-.026.329.329,0,0,1-.179-.43,11.674,11.674,0,0,0,.7-6.617.329.329,0,0,1,.646-.122,12.38,12.38,0,0,1-.735,6.993.33.33,0,0,1-.3.2" transform="translate(-278.212 -350.909)" fill="#984544"/>
        <path id="Trazado_132748" data-name="Trazado 132748" d="M552.149,621.94a.322.322,0,0,1-.247-.111,9.678,9.678,0,0,1-2.287-7.846.329.329,0,0,1,.65.1,9.008,9.008,0,0,0,2.13,7.307.329.329,0,0,1-.247.546" transform="translate(-315.914 -352.827)" fill="#984544"/>
        <path id="Trazado_132749" data-name="Trazado 132749" d="M570.888,622.641a.328.328,0,0,1-.264-.524,5.389,5.389,0,0,0,.94-4.189.329.329,0,0,1,.646-.128,6.057,6.057,0,0,1-1.058,4.709.324.324,0,0,1-.264.133" transform="translate(-328.022 -355.028)" fill="#984544"/>
        <path id="Trazado_132750" data-name="Trazado 132750" d="M523.718,436.948q-1.256,0-2.572-.065c-9.365-.474-11.057-1.576-11.12-1.623a.327.327,0,0,1,.366-.543c.081.05,1.794,1.055,10.789,1.51a46.779,46.779,0,0,0,20.651-3.41.328.328,0,0,1,.438.154.332.332,0,0,1-.153.438,46.546,46.546,0,0,1-18.4,3.539" transform="translate(-293.138 -248.813)" fill="#984544"/>
        <path id="Trazado_132751" data-name="Trazado 132751" d="M581.036,229.688s2.189-1.816,6.385.362,6.984,9.217,4.565,14.7-3.158,9.573-2.049,11.7a2.527,2.527,0,0,0,2.385,1.176,2.537,2.537,0,0,1-3.056.9,3.223,3.223,0,0,1-1.858-3.028,5.361,5.361,0,0,0,1.254,4.4,3.847,3.847,0,0,0,3.834.955s-1.866,3.392-6.767,1.148-4.952-6.767-4.893-8.665.2-23.644.2-23.644" transform="translate(-333.924 -131.642)" fill="#91625c"/>
        <path id="Trazado_132752" data-name="Trazado 132752" d="M592.683,253.11l-.064-.006a.329.329,0,0,1-.259-.386,25.708,25.708,0,0,1,1.518-4.463,30.02,30.02,0,0,0,1.314-3.649,11.7,11.7,0,0,0-.578-7.071,6.349,6.349,0,0,0-5.4-4.512.329.329,0,0,1,.013-.657h.013a7.008,7.008,0,0,1,5.994,4.957,12.5,12.5,0,0,1,.6,7.444,30.661,30.661,0,0,1-1.343,3.735,25.28,25.28,0,0,0-1.479,4.342.329.329,0,0,1-.323.265" transform="translate(-338.565 -133.591)" fill="#815251"/>
        <path id="Trazado_132753" data-name="Trazado 132753" d="M592.105,284.46a.329.329,0,0,1-.327-.314,9.514,9.514,0,0,1,.7-4.009.329.329,0,0,1,.608.25,8.751,8.751,0,0,0-.65,3.728.334.334,0,0,1-.315.343Z" transform="translate(-340.215 -160.937)" fill="#815251"/>
        <path id="Trazado_132754" data-name="Trazado 132754" d="M590.014,297.16l-.081-.01c-3.188-.812-5.122-3.1-5.173-6.126a.329.329,0,0,1,.659-.011c.043,2.751,1.747,4.755,4.676,5.5a.329.329,0,0,1-.081.647" transform="translate(-336.185 -167.12)" fill="#815251"/>
        <path id="Trazado_132755" data-name="Trazado 132755" d="M594.1,238.932a.322.322,0,0,1-.293-.179,3.294,3.294,0,0,0-2.066-1.657.328.328,0,0,1,.166-.636,3.946,3.946,0,0,1,2.482,1.993.326.326,0,0,1-.14.443.344.344,0,0,1-.149.036" transform="translate(-340.057 -135.938)" fill="#815251"/>
        <path id="Trazado_132756" data-name="Trazado 132756" d="M471.406,325.044c-7.1,2.813-8.306,8.914-19.142,21.642-9.386,11.03-12.434,21.385-7.039,24.29s18.542-3.637,25.306-12.548Z" transform="translate(-254.437 -186.872)" fill="#f1e6d7"/>
        <path id="Trazado_132757" data-name="Trazado 132757" d="M528.637,321.291s5.773,2.164,10.1,4.349-1.2,15.65-2.308,24.687.735,13.464.735,13.464a60.846,60.846,0,0,1-19.92,4.242c-10.33.185-15.448-1.66-15.448-1.66s.14-7.931-.969-12.173-2.4-6.64-2.58-10.513,2.4-11.251,3.5-15.124,1.662-5.9,1.662-5.9l6.368-1.762Z" transform="translate(-286.443 -184.489)" fill="#f1e6d7"/>
        <path id="Trazado_132758" data-name="Trazado 132758" d="M566.1,442.632c-1.679,1.676-2.338,2.646-3.473,2.976s-5.441-.706-7.43-.781-5.331-.328-5.484.412,3.141.742,4.187,1.03,2.406.527,2.393.837-2.087.63-3.282,1.162-3.5,1.752-3.154,2.27c.476.723,2.984-.593,3.86-.746s2.971-.65,3.095-.317c.077.21-1.671.36-2.572.911-1.05.64-2.47,1.946-1.921,2.278s2.317-.876,3.133-1.155a10.162,10.162,0,0,1,3.133-.082,12,12,0,0,0,5.938-.026c2.7-.767,5.539-1.778,5.539-1.778Z" transform="translate(-316.033 -254.474)" fill="#d7b09d"/>
        <path id="Trazado_132759" data-name="Trazado 132759" d="M585.641,332.052c13.7,5.291,31.167,24.318,31.15,31.217-.03,10.463-22.751,24.07-28.8,23.022-6.138-1.062-5.424-7.245-4.74-8.812s13.076-15.3,13.076-15.3-9.573-4.6-14.763-10.041,2.789-15.915,4.081-20.084" transform="translate(-333.347 -190.901)" fill="#f1e6d7"/>
        <path id="Trazado_132760" data-name="Trazado 132760" d="M583.132,382.311h-.021a7.448,7.448,0,0,1-4.259-1.708.328.328,0,0,1,.468-.46,6.89,6.89,0,0,0,3.834,1.513.329.329,0,0,1-.021.656" transform="translate(-332.734 -218.491)" fill="#d5c4a8"/>
        <path id="Trazado_132761" data-name="Trazado 132761" d="M618.193,399.249a.321.321,0,0,1-.217-.081.325.325,0,0,1-.085-.381c.055-.125,1.42-3.053,6-2.807a.331.331,0,0,1,.31.346.339.339,0,0,1-.349.311,5.889,5.889,0,0,0-4.693,1.521c1.543-.492,4.68-1.015,9.62.258a.327.327,0,0,1,.238.4.332.332,0,0,1-.4.236c-7-1.8-10.223.128-10.257.148a.312.312,0,0,1-.17.049" transform="translate(-355.216 -227.645)" fill="#d5c4a8"/>
        <path id="Trazado_132762" data-name="Trazado 132762" d="M583.395,399.221a18.726,18.726,0,0,0-1.552,2.04,5.556,5.556,0,0,0,.323,5.6,6.265,6.265,0,0,0,4.366,2.707,13.593,13.593,0,0,0,3.941-.809,10.549,10.549,0,0,1-5.688-3.785,8.577,8.577,0,0,1-1.39-5.752m3.354,11.017a1.89,1.89,0,0,1-.34-.026,6.9,6.9,0,0,1-4.816-3.029,6.251,6.251,0,0,1-.336-6.22,29.813,29.813,0,0,1,2.346-3.017.338.338,0,0,1,.149-.178c3.362-4.009,9.025-10.379,10.355-11.874-2.053-1.181-12.476-7.29-17.148-12.179a.329.329,0,0,1,.476-.454c5.1,5.34,17.229,12.194,17.348,12.263a.325.325,0,0,1,.085.505c-2.937,3.294-7.771,8.77-10.661,12.216a8.478,8.478,0,0,0,1.114,6.347,10.485,10.485,0,0,0,6.448,3.783.33.33,0,0,1,.064.637,23.613,23.613,0,0,1-5.084,1.228" transform="translate(-331.649 -214.533)" fill="#d5c4a8"/>
        <path id="Trazado_132763" data-name="Trazado 132763" d="M472.036,324.071a27.154,27.154,0,0,0-.374,7.039l-7.562.536a46.246,46.246,0,0,0,.081-8.023s2.079-.182,4.081-.189a12.282,12.282,0,0,1,3.775.637" transform="translate(-266.817 -185.946)" fill="#d7b09d"/>
        <path id="Trazado_132764" data-name="Trazado 132764" d="M462.343,309.856a19.307,19.307,0,0,1-1.143-5.1c-.03-.9,1.777-.83,2.665-2.585,1.241-.88.752-2.426,1.909-2.455,1.254-.032,1.05,1.665,3.677,4.426,2.185,2.3,1.692,3.854.315,6.052s-7.422-.341-7.422-.341" transform="translate(-265.149 -172.312)" fill="#ce9f8b"/>
        <path id="Trazado_132765" data-name="Trazado 132765" d="M473.626,292.739a25.731,25.731,0,0,1-4.489,9.47c-3.218,3.842-5.726,5.713-6.67,5.644s-3.719-2.738-3.583-3.328,3.43-2.784,5.492-5.92,1.717-7.492,1.717-7.492a17.488,17.488,0,0,1,7.533,1.626" transform="translate(-263.815 -167.359)" fill="#b26062"/>
        <path id="Trazado_132766" data-name="Trazado 132766" d="M475.75,293.3h0a14.305,14.305,0,0,0,.043-2.17,14.3,14.3,0,0,1-.043,2.17m.043-2.17h0m0,0h0m0,0h0m0,0h0" transform="translate(-273.514 -167.369)" fill="#d6d1db"/>
        <path id="Trazado_132767" data-name="Trazado 132767" d="M482.645,295.06a28.986,28.986,0,0,0-6.895-1.765,14.3,14.3,0,0,0,.043-2.17h.021c1.467.31,2.869.652,4.174,1.036l-.072.034a32.766,32.766,0,0,1,3.235,1.064.28.28,0,0,0,.034.014h0l.008,0c-.111.409-.289,1.032-.548,1.786" transform="translate(-273.514 -167.369)" fill="#954c50"/>
        <path id="Trazado_132768" data-name="Trazado 132768" d="M496.584,275.659c-1.356,3.255-4.238,5.149-6.44,4.231s-2.891-4.3-1.535-7.555,4.242-5.15,6.444-4.232,2.891,4.3,1.53,7.556" transform="translate(-280.508 -154.003)" fill="#b26062"/>
        <path id="Trazado_132769" data-name="Trazado 132769" d="M425.562,224.874c4.6,1.918,17.084,13.984,27.941,18.509l-4.91,11.787c-9.267-3.861-27.737-4.319-32.953-6.493Z" transform="translate(-238.956 -129.283)" fill="#f6f6f7"/>
        <path id="Trazado_132770" data-name="Trazado 132770" d="M488.785,278.149c2.125.886,7.035-10.9,4.91-11.787-1.615-.674-3.184-1.519-3.184-1.519s1.56,2.738-.221,7.016a9.58,9.58,0,0,1-4.74,5.225,32.773,32.773,0,0,1,3.235,1.064" transform="translate(-279.148 -152.261)" fill="#b26062"/>
        <path id="Trazado_132771" data-name="Trazado 132771" d="M495.92,287.954m.026,0c1.943-.014,4.085-1.742,5.212-4.389-1.126,2.647-3.269,4.376-5.212,4.389m5.241-4.463h0a.152.152,0,0,0,.017-.037.152.152,0,0,1-.017.037m.021-.045.013-.03-.013.03m.017-.039c0-.009,0-.019.009-.028,0,.009,0,.019-.009.028m.013-.037.013-.03-.013.03m.017-.037a.087.087,0,0,0,.008-.031.087.087,0,0,1-.008.031m.013-.037.013-.031-.013.031m.017-.038c0-.011,0-.021.008-.031,0,.011,0,.021-.008.031m.013-.037.013-.032-.013.032m.013-.039.013-.032-.013.032m.017-.037.013-.034-.013.034m.013-.037.013-.035-.013.035m.013-.037.013-.036-.013.036m.013-.038.013-.037-.013.037m.013-.037c.085-.242.162-.483.225-.724-.064.241-.14.482-.225.724m.225-.726c0-.012,0-.025.008-.037,0,.012,0,.025-.008.037m.008-.037a1.136,1.136,0,0,0,.03-.113,1.106,1.106,0,0,1-.03.113m.03-.114c.026-.1.047-.2.068-.3-.021.1-.043.2-.068.3m.072-.314a.046.046,0,0,1,0-.023.046.046,0,0,0,0,.023m0-.039c0-.007,0-.014.009-.021s0,.014-.009.021m.009-.04a.025.025,0,0,0,0-.017.025.025,0,0,1,0,.017m.008-.04s0-.008,0-.012,0,.008,0,.012m.009-.038v0m.009-.037v0m0-.037v0m.009-.037v0m0-.037h0" transform="translate(-285.11 -161.835)" fill="#eeedee"/>
        <path id="Trazado_132772" data-name="Trazado 132772" d="M494.333,280.629h0a3.056,3.056,0,0,1-1.139-.217h0a.282.282,0,0,1-.034-.014.618.618,0,0,0,.238.048c.914,0,2.2-1.827,3.265-4.049a3.99,3.99,0,0,0,1,.16,1.6,1.6,0,0,0,.391-.045c1.382-.351,2.746-6.037.3-7.753l.013,0c1.543.853,2.227,3.021,1.819,5.416h0c0,.011,0,.023,0,.034v0c0,.01,0,.021-.009.031v.006c0,.01,0,.019,0,.029v.008c0,.009,0,.019-.009.028v.009c0,.008,0,.017,0,.026s0,.008,0,.012a.048.048,0,0,1,0,.024.025.025,0,0,1,0,.017v.019c0,.007,0,.014-.008.021v.015a.045.045,0,0,0,0,.023.016.016,0,0,0,0,.013c-.021.1-.043.2-.068.3h0a1.138,1.138,0,0,1-.03.113h0c0,.012,0,.025-.009.037v0c-.064.241-.14.482-.225.724l-.013.037v0l-.013.036v0l-.013.035v0l-.013.034s0,0,0,0l-.013.032v.006l-.013.032s0,0,0,.006,0,.021-.009.031a.006.006,0,0,0,0,.007l-.013.031s0,0,0,.006a.087.087,0,0,1-.009.031.006.006,0,0,0,0,.007l-.013.03a.008.008,0,0,1,0,.008c0,.009,0,.019-.009.029a.01.01,0,0,0,0,.009l-.013.03s0,.005,0,.008a.154.154,0,0,1-.017.037.515.515,0,0,1-.03.074c-1.126,2.647-3.269,4.375-5.212,4.389Z" transform="translate(-283.523 -154.51)" fill="#a55858"/>
        <path id="Trazado_132773" data-name="Trazado 132773" d="M445.43,279.175c-9.8-2.876-25.118-3.446-29.79-5.394a4.6,4.6,0,0,0,1.781.349c2.687,0,5.743-2.137,8.085-5.59,3.558,1.133,12.855,3.762,18.041,5.017a54.315,54.315,0,0,1,5.87,1.8,9.241,9.241,0,0,1-3.987,3.816" transform="translate(-238.956 -154.387)" fill="#e2e2e2"/>
        <path id="Trazado_132774" data-name="Trazado 132774" d="M489.121,289.545a.618.618,0,0,1-.238-.048,31.106,31.106,0,0,0-3.163-1.1,9.241,9.241,0,0,0,3.987-3.816c1.1.4,1.977.728,2.678.913-1.067,2.222-2.351,4.05-3.265,4.049" transform="translate(-279.246 -163.61)" fill="#a55858"/>
        <path id="Trazado_132775" data-name="Trazado 132775" d="M422.713,239.193c-2.742,6.573-8.064,10.608-11.894,9.013s-4.71-8.218-1.972-14.791,8.064-10.608,11.894-9.013,4.71,8.218,1.972,14.791" transform="translate(-234.136 -128.811)" fill="#f6f6f7"/>
        <path id="Trazado_132776" data-name="Trazado 132776" d="M412.971,248.581a4.141,4.141,0,0,1-1.6-.313c-3.541-1.477-4.3-7.754-1.683-14.023,2.236-5.369,6.219-8.99,9.539-8.99a4.127,4.127,0,0,1,1.6.313c3.235,1.348,4.145,6.693,2.3,12.381a15.619,15.619,0,0,0,.561-8.68c-1.926.354-4.017,1.975-5.7,4.417l-1.794-.678-2.806,6.733,1.743.795c-.548,2.911-.23,5.538.876,7.155a16.445,16.445,0,0,0,6.393-7.832c-2.257,5.222-6.16,8.723-9.428,8.723m9.428-8.725.038-.085-.038.085m.038-.091a.155.155,0,0,0,.017-.039.148.148,0,0,1-.017.039m.021-.041a.168.168,0,0,1,.017-.041.162.162,0,0,0-.017.041m.017-.05a.038.038,0,0,0,.008-.019.006.006,0,0,0,0-.007s0,0,0-.006a.116.116,0,0,1-.017.031m.021-.043a.165.165,0,0,1,.017-.039.165.165,0,0,0-.017.039m.017-.039h0a.158.158,0,0,1,.017-.04.158.158,0,0,0-.017.04m.021-.059a.039.039,0,0,0,.009-.02.039.039,0,0,1-.009.02m.021-.044s0-.009,0-.014,0,.009,0,.014m.017-.04a.014.014,0,0,1,0-.012.014.014,0,0,0,0,.012m.06-.15v0m.391-1.064h0m.013-.034s0-.005,0-.007,0,0,0,.007m.013-.039s0,0,0,0l0,0m.017-.052a.046.046,0,0,0,.008-.022.044.044,0,0,1-.008.022m.017-.04a.058.058,0,0,1,.008-.025.056.056,0,0,0-.008.025m.013-.039A.077.077,0,0,1,423.1,238a.077.077,0,0,0-.009.029m.013-.04.013-.038-.013.038" transform="translate(-234.638 -129.502)" fill="#e2e2e2"/>
        <path id="Trazado_132777" data-name="Trazado 132777" d="M441.7,257.026v0Zm.038-.087v0m.017-.045s0,0,0,0,0,0,0,0m.021-.043v0m.017-.04a.014.014,0,0,1,0-.012.014.014,0,0,0,0,.012m.038-.091c0-.007,0-.013,0-.02s0,.013,0,.02m.013-.039.013-.025-.013.025m.017-.039.013-.025-.013.025m.017-.037c.017-.046.034-.092.055-.138-.021.046-.038.092-.055.138m.055-.139c.14-.355.272-.709.391-1.062-.119.353-.251.707-.391,1.062m.4-1.064a.094.094,0,0,1,.009-.033.1.1,0,0,0-.009.033m.013-.04c0-.011,0-.021.008-.032,0,.011,0,.021-.008.032m.013-.036.013-.048-.013.048m.021-.07c0-.006,0-.013.008-.019s0,.012-.008.019m.017-.043a.019.019,0,0,1,0-.014.019.019,0,0,0,0,.014m.013-.043a.012.012,0,0,1,0-.011.012.012,0,0,0,0,.011m.017-.049v0" transform="translate(-253.939 -146.67)" fill="#dedddd"/>
        <path id="Trazado_132778" data-name="Trazado 132778" d="M425.12,253.118c-1.105-1.617-1.424-4.244-.876-7.155l5.543,2.527a20.9,20.9,0,0,0,1.811-3.407.038.038,0,0,1-.009.019v.009a.168.168,0,0,0-.017.041s0,0,0,0a.155.155,0,0,1-.017.039v.006l-.038.085v0a16.445,16.445,0,0,1-6.393,7.832m6.483-8.042.026-.057a.162.162,0,0,0-.017.039.014.014,0,0,0,0,.012s0,0,0,.006m.026-.057a21.428,21.428,0,0,0,1.169-3.748l-5.7-2.157c1.679-2.441,3.771-4.063,5.7-4.417a15.619,15.619,0,0,1-.561,8.68v0l-.013.038a.012.012,0,0,0,0,.011.077.077,0,0,0-.008.029.019.019,0,0,0,0,.014.057.057,0,0,0-.008.025c0,.006,0,.012-.009.019a.046.046,0,0,1-.008.022l-.013.048s0,0,0,0,0,.021-.009.032,0,0,0,.007a.094.094,0,0,0-.009.033h0c-.119.353-.251.708-.391,1.062v0c-.021.046-.038.092-.055.138a.014.014,0,0,0,0,.012l-.013.025s0,.009,0,.014l-.013.025a.039.039,0,0,1-.009.02c0,.006,0,.013,0,.02a.159.159,0,0,0-.017.04" transform="translate(-243.752 -134.931)" fill="#cacac9"/>
        <path id="Trazado_132779" data-name="Trazado 132779" d="M420.5,250.225l7.286,3.322a21.056,21.056,0,0,0,1.841-3.47,21.428,21.428,0,0,0,1.169-3.748l-7.49-2.836Z" transform="translate(-241.75 -139.986)" fill="#f5f5f6"/>
        <path id="Trazado_132780" data-name="Trazado 132780" d="M420.5,250.225l7.286,3.322a21.056,21.056,0,0,0,1.841-3.47,21.428,21.428,0,0,0,1.169-3.748l-7.49-2.836Z" transform="translate(-241.75 -139.986)" fill="#f6f6f7"/>
        <path id="Trazado_132781" data-name="Trazado 132781" d="M427.809,259.523h0l-7.269-3.315,2.648-2.32,6.194,2.769a20.86,20.86,0,0,1-1.573,2.866" transform="translate(-241.773 -145.963)" fill="#e7e5e9"/>
        <path id="Trazado_132782" data-name="Trazado 132782" d="M422.487,247.586c-.774,1.859-2.351,2.971-3.524,2.483s-1.488-2.39-.714-4.249,2.351-2.971,3.52-2.483,1.492,2.39.718,4.25" transform="translate(-240.213 -139.831)" fill="#f6f6f7"/>
        <path id="Trazado_132783" data-name="Trazado 132783" d="M490.719,263.959l-.1-.016a18.19,18.19,0,0,1-3.052-1.434.31.31,0,0,1-.106-.422.306.306,0,0,1,.421-.107,17.991,17.991,0,0,0,2.929,1.378.307.307,0,0,1-.094.6" transform="translate(-280.224 -150.591)" fill="#fff"/>
        <path id="Trazado_132784" data-name="Trazado 132784" d="M463.595,245.465a.307.307,0,0,1-.128-.028c-2.6-1.2-7.039-4.733-10.606-7.569-1.6-1.273-2.984-2.373-3.83-2.959a.306.306,0,0,1-.077-.428.309.309,0,0,1,.429-.077c.859.6,2.249,1.7,3.86,2.983,3.354,2.667,7.949,6.32,10.483,7.492a.308.308,0,0,1-.132.587" transform="translate(-258.077 -134.73)" fill="#fff"/>
        <path id="Trazado_132785" data-name="Trazado 132785" d="M467.733,310.25a.317.317,0,0,1-.225-.1.31.31,0,0,1,.013-.435c.051-.048.106-.094.157-.14.081-.073.162-.146.238-.225a12.471,12.471,0,0,0,3-4.337.308.308,0,1,1,.587.19,12.989,12.989,0,0,1-3.141,4.57c-.089.091-.183.176-.276.26-.047.043-.094.085-.14.13a.309.309,0,0,1-.213.084" transform="translate(-268.728 -175.235)" fill="#fff"/>
        <path id="Trazado_132786" data-name="Trazado 132786" d="M426,247.624l-.1-.015a.309.309,0,0,1-.2-.389c.769-2.334-.591-2.837-.6-2.842a.307.307,0,1,1,.2-.581c.021.007,1.943.713.99,3.615a.311.311,0,0,1-.293.212" transform="translate(-244.274 -140.152)" fill="#fff"/>
        <path id="Trazado_132787" data-name="Trazado 132787" d="M421.646,256.114a.308.308,0,0,1-.017-.615,1.814,1.814,0,0,0,1.339-.871.306.306,0,0,1,.421-.106.312.312,0,0,1,.106.423,2.43,2.43,0,0,1-1.832,1.169Z" transform="translate(-242.233 -146.303)" fill="#fff"/>
        <path id="Trazado_132788" data-name="Trazado 132788" d="M435.34,249.09l-.111-.021-2.925-1.141a.307.307,0,0,1-.174-.4.31.31,0,0,1,.4-.175l2.92,1.141a.308.308,0,0,1-.111.594" transform="translate(-248.424 -142.195)" fill="#fff"/>
        <path id="Trazado_132789" data-name="Trazado 132789" d="M475.762,308.494c.531-1.867,1.943-4.277,1.641-6.478-.34-2.509-2.619-6.182-3.571-5.612-1.509.9,2.019,3.659.727,6.026-.434.789-4.71,3.436-3.86,6.232,1.067,3.518,4.621,1.39,5.063-.169" transform="translate(-270.546 -170.373)" fill="#d7b09d"/>
        <path id="Trazado_132790" data-name="Trazado 132790" d="M461.333,308.808c-1.024.754.179,2.451,1.233,3.391s1.807,1.126,2.457.48-.319-1.454-1.11-2.595-1.441-2.116-2.58-1.276" transform="translate(-265.002 -177.356)" fill="#d7b09d"/>
        <path id="Trazado_132791" data-name="Trazado 132791" d="M463.768,302.736c-1.037.947.553,3.047,1.866,4.207s2.181,1.384,2.814.575-.357-1.759-1.407-3.171-2.117-2.666-3.273-1.611" transform="translate(-266.433 -173.821)" fill="#d7b09d"/>
        <path id="Trazado_132792" data-name="Trazado 132792" d="M468.443,298.111c-1.1.871.068,2.293,1.224,3.607,1.4,1.592,2.414,2.259,3.107,1.5s-.225-1.85-1.173-3.332-1.93-2.741-3.158-1.771" transform="translate(-269.06 -171.191)" fill="#d7b09d"/>
        <path id="Trazado_132793" data-name="Trazado 132793" d="M466.142,312.926a1.987,1.987,0,0,1-.978-.294.2.2,0,0,1-.077-.274.2.2,0,0,1,.276-.076,1.316,1.316,0,0,0,1.016.21.574.574,0,0,0,.349-.261c.417-.782-1.322-2.675-2.517-3.685a.2.2,0,1,1,.259-.307c.344.289,3.32,2.86,2.61,4.183a.971.971,0,0,1-.591.457,1.237,1.237,0,0,1-.349.048" transform="translate(-266.839 -177.183)" fill="#bb7f7a"/>
        <path id="Trazado_132794" data-name="Trazado 132794" d="M470.4,308.42a2.9,2.9,0,0,1-1.267-.347.2.2,0,1,1,.2-.352c.008.007,1.114.612,1.734.07a.794.794,0,0,0,.276-.581c.043-1.154-1.747-3-2.708-3.99l-.119-.122a.2.2,0,0,1,.293-.281l.115.122c1.075,1.107,2.874,2.96,2.818,4.287a1.171,1.171,0,0,1-.412.868,1.362,1.362,0,0,1-.927.327" transform="translate(-269.324 -174.058)" fill="#bb7f7a"/>
        <path id="Trazado_132795" data-name="Trazado 132795" d="M475.643,309.566a2.323,2.323,0,0,1-1.335-.583.2.2,0,1,1,.268-.3,1.808,1.808,0,0,0,1.114.478.717.717,0,0,0,.519-.263.855.855,0,0,0,.179-.771.206.206,0,0,1,.162-.234.2.2,0,0,1,.234.162,1.249,1.249,0,0,1-.272,1.111,1.124,1.124,0,0,1-.8.4Z" transform="translate(-272.647 -177.01)" fill="#bb7f7a"/>
        <path id="Trazado_132796" data-name="Trazado 132796" d="M444.9,376.683c-5.314-2.3-4.85-11.233-1.322-22.461,3.422-10.908,6.113-18.932,6.113-18.932a15.831,15.831,0,0,1,9.794.416s2.134,9.321-1.471,24.853c-2.644,11.39-7.477,18.558-13.114,16.124" transform="translate(-253.488 -192.429)" fill="#f1e6d7"/>
        <path id="Trazado_132797" data-name="Trazado 132797" d="M520.268,320.9l-3.788,1.255s1.938,5.81,11.346,6.64,16.323-5.533,16.323-5.533l-5.025-1.97Z" transform="translate(-296.93 -184.489)" fill="#ce9f8b"/>
        <path id="Trazado_132798" data-name="Trazado 132798" d="M542.869,255.414s9.892-.747,12.43-12.754c2.287-10.795-5.386-18.74-13.458-17.723,0,0-5.207-3.413-11.818,3.038s1,17.033,1,17.033Z" transform="translate(-303.166 -128.8)" fill="#91625c"/>
        <path id="Trazado_132799" data-name="Trazado 132799" d="M545.789,297.489a20.016,20.016,0,0,1,.013-16.622l-4.268-.531-10.058,10.2s-.37,5.416-2.444,6.441c0,0-.446,2.923,6.257,4.758,7.69,2.105,11.541-2.1,10.5-4.242" transform="translate(-304.143 -161.168)" fill="#ce9f8b"/>
        <path id="Trazado_132800" data-name="Trazado 132800" d="M544.247,297.97c-2.491,2.539-7.171,3.547-11.737,2.95a12.316,12.316,0,0,1-7.12-3.341l1.552-.6c2.074-1.025,2.444-6.441,2.444-6.441l10.058-10.2,4.659.466c-1.743,9.523-1.348,13.989-.608,16.122a4.128,4.128,0,0,0,.752,1.047" transform="translate(-302.053 -161.168)" fill="#bb7f7a"/>
        <path id="Trazado_132801" data-name="Trazado 132801" d="M523.24,266c1.216.588,8.744,1.478,14.223-5.184a22.952,22.952,0,0,0,4.91-11.573c.242-3.186-.3-13.54-10.542-13.215,0,0-8.315.319-11.66,12.467-3.005,10.921,1.713,16.847,3.069,17.506" transform="translate(-298.487 -135.693)" fill="#d7b09d"/>
        <path id="Trazado_132802" data-name="Trazado 132802" d="M530.735,272.242s-.17-.07-.476-.22a4.94,4.94,0,0,1-1.207-.841,2.953,2.953,0,0,1-.612-.835,2,2,0,0,1-.174-.571,1.011,1.011,0,0,1,.034-.512l.038-.1.026-.053.013-.026.008-.013,0-.006.051-.073a.951.951,0,0,1,.238-.164c.06-.025.115-.046.157-.059l.268-.079.493-.143a6.011,6.011,0,0,0,.927-.368,3.416,3.416,0,0,0,1.39-1.227,3.518,3.518,0,0,0,.485-1.561,5.68,5.68,0,0,0-.034-1.219c-.047-.3-.072-.467-.072-.467l0-.009a.148.148,0,0,1,.14-.168.174.174,0,0,1,.183.129s.042.175.119.482a6.323,6.323,0,0,1,.14,1.3,3.755,3.755,0,0,1-1.909,3.385,6.706,6.706,0,0,1-1.012.5l-.5.189-.225.085-.076.036c.008.009.1-.094.038-.024.1-.133.026-.037.047-.066h0v.017l-.009.053c0,.039-.009.091-.009.142a1.179,1.179,0,0,0,.055.332,2.031,2.031,0,0,0,.357.627,4.219,4.219,0,0,0,.918.8c.264.169.434.264.434.264a.269.269,0,0,1,.119.367.276.276,0,0,1-.349.1Z" transform="translate(-303.695 -151.507)" fill="#c58a87"/>
        <path id="Trazado_132803" data-name="Trazado 132803" d="M528.125,256.624c-.276.628-1.25-.611-3.01-1.106-1.373-.386-2.64.344-2.525-.026.1-.326.948-1.727,3.146-1.238,2.576.573,2.64,1.8,2.389,2.369" transform="translate(-300.439 -146.115)" fill="#91625c"/>
        <path id="Trazado_132804" data-name="Trazado 132804" d="M542.792,261.888c.259.535,1.841-.23,4.136.209,1.79.342,3.379,1.071,3.507.8s-1.237-2.01-4.2-2.3c-2.593-.257-3.724.7-3.439,1.3" transform="translate(-312.033 -149.791)" fill="#91625c"/>
        <path id="Trazado_132805" data-name="Trazado 132805" d="M524,263.923a1.15,1.15,0,0,0,.259,1.449c.4.217.922-.079,1.173-.662a1.144,1.144,0,0,0-.259-1.449c-.4-.218-.918.079-1.173.661" transform="translate(-301.178 -151.311)" fill="#765856"/>
        <path id="Trazado_132806" data-name="Trazado 132806" d="M525.938,265.142a2.862,2.862,0,0,0-1.471-1.705c-.867-.462-1.109.423-1.951.285a.952.952,0,0,1-.638-1.024.494.494,0,0,0,.621.284c.357-.124,1.314-.991,2.368-.459a1.973,1.973,0,0,1,1.071,2.619" transform="translate(-300.029 -150.829)" fill="#765856"/>
        <path id="Trazado_132807" data-name="Trazado 132807" d="M545.073,269.957a1.461,1.461,0,0,1,1.08-1.311c.51-.054.854.446.769,1.117a1.461,1.461,0,0,1-1.08,1.311c-.51.054-.854-.446-.769-1.116" transform="translate(-313.361 -154.445)" fill="#765856"/>
        <path id="Trazado_132808" data-name="Trazado 132808" d="M544.21,269.29a2.362,2.362,0,0,1,2.257.024c1.033.424.876,1.041,1.611,1.595a1.043,1.043,0,0,0,1.326-.2.556.556,0,0,1-.7-.338,3.751,3.751,0,0,0-1.781-2.1,1.935,1.935,0,0,0-2.712,1.02" transform="translate(-312.873 -154.098)" fill="#765856"/>
        <path id="Trazado_132809" data-name="Trazado 132809" d="M542.447,231.1c-2.529,6.053,8.621,4.931,9.841,15.01-.017,1.83-.808,3.953,1.394,4.79l3.29-2.322a16.752,16.752,0,0,0,.281-12.469c-2.6-6.448-12.055-9.366-14.806-5.009" transform="translate(-311.645 -131.674)" fill="#91625c"/>
        <path id="Trazado_132810" data-name="Trazado 132810" d="M556.97,249.568a.33.33,0,0,1-.327-.306,13.728,13.728,0,0,0-5.972-10.317c-.259-.173-.527-.337-.791-.5a11.614,11.614,0,0,1-1.917-1.369,3.7,3.7,0,0,1-1.305-3.158.335.335,0,0,1,.378-.273.327.327,0,0,1,.272.376,3.052,3.052,0,0,0,1.105,2.577,11.044,11.044,0,0,0,1.811,1.288c.272.168.544.336.808.513a14.418,14.418,0,0,1,6.27,10.82.33.33,0,0,1-.306.349Z" transform="translate(-314.261 -134.322)" fill="#815251"/>
        <path id="Trazado_132811" data-name="Trazado 132811" d="M573.19,263.822l-.076-.009a.327.327,0,0,1-.242-.4,6.639,6.639,0,0,0-1.194-5.5.329.329,0,1,1,.519-.4,7.2,7.2,0,0,1,1.314,6.059.329.329,0,0,1-.319.252" transform="translate(-328.624 -147.973)" fill="#815251"/>
        <path id="Trazado_132812" data-name="Trazado 132812" d="M578.337,244.133l-.034,0a.325.325,0,0,1-.293-.36,14,14,0,0,0-8.689-14.408.329.329,0,1,1,.247-.609,14.649,14.649,0,0,1,9.1,15.084.333.333,0,0,1-.327.3" transform="translate(-327.191 -131.499)" fill="#815251"/>
        <path id="Trazado_132813" data-name="Trazado 132813" d="M571.413,284.684a.329.329,0,0,1-.106-.641,8.9,8.9,0,0,0,5.5-5.233.326.326,0,0,1,.421-.19.33.33,0,0,1,.191.424,9.553,9.553,0,0,1-5.9,5.623Z" transform="translate(-328.322 -160.17)" fill="#815251"/>
        <path id="Trazado_132814" data-name="Trazado 132814" d="M564.405,233.021a.328.328,0,0,1-.255-.123,10.161,10.161,0,0,0-7.035-3.7.329.329,0,1,1,.047-.655,10.817,10.817,0,0,1,7.5,3.943.328.328,0,0,1-.047.462.34.34,0,0,1-.208.073" transform="translate(-320.115 -131.392)" fill="#815251"/>
        <path id="Trazado_132815" data-name="Trazado 132815" d="M529.215,238.6l-.064-.006a.331.331,0,0,1-.259-.387,5.885,5.885,0,0,1,5.271-4.583.335.335,0,0,1,.349.308.331.331,0,0,1-.31.348,5.2,5.2,0,0,0-4.663,4.057.329.329,0,0,1-.323.264" transform="translate(-304.063 -134.312)" fill="#815251"/>
        <path id="Trazado_132816" data-name="Trazado 132816" d="M543.026,229.7a.327.327,0,0,1-.2-.07,2.673,2.673,0,0,0-2.593-.361.328.328,0,0,1-.247-.608,3.307,3.307,0,0,1,3.248.452.329.329,0,0,1-.2.587" transform="translate(-310.324 -131.323)" fill="#815251"/>
        <path id="Trazado_132817" data-name="Trazado 132817" d="M583.1,257.851a.321.321,0,0,1-.132-.028.326.326,0,0,1-.166-.434,10.734,10.734,0,0,0-.553-9.663.331.331,0,0,1,.119-.45.325.325,0,0,1,.446.116,11.387,11.387,0,0,1,.587,10.264.33.33,0,0,1-.3.195" transform="translate(-334.718 -142.136)" fill="#815251"/>
        <path id="Trazado_132818" data-name="Trazado 132818" d="M566.11,277.089s2.508-3.145,4.157-.806c1.433,2.031-2.712,7.392-6.227,4.642Z" transform="translate(-324.273 -158.341)" fill="#d7b09d"/>
        <path id="Trazado_132819" data-name="Trazado 132819" d="M571.42,281.576c-.765.768-1.717.906-2,.444s.115-1.458.88-2.226,1.611-1.016,1.892-.554a2.346,2.346,0,0,1-.769,2.336" transform="translate(-327.313 -160.405)" fill="#bb7f7a"/>
        <path id="Trazado_132820" data-name="Trazado 132820" d="M537.352,286.96a28.179,28.179,0,0,1-4.153,1.192,12.841,12.841,0,0,1-3.809.159,3.746,3.746,0,0,0,4.557,2.838c2.814-.607,3.4-4.19,3.4-4.19" transform="translate(-304.353 -164.977)" fill="#765856"/>
        <path id="Trazado_132821" data-name="Trazado 132821" d="M536.323,290.792c-2.147.462-2.9-.449-2.9-.449a14.5,14.5,0,0,0,2.755-.412,17.542,17.542,0,0,0,2.529-.748s-.289,1.159-2.38,1.61" transform="translate(-306.669 -166.254)" fill="#f0edf3"/>
        <path id="Trazado_132822" data-name="Trazado 132822" d="M462.579,338.409a23.321,23.321,0,0,1,6.525.989,33.021,33.021,0,0,0-.459-3.886,15.561,15.561,0,0,0-9.25-.388l-1.216,3.869a15.286,15.286,0,0,1,4.4-.584m2.746,29.108a.328.328,0,0,1-.306-.448,52.113,52.113,0,0,0,2.121-7.024,72.289,72.289,0,0,0,2.006-19.95c-7.005-2.1-11.3-.292-11.346-.273a.327.327,0,0,1-.442-.4l1.462-4.67a.333.333,0,0,1,.23-.22,16.23,16.23,0,0,1,9.994.427.332.332,0,0,1,.2.234c.021.094,2.113,9.573-1.471,25a52.772,52.772,0,0,1-2.147,7.113.329.329,0,0,1-.306.21" transform="translate(-262.932 -191.99)" fill="#d5c4a8"/>
        <path id="Trazado_132823" data-name="Trazado 132823" d="M482.174,398.325l-.072-.007a.331.331,0,0,1-.251-.391c.013-.051,1.1-5.19-.106-8.5a.33.33,0,0,1,.621-.224c1.267,3.491.174,8.647.128,8.865a.329.329,0,0,1-.319.259" transform="translate(-276.95 -223.632)" fill="#d5c4a8"/>
        <path id="Trazado_132824" data-name="Trazado 132824" d="M501.354,384.9h-.009a.333.333,0,0,1-.323-.335c0-.079.128-7.935-.952-12.084-.366-1.389-.74-2.561-1.105-3.694a24.783,24.783,0,0,1-1.488-6.886c-.119-2.5.9-6.4,1.683-9.113a.329.329,0,0,1,.633.182c-.769,2.67-1.777,6.5-1.662,8.9a24.511,24.511,0,0,0,1.458,6.716c.37,1.142.748,2.323,1.114,3.73,1.105,4.237.982,11.936.978,12.262a.328.328,0,0,1-.327.323" transform="translate(-286 -202.683)" fill="#d5c4a8"/>
        <path id="Trazado_132825" data-name="Trazado 132825" d="M497.647,358.558a.33.33,0,0,1-.3-.195,6.129,6.129,0,0,1-.123-4.646.324.324,0,0,1,.421-.19.33.33,0,0,1,.191.424,5.447,5.447,0,0,0,.115,4.144.331.331,0,0,1-.17.434.306.306,0,0,1-.132.029" transform="translate(-285.63 -203.235)" fill="#d5c4a8"/>
        <path id="Trazado_132826" data-name="Trazado 132826" d="M533.612,390.441l-.115-.02a10.939,10.939,0,0,1-6.287-6.143.331.331,0,0,1,.187-.426.327.327,0,0,1,.425.185,10.265,10.265,0,0,0,5.9,5.768.328.328,0,0,1-.115.637" transform="translate(-303.087 -220.667)" fill="#d5c4a8"/>
        <path id="Trazado_132827" data-name="Trazado 132827" d="M533.266,397.824l-.064-.005a6.3,6.3,0,0,1-4.128-2.813.33.33,0,0,1,.561-.348,5.613,5.613,0,0,0,3.69,2.514.329.329,0,0,1-.06.652" transform="translate(-304.144 -226.805)" fill="#d5c4a8"/>
        <path id="Trazado_132828" data-name="Trazado 132828" d="M446.99,384.134a6.937,6.937,0,0,1-3.294-.659c-3.486-1.939-4.276-5.972-2.827-14.385,1.552-9,6.576-22.456,6.627-22.591a.329.329,0,1,1,.616.23c-.051.134-5.054,13.532-6.593,22.472-1.394,8.082-.7,11.923,2.5,13.7,3.452,1.922,15.358-.772,23.682-10.758a.329.329,0,0,1,.463-.042.333.333,0,0,1,.042.462c-6.869,8.243-15.907,11.57-21.212,11.57" transform="translate(-253.064 -199.084)" fill="#d5c4a8"/>
        <path id="Trazado_132829" data-name="Trazado 132829" d="M365.478,317.672a.919.919,0,0,1-.918-.918v-7.959a.918.918,0,1,1,1.836,0v7.959a.916.916,0,0,1-.918.918" transform="translate(-209.59 -177.002)" fill="#becac3"/>
        <path id="Trazado_132830" data-name="Trazado 132830" d="M364.08,319.075h-7.962a.919.919,0,0,1,0-1.837h7.962a.919.919,0,0,1,0,1.837" transform="translate(-204.209 -182.384)" fill="#becac3"/>
        <path id="Trazado_132831" data-name="Trazado 132831" d="M681.678,256.411a.919.919,0,0,1-.918-.919v-7.959a.918.918,0,1,1,1.836,0v7.959a.919.919,0,0,1-.918.919" transform="translate(-391.377 -141.782)" fill="#a25454"/>
        <path id="Trazado_132832" data-name="Trazado 132832" d="M680.276,257.814h-7.958a.918.918,0,0,1,0-1.837h7.958a.918.918,0,0,1,0,1.837" transform="translate(-385.996 -147.164)" fill="#a25454"/>
        <path id="Trazado_132833" data-name="Trazado 132833" d="M55.918,160.575a.919.919,0,0,1-.918-.919V151.7a.918.918,0,0,1,1.836,0v7.959a.919.919,0,0,1-.918.919" transform="translate(-31.62 -86.685)" fill="#e6cd8f"/>
        <path id="Trazado_132834" data-name="Trazado 132834" d="M54.516,161.978H46.558a.918.918,0,0,1,0-1.837h7.958a.918.918,0,0,1,0,1.837" transform="translate(-26.239 -92.067)" fill="#e6cd8f"/>
        <path id="Trazado_132835" data-name="Trazado 132835" d="M242.758,125.593a.919.919,0,0,1-.918-.918v-7.959a.918.918,0,1,1,1.836,0v7.959a.916.916,0,0,1-.918.918" transform="translate(-139.037 -66.573)" fill="#a25454"/>
        <path id="Trazado_132836" data-name="Trazado 132836" d="M241.356,127H233.4a.918.918,0,0,1,0-1.837h7.958a.918.918,0,1,1,0,1.837" transform="translate(-133.655 -71.955)" fill="#a25454"/>
        <path id="Trazado_132837" data-name="Trazado 132837" d="M496.028,55.356a.919.919,0,0,1-.918-.918V46.478a.918.918,0,0,1,1.836,0v7.959a.919.919,0,0,1-.918.918" transform="translate(-284.645 -26.193)" fill="#becac3"/>
        <path id="Trazado_132838" data-name="Trazado 132838" d="M494.626,56.758h-7.958a.919.919,0,0,1,0-1.837h7.958a.919.919,0,0,1,0,1.837" transform="translate(-279.263 -31.575)" fill="#becac3"/>
        <path id="Trazado_132839" data-name="Trazado 132839" d="M270.867,22.335a3.214,3.214,0,1,1-3.214-3.215,3.213,3.213,0,0,1,3.214,3.215" transform="translate(-152.03 -10.992)" fill="#becac3"/>
        <path id="Trazado_132840" data-name="Trazado 132840" d="M518.867,150.773a3.214,3.214,0,1,1-3.214-3.214,3.213,3.213,0,0,1,3.214,3.214" transform="translate(-294.608 -84.833)" fill="#a25454"/>
        <path id="Trazado_132841" data-name="Trazado 132841" d="M570.745,289.941A2.142,2.142,0,1,1,568.6,287.8a2.144,2.144,0,0,1,2.142,2.143" transform="translate(-325.664 -165.458)" fill="#e6cd8f"/>
        <path id="Trazado_132842" data-name="Trazado 132842" d="M27.245,75.784A2.142,2.142,0,1,1,25.1,73.641a2.141,2.141,0,0,1,2.142,2.143" transform="translate(-13.2 -42.337)" fill="#becac3"/>
        <path id="Trazado_132843" data-name="Trazado 132843" d="M736.2,319.784a2.142,2.142,0,1,1-2.142-2.143,2.141,2.141,0,0,1,2.142,2.143" transform="translate(-420.789 -182.616)" fill="#becac3"/>
        <path id="Trazado_132844" data-name="Trazado 132844" d="M143.245,30.743A2.142,2.142,0,1,1,141.1,28.6a2.141,2.141,0,0,1,2.142,2.143" transform="translate(-79.89 -16.442)" fill="#e6cd8f"/>
        <path id="Trazado_132845" data-name="Trazado 132845" d="M4.285,265.784a2.142,2.142,0,1,1-2.142-2.143,2.141,2.141,0,0,1,2.142,2.143" transform="translate(0 -151.57)" fill="#a25454"/>
        <path id="Trazado_132846" data-name="Trazado 132846" d="M634.49,93.544c0,13.721-10.474,24.843-23.4,24.843S587.7,107.265,587.7,93.544,598.174,68.7,611.093,68.7s23.4,11.123,23.4,24.843" transform="translate(-337.876 -39.497)" fill="#324700"/>
        <path id="Trazado_132847" data-name="Trazado 132847" d="M628.649,93.544c0,13.721-10.474,24.843-23.393,24.843s-23.4-11.122-23.4-24.843S592.334,68.7,605.257,68.7s23.393,11.123,23.393,24.843" transform="translate(-334.518 -39.497)" fill="#34af00"/>
        <path id="Trazado_132848" data-name="Trazado 132848" d="M631.282,104.248c0,9.349-7.137,16.929-15.941,16.929S599.4,113.6,599.4,104.248s7.137-16.928,15.941-16.928,15.941,7.579,15.941,16.928" transform="translate(-344.602 -50.201)" fill="#faf7f3"/>
        <path id="Trazado_132849" data-name="Trazado 132849" d="M634.487,117.331a6.846,6.846,0,1,1-6.831-7.255,7.054,7.054,0,0,1,6.831,7.255" transform="translate(-356.917 -63.284)" fill="#34af00"/>
        <path id="Trazado_132850" data-name="Trazado 132850" d="M685.738,117.823l-.051,0a.551.551,0,0,1-.5-.6,21.217,21.217,0,0,0-.88-7.031.549.549,0,1,1,1.054-.31,21.8,21.8,0,0,1,.922,7.439.551.551,0,0,1-.548.5" transform="translate(-393.405 -62.946)" fill="#324700"/>
        <path id="Trazado_132851" data-name="Trazado 132851" d="M653.93,83.6a.554.554,0,0,1-.48-.278,21.137,21.137,0,0,0-2.976-4.035,22,22,0,0,0-15.541-6.551.55.55,0,1,1-.047-1.1,22.7,22.7,0,0,1,16.391,6.9,22.2,22.2,0,0,1,3.129,4.244.548.548,0,0,1-.2.751.54.54,0,0,1-.272.073" transform="translate(-364.7 -41.181)" fill="#324700"/>
        <path id="Trazado_132852" data-name="Trazado 132852" d="M610.12,167.091h-.009c-9.854-.143-15.63-9.531-15.869-9.931a.551.551,0,0,1,.944-.568c.055.093,5.7,9.265,14.942,9.4a.551.551,0,0,1-.008,1.1" transform="translate(-341.592 -89.874)" fill="#324700"/>
        <path id="Trazado_132853" data-name="Trazado 132853" d="M592.981,81.062a.752.752,0,0,1-.54-.23L558.5,45.795a.755.755,0,0,1,1.084-1.051l33.939,35.037a.755.755,0,0,1-.544,1.281" transform="translate(-320.967 -25.592)" fill="#615556"/>
        <path id="Trazado_132854" data-name="Trazado 132854" d="M551.648,45.592a.783.783,0,0,1-.14-.013l-7.082-1.319a.756.756,0,0,1,.276-1.486l7.082,1.319a.755.755,0,0,1-.136,1.5" transform="translate(-312.643 -24.585)" fill="#615556"/>
        <path id="Trazado_132855" data-name="Trazado 132855" d="M556.974,52.328a.793.793,0,0,1-.157-.017l-7.163-1.531a.756.756,0,0,1,.319-1.478l7.159,1.531a.755.755,0,0,1-.157,1.494" transform="translate(-315.66 -28.335)" fill="#615556"/>
        <path id="Trazado_132856" data-name="Trazado 132856" d="M562.494,58.9a.774.774,0,0,1-.162-.017l-7.7-1.653a.755.755,0,0,1,.319-1.477l7.7,1.653a.756.756,0,0,1-.157,1.494" transform="translate(-318.523 -32.045)" fill="#615556"/>
        <path id="Trazado_132857" data-name="Trazado 132857" d="M572.613,50.725a.757.757,0,0,1-.757-.734l-.217-7.7a.753.753,0,0,1,.731-.776.762.762,0,0,1,.778.734l.217,7.7a.753.753,0,0,1-.731.777Z" transform="translate(-328.642 -23.867)" fill="#615556"/>
        <path id="Trazado_132858" data-name="Trazado 132858" d="M566.832,44.853h-.009a.755.755,0,0,1-.744-.765l.085-6.992a.759.759,0,0,1,.757-.746h.009a.758.758,0,0,1,.748.765l-.089,6.992a.753.753,0,0,1-.757.746" transform="translate(-325.446 -20.898)" fill="#615556"/>
        <path id="Trazado_132859" data-name="Trazado 132859" d="M561.226,38.479h-.021a.755.755,0,0,1-.735-.773l.157-6.577a.744.744,0,0,1,.769-.738.756.756,0,0,1,.74.773l-.157,6.577a.753.753,0,0,1-.752.738" transform="translate(-322.221 -17.472)" fill="#615556"/>
      </g>
    </g>
  </g>
</svg>
