<svg xmlns="http://www.w3.org/2000/svg" width="1444.42" height="763.652" viewBox="0 0 1444.42 763.652">
  <g id="Grupo_98366" data-name="Grupo 98366" transform="translate(-77.79 -460)">
    <line id="Línea_309" data-name="Línea 309" y2="228" transform="translate(800.333 541)" fill="none" stroke="#bf8d48" stroke-width="3"/>
    <path id="Trazado_183767" data-name="Trazado 183767" d="M46.42,0H318.58a46.5,46.5,0,0,1,0,93H46.42a46.5,46.5,0,0,1,0-93Z" transform="translate(617.333 460)" fill="#ffd54f"/>
    <text id="Implementación_de_Buenas_Prácticas_Ganaderas_en_la_Producción_Porcina" data-name="Implementación de Buenas Prácticas
 Ganaderas en la Producción Porcina" transform="translate(798.333 500)" font-size="18" font-family="Roboto-Bold, Roboto" font-weight="700"><tspan x="-150.35" y="0">Implementación de Buenas Prácticas</tspan><tspan x="-148.693" y="24" xml:space="preserve"> Ganaderas en la Producción Porcina</tspan></text>
    <text id="Se_debe_ejecutar" data-name="Se debe ejecutar" transform="translate(879.333 591)" fill="#12263f" font-size="16" font-family="Roboto-Bold, Roboto" font-weight="700"><tspan x="-60.172" y="0">Se debe ejecutar</tspan></text>
    <line id="Línea_260" data-name="Línea 260" x2="1247" transform="translate(176.833 628.5)" fill="none" stroke="#bf8d48" stroke-width="3"/>
    <line id="Línea_247" data-name="Línea 247" y2="142" transform="translate(176.333 627)" fill="none" stroke="#bf8d48" stroke-width="3"/>
    <line id="Línea_366" data-name="Línea 366" y2="221" transform="translate(176.333 794)" fill="none" stroke="#bf8d48" stroke-width="3"/>
    <line id="Línea_367" data-name="Línea 367" y2="269" transform="translate(384.333 794)" fill="none" stroke="#bf8d48" stroke-width="3"/>
    <line id="Línea_371" data-name="Línea 371" y2="242" transform="translate(1215.333 794)" fill="none" stroke="#bf8d48" stroke-width="3"/>
    <line id="Línea_370" data-name="Línea 370" y2="351" transform="translate(1004.333 794)" fill="none" stroke="#bf8d48" stroke-width="3"/>
    <line id="Línea_372" data-name="Línea 372" y2="310" transform="translate(1424.333 794)" fill="none" stroke="#bf8d48" stroke-width="3"/>
    <line id="Línea_368" data-name="Línea 368" y2="152" transform="translate(592.333 794)" fill="none" stroke="#bf8d48" stroke-width="3"/>
    <line id="Línea_369" data-name="Línea 369" y2="152" transform="translate(800.333 794)" fill="none" stroke="#bf8d48" stroke-width="3"/>
    <line id="Línea_361" data-name="Línea 361" y2="142" transform="translate(384.333 627)" fill="none" stroke="#bf8d48" stroke-width="3"/>
    <line id="Línea_362" data-name="Línea 362" y2="142" transform="translate(592.333 627)" fill="none" stroke="#bf8d48" stroke-width="3"/>
    <line id="Línea_363" data-name="Línea 363" y2="142" transform="translate(1004.333 627)" fill="none" stroke="#bf8d48" stroke-width="3"/>
    <line id="Línea_364" data-name="Línea 364" y2="142" transform="translate(1215.333 627)" fill="none" stroke="#bf8d48" stroke-width="3"/>
    <line id="Línea_365" data-name="Línea 365" y2="142" transform="translate(1423.333 627)" fill="none" stroke="#bf8d48" stroke-width="3"/>
    <path id="Trazado_183767-2" data-name="Trazado 183767" d="M25.117,0H172.376c13.872,0,25.117,16.572,25.117,37.015s-11.245,37.015-25.117,37.015H25.117C11.245,74.031,0,57.458,0,37.015S11.245,0,25.117,0Z" transform="translate(77.79 675.25)" fill="#b8ff9a"/>
    <path id="Trazado_183767-3" data-name="Trazado 183767" d="M25.117,0H172.376c13.872,0,25.117,16.572,25.117,37.015s-11.245,37.015-25.117,37.015H25.117C11.245,74.031,0,57.458,0,37.015S11.245,0,25.117,0Z" transform="translate(285.611 675.25)" fill="#b8ff9a"/>
    <path id="Trazado_183767-4" data-name="Trazado 183767" d="M25.117,0H172.376c13.872,0,25.117,16.572,25.117,37.015s-11.245,37.015-25.117,37.015H25.117C11.245,74.031,0,57.458,0,37.015S11.245,0,25.117,0Z" transform="translate(493.433 675.25)" fill="#b8ff9a"/>
    <path id="Trazado_183767-5" data-name="Trazado 183767" d="M25.117,0H172.376c13.872,0,25.117,16.572,25.117,37.015s-11.245,37.015-25.117,37.015H25.117C11.245,74.031,0,57.458,0,37.015S11.245,0,25.117,0Z" transform="translate(701.254 675.25)" fill="#b8ff9a"/>
    <path id="Trazado_183767-6" data-name="Trazado 183767" d="M25.117,0H172.376c13.872,0,25.117,16.572,25.117,37.015s-11.245,37.015-25.117,37.015H25.117C11.245,74.031,0,57.458,0,37.015S11.245,0,25.117,0Z" transform="translate(909.075 675.25)" fill="#b8ff9a"/>
    <path id="Trazado_183767-7" data-name="Trazado 183767" d="M25.117,0H172.376c13.872,0,25.117,16.572,25.117,37.015s-11.245,37.015-25.117,37.015H25.117C11.245,74.031,0,57.458,0,37.015S11.245,0,25.117,0Z" transform="translate(1116.896 675.25)" fill="#b8ff9a"/>
    <path id="Trazado_183767-8" data-name="Trazado 183767" d="M25.117,0H172.376c13.872,0,25.117,16.572,25.117,37.015s-11.245,37.015-25.117,37.015H25.117C11.245,74.031,0,57.458,0,37.015S11.245,0,25.117,0Z" transform="translate(1324.718 675.25)" fill="#b8ff9a"/>
    <text id="Inspección_de_procesos" data-name="Inspección de
procesos" transform="translate(176.333 709)" font-size="18" font-family="Roboto-Bold, Roboto" font-weight="700"><tspan x="-56.303" y="0">Inspección de</tspan><tspan x="-37.182" y="24">procesos</tspan></text>
    <text id="Formulación_y_seguimiento_de_criterios" data-name="Formulación y 
seguimiento de 
criterios" transform="translate(592.333 697)" font-size="18" font-family="Roboto-Bold, Roboto" font-weight="700"><tspan x="-59.458" y="0">Formulación y </tspan><tspan x="-64.551" y="24">seguimiento de </tspan><tspan x="-33.653" y="48">criterios</tspan></text>
    <text id="Gestión_de_la_información_" data-name="Gestión de la 
información
" transform="translate(1004.333 706)" font-size="18" font-family="Roboto-Bold, Roboto" font-weight="700"><tspan x="-55.05" y="0">Gestión de la </tspan><tspan x="-48.85" y="24">información</tspan><tspan x="0" y="48"></tspan></text>
    <text id="Formular_plan_de_mejora_" data-name="Formular
 plan de mejora
" transform="translate(1423.333 706)" font-size="18" font-family="Roboto-Bold, Roboto" font-weight="700"><tspan x="-36.532" y="0">Formular</tspan><tspan x="-62.038" y="24" xml:space="preserve"> plan de mejora</tspan><tspan x="0" y="48"></tspan></text>
    <text id="Informes" transform="translate(1215.333 718)" font-size="18" font-family="Roboto-Bold, Roboto" font-weight="700"><tspan x="-36.545" y="0">Informes</tspan></text>
    <text id="Gestión_de_calidad" data-name="Gestión de calidad" transform="translate(384.333 721)" font-size="18" font-family="Roboto-Bold, Roboto" font-weight="700"><tspan x="-74.856" y="0">Gestión de calidad</tspan></text>
    <text id="Acciones_correctivas_al_plan_de_implementación_" data-name="Acciones correctivas 
al plan de 
implementación
" transform="translate(799.333 698)" font-size="16" font-family="Roboto-Bold, Roboto" font-weight="700"><tspan x="-77.438" y="0">Acciones correctivas </tspan><tspan x="-36.613" y="21">al plan de </tspan><tspan x="-58.016" y="42">implementación</tspan><tspan x="0" y="63"></tspan></text>
    <path id="Trazado_183767-9" data-name="Trazado 183767" d="M23.4,0H160.6C173.523,0,184,16.118,184,36s-10.477,36-23.4,36H23.4C10.477,72,0,55.882,0,36S10.477,0,23.4,0Z" transform="translate(84.333 820)" fill="#e0efaa"/>
    <path id="Trazado_183767-10" data-name="Trazado 183767" d="M23.4,0H160.6C173.523,0,184,16.118,184,36s-10.477,36-23.4,36H23.4C10.477,72,0,55.882,0,36S10.477,0,23.4,0Z" transform="translate(292.333 820)" fill="#e0efaa"/>
    <path id="Trazado_183767-11" data-name="Trazado 183767" d="M23.4,0H160.6C173.523,0,184,16.118,184,36s-10.477,36-23.4,36H23.4C10.477,72,0,55.882,0,36S10.477,0,23.4,0Z" transform="translate(1123.333 820)" fill="#e0efaa"/>
    <path id="Trazado_183767-12" data-name="Trazado 183767" d="M23.4,0H160.6C173.523,0,184,16.118,184,36s-10.477,36-23.4,36H23.4C10.477,72,0,55.882,0,36S10.477,0,23.4,0Z" transform="translate(912.333 820)" fill="#e0efaa"/>
    <path id="Trazado_183767-13" data-name="Trazado 183767" d="M23.4,0H160.6C173.523,0,184,16.118,184,36s-10.477,36-23.4,36H23.4C10.477,72,0,55.882,0,36S10.477,0,23.4,0Z" transform="translate(1332.333 820)" fill="#e0efaa"/>
    <path id="Trazado_183767-14" data-name="Trazado 183767" d="M23.4,0H160.6C173.523,0,184,16.118,184,36s-10.477,36-23.4,36H23.4C10.477,72,0,55.882,0,36S10.477,0,23.4,0Z" transform="translate(500.333 820)" fill="#e0efaa"/>
    <path id="Trazado_183767-15" data-name="Trazado 183767" d="M23.4,0H160.6C173.523,0,184,16.118,184,36s-10.477,36-23.4,36H23.4C10.477,72,0,55.882,0,36S10.477,0,23.4,0Z" transform="translate(708.333 820)" fill="#e0efaa"/>
    <path id="Trazado_183767-16" data-name="Trazado 183767" d="M23.4,0H160.6C173.523,0,184,16.118,184,36s-10.477,36-23.4,36H23.4C10.477,72,0,55.882,0,36S10.477,0,23.4,0Z" transform="translate(84.333 900)" fill="#e0efaa"/>
    <path id="Trazado_183767-17" data-name="Trazado 183767" d="M23.4,0H160.6C173.523,0,184,16.118,184,36s-10.477,36-23.4,36H23.4C10.477,72,0,55.882,0,36S10.477,0,23.4,0Z" transform="translate(292.333 900)" fill="#e0efaa"/>
    <path id="Trazado_183767-18" data-name="Trazado 183767" d="M23.4,0H160.6C173.523,0,184,16.118,184,36s-10.477,36-23.4,36H23.4C10.477,72,0,55.882,0,36S10.477,0,23.4,0Z" transform="translate(1123.333 900)" fill="#e0efaa"/>
    <path id="Trazado_183767-19" data-name="Trazado 183767" d="M23.4,0H160.6C173.523,0,184,16.118,184,36s-10.477,36-23.4,36H23.4C10.477,72,0,55.882,0,36S10.477,0,23.4,0Z" transform="translate(912.333 900)" fill="#e0efaa"/>
    <path id="Trazado_183767-20" data-name="Trazado 183767" d="M23.4,0H160.6C173.523,0,184,16.118,184,36s-10.477,36-23.4,36H23.4C10.477,72,0,55.882,0,36S10.477,0,23.4,0Z" transform="translate(1332.333 900)" fill="#e0efaa"/>
    <path id="Trazado_183767-21" data-name="Trazado 183767" d="M23.4,0H160.6C173.523,0,184,16.118,184,36s-10.477,36-23.4,36H23.4C10.477,72,0,55.882,0,36S10.477,0,23.4,0Z" transform="translate(500.333 900)" fill="#e0efaa"/>
    <path id="Trazado_183767-22" data-name="Trazado 183767" d="M23.4,0H160.6C173.523,0,184,16.118,184,36s-10.477,36-23.4,36H23.4C10.477,72,0,55.882,0,36S10.477,0,23.4,0Z" transform="translate(708.333 900)" fill="#e0efaa"/>
    <path id="Trazado_183767-23" data-name="Trazado 183767" d="M23.4,0H160.6C173.523,0,184,16.118,184,36s-10.477,36-23.4,36H23.4C10.477,72,0,55.882,0,36S10.477,0,23.4,0Z" transform="translate(84.333 979)" fill="#e0efaa"/>
    <path id="Trazado_183767-24" data-name="Trazado 183767" d="M23.4,0H160.6C173.523,0,184,16.118,184,36s-10.477,36-23.4,36H23.4C10.477,72,0,55.882,0,36S10.477,0,23.4,0Z" transform="translate(292.333 979)" fill="#e0efaa"/>
    <path id="Trazado_183767-25" data-name="Trazado 183767" d="M23.4,0H160.6C173.523,0,184,16.118,184,36s-10.477,36-23.4,36H23.4C10.477,72,0,55.882,0,36S10.477,0,23.4,0Z" transform="translate(1123.333 979)" fill="#e0efaa"/>
    <path id="Trazado_183767-26" data-name="Trazado 183767" d="M23.4,0H160.6C173.523,0,184,16.118,184,36s-10.477,36-23.4,36H23.4C10.477,72,0,55.882,0,36S10.477,0,23.4,0Z" transform="translate(912.333 979)" fill="#e0efaa"/>
    <path id="Trazado_183767-27" data-name="Trazado 183767" d="M23.4,0H160.6C173.523,0,184,16.118,184,36s-10.477,36-23.4,36H23.4C10.477,72,0,55.882,0,36S10.477,0,23.4,0Z" transform="translate(1332.333 979)" fill="#e0efaa"/>
    <path id="Trazado_183767-28" data-name="Trazado 183767" d="M23.4,0H160.6C173.523,0,184,16.118,184,36s-10.477,36-23.4,36H23.4C10.477,72,0,55.882,0,36S10.477,0,23.4,0Z" transform="translate(292.333 1058)" fill="#e0efaa"/>
    <path id="Trazado_183767-29" data-name="Trazado 183767" d="M23.4,0H160.6C173.523,0,184,16.118,184,36s-10.477,36-23.4,36H23.4C10.477,72,0,55.882,0,36S10.477,0,23.4,0Z" transform="translate(912.333 1058)" fill="#e0efaa"/>
    <path id="Trazado_183767-30" data-name="Trazado 183767" d="M23.4,0H160.6C173.523,0,184,16.118,184,36s-10.477,36-23.4,36H23.4C10.477,72,0,55.882,0,36S10.477,0,23.4,0Z" transform="translate(1332.333 1058)" fill="#e0efaa"/>
    <path id="Trazado_183767-31" data-name="Trazado 183767" d="M23.4,0H160.6C173.523,0,184,19.174,184,42.826s-10.477,42.826-23.4,42.826H23.4C10.477,85.652,0,66.478,0,42.826S10.477,0,23.4,0Z" transform="translate(912.333 1138)" fill="#e0efaa"/>
    <text id="Importancia" transform="translate(176.333 861)" fill="#12263f" font-size="16" font-family="Roboto-Bold, Roboto" font-weight="700"><tspan x="-43.453" y="0">Importancia</tspan></text>
    <text id="Conceptos" transform="translate(384.333 861)" fill="#12263f" font-size="16" font-family="Roboto-Bold, Roboto" font-weight="700"><tspan x="-38.461" y="0">Conceptos</tspan></text>
    <text id="Expositivo" transform="translate(1215.333 861)" fill="#12263f" font-size="16" font-family="Roboto-Bold, Roboto" font-weight="700"><tspan x="-37.164" y="0">Expositivo</tspan></text>
    <text id="Recolección_de_datos" data-name="Recolección de datos" transform="translate(1004.333 861)" fill="#12263f" font-size="16" font-family="Roboto-Bold, Roboto" font-weight="700"><tspan x="-76.875" y="0">Recolección de datos</tspan></text>
    <text id="Conceptos-2" data-name="Conceptos" transform="translate(1424.333 861)" fill="#12263f" font-size="16" font-family="Roboto-Bold, Roboto" font-weight="700"><tspan x="-38.461" y="0">Conceptos</tspan></text>
    <text id="Contingencias" transform="translate(592.333 861)" fill="#12263f" font-size="16" font-family="Roboto-Bold, Roboto" font-weight="700"><tspan x="-51.609" y="0">Contingencias</tspan></text>
    <text id="Inmediatas" transform="translate(800.333 861)" fill="#12263f" font-size="16" font-family="Roboto-Bold, Roboto" font-weight="700"><tspan x="-40.086" y="0">Inmediatas</tspan></text>
    <text id="Componentes" transform="translate(176.333 942)" fill="#12263f" font-size="16" font-family="Roboto-Bold, Roboto" font-weight="700"><tspan x="-50.137" y="0">Componentes</tspan></text>
    <text id="Protocolos_" data-name="Protocolos " transform="translate(384.333 942)" fill="#12263f" font-size="16" font-family="Roboto-Bold, Roboto" font-weight="700"><tspan x="-41.016" y="0">Protocolos </tspan></text>
    <text id="Interpretativo" transform="translate(1215.333 942)" fill="#12263f" font-size="16" font-family="Roboto-Bold, Roboto" font-weight="700"><tspan x="-48.754" y="0">Interpretativo</tspan></text>
    <text id="Procesamiento_de_datos" data-name="Procesamiento 
de datos" transform="translate(1004.333 930)" fill="#12263f" font-size="16" font-family="Roboto-Bold, Roboto" font-weight="700"><tspan x="-56.313" y="0">Procesamiento </tspan><tspan x="-30.844" y="24">de datos</tspan></text>
    <text id="Hallazgos" transform="translate(1424.333 942)" fill="#12263f" font-size="16" font-family="Roboto-Bold, Roboto" font-weight="700"><tspan x="-35.684" y="0">Hallazgos</tspan></text>
    <text id="Acciones" transform="translate(592.333 942)" fill="#12263f" font-size="16" font-family="Roboto-Bold, Roboto" font-weight="700"><tspan x="-33.289" y="0">Acciones</tspan></text>
    <text id="Preventivas" transform="translate(800.333 942)" fill="#12263f" font-size="16" font-family="Roboto-Bold, Roboto" font-weight="700"><tspan x="-42.285" y="0">Preventivas</tspan></text>
    <text id="Metodología_e_interpretación" data-name="Metodología e 
interpretación" transform="translate(176.333 1009)" fill="#12263f" font-size="16" font-family="Roboto-Bold, Roboto" font-weight="700"><tspan x="-53.473" y="0">Metodología e </tspan><tspan x="-50.508" y="24">interpretación</tspan></text>
    <text id="Lista_de_chequeo" data-name="Lista de chequeo" transform="translate(384.333 1021)" fill="#12263f" font-size="16" font-family="Roboto-Bold, Roboto" font-weight="700"><tspan x="-61.191" y="0">Lista de chequeo</tspan></text>
    <text id="Demostrativo" transform="translate(1215.333 1021)" fill="#12263f" font-size="16" font-family="Roboto-Bold, Roboto" font-weight="700"><tspan x="-48.211" y="0">Demostrativo</tspan></text>
    <text id="Elaboración_de_informes" data-name="Elaboración de
informes" transform="translate(1004.333 1008)" fill="#12263f" font-size="16" font-family="Roboto-Bold, Roboto" font-weight="700"><tspan x="-53.148" y="0">Elaboración de</tspan><tspan x="-32.273" y="24">informes</tspan></text>
    <text id="Presentación" transform="translate(1424.333 1020)" fill="#12263f" font-size="16" font-family="Roboto-Bold, Roboto" font-weight="700"><tspan x="-47.535" y="0">Presentación</tspan></text>
    <text id="Reporte_de_fallas_y_dificultades_" data-name="Reporte de fallas
 y dificultades
" transform="translate(384.333 1088)" fill="#12263f" font-size="16" font-family="Roboto-Bold, Roboto" font-weight="700"><tspan x="-61.215" y="0">Reporte de fallas</tspan><tspan x="-50.203" y="24" xml:space="preserve"> y dificultades</tspan><tspan x="0" y="48"></tspan></text>
    <text id="Distribución_de_la_información" data-name="Distribución de
la información" transform="translate(1004.333 1088)" fill="#12263f" font-size="16" font-family="Roboto-Bold, Roboto" font-weight="700"><tspan x="-54.277" y="0">Distribución de</tspan><tspan x="-51.824" y="24">la información</tspan></text>
    <text id="Reporte_de_novedades" data-name="Reporte de novedades" transform="translate(1424.333 1100)" fill="#12263f" font-size="16" font-family="Roboto-Bold, Roboto" font-weight="700"><tspan x="-80.418" y="0">Reporte de novedades</tspan></text>
    <text id="Análisis_de_la_información_y_toma_de_decisiones" data-name="Análisis de la
información
y toma de decisiones" transform="translate(1004.333 1162)" fill="#12263f" font-size="16" font-family="Roboto-Bold, Roboto" font-weight="700"><tspan x="-47.781" y="0">Análisis de la</tspan><tspan x="-43.422" y="24">información</tspan><tspan x="-75.949" y="48">y toma de decisiones</tspan></text>
    <text id="se_contempla_" data-name="se contempla
" transform="translate(176.333 786)" font-size="18" font-family="Roboto-Bold, Roboto" font-weight="700"><tspan x="-54.532" y="0">se contempla</tspan><tspan x="0" y="24"></tspan></text>
    <text id="con_" data-name="con
" transform="translate(384.333 786)" font-size="18" font-family="Roboto-Bold, Roboto" font-weight="700"><tspan x="-14.823" y="0">con</tspan><tspan x="0" y="24"></tspan></text>
    <text id="de_forma" data-name="de forma" transform="translate(1215.333 786)" font-size="18" font-family="Roboto-Bold, Roboto" font-weight="700"><tspan x="-36.391" y="0">de forma</tspan></text>
    <text id="con_2" data-name="con
" transform="translate(1004.333 786)" font-size="18" font-family="Roboto-Bold, Roboto" font-weight="700"><tspan x="-14.823" y="0">con</tspan><tspan x="0" y="24"></tspan></text>
    <text id="generando" transform="translate(1424.333 786)" font-size="18" font-family="Roboto-Bold, Roboto" font-weight="700"><tspan x="-43.084" y="0">generando</tspan></text>
    <text id="con_3" data-name="con
" transform="translate(592.333 786)" font-size="18" font-family="Roboto-Bold, Roboto" font-weight="700"><tspan x="-14.823" y="0">con</tspan><tspan x="0" y="24"></tspan></text>
    <text id="de_" data-name="de
" transform="translate(800.333 786)" font-size="18" font-family="Roboto-Bold, Roboto" font-weight="700"><tspan x="-9.936" y="0">de</tspan><tspan x="0" y="24"></tspan></text>
  </g>
</svg>
